M48
; DRILL file {KiCad 7.0.9+1} date Fri 05 Jan 2024 05:55:16 PM CET
; FORMAT={-:-/ absolute / metric / decimal}
; #@! TF.CreationDate,2024-01-05T17:55:16+01:00
; #@! TF.GenerationSoftware,Kicad,Pcbnew,7.0.9+1
; #@! TF.FileFunction,Plated,1,4,PTH
FMAT,2
METRIC
; #@! TA.AperFunction,Plated,PTH,ViaDrill
T1C0.400
; #@! TA.AperFunction,Plated,PTH,ComponentDrill
T2C0.400
; #@! TA.AperFunction,Plated,PTH,ComponentDrill
T3C1.000
; #@! TA.AperFunction,Plated,PTH,ComponentDrill
T4C1.500
; #@! TA.AperFunction,Plated,PTH,ComponentDrill
T5C1.700
%
G90
G05
T1
X113.25Y-81.25
X113.5Y-70.75
X113.5Y-109.25
X113.75Y-68.25
X114.25Y-66.0
X114.5Y-63.0
X114.5Y-72.25
X114.5Y-74.5
X114.5Y-81.25
X115.0Y-109.25
X116.25Y-109.25
X116.75Y-61.25
X116.75Y-62.5
X116.75Y-63.75
X116.75Y-65.0
X116.75Y-66.25
X117.25Y-67.5
X117.25Y-81.0
X117.75Y-69.0
X117.75Y-71.5
X117.75Y-73.75
X117.75Y-109.25
X118.25Y-80.25
X119.25Y-109.25
X119.75Y-95.25
X119.75Y-97.25
X119.75Y-99.25
X120.0Y-73.75
X121.0Y-109.25
X121.25Y-69.0
X121.25Y-71.5
X121.5Y-80.25
X122.25Y-82.5
X122.25Y-86.75
X122.5Y-80.25
X122.5Y-84.5
X122.5Y-87.75
X122.5Y-109.25
X122.75Y-71.0
X123.0Y-90.75
X123.25Y-88.75
X123.5Y-80.0
X123.75Y-89.75
X124.0Y-109.25
X124.5Y-71.5
X124.5Y-80.0
X124.75Y-61.0
X125.0Y-62.25
X125.0Y-84.0
X125.0Y-85.25
X125.25Y-91.75
X125.5Y-109.25
X125.75Y-80.0
X125.75Y-92.75
X126.0Y-77.75
X127.0Y-80.0
X127.0Y-100.75
X127.0Y-102.0
X127.0Y-103.25
X127.0Y-104.5
X127.0Y-105.75
X127.0Y-107.0
X127.0Y-108.25
X127.0Y-109.25
X127.5Y-79.0
X128.25Y-71.5
X128.25Y-79.75
X128.25Y-100.75
X128.5Y-73.75
X129.5Y-100.75
X129.75Y-72.0
X130.0Y-65.0
X130.0Y-71.0
X130.0Y-79.0
X130.75Y-75.25
X130.75Y-100.75
X131.1Y-95.4
X131.1Y-97.3
X131.5Y-78.75
X131.5Y-91.75
X131.75Y-81.5
X131.75Y-90.7
X131.75Y-100.0
X132.25Y-87.799
X132.5Y-78.0
X132.5Y-83.5
X132.5Y-85.75
X132.5Y-99.25
X132.625Y-62.125
X132.75Y-63.0
X133.5Y-98.5
X133.6Y-86.8
X134.0Y-78.75
X134.25Y-70.0
X134.25Y-97.5
X134.4Y-86.3
X135.0Y-96.0
X135.4Y-86.7
X135.5Y-61.0
X135.5Y-79.0
X135.5Y-80.5
X136.0Y-73.5
X136.129Y-87.962
X136.6Y-98.2
X136.75Y-80.75
X136.9Y-87.5
X137.0Y-99.0
X137.0Y-100.25
X137.0Y-101.5
X137.0Y-103.0
X137.0Y-104.5
X137.0Y-106.0
X137.0Y-107.25
X137.0Y-108.75
X137.25Y-61.0
X137.5Y-66.5
X137.5Y-69.25
X137.5Y-79.0
X138.0Y-106.0
X138.0Y-108.0
X138.25Y-74.75
X138.25Y-80.75
X138.5Y-82.5
X138.9Y-99.6
X139.0Y-61.0
X139.25Y-73.25
X139.5Y-69.25
X139.75Y-80.75
X140.3Y-100.0
X140.3Y-101.2
X140.5Y-75.0
X140.5Y-85.6
X140.75Y-61.0
X141.0Y-69.25
X141.25Y-72.25
X141.25Y-80.75
X141.25Y-82.0
X141.5Y-85.7
X141.9Y-95.3
X141.9Y-96.2
X142.5Y-61.0
X142.5Y-69.25
X142.75Y-83.5
X143.0Y-81.9
X143.1Y-88.4
X143.1Y-96.4
X143.25Y-75.0
X143.25Y-98.5
X143.25Y-103.25
X143.8Y-87.1
X144.0Y-83.25
X144.25Y-61.0
X144.25Y-103.25
X144.75Y-97.25
X145.0Y-85.5
X145.5Y-82.5
X146.0Y-61.0
X146.0Y-70.5
X146.0Y-88.5
X146.0Y-100.25
X146.25Y-66.0
X146.5Y-81.25
X146.5Y-86.75
X147.0Y-79.75
X147.25Y-75.0
X147.25Y-76.75
X147.5Y-84.75
X147.5Y-100.25
X147.75Y-61.0
X147.75Y-78.25
X147.75Y-82.5
X148.0Y-103.25
X149.25Y-78.25
X149.5Y-61.0
X150.0Y-79.75
X150.25Y-72.5
X151.0Y-61.0
X151.0Y-62.75
X151.0Y-64.5
X151.0Y-66.25
X151.0Y-68.25
X151.0Y-70.0
X151.0Y-71.5
X151.0Y-73.5
X151.0Y-78.25
X151.0Y-79.75
T2
X134.5Y-90.5
X134.5Y-92.0
X134.5Y-93.5
X136.0Y-90.5
X136.0Y-92.0
X136.0Y-93.5
X137.5Y-90.5
X137.5Y-92.0
X137.5Y-93.5
T3
X116.0Y-77.38
X116.0Y-79.92
X116.0Y-82.46
X116.0Y-85.0
X116.0Y-92.3
X116.0Y-94.84
X116.0Y-97.38
X116.0Y-99.92
X116.0Y-102.46
X116.0Y-105.0
X139.17Y-64.0
X141.71Y-64.0
X144.25Y-64.0
X150.0Y-76.0
X150.0Y-84.3
X150.0Y-86.84
X150.0Y-89.38
X150.0Y-91.92
X150.0Y-94.46
X150.0Y-97.0
X150.0Y-99.54
X150.0Y-102.08
X150.0Y-104.62
X150.0Y-107.16
T4
X132.0Y-105.5
T5
X129.46Y-102.96
X129.46Y-108.04
X134.54Y-102.96
X134.54Y-108.04
T0
M30
