%TF.GenerationSoftware,KiCad,Pcbnew,7.0.9+1*%
%TF.CreationDate,2024-01-05T17:55:25+01:00*%
%TF.ProjectId,sensor,73656e73-6f72-42e6-9b69-6361645f7063,rev?*%
%TF.SameCoordinates,Original*%
%TF.FileFunction,Copper,L3,Inr*%
%TF.FilePolarity,Positive*%
%FSLAX46Y46*%
G04 Gerber Fmt 4.6, Leading zero omitted, Abs format (unit mm)*
G04 Created by KiCad (PCBNEW 7.0.9+1) date 2024-01-05 17:55:25*
%MOMM*%
%LPD*%
G01*
G04 APERTURE LIST*
%TA.AperFunction,ComponentPad*%
%ADD10C,0.800000*%
%TD*%
%TA.AperFunction,ComponentPad*%
%ADD11C,2.500000*%
%TD*%
%TA.AperFunction,ComponentPad*%
%ADD12R,1.700000X1.700000*%
%TD*%
%TA.AperFunction,ComponentPad*%
%ADD13O,1.700000X1.700000*%
%TD*%
%TA.AperFunction,ViaPad*%
%ADD14C,0.700000*%
%TD*%
G04 APERTURE END LIST*
D10*
%TO.N,GND*%
%TO.C,U601*%
X137500000Y-90500000D03*
X136000000Y-90500000D03*
X134500000Y-90500000D03*
X137500000Y-92000000D03*
X136000000Y-92000000D03*
X134500000Y-92000000D03*
X137500000Y-93500000D03*
X136000000Y-93500000D03*
X134500000Y-93500000D03*
%TD*%
D11*
%TO.N,GND*%
%TO.C,J101*%
X134540000Y-108040000D03*
X134540000Y-102960000D03*
X129460000Y-108040000D03*
X129460000Y-102960000D03*
%TD*%
D12*
%TO.N,/Microcontroller/LDO_{EN}*%
%TO.C,J202*%
X116000000Y-105000000D03*
D13*
%TO.N,GND*%
X116000000Y-102460000D03*
%TO.N,/P_{IN}/HBO-MCU*%
X116000000Y-99920000D03*
%TO.N,/P_{IN}/EH-ON*%
X116000000Y-97380000D03*
%TO.N,/P_{IN}/PWG-Vout*%
X116000000Y-94840000D03*
%TO.N,/P_{IN}/PWG-LDO*%
X116000000Y-92300000D03*
%TD*%
D12*
%TO.N,/Microcontroller/V_{DD}*%
%TO.C,J201*%
X116000000Y-85000000D03*
D13*
%TO.N,GND*%
X116000000Y-82460000D03*
X116000000Y-79920000D03*
%TO.N,/P_{IN}/LDO_{OUT}*%
X116000000Y-77380000D03*
%TD*%
D12*
%TO.N,Net-(J503-Pin_1)*%
%TO.C,J503*%
X150000000Y-76000000D03*
%TD*%
%TO.N,Net-(J402-Pin_1)*%
%TO.C,Q402*%
X139170000Y-64000000D03*
D13*
%TO.N,Net-(J401-Pin_1)*%
X141710000Y-64000000D03*
%TO.N,/Filter/In*%
X144250000Y-64000000D03*
%TD*%
D12*
%TO.N,/Microcontroller/V_{DD}*%
%TO.C,J602*%
X150000000Y-107160000D03*
D13*
%TO.N,/Microcontroller/io_p024*%
X150000000Y-104620000D03*
%TO.N,/Microcontroller/io_p025*%
X150000000Y-102080000D03*
%TO.N,/Microcontroller/io_p026*%
X150000000Y-99540000D03*
%TO.N,/Microcontroller/io_p027*%
X150000000Y-97000000D03*
%TO.N,/Microcontroller/io_p028*%
X150000000Y-94460000D03*
%TO.N,/Microcontroller/io_p029*%
X150000000Y-91920000D03*
%TO.N,/Microcontroller/io_p030*%
X150000000Y-89380000D03*
%TO.N,/Microcontroller/io_p031*%
X150000000Y-86840000D03*
%TO.N,GND*%
X150000000Y-84300000D03*
%TD*%
D14*
%TO.N,GND*%
X113500000Y-109250000D03*
X115000000Y-109250000D03*
X116250000Y-109250000D03*
X127000000Y-108250000D03*
X127000000Y-107000000D03*
X127000000Y-105750000D03*
X134250000Y-97500000D03*
X133500000Y-98500000D03*
X128250000Y-100750000D03*
X148000000Y-103250000D03*
X147500000Y-100250000D03*
X146500000Y-86750000D03*
X145000000Y-85500000D03*
X114500000Y-63000000D03*
X114250000Y-66000000D03*
X113750000Y-68250000D03*
X113500000Y-70750000D03*
X114500000Y-72250000D03*
X114500000Y-74500000D03*
X120000000Y-73750000D03*
X139250000Y-73250000D03*
X138250000Y-74750000D03*
X147250000Y-76750000D03*
X147250000Y-75000000D03*
X113250000Y-81250000D03*
X114500000Y-81250000D03*
X117250000Y-81000000D03*
X118250000Y-80250000D03*
X121500000Y-80250000D03*
X123500000Y-80000000D03*
X124500000Y-80000000D03*
X125750000Y-80000000D03*
X127000000Y-80000000D03*
X128250000Y-79750000D03*
X130000000Y-79000000D03*
X132500000Y-78000000D03*
X134000000Y-78750000D03*
X136750000Y-80750000D03*
X138250000Y-80750000D03*
X139750000Y-80750000D03*
X141250000Y-80750000D03*
X141250000Y-82000000D03*
X142750000Y-83500000D03*
X144000000Y-83250000D03*
X145500000Y-82500000D03*
X146500000Y-81250000D03*
X147000000Y-79750000D03*
X147750000Y-78250000D03*
X149250000Y-78250000D03*
X151000000Y-79750000D03*
X151000000Y-78250000D03*
X151000000Y-73500000D03*
X151000000Y-71500000D03*
X151000000Y-70000000D03*
X151000000Y-68250000D03*
X151000000Y-66250000D03*
X151000000Y-64500000D03*
X151000000Y-62750000D03*
X151000000Y-61000000D03*
X149500000Y-61000000D03*
X147750000Y-61000000D03*
X146000000Y-61000000D03*
X144250000Y-61000000D03*
X142500000Y-61000000D03*
X140750000Y-61000000D03*
X139000000Y-61000000D03*
X137250000Y-61000000D03*
X135500000Y-61000000D03*
X137000000Y-108750000D03*
X137000000Y-107250000D03*
X137000000Y-106000000D03*
X137000000Y-104500000D03*
X137000000Y-103000000D03*
X137000000Y-101500000D03*
X137000000Y-100250000D03*
X132500000Y-99250000D03*
X131750000Y-100000000D03*
X130750000Y-100750000D03*
X129500000Y-100750000D03*
X127000000Y-102000000D03*
X127000000Y-103250000D03*
X127000000Y-104500000D03*
X127000000Y-109250000D03*
X125500000Y-109250000D03*
X124000000Y-109250000D03*
X122500000Y-109250000D03*
X121000000Y-109250000D03*
X119250000Y-109250000D03*
X117750000Y-109250000D03*
X119750000Y-99250000D03*
X119750000Y-97250000D03*
X119750000Y-95250000D03*
X122500000Y-80250000D03*
X122250000Y-82500000D03*
X122500000Y-84500000D03*
X131750000Y-81500000D03*
X131500000Y-78750000D03*
X126000000Y-77750000D03*
X135500000Y-80500000D03*
X135500000Y-79000000D03*
X147500000Y-84750000D03*
X147750000Y-82500000D03*
X150000000Y-79750000D03*
X143250000Y-75000000D03*
X140500000Y-75000000D03*
X117750000Y-73750000D03*
X117750000Y-71500000D03*
X121250000Y-71500000D03*
X121250000Y-69000000D03*
X117750000Y-69000000D03*
%TO.N,/P_{IN}/HBO-MCU*%
X122250000Y-86750000D03*
%TO.N,/P_{IN}/EH-ON*%
X122500000Y-87750000D03*
%TO.N,/P_{IN}/PWG-LDO*%
X123250000Y-88750000D03*
%TO.N,/P_{IN}/PWG-Vout*%
X123750000Y-89750000D03*
%TO.N,GND*%
X138000000Y-108000000D03*
X138000000Y-106000000D03*
%TO.N,/Microcontroller/io_p025*%
X144250000Y-103250000D03*
X146000000Y-100250000D03*
%TO.N,/Microcontroller/V_{DD}*%
X125750000Y-92750000D03*
%TO.N,GND*%
X127000000Y-100750000D03*
X132500000Y-83500000D03*
X143250000Y-98500000D03*
X124750000Y-61000000D03*
X132250000Y-87798911D03*
X116750000Y-62500000D03*
X140300000Y-101200000D03*
X143100000Y-88400000D03*
X130000000Y-65000000D03*
X140300000Y-100000000D03*
X140500000Y-85600000D03*
X143800000Y-87100000D03*
X146250000Y-66000000D03*
X116750000Y-65000000D03*
X132625000Y-62125000D03*
X125000000Y-85250000D03*
X116750000Y-61250000D03*
X138500000Y-82500000D03*
X143250000Y-103250000D03*
X122750000Y-71000000D03*
X138900000Y-99600000D03*
X136600000Y-98200000D03*
X125000000Y-84000000D03*
X137000000Y-99000000D03*
X116750000Y-66250000D03*
X134250000Y-70000000D03*
X128250000Y-71500000D03*
X130000000Y-71000000D03*
X137500000Y-79000000D03*
X146000000Y-88500000D03*
X141900000Y-96200000D03*
X116750000Y-63750000D03*
X132750000Y-63000000D03*
X143100000Y-96400000D03*
X150250000Y-72500000D03*
X146000000Y-70500000D03*
%TO.N,Net-(J401-Pin_1)*%
X142500000Y-69250000D03*
X124500000Y-71500000D03*
%TO.N,/P_{IN}/LDO_{OUT}*%
X117250000Y-67500000D03*
X136000000Y-73500000D03*
X128500000Y-73750000D03*
X125000000Y-62250000D03*
%TO.N,/Microcontroller/V_{DD}*%
X141500000Y-85700000D03*
X131500000Y-91750000D03*
X125250000Y-91750000D03*
X141900000Y-95300000D03*
%TO.N,/P_{IN}/PWG-LDO*%
X132500000Y-85750000D03*
%TO.N,/P_{IN}/PWG-Vout*%
X133600000Y-86800000D03*
%TO.N,/P_{IN}/EH-ON*%
X134400000Y-86300000D03*
%TO.N,/P_{IN}/HBO-MCU*%
X135400000Y-86700000D03*
%TO.N,/Microcontroller/LDO_{EN}*%
X123000000Y-90750000D03*
X131750000Y-90700000D03*
%TO.N,/Filter/Out*%
X143000000Y-81900000D03*
X136900500Y-87500000D03*
%TO.N,/Microcontroller/V_{ref}*%
X136128979Y-87962451D03*
%TO.N,/Microcontroller/io_p024*%
X144750000Y-97250000D03*
X135000000Y-96000000D03*
%TO.N,/Microcontroller/swd_clk*%
X131100000Y-97300000D03*
X131100000Y-95400000D03*
%TO.N,/Reference/ref_1v1*%
X127500000Y-79000000D03*
%TO.N,/Reference/ref_0v5*%
X130750000Y-75250000D03*
%TO.N,Net-(JP402-A)*%
X141250000Y-72250000D03*
%TO.N,Net-(JP403-A)*%
X137500000Y-66500000D03*
X141000000Y-69250000D03*
X139500000Y-69250000D03*
%TO.N,Net-(J402-Pin_1)*%
X129750000Y-72000000D03*
X137500000Y-69250000D03*
%TD*%
%TA.AperFunction,Conductor*%
%TO.N,GND*%
G36*
X135437120Y-88465116D02*
G01*
X135478791Y-88511397D01*
X135556743Y-88597972D01*
X135556746Y-88597974D01*
X135556749Y-88597977D01*
X135701386Y-88703063D01*
X135864712Y-88775780D01*
X136039588Y-88812951D01*
X136039589Y-88812951D01*
X136218368Y-88812951D01*
X136218370Y-88812951D01*
X136393246Y-88775780D01*
X136556572Y-88703063D01*
X136701209Y-88597977D01*
X136820838Y-88465116D01*
X136858433Y-88400000D01*
X139600000Y-88400000D01*
X139600000Y-95600000D01*
X135751133Y-95600000D01*
X135691859Y-95497335D01*
X135645003Y-95445296D01*
X135572235Y-95364478D01*
X135572232Y-95364476D01*
X135572231Y-95364475D01*
X135572230Y-95364474D01*
X135427593Y-95259388D01*
X135264267Y-95186671D01*
X135264265Y-95186670D01*
X135136594Y-95159533D01*
X135089391Y-95149500D01*
X134910609Y-95149500D01*
X134879954Y-95156015D01*
X134735733Y-95186670D01*
X134735728Y-95186672D01*
X134572408Y-95259387D01*
X134427768Y-95364475D01*
X134308140Y-95497336D01*
X134248867Y-95600000D01*
X132400000Y-95600000D01*
X132400000Y-91249153D01*
X132441859Y-91202665D01*
X132531250Y-91047835D01*
X132586497Y-90877803D01*
X132605185Y-90700000D01*
X132586497Y-90522197D01*
X132531250Y-90352165D01*
X132441859Y-90197335D01*
X132400000Y-90150846D01*
X132400000Y-88400000D01*
X135399525Y-88400000D01*
X135437120Y-88465116D01*
G37*
%TD.AperFunction*%
%TD*%
%TA.AperFunction,Conductor*%
%TO.N,GND*%
G36*
X116250000Y-82024498D02*
G01*
X116142315Y-81975320D01*
X116035763Y-81960000D01*
X115964237Y-81960000D01*
X115857685Y-81975320D01*
X115750000Y-82024498D01*
X115750000Y-80355501D01*
X115857685Y-80404680D01*
X115964237Y-80420000D01*
X116035763Y-80420000D01*
X116142315Y-80404680D01*
X116250000Y-80355501D01*
X116250000Y-82024498D01*
G37*
%TD.AperFunction*%
%TA.AperFunction,Conductor*%
G36*
X151842539Y-60120185D02*
G01*
X151888294Y-60172989D01*
X151899500Y-60224500D01*
X151899500Y-109775500D01*
X151879815Y-109842539D01*
X151827011Y-109888294D01*
X151775500Y-109899500D01*
X135255326Y-109899500D01*
X135188287Y-109879815D01*
X135142532Y-109827011D01*
X135132588Y-109757853D01*
X135161613Y-109694297D01*
X135201525Y-109663780D01*
X135417446Y-109559798D01*
X135417456Y-109559791D01*
X135589167Y-109442720D01*
X134938609Y-108792161D01*
X135057431Y-108720669D01*
X135191658Y-108593523D01*
X135294861Y-108441308D01*
X135942124Y-109088571D01*
X135989974Y-109028570D01*
X136121116Y-108801426D01*
X136216941Y-108557270D01*
X136275306Y-108301550D01*
X136275307Y-108301545D01*
X136294907Y-108040004D01*
X136294907Y-108039995D01*
X136275307Y-107778454D01*
X136275306Y-107778449D01*
X136216941Y-107522729D01*
X136121116Y-107278573D01*
X136121117Y-107278573D01*
X135989971Y-107051426D01*
X135942125Y-106991427D01*
X135291232Y-107642319D01*
X135247684Y-107560178D01*
X135127991Y-107419265D01*
X134980805Y-107307377D01*
X134938596Y-107287849D01*
X135589167Y-106637278D01*
X135417447Y-106520202D01*
X135417445Y-106520201D01*
X135181142Y-106406404D01*
X135181144Y-106406404D01*
X134930505Y-106329092D01*
X134930499Y-106329090D01*
X134671151Y-106290000D01*
X134408848Y-106290000D01*
X134149500Y-106329090D01*
X134149494Y-106329092D01*
X133898858Y-106406404D01*
X133898854Y-106406405D01*
X133662550Y-106520204D01*
X133662546Y-106520206D01*
X133490832Y-106637278D01*
X134141391Y-107287837D01*
X134022569Y-107359331D01*
X133888342Y-107486477D01*
X133785138Y-107638692D01*
X133137873Y-106991427D01*
X133090029Y-107051423D01*
X132958883Y-107278573D01*
X132863058Y-107522729D01*
X132804693Y-107778449D01*
X132804692Y-107778454D01*
X132785093Y-108039995D01*
X132785093Y-108040004D01*
X132804692Y-108301545D01*
X132804693Y-108301550D01*
X132863058Y-108557270D01*
X132958883Y-108801426D01*
X132958882Y-108801426D01*
X133090030Y-109028577D01*
X133137873Y-109088571D01*
X133137874Y-109088571D01*
X133788766Y-108437679D01*
X133832316Y-108519822D01*
X133952009Y-108660735D01*
X134099195Y-108772623D01*
X134141402Y-108792150D01*
X133490831Y-109442720D01*
X133662546Y-109559793D01*
X133662550Y-109559795D01*
X133878475Y-109663780D01*
X133930334Y-109710603D01*
X133948647Y-109778030D01*
X133927599Y-109844654D01*
X133873873Y-109889322D01*
X133824673Y-109899500D01*
X130175326Y-109899500D01*
X130108287Y-109879815D01*
X130062532Y-109827011D01*
X130052588Y-109757853D01*
X130081613Y-109694297D01*
X130121525Y-109663780D01*
X130337446Y-109559798D01*
X130337456Y-109559791D01*
X130509167Y-109442720D01*
X129858609Y-108792161D01*
X129977431Y-108720669D01*
X130111658Y-108593523D01*
X130214861Y-108441308D01*
X130862124Y-109088571D01*
X130909974Y-109028570D01*
X131041116Y-108801426D01*
X131136941Y-108557270D01*
X131195306Y-108301550D01*
X131195307Y-108301545D01*
X131214907Y-108040004D01*
X131214907Y-108039995D01*
X131195307Y-107778454D01*
X131195306Y-107778449D01*
X131136941Y-107522729D01*
X131041116Y-107278573D01*
X131041117Y-107278573D01*
X130909971Y-107051426D01*
X130862125Y-106991427D01*
X130211232Y-107642319D01*
X130167684Y-107560178D01*
X130047991Y-107419265D01*
X129900805Y-107307377D01*
X129858596Y-107287849D01*
X130509167Y-106637278D01*
X130337447Y-106520202D01*
X130337445Y-106520201D01*
X130101142Y-106406404D01*
X130101144Y-106406404D01*
X129850505Y-106329092D01*
X129850499Y-106329090D01*
X129591151Y-106290000D01*
X129328848Y-106290000D01*
X129069500Y-106329090D01*
X129069494Y-106329092D01*
X128818858Y-106406404D01*
X128818854Y-106406405D01*
X128582550Y-106520204D01*
X128582546Y-106520206D01*
X128410832Y-106637278D01*
X129061391Y-107287837D01*
X128942569Y-107359331D01*
X128808342Y-107486477D01*
X128705138Y-107638692D01*
X128057873Y-106991427D01*
X128010029Y-107051423D01*
X127878883Y-107278573D01*
X127783058Y-107522729D01*
X127724693Y-107778449D01*
X127724692Y-107778454D01*
X127705093Y-108039995D01*
X127705093Y-108040004D01*
X127724692Y-108301545D01*
X127724693Y-108301550D01*
X127783058Y-108557270D01*
X127878883Y-108801426D01*
X127878882Y-108801426D01*
X128010030Y-109028577D01*
X128057873Y-109088571D01*
X128057874Y-109088571D01*
X128708766Y-108437679D01*
X128752316Y-108519822D01*
X128872009Y-108660735D01*
X129019195Y-108772623D01*
X129061402Y-108792150D01*
X128410831Y-109442720D01*
X128582546Y-109559793D01*
X128582550Y-109559795D01*
X128798475Y-109663780D01*
X128850334Y-109710603D01*
X128868647Y-109778030D01*
X128847599Y-109844654D01*
X128793873Y-109889322D01*
X128744673Y-109899500D01*
X112224500Y-109899500D01*
X112157461Y-109879815D01*
X112111706Y-109827011D01*
X112100500Y-109775500D01*
X112100500Y-99920000D01*
X114644341Y-99920000D01*
X114664936Y-100155403D01*
X114664938Y-100155413D01*
X114726094Y-100383655D01*
X114726096Y-100383659D01*
X114726097Y-100383663D01*
X114739032Y-100411402D01*
X114825965Y-100597830D01*
X114825967Y-100597834D01*
X114915112Y-100725145D01*
X114961505Y-100791401D01*
X115128599Y-100958495D01*
X115278317Y-101063329D01*
X115314594Y-101088730D01*
X115358219Y-101143307D01*
X115365413Y-101212805D01*
X115333890Y-101275160D01*
X115314595Y-101291880D01*
X115128922Y-101421890D01*
X115128920Y-101421891D01*
X114961891Y-101588920D01*
X114961886Y-101588926D01*
X114826400Y-101782420D01*
X114826399Y-101782422D01*
X114726570Y-101996507D01*
X114726567Y-101996513D01*
X114669364Y-102209999D01*
X114669364Y-102210000D01*
X115566314Y-102210000D01*
X115540507Y-102250156D01*
X115500000Y-102388111D01*
X115500000Y-102531889D01*
X115540507Y-102669844D01*
X115566314Y-102710000D01*
X114669364Y-102710000D01*
X114726567Y-102923486D01*
X114726570Y-102923492D01*
X114826399Y-103137578D01*
X114961894Y-103331082D01*
X115083946Y-103453134D01*
X115117431Y-103514457D01*
X115112447Y-103584149D01*
X115070575Y-103640082D01*
X115039598Y-103656997D01*
X114907671Y-103706202D01*
X114907664Y-103706206D01*
X114792455Y-103792452D01*
X114792452Y-103792455D01*
X114706206Y-103907664D01*
X114706202Y-103907671D01*
X114655908Y-104042517D01*
X114653671Y-104063329D01*
X114649501Y-104102123D01*
X114649500Y-104102135D01*
X114649500Y-105897870D01*
X114649501Y-105897876D01*
X114655908Y-105957483D01*
X114706202Y-106092328D01*
X114706206Y-106092335D01*
X114792452Y-106207544D01*
X114792455Y-106207547D01*
X114907664Y-106293793D01*
X114907671Y-106293797D01*
X115042517Y-106344091D01*
X115042516Y-106344091D01*
X115049444Y-106344835D01*
X115102127Y-106350500D01*
X116897872Y-106350499D01*
X116957483Y-106344091D01*
X117092331Y-106293796D01*
X117207546Y-106207546D01*
X117293796Y-106092331D01*
X117344091Y-105957483D01*
X117350500Y-105897873D01*
X117350500Y-105556330D01*
X130745710Y-105556330D01*
X130775925Y-105779387D01*
X130775926Y-105779390D01*
X130845483Y-105993465D01*
X130952146Y-106191678D01*
X130952148Y-106191681D01*
X131092489Y-106367663D01*
X131092491Y-106367664D01*
X131092492Y-106367666D01*
X131262004Y-106515765D01*
X131455236Y-106631215D01*
X131665976Y-106710307D01*
X131887450Y-106750500D01*
X131887453Y-106750500D01*
X132056148Y-106750500D01*
X132056155Y-106750500D01*
X132224188Y-106735377D01*
X132224192Y-106735376D01*
X132441160Y-106675496D01*
X132441162Y-106675495D01*
X132441170Y-106675493D01*
X132643973Y-106577829D01*
X132826078Y-106445522D01*
X132981632Y-106282825D01*
X133105635Y-106094968D01*
X133106761Y-106092335D01*
X133194100Y-105887995D01*
X133194099Y-105887995D01*
X133194103Y-105887988D01*
X133244191Y-105668537D01*
X133254290Y-105443670D01*
X133224075Y-105220613D01*
X133154517Y-105006536D01*
X133047852Y-104808319D01*
X132907508Y-104632334D01*
X132737996Y-104484235D01*
X132544764Y-104368785D01*
X132426775Y-104324503D01*
X132334023Y-104289692D01*
X132112550Y-104249500D01*
X132112547Y-104249500D01*
X131943845Y-104249500D01*
X131905399Y-104252960D01*
X131775813Y-104264622D01*
X131775807Y-104264623D01*
X131558839Y-104324503D01*
X131558826Y-104324508D01*
X131356033Y-104422167D01*
X131356025Y-104422171D01*
X131173927Y-104554473D01*
X131173925Y-104554474D01*
X131018366Y-104717176D01*
X130894363Y-104905033D01*
X130805899Y-105112004D01*
X130805895Y-105112017D01*
X130755810Y-105331457D01*
X130755808Y-105331468D01*
X130750769Y-105443674D01*
X130745710Y-105556330D01*
X117350500Y-105556330D01*
X117350499Y-104102128D01*
X117344091Y-104042517D01*
X117306664Y-103942171D01*
X117293797Y-103907671D01*
X117293793Y-103907664D01*
X117207547Y-103792455D01*
X117207544Y-103792452D01*
X117092335Y-103706206D01*
X117092328Y-103706202D01*
X116960401Y-103656997D01*
X116904467Y-103615126D01*
X116880050Y-103549662D01*
X116894902Y-103481389D01*
X116916053Y-103453133D01*
X117038108Y-103331078D01*
X117173600Y-103137578D01*
X117256403Y-102960004D01*
X127705093Y-102960004D01*
X127724692Y-103221545D01*
X127724693Y-103221550D01*
X127783058Y-103477270D01*
X127878883Y-103721426D01*
X127878882Y-103721426D01*
X128010030Y-103948577D01*
X128057873Y-104008571D01*
X128057874Y-104008571D01*
X128708766Y-103357679D01*
X128752316Y-103439822D01*
X128872009Y-103580735D01*
X129019195Y-103692623D01*
X129061402Y-103712150D01*
X128410831Y-104362720D01*
X128582546Y-104479793D01*
X128582550Y-104479795D01*
X128818854Y-104593594D01*
X128818858Y-104593595D01*
X129069494Y-104670907D01*
X129069500Y-104670909D01*
X129328848Y-104709999D01*
X129328857Y-104710000D01*
X129591143Y-104710000D01*
X129591151Y-104709999D01*
X129850499Y-104670909D01*
X129850505Y-104670907D01*
X130101143Y-104593595D01*
X130337445Y-104479798D01*
X130337456Y-104479791D01*
X130509167Y-104362720D01*
X129858609Y-103712161D01*
X129977431Y-103640669D01*
X130111658Y-103513523D01*
X130214861Y-103361308D01*
X130862124Y-104008571D01*
X130909974Y-103948570D01*
X131041116Y-103721426D01*
X131136941Y-103477270D01*
X131195306Y-103221550D01*
X131195307Y-103221545D01*
X131214907Y-102960004D01*
X132785093Y-102960004D01*
X132804692Y-103221545D01*
X132804693Y-103221550D01*
X132863058Y-103477270D01*
X132958883Y-103721426D01*
X132958882Y-103721426D01*
X133090030Y-103948577D01*
X133137873Y-104008571D01*
X133137874Y-104008571D01*
X133788766Y-103357679D01*
X133832316Y-103439822D01*
X133952009Y-103580735D01*
X134099195Y-103692623D01*
X134141402Y-103712150D01*
X133490831Y-104362720D01*
X133662546Y-104479793D01*
X133662550Y-104479795D01*
X133898854Y-104593594D01*
X133898858Y-104593595D01*
X134149494Y-104670907D01*
X134149500Y-104670909D01*
X134408848Y-104709999D01*
X134408857Y-104710000D01*
X134671143Y-104710000D01*
X134671151Y-104709999D01*
X134930499Y-104670909D01*
X134930505Y-104670907D01*
X135095541Y-104620000D01*
X148644341Y-104620000D01*
X148664936Y-104855403D01*
X148664938Y-104855413D01*
X148726094Y-105083655D01*
X148726096Y-105083659D01*
X148726097Y-105083663D01*
X148739319Y-105112017D01*
X148825965Y-105297830D01*
X148825967Y-105297834D01*
X148928083Y-105443670D01*
X148961501Y-105491396D01*
X148961506Y-105491402D01*
X149083430Y-105613326D01*
X149116915Y-105674649D01*
X149111931Y-105744341D01*
X149070059Y-105800274D01*
X149039083Y-105817189D01*
X148907669Y-105866203D01*
X148907664Y-105866206D01*
X148792455Y-105952452D01*
X148792452Y-105952455D01*
X148706206Y-106067664D01*
X148706202Y-106067671D01*
X148655908Y-106202517D01*
X148649501Y-106262116D01*
X148649501Y-106262123D01*
X148649500Y-106262135D01*
X148649500Y-108057870D01*
X148649501Y-108057876D01*
X148655908Y-108117483D01*
X148706202Y-108252328D01*
X148706206Y-108252335D01*
X148792452Y-108367544D01*
X148792455Y-108367547D01*
X148907664Y-108453793D01*
X148907671Y-108453797D01*
X149042517Y-108504091D01*
X149042516Y-108504091D01*
X149049444Y-108504835D01*
X149102127Y-108510500D01*
X150897872Y-108510499D01*
X150957483Y-108504091D01*
X151092331Y-108453796D01*
X151207546Y-108367546D01*
X151293796Y-108252331D01*
X151344091Y-108117483D01*
X151350500Y-108057873D01*
X151350499Y-106262128D01*
X151344091Y-106202517D01*
X151340049Y-106191681D01*
X151293797Y-106067671D01*
X151293793Y-106067664D01*
X151207547Y-105952455D01*
X151207544Y-105952452D01*
X151092335Y-105866206D01*
X151092328Y-105866202D01*
X150960917Y-105817189D01*
X150904983Y-105775318D01*
X150880566Y-105709853D01*
X150895418Y-105641580D01*
X150916563Y-105613332D01*
X151038495Y-105491401D01*
X151174035Y-105297830D01*
X151273903Y-105083663D01*
X151335063Y-104855408D01*
X151355659Y-104620000D01*
X151335063Y-104384592D01*
X151273903Y-104156337D01*
X151174035Y-103942171D01*
X151134369Y-103885521D01*
X151038494Y-103748597D01*
X150871402Y-103581506D01*
X150871396Y-103581501D01*
X150685842Y-103451575D01*
X150642217Y-103396998D01*
X150635023Y-103327500D01*
X150666546Y-103265145D01*
X150685842Y-103248425D01*
X150771081Y-103188740D01*
X150871401Y-103118495D01*
X151038495Y-102951401D01*
X151174035Y-102757830D01*
X151273903Y-102543663D01*
X151335063Y-102315408D01*
X151355659Y-102080000D01*
X151335063Y-101844592D01*
X151273903Y-101616337D01*
X151174035Y-101402171D01*
X151120984Y-101326405D01*
X151038494Y-101208597D01*
X150871402Y-101041506D01*
X150871396Y-101041501D01*
X150685842Y-100911575D01*
X150642217Y-100856998D01*
X150635023Y-100787500D01*
X150666546Y-100725145D01*
X150685842Y-100708425D01*
X150708026Y-100692891D01*
X150871401Y-100578495D01*
X151038495Y-100411401D01*
X151174035Y-100217830D01*
X151273903Y-100003663D01*
X151335063Y-99775408D01*
X151355659Y-99540000D01*
X151335063Y-99304592D01*
X151273903Y-99076337D01*
X151174035Y-98862171D01*
X151173642Y-98861609D01*
X151038494Y-98668597D01*
X150871402Y-98501506D01*
X150871396Y-98501501D01*
X150685842Y-98371575D01*
X150642217Y-98316998D01*
X150635023Y-98247500D01*
X150666546Y-98185145D01*
X150685842Y-98168425D01*
X150764527Y-98113329D01*
X150871401Y-98038495D01*
X151038495Y-97871401D01*
X151174035Y-97677830D01*
X151273903Y-97463663D01*
X151335063Y-97235408D01*
X151355659Y-97000000D01*
X151335063Y-96764592D01*
X151273903Y-96536337D01*
X151174035Y-96322171D01*
X151163567Y-96307220D01*
X151038494Y-96128597D01*
X150871402Y-95961506D01*
X150871396Y-95961501D01*
X150685842Y-95831575D01*
X150642217Y-95776998D01*
X150635023Y-95707500D01*
X150666546Y-95645145D01*
X150685842Y-95628425D01*
X150708026Y-95612891D01*
X150871401Y-95498495D01*
X151038495Y-95331401D01*
X151174035Y-95137830D01*
X151273903Y-94923663D01*
X151335063Y-94695408D01*
X151355659Y-94460000D01*
X151335063Y-94224592D01*
X151273903Y-93996337D01*
X151174035Y-93782171D01*
X151126804Y-93714717D01*
X151038494Y-93588597D01*
X150871402Y-93421506D01*
X150871396Y-93421501D01*
X150685842Y-93291575D01*
X150642217Y-93236998D01*
X150635023Y-93167500D01*
X150666546Y-93105145D01*
X150685842Y-93088425D01*
X150718872Y-93065297D01*
X150871401Y-92958495D01*
X151038495Y-92791401D01*
X151174035Y-92597830D01*
X151273903Y-92383663D01*
X151335063Y-92155408D01*
X151355659Y-91920000D01*
X151335063Y-91684592D01*
X151273903Y-91456337D01*
X151174035Y-91242171D01*
X151146370Y-91202660D01*
X151038494Y-91048597D01*
X150871402Y-90881506D01*
X150871396Y-90881501D01*
X150685842Y-90751575D01*
X150642217Y-90696998D01*
X150635023Y-90627500D01*
X150666546Y-90565145D01*
X150685842Y-90548425D01*
X150820193Y-90454351D01*
X150871401Y-90418495D01*
X151038495Y-90251401D01*
X151174035Y-90057830D01*
X151273903Y-89843663D01*
X151335063Y-89615408D01*
X151355659Y-89380000D01*
X151335063Y-89144592D01*
X151273903Y-88916337D01*
X151174035Y-88702171D01*
X151152646Y-88671623D01*
X151038494Y-88508597D01*
X150871402Y-88341506D01*
X150871396Y-88341501D01*
X150685842Y-88211575D01*
X150642217Y-88156998D01*
X150635023Y-88087500D01*
X150666546Y-88025145D01*
X150685842Y-88008425D01*
X150708026Y-87992891D01*
X150871401Y-87878495D01*
X151038495Y-87711401D01*
X151174035Y-87517830D01*
X151273903Y-87303663D01*
X151335063Y-87075408D01*
X151355659Y-86840000D01*
X151335063Y-86604592D01*
X151273903Y-86376337D01*
X151174035Y-86162171D01*
X151140641Y-86114478D01*
X151038494Y-85968597D01*
X150871402Y-85801506D01*
X150871401Y-85801505D01*
X150685405Y-85671269D01*
X150641781Y-85616692D01*
X150634588Y-85547193D01*
X150666110Y-85484839D01*
X150685405Y-85468119D01*
X150871082Y-85338105D01*
X151038105Y-85171082D01*
X151173600Y-84977578D01*
X151273429Y-84763492D01*
X151273432Y-84763486D01*
X151330636Y-84550000D01*
X150433686Y-84550000D01*
X150459493Y-84509844D01*
X150500000Y-84371889D01*
X150500000Y-84228111D01*
X150459493Y-84090156D01*
X150433686Y-84050000D01*
X151330636Y-84050000D01*
X151330635Y-84049999D01*
X151273432Y-83836513D01*
X151273429Y-83836507D01*
X151173600Y-83622422D01*
X151173599Y-83622420D01*
X151038113Y-83428926D01*
X151038108Y-83428920D01*
X150871082Y-83261894D01*
X150677578Y-83126399D01*
X150463492Y-83026570D01*
X150463486Y-83026567D01*
X150250000Y-82969364D01*
X150250000Y-83864498D01*
X150142315Y-83815320D01*
X150035763Y-83800000D01*
X149964237Y-83800000D01*
X149857685Y-83815320D01*
X149750000Y-83864498D01*
X149750000Y-82969364D01*
X149749999Y-82969364D01*
X149536513Y-83026567D01*
X149536507Y-83026570D01*
X149322422Y-83126399D01*
X149322420Y-83126400D01*
X149128926Y-83261886D01*
X149128920Y-83261891D01*
X148961891Y-83428920D01*
X148961886Y-83428926D01*
X148826400Y-83622420D01*
X148826399Y-83622422D01*
X148726570Y-83836507D01*
X148726567Y-83836513D01*
X148669364Y-84049999D01*
X148669364Y-84050000D01*
X149566314Y-84050000D01*
X149540507Y-84090156D01*
X149500000Y-84228111D01*
X149500000Y-84371889D01*
X149540507Y-84509844D01*
X149566314Y-84550000D01*
X148669364Y-84550000D01*
X148726567Y-84763486D01*
X148726570Y-84763492D01*
X148826399Y-84977578D01*
X148961894Y-85171082D01*
X149128917Y-85338105D01*
X149314595Y-85468119D01*
X149358219Y-85522696D01*
X149365412Y-85592195D01*
X149333890Y-85654549D01*
X149314595Y-85671269D01*
X149128594Y-85801508D01*
X148961505Y-85968597D01*
X148825965Y-86162169D01*
X148825964Y-86162171D01*
X148726098Y-86376335D01*
X148726094Y-86376344D01*
X148664938Y-86604586D01*
X148664936Y-86604596D01*
X148644341Y-86839999D01*
X148644341Y-86840000D01*
X148664936Y-87075403D01*
X148664938Y-87075413D01*
X148726094Y-87303655D01*
X148726096Y-87303659D01*
X148726097Y-87303663D01*
X148786487Y-87433170D01*
X148825965Y-87517830D01*
X148825967Y-87517834D01*
X148961501Y-87711395D01*
X148961506Y-87711402D01*
X149128597Y-87878493D01*
X149128603Y-87878498D01*
X149314158Y-88008425D01*
X149357783Y-88063002D01*
X149364977Y-88132500D01*
X149333454Y-88194855D01*
X149314158Y-88211575D01*
X149128597Y-88341505D01*
X148961505Y-88508597D01*
X148825965Y-88702169D01*
X148825964Y-88702171D01*
X148726098Y-88916335D01*
X148726094Y-88916344D01*
X148664938Y-89144586D01*
X148664936Y-89144596D01*
X148644341Y-89379999D01*
X148644341Y-89380000D01*
X148664936Y-89615403D01*
X148664938Y-89615413D01*
X148726094Y-89843655D01*
X148726096Y-89843659D01*
X148726097Y-89843663D01*
X148769468Y-89936672D01*
X148825965Y-90057830D01*
X148825967Y-90057834D01*
X148961501Y-90251395D01*
X148961506Y-90251402D01*
X149128597Y-90418493D01*
X149128603Y-90418498D01*
X149314158Y-90548425D01*
X149357783Y-90603002D01*
X149364977Y-90672500D01*
X149333454Y-90734855D01*
X149314158Y-90751575D01*
X149128597Y-90881505D01*
X148961505Y-91048597D01*
X148825965Y-91242169D01*
X148825964Y-91242171D01*
X148726098Y-91456335D01*
X148726094Y-91456344D01*
X148664938Y-91684586D01*
X148664936Y-91684596D01*
X148644341Y-91919999D01*
X148644341Y-91920000D01*
X148664936Y-92155403D01*
X148664938Y-92155413D01*
X148726094Y-92383655D01*
X148726096Y-92383659D01*
X148726097Y-92383663D01*
X148797299Y-92536355D01*
X148825965Y-92597830D01*
X148825967Y-92597834D01*
X148961501Y-92791395D01*
X148961506Y-92791402D01*
X149128597Y-92958493D01*
X149128603Y-92958498D01*
X149314158Y-93088425D01*
X149357783Y-93143002D01*
X149364977Y-93212500D01*
X149333454Y-93274855D01*
X149314158Y-93291575D01*
X149128597Y-93421505D01*
X148961505Y-93588597D01*
X148825965Y-93782169D01*
X148825964Y-93782171D01*
X148726098Y-93996335D01*
X148726094Y-93996344D01*
X148664938Y-94224586D01*
X148664936Y-94224596D01*
X148644341Y-94459999D01*
X148644341Y-94460000D01*
X148664936Y-94695403D01*
X148664938Y-94695413D01*
X148726094Y-94923655D01*
X148726096Y-94923659D01*
X148726097Y-94923663D01*
X148805050Y-95092978D01*
X148825965Y-95137830D01*
X148825967Y-95137834D01*
X148961501Y-95331395D01*
X148961506Y-95331402D01*
X149128597Y-95498493D01*
X149128603Y-95498498D01*
X149314158Y-95628425D01*
X149357783Y-95683002D01*
X149364977Y-95752500D01*
X149333454Y-95814855D01*
X149314158Y-95831575D01*
X149128597Y-95961505D01*
X148961505Y-96128597D01*
X148825965Y-96322169D01*
X148825964Y-96322171D01*
X148726098Y-96536335D01*
X148726094Y-96536344D01*
X148664938Y-96764586D01*
X148664936Y-96764596D01*
X148644341Y-96999999D01*
X148644341Y-97000000D01*
X148664936Y-97235403D01*
X148664938Y-97235413D01*
X148726094Y-97463655D01*
X148726096Y-97463659D01*
X148726097Y-97463663D01*
X148811975Y-97647829D01*
X148825965Y-97677830D01*
X148825967Y-97677834D01*
X148961501Y-97871395D01*
X148961506Y-97871402D01*
X149128597Y-98038493D01*
X149128603Y-98038498D01*
X149314158Y-98168425D01*
X149357783Y-98223002D01*
X149364977Y-98292500D01*
X149333454Y-98354855D01*
X149314158Y-98371575D01*
X149128597Y-98501505D01*
X148961505Y-98668597D01*
X148825965Y-98862169D01*
X148825964Y-98862171D01*
X148726098Y-99076335D01*
X148726094Y-99076344D01*
X148664938Y-99304586D01*
X148664936Y-99304596D01*
X148644341Y-99539999D01*
X148644341Y-99540000D01*
X148664936Y-99775403D01*
X148664938Y-99775413D01*
X148726094Y-100003655D01*
X148726096Y-100003659D01*
X148726097Y-100003663D01*
X148825965Y-100217830D01*
X148825967Y-100217834D01*
X148961501Y-100411395D01*
X148961506Y-100411402D01*
X149128597Y-100578493D01*
X149128603Y-100578498D01*
X149314158Y-100708425D01*
X149357783Y-100763002D01*
X149364977Y-100832500D01*
X149333454Y-100894855D01*
X149314158Y-100911575D01*
X149128597Y-101041505D01*
X148961505Y-101208597D01*
X148825965Y-101402169D01*
X148825964Y-101402171D01*
X148726098Y-101616335D01*
X148726094Y-101616344D01*
X148664938Y-101844586D01*
X148664936Y-101844596D01*
X148644341Y-102079999D01*
X148644341Y-102080000D01*
X148664936Y-102315403D01*
X148664938Y-102315413D01*
X148726094Y-102543655D01*
X148726096Y-102543659D01*
X148726097Y-102543663D01*
X148813575Y-102731260D01*
X148825965Y-102757830D01*
X148825967Y-102757834D01*
X148961501Y-102951395D01*
X148961506Y-102951402D01*
X149128597Y-103118493D01*
X149128603Y-103118498D01*
X149314158Y-103248425D01*
X149357783Y-103303002D01*
X149364977Y-103372500D01*
X149333454Y-103434855D01*
X149314158Y-103451575D01*
X149128597Y-103581505D01*
X148961505Y-103748597D01*
X148825965Y-103942169D01*
X148825964Y-103942171D01*
X148726098Y-104156335D01*
X148726094Y-104156344D01*
X148664938Y-104384586D01*
X148664936Y-104384596D01*
X148644341Y-104619999D01*
X148644341Y-104620000D01*
X135095541Y-104620000D01*
X135181143Y-104593595D01*
X135417445Y-104479798D01*
X135417456Y-104479791D01*
X135589167Y-104362720D01*
X134938609Y-103712161D01*
X135057431Y-103640669D01*
X135191658Y-103513523D01*
X135294861Y-103361308D01*
X135942124Y-104008571D01*
X135989974Y-103948570D01*
X136121116Y-103721426D01*
X136216941Y-103477270D01*
X136268813Y-103250000D01*
X143394815Y-103250000D01*
X143413503Y-103427805D01*
X143413504Y-103427807D01*
X143468747Y-103597829D01*
X143468750Y-103597835D01*
X143558141Y-103752665D01*
X143593966Y-103792452D01*
X143677764Y-103885521D01*
X143677767Y-103885523D01*
X143677770Y-103885526D01*
X143822407Y-103990612D01*
X143985733Y-104063329D01*
X144160609Y-104100500D01*
X144160610Y-104100500D01*
X144339389Y-104100500D01*
X144339391Y-104100500D01*
X144514267Y-104063329D01*
X144677593Y-103990612D01*
X144822230Y-103885526D01*
X144941859Y-103752665D01*
X145031250Y-103597835D01*
X145086497Y-103427803D01*
X145105185Y-103250000D01*
X145086497Y-103072197D01*
X145031250Y-102902165D01*
X144941859Y-102747335D01*
X144848390Y-102643527D01*
X144822235Y-102614478D01*
X144822232Y-102614476D01*
X144822231Y-102614475D01*
X144822230Y-102614474D01*
X144677593Y-102509388D01*
X144514267Y-102436671D01*
X144514265Y-102436670D01*
X144372215Y-102406477D01*
X144339391Y-102399500D01*
X144160609Y-102399500D01*
X144129954Y-102406015D01*
X143985733Y-102436670D01*
X143985728Y-102436672D01*
X143822408Y-102509387D01*
X143677768Y-102614475D01*
X143558140Y-102747336D01*
X143468750Y-102902164D01*
X143468747Y-102902170D01*
X143413504Y-103072192D01*
X143413503Y-103072194D01*
X143394815Y-103250000D01*
X136268813Y-103250000D01*
X136275306Y-103221550D01*
X136275307Y-103221545D01*
X136294907Y-102960004D01*
X136294907Y-102959995D01*
X136275307Y-102698454D01*
X136275306Y-102698449D01*
X136216941Y-102442729D01*
X136121116Y-102198573D01*
X136121117Y-102198573D01*
X135989971Y-101971426D01*
X135942125Y-101911427D01*
X135291232Y-102562319D01*
X135247684Y-102480178D01*
X135127991Y-102339265D01*
X134980805Y-102227377D01*
X134938596Y-102207849D01*
X135589167Y-101557278D01*
X135417447Y-101440202D01*
X135417445Y-101440201D01*
X135181142Y-101326404D01*
X135181144Y-101326404D01*
X134930505Y-101249092D01*
X134930499Y-101249090D01*
X134671151Y-101210000D01*
X134408848Y-101210000D01*
X134149500Y-101249090D01*
X134149494Y-101249092D01*
X133898858Y-101326404D01*
X133898854Y-101326405D01*
X133662550Y-101440204D01*
X133662546Y-101440206D01*
X133490832Y-101557278D01*
X134141391Y-102207837D01*
X134022569Y-102279331D01*
X133888342Y-102406477D01*
X133785138Y-102558692D01*
X133137873Y-101911427D01*
X133090029Y-101971423D01*
X132958883Y-102198573D01*
X132863058Y-102442729D01*
X132804693Y-102698449D01*
X132804692Y-102698454D01*
X132785093Y-102959995D01*
X132785093Y-102960004D01*
X131214907Y-102960004D01*
X131214907Y-102959995D01*
X131195307Y-102698454D01*
X131195306Y-102698449D01*
X131136941Y-102442729D01*
X131041116Y-102198573D01*
X131041117Y-102198573D01*
X130909971Y-101971426D01*
X130862125Y-101911427D01*
X130211232Y-102562319D01*
X130167684Y-102480178D01*
X130047991Y-102339265D01*
X129900805Y-102227377D01*
X129858596Y-102207849D01*
X130509167Y-101557278D01*
X130337447Y-101440202D01*
X130337445Y-101440201D01*
X130101142Y-101326404D01*
X130101144Y-101326404D01*
X129850505Y-101249092D01*
X129850499Y-101249090D01*
X129591151Y-101210000D01*
X129328848Y-101210000D01*
X129069500Y-101249090D01*
X129069494Y-101249092D01*
X128818858Y-101326404D01*
X128818854Y-101326405D01*
X128582550Y-101440204D01*
X128582546Y-101440206D01*
X128410832Y-101557278D01*
X129061391Y-102207837D01*
X128942569Y-102279331D01*
X128808342Y-102406477D01*
X128705138Y-102558692D01*
X128057873Y-101911427D01*
X128010029Y-101971423D01*
X127878883Y-102198573D01*
X127783058Y-102442729D01*
X127724693Y-102698449D01*
X127724692Y-102698454D01*
X127705093Y-102959995D01*
X127705093Y-102960004D01*
X117256403Y-102960004D01*
X117273429Y-102923492D01*
X117273432Y-102923486D01*
X117330636Y-102710000D01*
X116433686Y-102710000D01*
X116459493Y-102669844D01*
X116500000Y-102531889D01*
X116500000Y-102388111D01*
X116459493Y-102250156D01*
X116433686Y-102210000D01*
X117330636Y-102210000D01*
X117330635Y-102209999D01*
X117273432Y-101996513D01*
X117273429Y-101996507D01*
X117173600Y-101782422D01*
X117173599Y-101782420D01*
X117038113Y-101588926D01*
X117038108Y-101588920D01*
X116871078Y-101421890D01*
X116685405Y-101291879D01*
X116641780Y-101237302D01*
X116634588Y-101167804D01*
X116666110Y-101105449D01*
X116685406Y-101088730D01*
X116871401Y-100958495D01*
X117038495Y-100791401D01*
X117174035Y-100597830D01*
X117273903Y-100383663D01*
X117309717Y-100250000D01*
X145144815Y-100250000D01*
X145163503Y-100427805D01*
X145163504Y-100427807D01*
X145218747Y-100597829D01*
X145218748Y-100597830D01*
X145218750Y-100597835D01*
X145308141Y-100752665D01*
X145317449Y-100763002D01*
X145427764Y-100885521D01*
X145427767Y-100885523D01*
X145427770Y-100885526D01*
X145572407Y-100990612D01*
X145735733Y-101063329D01*
X145910609Y-101100500D01*
X145910610Y-101100500D01*
X146089389Y-101100500D01*
X146089391Y-101100500D01*
X146264267Y-101063329D01*
X146427593Y-100990612D01*
X146572230Y-100885526D01*
X146691859Y-100752665D01*
X146781250Y-100597835D01*
X146836497Y-100427803D01*
X146855185Y-100250000D01*
X146836497Y-100072197D01*
X146781250Y-99902165D01*
X146691859Y-99747335D01*
X146636131Y-99685443D01*
X146572235Y-99614478D01*
X146572232Y-99614476D01*
X146572231Y-99614475D01*
X146572230Y-99614474D01*
X146427593Y-99509388D01*
X146264267Y-99436671D01*
X146264265Y-99436670D01*
X146136594Y-99409533D01*
X146089391Y-99399500D01*
X145910609Y-99399500D01*
X145879954Y-99406015D01*
X145735733Y-99436670D01*
X145735728Y-99436672D01*
X145572408Y-99509387D01*
X145427768Y-99614475D01*
X145308140Y-99747336D01*
X145218750Y-99902164D01*
X145218747Y-99902170D01*
X145163504Y-100072192D01*
X145163503Y-100072194D01*
X145144815Y-100250000D01*
X117309717Y-100250000D01*
X117335063Y-100155408D01*
X117355659Y-99920000D01*
X117335063Y-99684592D01*
X117273903Y-99456337D01*
X117226023Y-99353659D01*
X124849393Y-99353659D01*
X124876852Y-99509387D01*
X124879668Y-99525354D01*
X124948721Y-99685438D01*
X124948722Y-99685440D01*
X124948724Y-99685443D01*
X125015701Y-99775408D01*
X125052832Y-99825283D01*
X125186386Y-99937349D01*
X125342185Y-100015594D01*
X125511829Y-100055800D01*
X125511831Y-100055800D01*
X125642429Y-100055800D01*
X125642436Y-100055800D01*
X125772164Y-100040637D01*
X125935993Y-99981008D01*
X126081654Y-99885205D01*
X126201296Y-99758393D01*
X126288467Y-99607407D01*
X126338469Y-99440388D01*
X126343521Y-99353659D01*
X126881393Y-99353659D01*
X126908852Y-99509387D01*
X126911668Y-99525354D01*
X126980721Y-99685438D01*
X126980722Y-99685440D01*
X126980724Y-99685443D01*
X127047701Y-99775408D01*
X127084832Y-99825283D01*
X127218386Y-99937349D01*
X127374185Y-100015594D01*
X127543829Y-100055800D01*
X127543831Y-100055800D01*
X127674429Y-100055800D01*
X127674436Y-100055800D01*
X127804164Y-100040637D01*
X127967993Y-99981008D01*
X128113654Y-99885205D01*
X128233296Y-99758393D01*
X128320467Y-99607407D01*
X128370469Y-99440388D01*
X128380607Y-99266340D01*
X128350332Y-99094646D01*
X128281279Y-98934562D01*
X128241779Y-98881505D01*
X128177167Y-98794716D01*
X128043614Y-98682651D01*
X128043612Y-98682650D01*
X127887818Y-98604407D01*
X127887816Y-98604406D01*
X127887815Y-98604406D01*
X127718171Y-98564200D01*
X127587564Y-98564200D01*
X127474052Y-98577467D01*
X127457835Y-98579363D01*
X127457832Y-98579364D01*
X127294008Y-98638991D01*
X127294004Y-98638993D01*
X127148348Y-98734792D01*
X127148347Y-98734793D01*
X127028706Y-98861603D01*
X127028704Y-98861607D01*
X127017218Y-98881501D01*
X126941534Y-99012590D01*
X126891531Y-99179610D01*
X126891530Y-99179616D01*
X126881393Y-99353659D01*
X126343521Y-99353659D01*
X126348607Y-99266340D01*
X126318332Y-99094646D01*
X126249279Y-98934562D01*
X126209779Y-98881505D01*
X126145167Y-98794716D01*
X126011614Y-98682651D01*
X126011612Y-98682650D01*
X125855818Y-98604407D01*
X125855816Y-98604406D01*
X125855815Y-98604406D01*
X125686171Y-98564200D01*
X125555564Y-98564200D01*
X125442052Y-98577467D01*
X125425835Y-98579363D01*
X125425832Y-98579364D01*
X125262009Y-98638990D01*
X125119827Y-98732505D01*
X125117922Y-98733086D01*
X125117236Y-98733851D01*
X124996707Y-98861603D01*
X124996705Y-98861605D01*
X124996704Y-98861607D01*
X124985218Y-98881501D01*
X124909534Y-99012590D01*
X124859531Y-99179610D01*
X124859530Y-99179616D01*
X124849393Y-99353659D01*
X117226023Y-99353659D01*
X117174035Y-99242171D01*
X117070741Y-99094650D01*
X117038494Y-99048597D01*
X116871402Y-98881506D01*
X116871396Y-98881501D01*
X116685842Y-98751575D01*
X116642217Y-98696998D01*
X116635023Y-98627500D01*
X116666546Y-98565145D01*
X116685842Y-98548425D01*
X116752849Y-98501506D01*
X116871401Y-98418495D01*
X117038495Y-98251401D01*
X117174035Y-98057830D01*
X117273903Y-97843663D01*
X117335063Y-97615408D01*
X117343047Y-97524150D01*
X122637050Y-97524150D01*
X122676274Y-97759208D01*
X122753648Y-97984589D01*
X122753654Y-97984603D01*
X122867069Y-98194176D01*
X122867076Y-98194187D01*
X123013433Y-98382227D01*
X123013436Y-98382230D01*
X123013440Y-98382235D01*
X123188766Y-98543633D01*
X123388266Y-98673973D01*
X123606498Y-98769699D01*
X123837510Y-98828199D01*
X124015528Y-98842950D01*
X124015530Y-98842950D01*
X124134470Y-98842950D01*
X124134472Y-98842950D01*
X124312490Y-98828199D01*
X124543502Y-98769699D01*
X124761734Y-98673973D01*
X124959222Y-98544947D01*
X124961334Y-98544309D01*
X124967696Y-98537683D01*
X125136560Y-98382235D01*
X125209744Y-98288207D01*
X125282923Y-98194187D01*
X125282924Y-98194185D01*
X125282929Y-98194179D01*
X125396349Y-97984597D01*
X125473726Y-97759206D01*
X125512950Y-97524152D01*
X125512950Y-97524150D01*
X127717050Y-97524150D01*
X127756274Y-97759208D01*
X127833648Y-97984589D01*
X127833654Y-97984603D01*
X127947069Y-98194176D01*
X127947076Y-98194187D01*
X128093433Y-98382227D01*
X128093436Y-98382230D01*
X128093440Y-98382235D01*
X128268766Y-98543633D01*
X128468266Y-98673973D01*
X128686498Y-98769699D01*
X128917510Y-98828199D01*
X129095528Y-98842950D01*
X129095530Y-98842950D01*
X129214470Y-98842950D01*
X129214472Y-98842950D01*
X129392490Y-98828199D01*
X129623502Y-98769699D01*
X129841734Y-98673973D01*
X130041234Y-98543633D01*
X130216560Y-98382235D01*
X130289744Y-98288207D01*
X130362923Y-98194187D01*
X130362930Y-98194177D01*
X130386567Y-98150500D01*
X130442532Y-98047084D01*
X130491750Y-97997495D01*
X130559967Y-97982387D01*
X130624471Y-98005785D01*
X130672402Y-98040609D01*
X130672404Y-98040610D01*
X130672407Y-98040612D01*
X130835733Y-98113329D01*
X131010609Y-98150500D01*
X131010610Y-98150500D01*
X131189389Y-98150500D01*
X131189391Y-98150500D01*
X131364267Y-98113329D01*
X131527593Y-98040612D01*
X131672230Y-97935526D01*
X131791859Y-97802665D01*
X131881250Y-97647835D01*
X131936497Y-97477803D01*
X131955185Y-97300000D01*
X131949930Y-97250000D01*
X143894815Y-97250000D01*
X143913503Y-97427805D01*
X143913504Y-97427807D01*
X143968747Y-97597829D01*
X143968750Y-97597835D01*
X144058141Y-97752665D01*
X144099812Y-97798946D01*
X144177764Y-97885521D01*
X144177767Y-97885523D01*
X144177770Y-97885526D01*
X144322407Y-97990612D01*
X144485733Y-98063329D01*
X144660609Y-98100500D01*
X144660610Y-98100500D01*
X144839389Y-98100500D01*
X144839391Y-98100500D01*
X145014267Y-98063329D01*
X145177593Y-97990612D01*
X145322230Y-97885526D01*
X145334948Y-97871402D01*
X145359931Y-97843655D01*
X145441859Y-97752665D01*
X145531250Y-97597835D01*
X145586497Y-97427803D01*
X145605185Y-97250000D01*
X145586497Y-97072197D01*
X145531250Y-96902165D01*
X145441859Y-96747335D01*
X145367254Y-96664478D01*
X145322235Y-96614478D01*
X145322232Y-96614476D01*
X145322231Y-96614475D01*
X145322230Y-96614474D01*
X145177593Y-96509388D01*
X145014267Y-96436671D01*
X145014265Y-96436670D01*
X144886594Y-96409533D01*
X144839391Y-96399500D01*
X144660609Y-96399500D01*
X144629954Y-96406015D01*
X144485733Y-96436670D01*
X144485728Y-96436672D01*
X144322408Y-96509387D01*
X144177768Y-96614475D01*
X144058140Y-96747336D01*
X143968750Y-96902164D01*
X143968747Y-96902170D01*
X143913504Y-97072192D01*
X143913503Y-97072194D01*
X143894815Y-97250000D01*
X131949930Y-97250000D01*
X131936497Y-97122197D01*
X131881250Y-96952165D01*
X131791859Y-96797335D01*
X131706173Y-96702171D01*
X131672235Y-96664478D01*
X131672232Y-96664476D01*
X131672231Y-96664475D01*
X131672230Y-96664474D01*
X131527593Y-96559388D01*
X131364267Y-96486671D01*
X131364265Y-96486670D01*
X131291905Y-96471290D01*
X131230423Y-96438098D01*
X131196647Y-96376935D01*
X131201299Y-96307220D01*
X131242904Y-96251088D01*
X131291905Y-96228710D01*
X131364267Y-96213329D01*
X131527593Y-96140612D01*
X131672230Y-96035526D01*
X131791859Y-95902665D01*
X131881250Y-95747835D01*
X131936497Y-95577803D01*
X131955185Y-95400000D01*
X131936497Y-95222197D01*
X131881250Y-95052165D01*
X131791859Y-94897335D01*
X131739908Y-94839638D01*
X131672235Y-94764478D01*
X131672232Y-94764476D01*
X131672231Y-94764475D01*
X131672230Y-94764474D01*
X131527593Y-94659388D01*
X131364267Y-94586671D01*
X131364265Y-94586670D01*
X131235906Y-94559387D01*
X131189391Y-94549500D01*
X131010609Y-94549500D01*
X130979954Y-94556015D01*
X130835733Y-94586670D01*
X130835732Y-94586670D01*
X130741355Y-94628690D01*
X130672105Y-94637974D01*
X130608828Y-94608345D01*
X130571616Y-94549210D01*
X130568611Y-94495004D01*
X130592950Y-94349152D01*
X130592950Y-94110848D01*
X130553726Y-93875794D01*
X130476349Y-93650403D01*
X130362929Y-93440821D01*
X130362927Y-93440819D01*
X130362923Y-93440812D01*
X130216566Y-93252772D01*
X130216563Y-93252769D01*
X130216560Y-93252765D01*
X130041234Y-93091367D01*
X130041231Y-93091365D01*
X130041230Y-93091364D01*
X129964090Y-93040966D01*
X129841734Y-92961027D01*
X129841731Y-92961025D01*
X129841730Y-92961025D01*
X129623502Y-92865301D01*
X129392486Y-92806800D01*
X129249832Y-92794980D01*
X129214472Y-92792050D01*
X129095528Y-92792050D01*
X129063362Y-92794715D01*
X128917513Y-92806800D01*
X128686497Y-92865301D01*
X128468269Y-92961025D01*
X128268769Y-93091364D01*
X128093443Y-93252762D01*
X128093433Y-93252772D01*
X127947076Y-93440812D01*
X127947069Y-93440823D01*
X127833654Y-93650396D01*
X127833648Y-93650410D01*
X127756274Y-93875791D01*
X127733103Y-94014646D01*
X127717050Y-94110848D01*
X127717050Y-94349152D01*
X127733795Y-94449500D01*
X127756274Y-94584208D01*
X127833648Y-94809589D01*
X127833654Y-94809603D01*
X127947069Y-95019176D01*
X127947076Y-95019187D01*
X128093433Y-95207227D01*
X128093436Y-95207230D01*
X128093440Y-95207235D01*
X128268766Y-95368633D01*
X128468266Y-95498973D01*
X128686498Y-95594699D01*
X128917510Y-95653199D01*
X129095528Y-95667950D01*
X129095530Y-95667950D01*
X129214470Y-95667950D01*
X129214472Y-95667950D01*
X129392490Y-95653199D01*
X129623502Y-95594699D01*
X129841734Y-95498973D01*
X130041234Y-95368633D01*
X130042327Y-95367626D01*
X130042875Y-95367355D01*
X130045272Y-95365490D01*
X130045655Y-95365983D01*
X130104973Y-95336699D01*
X130174400Y-95344550D01*
X130228561Y-95388690D01*
X130249637Y-95445885D01*
X130252993Y-95477805D01*
X130263503Y-95577804D01*
X130263504Y-95577807D01*
X130318747Y-95747829D01*
X130318750Y-95747835D01*
X130408141Y-95902665D01*
X130449812Y-95948946D01*
X130527764Y-96035521D01*
X130527767Y-96035523D01*
X130527770Y-96035526D01*
X130672407Y-96140612D01*
X130835733Y-96213329D01*
X130871985Y-96221034D01*
X130908094Y-96228710D01*
X130969576Y-96261902D01*
X131003352Y-96323065D01*
X130998700Y-96392780D01*
X130957095Y-96448912D01*
X130908094Y-96471290D01*
X130835733Y-96486670D01*
X130835728Y-96486672D01*
X130672408Y-96559388D01*
X130672403Y-96559390D01*
X130542899Y-96653481D01*
X130477093Y-96676961D01*
X130409039Y-96661135D01*
X130367566Y-96618914D01*
X130365733Y-96620113D01*
X130362923Y-96615812D01*
X130216566Y-96427772D01*
X130216563Y-96427769D01*
X130216560Y-96427765D01*
X130041234Y-96266367D01*
X130041231Y-96266365D01*
X130041230Y-96266364D01*
X129905683Y-96177807D01*
X129841734Y-96136027D01*
X129841731Y-96136025D01*
X129841730Y-96136025D01*
X129623502Y-96040301D01*
X129392486Y-95981800D01*
X129249832Y-95969980D01*
X129214472Y-95967050D01*
X129095528Y-95967050D01*
X129063362Y-95969715D01*
X128917513Y-95981800D01*
X128686497Y-96040301D01*
X128468269Y-96136025D01*
X128268769Y-96266364D01*
X128093443Y-96427762D01*
X128093433Y-96427772D01*
X127947076Y-96615812D01*
X127947069Y-96615823D01*
X127833654Y-96825396D01*
X127833648Y-96825410D01*
X127756274Y-97050791D01*
X127717050Y-97285849D01*
X127717050Y-97524150D01*
X125512950Y-97524150D01*
X125512950Y-97285848D01*
X125473726Y-97050794D01*
X125396349Y-96825403D01*
X125282929Y-96615821D01*
X125282927Y-96615819D01*
X125282923Y-96615812D01*
X125136566Y-96427772D01*
X125136563Y-96427769D01*
X125136560Y-96427765D01*
X124961234Y-96266367D01*
X124961231Y-96266365D01*
X124961230Y-96266364D01*
X124825683Y-96177807D01*
X124761734Y-96136027D01*
X124761731Y-96136025D01*
X124761730Y-96136025D01*
X124543502Y-96040301D01*
X124312486Y-95981800D01*
X124169832Y-95969980D01*
X124134472Y-95967050D01*
X124015528Y-95967050D01*
X123983362Y-95969715D01*
X123837513Y-95981800D01*
X123606497Y-96040301D01*
X123388269Y-96136025D01*
X123188769Y-96266364D01*
X123013443Y-96427762D01*
X123013433Y-96427772D01*
X122867076Y-96615812D01*
X122867069Y-96615823D01*
X122753654Y-96825396D01*
X122753648Y-96825410D01*
X122676274Y-97050791D01*
X122637050Y-97285849D01*
X122637050Y-97524150D01*
X117343047Y-97524150D01*
X117355659Y-97380000D01*
X117335063Y-97144592D01*
X117273903Y-96916337D01*
X117174035Y-96702171D01*
X117147643Y-96664478D01*
X117038494Y-96508597D01*
X116871402Y-96341506D01*
X116871396Y-96341501D01*
X116685842Y-96211575D01*
X116642217Y-96156998D01*
X116635023Y-96087500D01*
X116666546Y-96025145D01*
X116685842Y-96008425D01*
X116752849Y-95961506D01*
X116871401Y-95878495D01*
X117038495Y-95711401D01*
X117174035Y-95517830D01*
X117273903Y-95303663D01*
X117335063Y-95075408D01*
X117355659Y-94840000D01*
X117335063Y-94604592D01*
X117273903Y-94376337D01*
X117261226Y-94349152D01*
X122637050Y-94349152D01*
X122653795Y-94449500D01*
X122676274Y-94584208D01*
X122753648Y-94809589D01*
X122753654Y-94809603D01*
X122867069Y-95019176D01*
X122867076Y-95019187D01*
X123013433Y-95207227D01*
X123013436Y-95207230D01*
X123013440Y-95207235D01*
X123188766Y-95368633D01*
X123388266Y-95498973D01*
X123606498Y-95594699D01*
X123837510Y-95653199D01*
X124015528Y-95667950D01*
X124015530Y-95667950D01*
X124134470Y-95667950D01*
X124134472Y-95667950D01*
X124312490Y-95653199D01*
X124543502Y-95594699D01*
X124761734Y-95498973D01*
X124961234Y-95368633D01*
X125136560Y-95207235D01*
X125239161Y-95075413D01*
X125282923Y-95019187D01*
X125282924Y-95019185D01*
X125282929Y-95019179D01*
X125396349Y-94809597D01*
X125473726Y-94584206D01*
X125512950Y-94349152D01*
X125512950Y-94110848D01*
X125473726Y-93875794D01*
X125448223Y-93801506D01*
X125428156Y-93743052D01*
X125425006Y-93673253D01*
X125460092Y-93612832D01*
X125522275Y-93580971D01*
X125571216Y-93581498D01*
X125660609Y-93600500D01*
X125660610Y-93600500D01*
X125839387Y-93600500D01*
X125839391Y-93600500D01*
X125883913Y-93591036D01*
X125953575Y-93596351D01*
X126009309Y-93638487D01*
X126033416Y-93704067D01*
X126018240Y-93772268D01*
X126016271Y-93775327D01*
X126016315Y-93775353D01*
X126012704Y-93781606D01*
X126012704Y-93781607D01*
X125990883Y-93819400D01*
X125925534Y-93932590D01*
X125875531Y-94099610D01*
X125875530Y-94099616D01*
X125874876Y-94110849D01*
X125865393Y-94273660D01*
X125895668Y-94445354D01*
X125964721Y-94605438D01*
X125964722Y-94605440D01*
X125964724Y-94605443D01*
X126031701Y-94695408D01*
X126068832Y-94745283D01*
X126202386Y-94857349D01*
X126358185Y-94935594D01*
X126527829Y-94975800D01*
X126527831Y-94975800D01*
X126658429Y-94975800D01*
X126658436Y-94975800D01*
X126788164Y-94960637D01*
X126951993Y-94901008D01*
X127097654Y-94805205D01*
X127217296Y-94678393D01*
X127304467Y-94527407D01*
X127354469Y-94360388D01*
X127364607Y-94186340D01*
X127334332Y-94014646D01*
X127265279Y-93854562D01*
X127225779Y-93801505D01*
X127161167Y-93714716D01*
X127027614Y-93602651D01*
X127027612Y-93602650D01*
X126871818Y-93524407D01*
X126871816Y-93524406D01*
X126871815Y-93524406D01*
X126702171Y-93484200D01*
X126571564Y-93484200D01*
X126563479Y-93485145D01*
X126520116Y-93490213D01*
X126451245Y-93478443D01*
X126399670Y-93431307D01*
X126381766Y-93363770D01*
X126403218Y-93297275D01*
X126413570Y-93284082D01*
X126441859Y-93252665D01*
X126531250Y-93097835D01*
X126586497Y-92927803D01*
X126605185Y-92750000D01*
X126586497Y-92572197D01*
X126541822Y-92434701D01*
X126531252Y-92402170D01*
X126531249Y-92402164D01*
X126441859Y-92247335D01*
X126388572Y-92188154D01*
X126322235Y-92114478D01*
X126322232Y-92114476D01*
X126322231Y-92114475D01*
X126322230Y-92114474D01*
X126243130Y-92057003D01*
X126177595Y-92009389D01*
X126177593Y-92009388D01*
X126164675Y-92003636D01*
X126111441Y-91958386D01*
X126091121Y-91891537D01*
X126091793Y-91877413D01*
X126105185Y-91750000D01*
X130644815Y-91750000D01*
X130663503Y-91927805D01*
X130663504Y-91927807D01*
X130718747Y-92097829D01*
X130718750Y-92097835D01*
X130808141Y-92252665D01*
X130849812Y-92298946D01*
X130927764Y-92385521D01*
X130927767Y-92385523D01*
X130927770Y-92385526D01*
X131072407Y-92490612D01*
X131235733Y-92563329D01*
X131410609Y-92600500D01*
X131410610Y-92600500D01*
X131589389Y-92600500D01*
X131589391Y-92600500D01*
X131764267Y-92563329D01*
X131927593Y-92490612D01*
X132072230Y-92385526D01*
X132073908Y-92383663D01*
X132101019Y-92353553D01*
X132191859Y-92252665D01*
X132281250Y-92097835D01*
X132336497Y-91927803D01*
X132355185Y-91750000D01*
X132336497Y-91572197D01*
X132319983Y-91521375D01*
X132298329Y-91454727D01*
X132296334Y-91384886D01*
X132324107Y-91333441D01*
X132400000Y-91249153D01*
X132400000Y-95600000D01*
X134248867Y-95600000D01*
X134218750Y-95652164D01*
X134218747Y-95652170D01*
X134163504Y-95822192D01*
X134163503Y-95822194D01*
X134144815Y-96000000D01*
X134163503Y-96177805D01*
X134163504Y-96177807D01*
X134218747Y-96347829D01*
X134218750Y-96347835D01*
X134308141Y-96502665D01*
X134338458Y-96536335D01*
X134427764Y-96635521D01*
X134427767Y-96635523D01*
X134427770Y-96635526D01*
X134572407Y-96740612D01*
X134735733Y-96813329D01*
X134910609Y-96850500D01*
X134910610Y-96850500D01*
X135089389Y-96850500D01*
X135089391Y-96850500D01*
X135264267Y-96813329D01*
X135427593Y-96740612D01*
X135572230Y-96635526D01*
X135591185Y-96614475D01*
X135640783Y-96559390D01*
X135691859Y-96502665D01*
X135781250Y-96347835D01*
X135836497Y-96177803D01*
X135855185Y-96000000D01*
X135836497Y-95822197D01*
X135781250Y-95652165D01*
X135751133Y-95600000D01*
X139600000Y-95600000D01*
X139600000Y-95300000D01*
X141044815Y-95300000D01*
X141063503Y-95477805D01*
X141063504Y-95477807D01*
X141118747Y-95647829D01*
X141118750Y-95647835D01*
X141208141Y-95802665D01*
X141234172Y-95831575D01*
X141327764Y-95935521D01*
X141327767Y-95935523D01*
X141327770Y-95935526D01*
X141472407Y-96040612D01*
X141635733Y-96113329D01*
X141810609Y-96150500D01*
X141810610Y-96150500D01*
X141989389Y-96150500D01*
X141989391Y-96150500D01*
X142164267Y-96113329D01*
X142327593Y-96040612D01*
X142472230Y-95935526D01*
X142591859Y-95802665D01*
X142681250Y-95647835D01*
X142736497Y-95477803D01*
X142755185Y-95300000D01*
X142736497Y-95122197D01*
X142684003Y-94960637D01*
X142681252Y-94952170D01*
X142681249Y-94952164D01*
X142591859Y-94797335D01*
X142544991Y-94745283D01*
X142472235Y-94664478D01*
X142472232Y-94664476D01*
X142472231Y-94664475D01*
X142472230Y-94664474D01*
X142327593Y-94559388D01*
X142164267Y-94486671D01*
X142164265Y-94486670D01*
X142036594Y-94459533D01*
X141989391Y-94449500D01*
X141810609Y-94449500D01*
X141779954Y-94456015D01*
X141635733Y-94486670D01*
X141635728Y-94486672D01*
X141472408Y-94559387D01*
X141327768Y-94664475D01*
X141208140Y-94797336D01*
X141118750Y-94952164D01*
X141118747Y-94952170D01*
X141063504Y-95122192D01*
X141063503Y-95122194D01*
X141044815Y-95300000D01*
X139600000Y-95300000D01*
X139600000Y-88400000D01*
X136864326Y-88400000D01*
X136901783Y-88364285D01*
X136958603Y-88350500D01*
X136989889Y-88350500D01*
X136989891Y-88350500D01*
X137164767Y-88313329D01*
X137328093Y-88240612D01*
X137472730Y-88135526D01*
X137491686Y-88114474D01*
X137506667Y-88097835D01*
X137592359Y-88002665D01*
X137681750Y-87847835D01*
X137736997Y-87677803D01*
X137755685Y-87500000D01*
X137736997Y-87322197D01*
X137694956Y-87192809D01*
X137681752Y-87152170D01*
X137681749Y-87152164D01*
X137592359Y-86997335D01*
X137545503Y-86945296D01*
X137472735Y-86864478D01*
X137472732Y-86864476D01*
X137472731Y-86864475D01*
X137472730Y-86864474D01*
X137328093Y-86759388D01*
X137164767Y-86686671D01*
X137164765Y-86686670D01*
X137037094Y-86659533D01*
X136989891Y-86649500D01*
X136811109Y-86649500D01*
X136780454Y-86656015D01*
X136636233Y-86686670D01*
X136636228Y-86686672D01*
X136472908Y-86759388D01*
X136472905Y-86759389D01*
X136450184Y-86775897D01*
X136384377Y-86799375D01*
X136316324Y-86783548D01*
X136267630Y-86733441D01*
X136253980Y-86688539D01*
X136249413Y-86645085D01*
X136236497Y-86522197D01*
X136192088Y-86385521D01*
X136181252Y-86352170D01*
X136181249Y-86352164D01*
X136091859Y-86197335D01*
X136017254Y-86114478D01*
X135972235Y-86064478D01*
X135972232Y-86064476D01*
X135972231Y-86064475D01*
X135972230Y-86064474D01*
X135827593Y-85959388D01*
X135664267Y-85886671D01*
X135664265Y-85886670D01*
X135536594Y-85859533D01*
X135489391Y-85849500D01*
X135310609Y-85849500D01*
X135230714Y-85866481D01*
X135161049Y-85861165D01*
X135105316Y-85819027D01*
X135097549Y-85807190D01*
X135091862Y-85797340D01*
X135091861Y-85797339D01*
X135091859Y-85797335D01*
X135070797Y-85773943D01*
X135004219Y-85700000D01*
X140644815Y-85700000D01*
X140663503Y-85877805D01*
X140663504Y-85877807D01*
X140718747Y-86047829D01*
X140718750Y-86047835D01*
X140808141Y-86202665D01*
X140848362Y-86247335D01*
X140927764Y-86335521D01*
X140927767Y-86335523D01*
X140927770Y-86335526D01*
X141072407Y-86440612D01*
X141235733Y-86513329D01*
X141410609Y-86550500D01*
X141410610Y-86550500D01*
X141589389Y-86550500D01*
X141589391Y-86550500D01*
X141764267Y-86513329D01*
X141927593Y-86440612D01*
X142072230Y-86335526D01*
X142191859Y-86202665D01*
X142281250Y-86047835D01*
X142336497Y-85877803D01*
X142355185Y-85700000D01*
X142336497Y-85522197D01*
X142281250Y-85352165D01*
X142191859Y-85197335D01*
X142117254Y-85114478D01*
X142072235Y-85064478D01*
X142072232Y-85064476D01*
X142072231Y-85064475D01*
X142072230Y-85064474D01*
X141927593Y-84959388D01*
X141764267Y-84886671D01*
X141764265Y-84886670D01*
X141636594Y-84859533D01*
X141589391Y-84849500D01*
X141410609Y-84849500D01*
X141379954Y-84856015D01*
X141235733Y-84886670D01*
X141235728Y-84886672D01*
X141072408Y-84959387D01*
X140927768Y-85064475D01*
X140808140Y-85197336D01*
X140718750Y-85352164D01*
X140718747Y-85352170D01*
X140663504Y-85522192D01*
X140663503Y-85522194D01*
X140644815Y-85700000D01*
X135004219Y-85700000D01*
X134972235Y-85664478D01*
X134972232Y-85664476D01*
X134972231Y-85664475D01*
X134972230Y-85664474D01*
X134827593Y-85559388D01*
X134664267Y-85486671D01*
X134664265Y-85486670D01*
X134536594Y-85459533D01*
X134489391Y-85449500D01*
X134310609Y-85449500D01*
X134279954Y-85456015D01*
X134135733Y-85486670D01*
X134135728Y-85486672D01*
X133972408Y-85559387D01*
X133827768Y-85664475D01*
X133708139Y-85797336D01*
X133656084Y-85887500D01*
X133605517Y-85935716D01*
X133548697Y-85949500D01*
X133510607Y-85949500D01*
X133497122Y-85952366D01*
X133427455Y-85947047D01*
X133371723Y-85904908D01*
X133347621Y-85839327D01*
X133348024Y-85818124D01*
X133355185Y-85750000D01*
X133336497Y-85572197D01*
X133281250Y-85402165D01*
X133191859Y-85247335D01*
X133145003Y-85195296D01*
X133072235Y-85114478D01*
X133072232Y-85114476D01*
X133072231Y-85114475D01*
X133072230Y-85114474D01*
X132927593Y-85009388D01*
X132764267Y-84936671D01*
X132764265Y-84936670D01*
X132636594Y-84909533D01*
X132589391Y-84899500D01*
X132410609Y-84899500D01*
X132379954Y-84906015D01*
X132235733Y-84936670D01*
X132235728Y-84936672D01*
X132072408Y-85009387D01*
X131927768Y-85114475D01*
X131808140Y-85247336D01*
X131718750Y-85402164D01*
X131718747Y-85402170D01*
X131663504Y-85572192D01*
X131663503Y-85572194D01*
X131644815Y-85750000D01*
X131663503Y-85927805D01*
X131663504Y-85927807D01*
X131718747Y-86097829D01*
X131718750Y-86097835D01*
X131808141Y-86252665D01*
X131845173Y-86293793D01*
X131927764Y-86385521D01*
X131927767Y-86385523D01*
X131927770Y-86385526D01*
X132072407Y-86490612D01*
X132235733Y-86563329D01*
X132410609Y-86600500D01*
X132410610Y-86600500D01*
X132589387Y-86600500D01*
X132589391Y-86600500D01*
X132602873Y-86597634D01*
X132672537Y-86602949D01*
X132728272Y-86645085D01*
X132752378Y-86710665D01*
X132751974Y-86731885D01*
X132744815Y-86799999D01*
X132763503Y-86977805D01*
X132763504Y-86977807D01*
X132818747Y-87147829D01*
X132818750Y-87147835D01*
X132908141Y-87302665D01*
X132949812Y-87348946D01*
X133027764Y-87435521D01*
X133027767Y-87435523D01*
X133027770Y-87435526D01*
X133172407Y-87540612D01*
X133335733Y-87613329D01*
X133510609Y-87650500D01*
X133510610Y-87650500D01*
X133689389Y-87650500D01*
X133689391Y-87650500D01*
X133864267Y-87613329D01*
X134027593Y-87540612D01*
X134172230Y-87435526D01*
X134174352Y-87433170D01*
X134217250Y-87385526D01*
X134291859Y-87302665D01*
X134327936Y-87240177D01*
X134343916Y-87212500D01*
X134394483Y-87164284D01*
X134451303Y-87150500D01*
X134489390Y-87150500D01*
X134489391Y-87150500D01*
X134569283Y-87133518D01*
X134638948Y-87138834D01*
X134694682Y-87180970D01*
X134702451Y-87192809D01*
X134708141Y-87202665D01*
X134827764Y-87335521D01*
X134827767Y-87335523D01*
X134827770Y-87335526D01*
X134972407Y-87440612D01*
X135135733Y-87513329D01*
X135135735Y-87513329D01*
X135135736Y-87513330D01*
X135194883Y-87525901D01*
X135230109Y-87533389D01*
X135291591Y-87566581D01*
X135325368Y-87627744D01*
X135322260Y-87692996D01*
X135292484Y-87784640D01*
X135292482Y-87784645D01*
X135273794Y-87962451D01*
X135292482Y-88140256D01*
X135292483Y-88140258D01*
X135347726Y-88310280D01*
X135347729Y-88310286D01*
X135399525Y-88400000D01*
X132400000Y-88400000D01*
X132400000Y-90150845D01*
X132382959Y-90131920D01*
X132322235Y-90064478D01*
X132322232Y-90064476D01*
X132322231Y-90064475D01*
X132322230Y-90064474D01*
X132177593Y-89959388D01*
X132014267Y-89886671D01*
X132014265Y-89886670D01*
X131875654Y-89857208D01*
X131839391Y-89849500D01*
X131660609Y-89849500D01*
X131629954Y-89856015D01*
X131485733Y-89886670D01*
X131485728Y-89886672D01*
X131322408Y-89959387D01*
X131177768Y-90064475D01*
X131058140Y-90197336D01*
X130968750Y-90352164D01*
X130968747Y-90352170D01*
X130913504Y-90522192D01*
X130913503Y-90522194D01*
X130894815Y-90700000D01*
X130913503Y-90877805D01*
X130913504Y-90877807D01*
X130951670Y-90995271D01*
X130953665Y-91065113D01*
X130925889Y-91116561D01*
X130808140Y-91247335D01*
X130718750Y-91402164D01*
X130718747Y-91402170D01*
X130663504Y-91572192D01*
X130663503Y-91572194D01*
X130644815Y-91750000D01*
X126105185Y-91750000D01*
X126086497Y-91572197D01*
X126039839Y-91428599D01*
X126031252Y-91402170D01*
X126031249Y-91402164D01*
X126021643Y-91385526D01*
X125941859Y-91247335D01*
X125895003Y-91195296D01*
X125822235Y-91114478D01*
X125822232Y-91114476D01*
X125822231Y-91114475D01*
X125822230Y-91114474D01*
X125677593Y-91009388D01*
X125514267Y-90936671D01*
X125514265Y-90936670D01*
X125386594Y-90909533D01*
X125339391Y-90899500D01*
X125160609Y-90899500D01*
X125129954Y-90906015D01*
X124985733Y-90936670D01*
X124985728Y-90936672D01*
X124822408Y-91009387D01*
X124677768Y-91114475D01*
X124558140Y-91247336D01*
X124468750Y-91402164D01*
X124468747Y-91402170D01*
X124413504Y-91572192D01*
X124413503Y-91572194D01*
X124394815Y-91750000D01*
X124413503Y-91927805D01*
X124413504Y-91927807D01*
X124468747Y-92097829D01*
X124468750Y-92097835D01*
X124558141Y-92252665D01*
X124599812Y-92298946D01*
X124677764Y-92385521D01*
X124677767Y-92385523D01*
X124677770Y-92385526D01*
X124822407Y-92490612D01*
X124835320Y-92496361D01*
X124888556Y-92541610D01*
X124908878Y-92608459D01*
X124908205Y-92622601D01*
X124894815Y-92750000D01*
X124899167Y-92791402D01*
X124902191Y-92820177D01*
X124889621Y-92888906D01*
X124841889Y-92939930D01*
X124774149Y-92957048D01*
X124729060Y-92946694D01*
X124543502Y-92865301D01*
X124312486Y-92806800D01*
X124169832Y-92794980D01*
X124134472Y-92792050D01*
X124015528Y-92792050D01*
X123983362Y-92794715D01*
X123837513Y-92806800D01*
X123606497Y-92865301D01*
X123388269Y-92961025D01*
X123188769Y-93091364D01*
X123013443Y-93252762D01*
X123013433Y-93252772D01*
X122867076Y-93440812D01*
X122867069Y-93440823D01*
X122753654Y-93650396D01*
X122753648Y-93650410D01*
X122676274Y-93875791D01*
X122653103Y-94014646D01*
X122637050Y-94110848D01*
X122637050Y-94349152D01*
X117261226Y-94349152D01*
X117174035Y-94162171D01*
X117138100Y-94110849D01*
X117038494Y-93968597D01*
X116871402Y-93801506D01*
X116871396Y-93801501D01*
X116685842Y-93671575D01*
X116642217Y-93616998D01*
X116635023Y-93547500D01*
X116666546Y-93485145D01*
X116685842Y-93468425D01*
X116752849Y-93421506D01*
X116871401Y-93338495D01*
X117038495Y-93171401D01*
X117174035Y-92977830D01*
X117273903Y-92763663D01*
X117335063Y-92535408D01*
X117355659Y-92300000D01*
X117335063Y-92064592D01*
X117273903Y-91836337D01*
X117174035Y-91622171D01*
X117139040Y-91572192D01*
X117038494Y-91428597D01*
X116871402Y-91261506D01*
X116871395Y-91261501D01*
X116851165Y-91247336D01*
X116787362Y-91202660D01*
X116677834Y-91125967D01*
X116677830Y-91125965D01*
X116653190Y-91114475D01*
X116463663Y-91026097D01*
X116463659Y-91026096D01*
X116463655Y-91026094D01*
X116235413Y-90964938D01*
X116235403Y-90964936D01*
X116000001Y-90944341D01*
X115999999Y-90944341D01*
X115764596Y-90964936D01*
X115764586Y-90964938D01*
X115536344Y-91026094D01*
X115536335Y-91026098D01*
X115322171Y-91125964D01*
X115322169Y-91125965D01*
X115128597Y-91261505D01*
X114961505Y-91428597D01*
X114825965Y-91622169D01*
X114825964Y-91622171D01*
X114726098Y-91836335D01*
X114726094Y-91836344D01*
X114664938Y-92064586D01*
X114664936Y-92064596D01*
X114644341Y-92299999D01*
X114644341Y-92300000D01*
X114664936Y-92535403D01*
X114664938Y-92535413D01*
X114726094Y-92763655D01*
X114726096Y-92763659D01*
X114726097Y-92763663D01*
X114746213Y-92806801D01*
X114825965Y-92977830D01*
X114825967Y-92977834D01*
X114909989Y-93097829D01*
X114958773Y-93167500D01*
X114961501Y-93171395D01*
X114961506Y-93171402D01*
X115128597Y-93338493D01*
X115128603Y-93338498D01*
X115314158Y-93468425D01*
X115357783Y-93523002D01*
X115364977Y-93592500D01*
X115333454Y-93654855D01*
X115314158Y-93671575D01*
X115128597Y-93801505D01*
X114961505Y-93968597D01*
X114825965Y-94162169D01*
X114825964Y-94162171D01*
X114726098Y-94376335D01*
X114726094Y-94376344D01*
X114664938Y-94604586D01*
X114664936Y-94604596D01*
X114644341Y-94839999D01*
X114644341Y-94840000D01*
X114664936Y-95075403D01*
X114664938Y-95075413D01*
X114726094Y-95303655D01*
X114726096Y-95303659D01*
X114726097Y-95303663D01*
X114816948Y-95498493D01*
X114825965Y-95517830D01*
X114825967Y-95517834D01*
X114920027Y-95652164D01*
X114958773Y-95707500D01*
X114961501Y-95711395D01*
X114961506Y-95711402D01*
X115128597Y-95878493D01*
X115128603Y-95878498D01*
X115314158Y-96008425D01*
X115357783Y-96063002D01*
X115364977Y-96132500D01*
X115333454Y-96194855D01*
X115314158Y-96211575D01*
X115128597Y-96341505D01*
X114961505Y-96508597D01*
X114825965Y-96702169D01*
X114825964Y-96702171D01*
X114726098Y-96916335D01*
X114726094Y-96916344D01*
X114664938Y-97144586D01*
X114664936Y-97144596D01*
X114644341Y-97379999D01*
X114644341Y-97380000D01*
X114664936Y-97615403D01*
X114664938Y-97615413D01*
X114726094Y-97843655D01*
X114726096Y-97843659D01*
X114726097Y-97843663D01*
X114768932Y-97935523D01*
X114825965Y-98057830D01*
X114825967Y-98057834D01*
X114921436Y-98194177D01*
X114958773Y-98247500D01*
X114961501Y-98251395D01*
X114961506Y-98251402D01*
X115128597Y-98418493D01*
X115128603Y-98418498D01*
X115314158Y-98548425D01*
X115357783Y-98603002D01*
X115364977Y-98672500D01*
X115333454Y-98734855D01*
X115314158Y-98751575D01*
X115128597Y-98881505D01*
X114961505Y-99048597D01*
X114825965Y-99242169D01*
X114825964Y-99242171D01*
X114726098Y-99456335D01*
X114726094Y-99456344D01*
X114664938Y-99684586D01*
X114664936Y-99684596D01*
X114644341Y-99919999D01*
X114644341Y-99920000D01*
X112100500Y-99920000D01*
X112100500Y-86750000D01*
X121394815Y-86750000D01*
X121413503Y-86927805D01*
X121413504Y-86927807D01*
X121468747Y-87097829D01*
X121468750Y-87097835D01*
X121558141Y-87252665D01*
X121604053Y-87303655D01*
X121663951Y-87370179D01*
X121694181Y-87433170D01*
X121689732Y-87491468D01*
X121663505Y-87572189D01*
X121663503Y-87572194D01*
X121644815Y-87750000D01*
X121663503Y-87927805D01*
X121663504Y-87927807D01*
X121718747Y-88097829D01*
X121718750Y-88097835D01*
X121808141Y-88252665D01*
X121849812Y-88298946D01*
X121927764Y-88385521D01*
X121927767Y-88385523D01*
X121927770Y-88385526D01*
X122072407Y-88490612D01*
X122235733Y-88563329D01*
X122301322Y-88577270D01*
X122362800Y-88610460D01*
X122396577Y-88671623D01*
X122398859Y-88711519D01*
X122394815Y-88750000D01*
X122404159Y-88838901D01*
X122413503Y-88927805D01*
X122413504Y-88927807D01*
X122468747Y-89097829D01*
X122468750Y-89097835D01*
X122558141Y-89252665D01*
X122599812Y-89298946D01*
X122677764Y-89385521D01*
X122677767Y-89385523D01*
X122677770Y-89385526D01*
X122822407Y-89490612D01*
X122835320Y-89496361D01*
X122888556Y-89541610D01*
X122908878Y-89608459D01*
X122908205Y-89622601D01*
X122894815Y-89750000D01*
X122898859Y-89788479D01*
X122886289Y-89857208D01*
X122838556Y-89908232D01*
X122801321Y-89922729D01*
X122735730Y-89936671D01*
X122735728Y-89936672D01*
X122572408Y-90009387D01*
X122427768Y-90114475D01*
X122308140Y-90247336D01*
X122218750Y-90402164D01*
X122218747Y-90402170D01*
X122163504Y-90572192D01*
X122163503Y-90572194D01*
X122144815Y-90750000D01*
X122163503Y-90927805D01*
X122163504Y-90927807D01*
X122218747Y-91097829D01*
X122218750Y-91097835D01*
X122308141Y-91252665D01*
X122349812Y-91298946D01*
X122427764Y-91385521D01*
X122427767Y-91385523D01*
X122427770Y-91385526D01*
X122572407Y-91490612D01*
X122735733Y-91563329D01*
X122910609Y-91600500D01*
X122910610Y-91600500D01*
X123089389Y-91600500D01*
X123089391Y-91600500D01*
X123264267Y-91563329D01*
X123427593Y-91490612D01*
X123572230Y-91385526D01*
X123572807Y-91384886D01*
X123619132Y-91333436D01*
X123691859Y-91252665D01*
X123781250Y-91097835D01*
X123836497Y-90927803D01*
X123855185Y-90750000D01*
X123851140Y-90711518D01*
X123863709Y-90642791D01*
X123911441Y-90591767D01*
X123948671Y-90577271D01*
X124014267Y-90563329D01*
X124177593Y-90490612D01*
X124322230Y-90385526D01*
X124334324Y-90372095D01*
X124385576Y-90315173D01*
X124441859Y-90252665D01*
X124531250Y-90097835D01*
X124586497Y-89927803D01*
X124605185Y-89750000D01*
X124586497Y-89572197D01*
X124531250Y-89402165D01*
X124441859Y-89247335D01*
X124395003Y-89195296D01*
X124322235Y-89114478D01*
X124322232Y-89114476D01*
X124322231Y-89114475D01*
X124322230Y-89114474D01*
X124243130Y-89057003D01*
X124177595Y-89009389D01*
X124177593Y-89009388D01*
X124164675Y-89003636D01*
X124111441Y-88958386D01*
X124091121Y-88891537D01*
X124091793Y-88877413D01*
X124105185Y-88750000D01*
X124086497Y-88572197D01*
X124051704Y-88465116D01*
X124031252Y-88402170D01*
X124031249Y-88402164D01*
X124021643Y-88385526D01*
X123941859Y-88247335D01*
X123894606Y-88194855D01*
X123822235Y-88114478D01*
X123822232Y-88114476D01*
X123822231Y-88114475D01*
X123822230Y-88114474D01*
X123713359Y-88035374D01*
X123677596Y-88009390D01*
X123677595Y-88009389D01*
X123677593Y-88009388D01*
X123514267Y-87936671D01*
X123514265Y-87936670D01*
X123448679Y-87922729D01*
X123387197Y-87889536D01*
X123353421Y-87828372D01*
X123351140Y-87788481D01*
X123355185Y-87750000D01*
X123336497Y-87572197D01*
X123281250Y-87402165D01*
X123191859Y-87247335D01*
X123104668Y-87150500D01*
X123086047Y-87129819D01*
X123055817Y-87066828D01*
X123060266Y-87008529D01*
X123086497Y-86927803D01*
X123105185Y-86750000D01*
X123086497Y-86572197D01*
X123031250Y-86402165D01*
X122941859Y-86247335D01*
X122865175Y-86162169D01*
X122822235Y-86114478D01*
X122822232Y-86114476D01*
X122822231Y-86114475D01*
X122822230Y-86114474D01*
X122677593Y-86009388D01*
X122514267Y-85936671D01*
X122514265Y-85936670D01*
X122386594Y-85909533D01*
X122339391Y-85899500D01*
X122160609Y-85899500D01*
X122129954Y-85906015D01*
X121985733Y-85936670D01*
X121985728Y-85936672D01*
X121822408Y-86009387D01*
X121677768Y-86114475D01*
X121558140Y-86247336D01*
X121468750Y-86402164D01*
X121468747Y-86402170D01*
X121413504Y-86572192D01*
X121413503Y-86572194D01*
X121394815Y-86750000D01*
X112100500Y-86750000D01*
X112100500Y-77380000D01*
X114644341Y-77380000D01*
X114664936Y-77615403D01*
X114664938Y-77615413D01*
X114726094Y-77843655D01*
X114726096Y-77843659D01*
X114726097Y-77843663D01*
X114825965Y-78057830D01*
X114825967Y-78057834D01*
X114961501Y-78251395D01*
X114961506Y-78251402D01*
X115128597Y-78418493D01*
X115128603Y-78418498D01*
X115314594Y-78548730D01*
X115358219Y-78603307D01*
X115365413Y-78672805D01*
X115333890Y-78735160D01*
X115314595Y-78751880D01*
X115128922Y-78881890D01*
X115128920Y-78881891D01*
X114961891Y-79048920D01*
X114961886Y-79048926D01*
X114826400Y-79242420D01*
X114826399Y-79242422D01*
X114726570Y-79456507D01*
X114726567Y-79456513D01*
X114669364Y-79669999D01*
X114669364Y-79670000D01*
X115566314Y-79670000D01*
X115540507Y-79710156D01*
X115500000Y-79848111D01*
X115500000Y-79991889D01*
X115540507Y-80129844D01*
X115566314Y-80170000D01*
X114669364Y-80170000D01*
X114726567Y-80383486D01*
X114726570Y-80383492D01*
X114826399Y-80597578D01*
X114961894Y-80791082D01*
X115128917Y-80958105D01*
X115315031Y-81088425D01*
X115358656Y-81143003D01*
X115365848Y-81212501D01*
X115334326Y-81274856D01*
X115315031Y-81291575D01*
X115128922Y-81421890D01*
X115128920Y-81421891D01*
X114961891Y-81588920D01*
X114961886Y-81588926D01*
X114826400Y-81782420D01*
X114826399Y-81782422D01*
X114726570Y-81996507D01*
X114726567Y-81996513D01*
X114669364Y-82209999D01*
X114669364Y-82210000D01*
X115566314Y-82210000D01*
X115540507Y-82250156D01*
X115500000Y-82388111D01*
X115500000Y-82531889D01*
X115540507Y-82669844D01*
X115566314Y-82710000D01*
X114669364Y-82710000D01*
X114726567Y-82923486D01*
X114726570Y-82923492D01*
X114826399Y-83137578D01*
X114961894Y-83331082D01*
X115083946Y-83453134D01*
X115117431Y-83514457D01*
X115112447Y-83584149D01*
X115070575Y-83640082D01*
X115039598Y-83656997D01*
X114907671Y-83706202D01*
X114907664Y-83706206D01*
X114792455Y-83792452D01*
X114792452Y-83792455D01*
X114706206Y-83907664D01*
X114706202Y-83907671D01*
X114655908Y-84042517D01*
X114655104Y-84050000D01*
X114649501Y-84102123D01*
X114649500Y-84102135D01*
X114649500Y-85897870D01*
X114649501Y-85897876D01*
X114655908Y-85957483D01*
X114706202Y-86092328D01*
X114706206Y-86092335D01*
X114792452Y-86207544D01*
X114792455Y-86207547D01*
X114907664Y-86293793D01*
X114907671Y-86293797D01*
X115042517Y-86344091D01*
X115042516Y-86344091D01*
X115049444Y-86344835D01*
X115102127Y-86350500D01*
X116897872Y-86350499D01*
X116957483Y-86344091D01*
X117092331Y-86293796D01*
X117207546Y-86207546D01*
X117293796Y-86092331D01*
X117344091Y-85957483D01*
X117350500Y-85897873D01*
X117350499Y-84102128D01*
X117344091Y-84042517D01*
X117316746Y-83969202D01*
X117293797Y-83907671D01*
X117293793Y-83907664D01*
X117207547Y-83792455D01*
X117207544Y-83792452D01*
X117092335Y-83706206D01*
X117092328Y-83706202D01*
X116960401Y-83656997D01*
X116904467Y-83615126D01*
X116880050Y-83549662D01*
X116894902Y-83481389D01*
X116916053Y-83453133D01*
X117038108Y-83331078D01*
X117173600Y-83137578D01*
X117273429Y-82923492D01*
X117273432Y-82923486D01*
X117330636Y-82710000D01*
X116433686Y-82710000D01*
X116459493Y-82669844D01*
X116500000Y-82531889D01*
X116500000Y-82388111D01*
X116459493Y-82250156D01*
X116433686Y-82210000D01*
X117330636Y-82210000D01*
X117330635Y-82209999D01*
X117273432Y-81996513D01*
X117273429Y-81996507D01*
X117228427Y-81900000D01*
X142144815Y-81900000D01*
X142163503Y-82077805D01*
X142163504Y-82077807D01*
X142218747Y-82247829D01*
X142218750Y-82247835D01*
X142308141Y-82402665D01*
X142349812Y-82448946D01*
X142427764Y-82535521D01*
X142427767Y-82535523D01*
X142427770Y-82535526D01*
X142572407Y-82640612D01*
X142735733Y-82713329D01*
X142910609Y-82750500D01*
X142910610Y-82750500D01*
X143089389Y-82750500D01*
X143089391Y-82750500D01*
X143264267Y-82713329D01*
X143427593Y-82640612D01*
X143572230Y-82535526D01*
X143691859Y-82402665D01*
X143781250Y-82247835D01*
X143836497Y-82077803D01*
X143855185Y-81900000D01*
X143836497Y-81722197D01*
X143808873Y-81637181D01*
X143781252Y-81552170D01*
X143781249Y-81552164D01*
X143706036Y-81421891D01*
X143691859Y-81397335D01*
X143645003Y-81345296D01*
X143572235Y-81264478D01*
X143572232Y-81264476D01*
X143572231Y-81264475D01*
X143572230Y-81264474D01*
X143427593Y-81159388D01*
X143264267Y-81086671D01*
X143264265Y-81086670D01*
X143136594Y-81059533D01*
X143089391Y-81049500D01*
X142910609Y-81049500D01*
X142879954Y-81056015D01*
X142735733Y-81086670D01*
X142735728Y-81086672D01*
X142572408Y-81159387D01*
X142427768Y-81264475D01*
X142308140Y-81397336D01*
X142218750Y-81552164D01*
X142218747Y-81552170D01*
X142163504Y-81722192D01*
X142163503Y-81722194D01*
X142144815Y-81900000D01*
X117228427Y-81900000D01*
X117173600Y-81782422D01*
X117173599Y-81782420D01*
X117038113Y-81588926D01*
X117038108Y-81588920D01*
X116871082Y-81421894D01*
X116684968Y-81291575D01*
X116641344Y-81236998D01*
X116634151Y-81167499D01*
X116665673Y-81105145D01*
X116684968Y-81088425D01*
X116871082Y-80958105D01*
X117038105Y-80791082D01*
X117173600Y-80597578D01*
X117273429Y-80383492D01*
X117273432Y-80383486D01*
X117330636Y-80170000D01*
X116433686Y-80170000D01*
X116459493Y-80129844D01*
X116500000Y-79991889D01*
X116500000Y-79848111D01*
X116459493Y-79710156D01*
X116433686Y-79670000D01*
X117330636Y-79670000D01*
X117330635Y-79669999D01*
X117273432Y-79456513D01*
X117273429Y-79456507D01*
X117173600Y-79242422D01*
X117173599Y-79242420D01*
X117038113Y-79048926D01*
X117038108Y-79048920D01*
X116989188Y-79000000D01*
X126644815Y-79000000D01*
X126663503Y-79177805D01*
X126663504Y-79177807D01*
X126718747Y-79347829D01*
X126718750Y-79347835D01*
X126808141Y-79502665D01*
X126849812Y-79548946D01*
X126927764Y-79635521D01*
X126927767Y-79635523D01*
X126927770Y-79635526D01*
X127072407Y-79740612D01*
X127235733Y-79813329D01*
X127410609Y-79850500D01*
X127410610Y-79850500D01*
X127589389Y-79850500D01*
X127589391Y-79850500D01*
X127764267Y-79813329D01*
X127927593Y-79740612D01*
X128072230Y-79635526D01*
X128191859Y-79502665D01*
X128281250Y-79347835D01*
X128336497Y-79177803D01*
X128355185Y-79000000D01*
X128336497Y-78822197D01*
X128295916Y-78697302D01*
X128281252Y-78652170D01*
X128281249Y-78652164D01*
X128267185Y-78627804D01*
X128191859Y-78497335D01*
X128120871Y-78418495D01*
X128072235Y-78364478D01*
X128072232Y-78364476D01*
X128072231Y-78364475D01*
X128072230Y-78364474D01*
X127927593Y-78259388D01*
X127764267Y-78186671D01*
X127764265Y-78186670D01*
X127636594Y-78159533D01*
X127589391Y-78149500D01*
X127410609Y-78149500D01*
X127379954Y-78156015D01*
X127235733Y-78186670D01*
X127235728Y-78186672D01*
X127072408Y-78259387D01*
X126927768Y-78364475D01*
X126808140Y-78497336D01*
X126718750Y-78652164D01*
X126718747Y-78652170D01*
X126663504Y-78822192D01*
X126663503Y-78822194D01*
X126644815Y-79000000D01*
X116989188Y-79000000D01*
X116871078Y-78881890D01*
X116685405Y-78751879D01*
X116641780Y-78697302D01*
X116634588Y-78627804D01*
X116666110Y-78565449D01*
X116685406Y-78548730D01*
X116758804Y-78497336D01*
X116871401Y-78418495D01*
X117038495Y-78251401D01*
X117174035Y-78057830D01*
X117273903Y-77843663D01*
X117335063Y-77615408D01*
X117355659Y-77380000D01*
X117335063Y-77144592D01*
X117273903Y-76916337D01*
X117265292Y-76897870D01*
X148649500Y-76897870D01*
X148649501Y-76897876D01*
X148655908Y-76957483D01*
X148706202Y-77092328D01*
X148706206Y-77092335D01*
X148792452Y-77207544D01*
X148792455Y-77207547D01*
X148907664Y-77293793D01*
X148907671Y-77293797D01*
X149042517Y-77344091D01*
X149042516Y-77344091D01*
X149049444Y-77344835D01*
X149102127Y-77350500D01*
X150897872Y-77350499D01*
X150957483Y-77344091D01*
X151092331Y-77293796D01*
X151207546Y-77207546D01*
X151293796Y-77092331D01*
X151344091Y-76957483D01*
X151350500Y-76897873D01*
X151350499Y-75102128D01*
X151344091Y-75042517D01*
X151293796Y-74907669D01*
X151293795Y-74907668D01*
X151293793Y-74907664D01*
X151207547Y-74792455D01*
X151207544Y-74792452D01*
X151092335Y-74706206D01*
X151092328Y-74706202D01*
X150957482Y-74655908D01*
X150957483Y-74655908D01*
X150897883Y-74649501D01*
X150897881Y-74649500D01*
X150897873Y-74649500D01*
X150897864Y-74649500D01*
X149102129Y-74649500D01*
X149102123Y-74649501D01*
X149042516Y-74655908D01*
X148907671Y-74706202D01*
X148907664Y-74706206D01*
X148792455Y-74792452D01*
X148792452Y-74792455D01*
X148706206Y-74907664D01*
X148706202Y-74907671D01*
X148655908Y-75042517D01*
X148649501Y-75102116D01*
X148649501Y-75102123D01*
X148649500Y-75102135D01*
X148649500Y-76897870D01*
X117265292Y-76897870D01*
X117174035Y-76702171D01*
X117038495Y-76508599D01*
X117038494Y-76508597D01*
X116871402Y-76341506D01*
X116871395Y-76341501D01*
X116677834Y-76205967D01*
X116677830Y-76205965D01*
X116677828Y-76205964D01*
X116463663Y-76106097D01*
X116463659Y-76106096D01*
X116463655Y-76106094D01*
X116235413Y-76044938D01*
X116235403Y-76044936D01*
X116000001Y-76024341D01*
X115999999Y-76024341D01*
X115764596Y-76044936D01*
X115764586Y-76044938D01*
X115536344Y-76106094D01*
X115536335Y-76106098D01*
X115322171Y-76205964D01*
X115322169Y-76205965D01*
X115128597Y-76341505D01*
X114961505Y-76508597D01*
X114825965Y-76702169D01*
X114825964Y-76702171D01*
X114726098Y-76916335D01*
X114726094Y-76916344D01*
X114664938Y-77144586D01*
X114664936Y-77144596D01*
X114644341Y-77379999D01*
X114644341Y-77380000D01*
X112100500Y-77380000D01*
X112100500Y-75250000D01*
X129894815Y-75250000D01*
X129913503Y-75427805D01*
X129913504Y-75427807D01*
X129968747Y-75597829D01*
X129968750Y-75597835D01*
X130058141Y-75752665D01*
X130099812Y-75798946D01*
X130177764Y-75885521D01*
X130177767Y-75885523D01*
X130177770Y-75885526D01*
X130322407Y-75990612D01*
X130485733Y-76063329D01*
X130660609Y-76100500D01*
X130660610Y-76100500D01*
X130839389Y-76100500D01*
X130839391Y-76100500D01*
X131014267Y-76063329D01*
X131177593Y-75990612D01*
X131322230Y-75885526D01*
X131441859Y-75752665D01*
X131531250Y-75597835D01*
X131586497Y-75427803D01*
X131605185Y-75250000D01*
X131586497Y-75072197D01*
X131533039Y-74907671D01*
X131531252Y-74902170D01*
X131531249Y-74902164D01*
X131441859Y-74747335D01*
X131395003Y-74695296D01*
X131322235Y-74614478D01*
X131322232Y-74614476D01*
X131322231Y-74614475D01*
X131322230Y-74614474D01*
X131177593Y-74509388D01*
X131014267Y-74436671D01*
X131014265Y-74436670D01*
X130886594Y-74409533D01*
X130839391Y-74399500D01*
X130660609Y-74399500D01*
X130629954Y-74406015D01*
X130485733Y-74436670D01*
X130485728Y-74436672D01*
X130322408Y-74509387D01*
X130177768Y-74614475D01*
X130058140Y-74747336D01*
X129968750Y-74902164D01*
X129968747Y-74902170D01*
X129913504Y-75072192D01*
X129913503Y-75072194D01*
X129894815Y-75250000D01*
X112100500Y-75250000D01*
X112100500Y-73750000D01*
X127644815Y-73750000D01*
X127663503Y-73927805D01*
X127663504Y-73927807D01*
X127718747Y-74097829D01*
X127718750Y-74097835D01*
X127808141Y-74252665D01*
X127849812Y-74298946D01*
X127927764Y-74385521D01*
X127927767Y-74385523D01*
X127927770Y-74385526D01*
X128072407Y-74490612D01*
X128235733Y-74563329D01*
X128410609Y-74600500D01*
X128410610Y-74600500D01*
X128589389Y-74600500D01*
X128589391Y-74600500D01*
X128764267Y-74563329D01*
X128927593Y-74490612D01*
X129072230Y-74385526D01*
X129191859Y-74252665D01*
X129281250Y-74097835D01*
X129336497Y-73927803D01*
X129355185Y-73750000D01*
X129336497Y-73572197D01*
X129313039Y-73500000D01*
X135144815Y-73500000D01*
X135163503Y-73677805D01*
X135163504Y-73677807D01*
X135218747Y-73847829D01*
X135218750Y-73847835D01*
X135308141Y-74002665D01*
X135349812Y-74048946D01*
X135427764Y-74135521D01*
X135427767Y-74135523D01*
X135427770Y-74135526D01*
X135572407Y-74240612D01*
X135735733Y-74313329D01*
X135910609Y-74350500D01*
X135910610Y-74350500D01*
X136089389Y-74350500D01*
X136089391Y-74350500D01*
X136264267Y-74313329D01*
X136427593Y-74240612D01*
X136572230Y-74135526D01*
X136691859Y-74002665D01*
X136781250Y-73847835D01*
X136836497Y-73677803D01*
X136855185Y-73500000D01*
X136836497Y-73322197D01*
X136781250Y-73152165D01*
X136691859Y-72997335D01*
X136603768Y-72899500D01*
X136572235Y-72864478D01*
X136572232Y-72864476D01*
X136572231Y-72864475D01*
X136572230Y-72864474D01*
X136427593Y-72759388D01*
X136264267Y-72686671D01*
X136264265Y-72686670D01*
X136136594Y-72659533D01*
X136089391Y-72649500D01*
X135910609Y-72649500D01*
X135879954Y-72656015D01*
X135735733Y-72686670D01*
X135735728Y-72686672D01*
X135572408Y-72759387D01*
X135427768Y-72864475D01*
X135308140Y-72997336D01*
X135218750Y-73152164D01*
X135218747Y-73152170D01*
X135163504Y-73322192D01*
X135163503Y-73322194D01*
X135144815Y-73500000D01*
X129313039Y-73500000D01*
X129281250Y-73402165D01*
X129191859Y-73247335D01*
X129106172Y-73152170D01*
X129072235Y-73114478D01*
X129072232Y-73114476D01*
X129072231Y-73114475D01*
X129072230Y-73114474D01*
X128927593Y-73009388D01*
X128764267Y-72936671D01*
X128764265Y-72936670D01*
X128636594Y-72909533D01*
X128589391Y-72899500D01*
X128410609Y-72899500D01*
X128379954Y-72906015D01*
X128235733Y-72936670D01*
X128235728Y-72936672D01*
X128072408Y-73009387D01*
X127927768Y-73114475D01*
X127808140Y-73247336D01*
X127718750Y-73402164D01*
X127718747Y-73402170D01*
X127663504Y-73572192D01*
X127663503Y-73572194D01*
X127644815Y-73750000D01*
X112100500Y-73750000D01*
X112100500Y-71500000D01*
X123644815Y-71500000D01*
X123663503Y-71677805D01*
X123663504Y-71677807D01*
X123718747Y-71847829D01*
X123718750Y-71847835D01*
X123808141Y-72002665D01*
X123849812Y-72048946D01*
X123927764Y-72135521D01*
X123927767Y-72135523D01*
X123927770Y-72135526D01*
X124072407Y-72240612D01*
X124235733Y-72313329D01*
X124410609Y-72350500D01*
X124410610Y-72350500D01*
X124589389Y-72350500D01*
X124589391Y-72350500D01*
X124764267Y-72313329D01*
X124927593Y-72240612D01*
X125072230Y-72135526D01*
X125191859Y-72002665D01*
X125193398Y-72000000D01*
X128894815Y-72000000D01*
X128913503Y-72177805D01*
X128913504Y-72177807D01*
X128968747Y-72347829D01*
X128968750Y-72347835D01*
X129058141Y-72502665D01*
X129099812Y-72548946D01*
X129177764Y-72635521D01*
X129177767Y-72635523D01*
X129177770Y-72635526D01*
X129322407Y-72740612D01*
X129485733Y-72813329D01*
X129660609Y-72850500D01*
X129660610Y-72850500D01*
X129839389Y-72850500D01*
X129839391Y-72850500D01*
X130014267Y-72813329D01*
X130177593Y-72740612D01*
X130322230Y-72635526D01*
X130441859Y-72502665D01*
X130531250Y-72347835D01*
X130563039Y-72250000D01*
X140394815Y-72250000D01*
X140413503Y-72427805D01*
X140413504Y-72427807D01*
X140468747Y-72597829D01*
X140468750Y-72597835D01*
X140558141Y-72752665D01*
X140599812Y-72798946D01*
X140677764Y-72885521D01*
X140677767Y-72885523D01*
X140677770Y-72885526D01*
X140822407Y-72990612D01*
X140985733Y-73063329D01*
X141160609Y-73100500D01*
X141160610Y-73100500D01*
X141339389Y-73100500D01*
X141339391Y-73100500D01*
X141514267Y-73063329D01*
X141677593Y-72990612D01*
X141822230Y-72885526D01*
X141841185Y-72864475D01*
X141853768Y-72850500D01*
X141941859Y-72752665D01*
X142031250Y-72597835D01*
X142086497Y-72427803D01*
X142105185Y-72250000D01*
X142086497Y-72072197D01*
X142031250Y-71902165D01*
X141941859Y-71747335D01*
X141895003Y-71695296D01*
X141822235Y-71614478D01*
X141822232Y-71614476D01*
X141822231Y-71614475D01*
X141822230Y-71614474D01*
X141677593Y-71509388D01*
X141514267Y-71436671D01*
X141514265Y-71436670D01*
X141386594Y-71409533D01*
X141339391Y-71399500D01*
X141160609Y-71399500D01*
X141129954Y-71406015D01*
X140985733Y-71436670D01*
X140985728Y-71436672D01*
X140822408Y-71509387D01*
X140677768Y-71614475D01*
X140558140Y-71747336D01*
X140468750Y-71902164D01*
X140468747Y-71902170D01*
X140413504Y-72072192D01*
X140413503Y-72072194D01*
X140394815Y-72250000D01*
X130563039Y-72250000D01*
X130586497Y-72177803D01*
X130605185Y-72000000D01*
X130586497Y-71822197D01*
X130539581Y-71677805D01*
X130531252Y-71652170D01*
X130531249Y-71652164D01*
X130509490Y-71614476D01*
X130441859Y-71497335D01*
X130353768Y-71399500D01*
X130322235Y-71364478D01*
X130322232Y-71364476D01*
X130322231Y-71364475D01*
X130322230Y-71364474D01*
X130177593Y-71259388D01*
X130014267Y-71186671D01*
X130014265Y-71186670D01*
X129851952Y-71152170D01*
X129839391Y-71149500D01*
X129660609Y-71149500D01*
X129648048Y-71152170D01*
X129485733Y-71186670D01*
X129485728Y-71186672D01*
X129322408Y-71259387D01*
X129177768Y-71364475D01*
X129058140Y-71497336D01*
X128968750Y-71652164D01*
X128968747Y-71652170D01*
X128913504Y-71822192D01*
X128913503Y-71822194D01*
X128894815Y-72000000D01*
X125193398Y-72000000D01*
X125281250Y-71847835D01*
X125336497Y-71677803D01*
X125355185Y-71500000D01*
X125336497Y-71322197D01*
X125292462Y-71186671D01*
X125281252Y-71152170D01*
X125281249Y-71152164D01*
X125279711Y-71149500D01*
X125191859Y-70997335D01*
X125145003Y-70945296D01*
X125072235Y-70864478D01*
X125072232Y-70864476D01*
X125072231Y-70864475D01*
X125072230Y-70864474D01*
X124927593Y-70759388D01*
X124764267Y-70686671D01*
X124764265Y-70686670D01*
X124636594Y-70659533D01*
X124589391Y-70649500D01*
X124410609Y-70649500D01*
X124379954Y-70656015D01*
X124235733Y-70686670D01*
X124235728Y-70686672D01*
X124072408Y-70759387D01*
X123927768Y-70864475D01*
X123808140Y-70997336D01*
X123718750Y-71152164D01*
X123718747Y-71152170D01*
X123663504Y-71322192D01*
X123663503Y-71322194D01*
X123644815Y-71500000D01*
X112100500Y-71500000D01*
X112100500Y-69250000D01*
X136644815Y-69250000D01*
X136663503Y-69427805D01*
X136663504Y-69427807D01*
X136718747Y-69597829D01*
X136718750Y-69597835D01*
X136808141Y-69752665D01*
X136849812Y-69798946D01*
X136927764Y-69885521D01*
X136927767Y-69885523D01*
X136927770Y-69885526D01*
X137072407Y-69990612D01*
X137235733Y-70063329D01*
X137410609Y-70100500D01*
X137410610Y-70100500D01*
X137589389Y-70100500D01*
X137589391Y-70100500D01*
X137764267Y-70063329D01*
X137927593Y-69990612D01*
X138072230Y-69885526D01*
X138191859Y-69752665D01*
X138281250Y-69597835D01*
X138336497Y-69427803D01*
X138355185Y-69250000D01*
X138644815Y-69250000D01*
X138663503Y-69427805D01*
X138663504Y-69427807D01*
X138718747Y-69597829D01*
X138718750Y-69597835D01*
X138808141Y-69752665D01*
X138849812Y-69798946D01*
X138927764Y-69885521D01*
X138927767Y-69885523D01*
X138927770Y-69885526D01*
X139072407Y-69990612D01*
X139235733Y-70063329D01*
X139410609Y-70100500D01*
X139410610Y-70100500D01*
X139589389Y-70100500D01*
X139589391Y-70100500D01*
X139764267Y-70063329D01*
X139927593Y-69990612D01*
X140072230Y-69885526D01*
X140157852Y-69790432D01*
X140217336Y-69753787D01*
X140287193Y-69755116D01*
X140342147Y-69790432D01*
X140427770Y-69885526D01*
X140572407Y-69990612D01*
X140735733Y-70063329D01*
X140910609Y-70100500D01*
X140910610Y-70100500D01*
X141089389Y-70100500D01*
X141089391Y-70100500D01*
X141264267Y-70063329D01*
X141427593Y-69990612D01*
X141572230Y-69885526D01*
X141657852Y-69790432D01*
X141717336Y-69753787D01*
X141787193Y-69755116D01*
X141842147Y-69790432D01*
X141927770Y-69885526D01*
X142072407Y-69990612D01*
X142235733Y-70063329D01*
X142410609Y-70100500D01*
X142410610Y-70100500D01*
X142589389Y-70100500D01*
X142589391Y-70100500D01*
X142764267Y-70063329D01*
X142927593Y-69990612D01*
X143072230Y-69885526D01*
X143191859Y-69752665D01*
X143281250Y-69597835D01*
X143336497Y-69427803D01*
X143355185Y-69250000D01*
X143336497Y-69072197D01*
X143281250Y-68902165D01*
X143191859Y-68747335D01*
X143145003Y-68695296D01*
X143072235Y-68614478D01*
X143072232Y-68614476D01*
X143072231Y-68614475D01*
X143072230Y-68614474D01*
X142927593Y-68509388D01*
X142764267Y-68436671D01*
X142764265Y-68436670D01*
X142636594Y-68409533D01*
X142589391Y-68399500D01*
X142410609Y-68399500D01*
X142379954Y-68406015D01*
X142235733Y-68436670D01*
X142235728Y-68436672D01*
X142072408Y-68509387D01*
X141927771Y-68614473D01*
X141927770Y-68614474D01*
X141842148Y-68709565D01*
X141782663Y-68746213D01*
X141712806Y-68744882D01*
X141657850Y-68709564D01*
X141572235Y-68614478D01*
X141572232Y-68614476D01*
X141572231Y-68614475D01*
X141572230Y-68614474D01*
X141427593Y-68509388D01*
X141264267Y-68436671D01*
X141264265Y-68436670D01*
X141136594Y-68409533D01*
X141089391Y-68399500D01*
X140910609Y-68399500D01*
X140879954Y-68406015D01*
X140735733Y-68436670D01*
X140735728Y-68436672D01*
X140572408Y-68509387D01*
X140427771Y-68614473D01*
X140427770Y-68614474D01*
X140342148Y-68709565D01*
X140282663Y-68746213D01*
X140212806Y-68744882D01*
X140157850Y-68709564D01*
X140072235Y-68614478D01*
X140072232Y-68614476D01*
X140072231Y-68614475D01*
X140072230Y-68614474D01*
X139927593Y-68509388D01*
X139764267Y-68436671D01*
X139764265Y-68436670D01*
X139636594Y-68409533D01*
X139589391Y-68399500D01*
X139410609Y-68399500D01*
X139379954Y-68406015D01*
X139235733Y-68436670D01*
X139235728Y-68436672D01*
X139072408Y-68509387D01*
X138927768Y-68614475D01*
X138808140Y-68747336D01*
X138718750Y-68902164D01*
X138718747Y-68902170D01*
X138663504Y-69072192D01*
X138663503Y-69072194D01*
X138644815Y-69250000D01*
X138355185Y-69250000D01*
X138336497Y-69072197D01*
X138281250Y-68902165D01*
X138191859Y-68747335D01*
X138145003Y-68695296D01*
X138072235Y-68614478D01*
X138072232Y-68614476D01*
X138072231Y-68614475D01*
X138072230Y-68614474D01*
X137927593Y-68509388D01*
X137764267Y-68436671D01*
X137764265Y-68436670D01*
X137636594Y-68409533D01*
X137589391Y-68399500D01*
X137410609Y-68399500D01*
X137379954Y-68406015D01*
X137235733Y-68436670D01*
X137235728Y-68436672D01*
X137072408Y-68509387D01*
X136927768Y-68614475D01*
X136808140Y-68747336D01*
X136718750Y-68902164D01*
X136718747Y-68902170D01*
X136663504Y-69072192D01*
X136663503Y-69072194D01*
X136644815Y-69250000D01*
X112100500Y-69250000D01*
X112100500Y-67500000D01*
X116394815Y-67500000D01*
X116413503Y-67677805D01*
X116413504Y-67677807D01*
X116468747Y-67847829D01*
X116468750Y-67847835D01*
X116558141Y-68002665D01*
X116599812Y-68048946D01*
X116677764Y-68135521D01*
X116677767Y-68135523D01*
X116677770Y-68135526D01*
X116822407Y-68240612D01*
X116985733Y-68313329D01*
X117160609Y-68350500D01*
X117160610Y-68350500D01*
X117339389Y-68350500D01*
X117339391Y-68350500D01*
X117514267Y-68313329D01*
X117677593Y-68240612D01*
X117822230Y-68135526D01*
X117941859Y-68002665D01*
X118031250Y-67847835D01*
X118086497Y-67677803D01*
X118105185Y-67500000D01*
X118086497Y-67322197D01*
X118031250Y-67152165D01*
X117941859Y-66997335D01*
X117895003Y-66945296D01*
X117822235Y-66864478D01*
X117822232Y-66864476D01*
X117822231Y-66864475D01*
X117822230Y-66864474D01*
X117677593Y-66759388D01*
X117514267Y-66686671D01*
X117514265Y-66686670D01*
X117386594Y-66659533D01*
X117339391Y-66649500D01*
X117160609Y-66649500D01*
X117129954Y-66656015D01*
X116985733Y-66686670D01*
X116985728Y-66686672D01*
X116822408Y-66759387D01*
X116677768Y-66864475D01*
X116558140Y-66997336D01*
X116468750Y-67152164D01*
X116468747Y-67152170D01*
X116413504Y-67322192D01*
X116413503Y-67322194D01*
X116394815Y-67500000D01*
X112100500Y-67500000D01*
X112100500Y-66500000D01*
X136644815Y-66500000D01*
X136663503Y-66677805D01*
X136663504Y-66677807D01*
X136718747Y-66847829D01*
X136718750Y-66847835D01*
X136808141Y-67002665D01*
X136849812Y-67048946D01*
X136927764Y-67135521D01*
X136927767Y-67135523D01*
X136927770Y-67135526D01*
X137072407Y-67240612D01*
X137235733Y-67313329D01*
X137410609Y-67350500D01*
X137410610Y-67350500D01*
X137589389Y-67350500D01*
X137589391Y-67350500D01*
X137764267Y-67313329D01*
X137927593Y-67240612D01*
X138072230Y-67135526D01*
X138191859Y-67002665D01*
X138281250Y-66847835D01*
X138336497Y-66677803D01*
X138355185Y-66500000D01*
X138336497Y-66322197D01*
X138281250Y-66152165D01*
X138191859Y-65997335D01*
X138145003Y-65945296D01*
X138072235Y-65864478D01*
X138072232Y-65864476D01*
X138072231Y-65864475D01*
X138072230Y-65864474D01*
X137927593Y-65759388D01*
X137764267Y-65686671D01*
X137764265Y-65686670D01*
X137636594Y-65659533D01*
X137589391Y-65649500D01*
X137410609Y-65649500D01*
X137379954Y-65656015D01*
X137235733Y-65686670D01*
X137235728Y-65686672D01*
X137072408Y-65759387D01*
X136927768Y-65864475D01*
X136808140Y-65997336D01*
X136718750Y-66152164D01*
X136718747Y-66152170D01*
X136663504Y-66322192D01*
X136663503Y-66322194D01*
X136644815Y-66500000D01*
X112100500Y-66500000D01*
X112100500Y-64897870D01*
X137819500Y-64897870D01*
X137819501Y-64897876D01*
X137825908Y-64957483D01*
X137876202Y-65092328D01*
X137876206Y-65092335D01*
X137962452Y-65207544D01*
X137962455Y-65207547D01*
X138077664Y-65293793D01*
X138077671Y-65293797D01*
X138212517Y-65344091D01*
X138212516Y-65344091D01*
X138219444Y-65344835D01*
X138272127Y-65350500D01*
X140067872Y-65350499D01*
X140127483Y-65344091D01*
X140262331Y-65293796D01*
X140377546Y-65207546D01*
X140463796Y-65092331D01*
X140512810Y-64960916D01*
X140554681Y-64904984D01*
X140620145Y-64880566D01*
X140688418Y-64895417D01*
X140716673Y-64916569D01*
X140838599Y-65038495D01*
X140935384Y-65106265D01*
X141032165Y-65174032D01*
X141032167Y-65174033D01*
X141032170Y-65174035D01*
X141246337Y-65273903D01*
X141474592Y-65335063D01*
X141651034Y-65350500D01*
X141709999Y-65355659D01*
X141710000Y-65355659D01*
X141710001Y-65355659D01*
X141768966Y-65350500D01*
X141945408Y-65335063D01*
X142173663Y-65273903D01*
X142387830Y-65174035D01*
X142581401Y-65038495D01*
X142748495Y-64871401D01*
X142878425Y-64685842D01*
X142933002Y-64642217D01*
X143002500Y-64635023D01*
X143064855Y-64666546D01*
X143081575Y-64685842D01*
X143211500Y-64871395D01*
X143211505Y-64871401D01*
X143378599Y-65038495D01*
X143475384Y-65106265D01*
X143572165Y-65174032D01*
X143572167Y-65174033D01*
X143572170Y-65174035D01*
X143786337Y-65273903D01*
X144014592Y-65335063D01*
X144191034Y-65350500D01*
X144249999Y-65355659D01*
X144250000Y-65355659D01*
X144250001Y-65355659D01*
X144308966Y-65350500D01*
X144485408Y-65335063D01*
X144713663Y-65273903D01*
X144927830Y-65174035D01*
X145121401Y-65038495D01*
X145288495Y-64871401D01*
X145424035Y-64677830D01*
X145523903Y-64463663D01*
X145585063Y-64235408D01*
X145605659Y-64000000D01*
X145585063Y-63764592D01*
X145523903Y-63536337D01*
X145424035Y-63322171D01*
X145418425Y-63314158D01*
X145288494Y-63128597D01*
X145121402Y-62961506D01*
X145121395Y-62961501D01*
X144927834Y-62825967D01*
X144927830Y-62825965D01*
X144927828Y-62825964D01*
X144713663Y-62726097D01*
X144713659Y-62726096D01*
X144713655Y-62726094D01*
X144485413Y-62664938D01*
X144485403Y-62664936D01*
X144250001Y-62644341D01*
X144249999Y-62644341D01*
X144014596Y-62664936D01*
X144014586Y-62664938D01*
X143786344Y-62726094D01*
X143786335Y-62726098D01*
X143572171Y-62825964D01*
X143572169Y-62825965D01*
X143378597Y-62961505D01*
X143211505Y-63128597D01*
X143081575Y-63314158D01*
X143026998Y-63357783D01*
X142957500Y-63364977D01*
X142895145Y-63333454D01*
X142878425Y-63314158D01*
X142748494Y-63128597D01*
X142581402Y-62961506D01*
X142581395Y-62961501D01*
X142387834Y-62825967D01*
X142387830Y-62825965D01*
X142387828Y-62825964D01*
X142173663Y-62726097D01*
X142173659Y-62726096D01*
X142173655Y-62726094D01*
X141945413Y-62664938D01*
X141945403Y-62664936D01*
X141710001Y-62644341D01*
X141709999Y-62644341D01*
X141474596Y-62664936D01*
X141474586Y-62664938D01*
X141246344Y-62726094D01*
X141246335Y-62726098D01*
X141032171Y-62825964D01*
X141032169Y-62825965D01*
X140838600Y-62961503D01*
X140716673Y-63083430D01*
X140655350Y-63116914D01*
X140585658Y-63111930D01*
X140529725Y-63070058D01*
X140512810Y-63039081D01*
X140463797Y-62907671D01*
X140463793Y-62907664D01*
X140377547Y-62792455D01*
X140377544Y-62792452D01*
X140262335Y-62706206D01*
X140262328Y-62706202D01*
X140127482Y-62655908D01*
X140127483Y-62655908D01*
X140067883Y-62649501D01*
X140067881Y-62649500D01*
X140067873Y-62649500D01*
X140067864Y-62649500D01*
X138272129Y-62649500D01*
X138272123Y-62649501D01*
X138212516Y-62655908D01*
X138077671Y-62706202D01*
X138077664Y-62706206D01*
X137962455Y-62792452D01*
X137962452Y-62792455D01*
X137876206Y-62907664D01*
X137876202Y-62907671D01*
X137825908Y-63042517D01*
X137819501Y-63102116D01*
X137819500Y-63102135D01*
X137819500Y-64897870D01*
X112100500Y-64897870D01*
X112100500Y-62250000D01*
X124144815Y-62250000D01*
X124163503Y-62427805D01*
X124163504Y-62427807D01*
X124218747Y-62597829D01*
X124218750Y-62597835D01*
X124308141Y-62752665D01*
X124343966Y-62792452D01*
X124427764Y-62885521D01*
X124427767Y-62885523D01*
X124427770Y-62885526D01*
X124572407Y-62990612D01*
X124735733Y-63063329D01*
X124910609Y-63100500D01*
X124910610Y-63100500D01*
X125089389Y-63100500D01*
X125089391Y-63100500D01*
X125264267Y-63063329D01*
X125427593Y-62990612D01*
X125572230Y-62885526D01*
X125691859Y-62752665D01*
X125781250Y-62597835D01*
X125836497Y-62427803D01*
X125855185Y-62250000D01*
X125836497Y-62072197D01*
X125781250Y-61902165D01*
X125691859Y-61747335D01*
X125645003Y-61695296D01*
X125572235Y-61614478D01*
X125572232Y-61614476D01*
X125572231Y-61614475D01*
X125572230Y-61614474D01*
X125427593Y-61509388D01*
X125264267Y-61436671D01*
X125264265Y-61436670D01*
X125136594Y-61409533D01*
X125089391Y-61399500D01*
X124910609Y-61399500D01*
X124879954Y-61406015D01*
X124735733Y-61436670D01*
X124735728Y-61436672D01*
X124572408Y-61509387D01*
X124427768Y-61614475D01*
X124308140Y-61747336D01*
X124218750Y-61902164D01*
X124218747Y-61902170D01*
X124163504Y-62072192D01*
X124163503Y-62072194D01*
X124144815Y-62250000D01*
X112100500Y-62250000D01*
X112100500Y-60224500D01*
X112120185Y-60157461D01*
X112172989Y-60111706D01*
X112224500Y-60100500D01*
X151775500Y-60100500D01*
X151842539Y-60120185D01*
G37*
%TD.AperFunction*%
%TD*%
M02*
