%TF.GenerationSoftware,KiCad,Pcbnew,7.0.9+1*%
%TF.CreationDate,2024-01-05T17:55:25+01:00*%
%TF.ProjectId,sensor,73656e73-6f72-42e6-9b69-6361645f7063,rev?*%
%TF.SameCoordinates,Original*%
%TF.FileFunction,Copper,L4,Bot*%
%TF.FilePolarity,Positive*%
%FSLAX46Y46*%
G04 Gerber Fmt 4.6, Leading zero omitted, Abs format (unit mm)*
G04 Created by KiCad (PCBNEW 7.0.9+1) date 2024-01-05 17:55:25*
%MOMM*%
%LPD*%
G01*
G04 APERTURE LIST*
G04 Aperture macros list*
%AMRoundRect*
0 Rectangle with rounded corners*
0 $1 Rounding radius*
0 $2 $3 $4 $5 $6 $7 $8 $9 X,Y pos of 4 corners*
0 Add a 4 corners polygon primitive as box body*
4,1,4,$2,$3,$4,$5,$6,$7,$8,$9,$2,$3,0*
0 Add four circle primitives for the rounded corners*
1,1,$1+$1,$2,$3*
1,1,$1+$1,$4,$5*
1,1,$1+$1,$6,$7*
1,1,$1+$1,$8,$9*
0 Add four rect primitives between the rounded corners*
20,1,$1+$1,$2,$3,$4,$5,0*
20,1,$1+$1,$4,$5,$6,$7,0*
20,1,$1+$1,$6,$7,$8,$9,0*
20,1,$1+$1,$8,$9,$2,$3,0*%
%AMFreePoly0*
4,1,19,0.550000,-0.750000,0.000000,-0.750000,0.000000,-0.744911,-0.071157,-0.744911,-0.207708,-0.704816,-0.327430,-0.627875,-0.420627,-0.520320,-0.479746,-0.390866,-0.500000,-0.250000,-0.500000,0.250000,-0.479746,0.390866,-0.420627,0.520320,-0.327430,0.627875,-0.207708,0.704816,-0.071157,0.744911,0.000000,0.744911,0.000000,0.750000,0.550000,0.750000,0.550000,-0.750000,0.550000,-0.750000,
$1*%
%AMFreePoly1*
4,1,19,0.000000,0.744911,0.071157,0.744911,0.207708,0.704816,0.327430,0.627875,0.420627,0.520320,0.479746,0.390866,0.500000,0.250000,0.500000,-0.250000,0.479746,-0.390866,0.420627,-0.520320,0.327430,-0.627875,0.207708,-0.704816,0.071157,-0.744911,0.000000,-0.744911,0.000000,-0.750000,-0.550000,-0.750000,-0.550000,0.750000,0.000000,0.750000,0.000000,0.744911,0.000000,0.744911,
$1*%
G04 Aperture macros list end*
%TA.AperFunction,ComponentPad*%
%ADD10C,0.800000*%
%TD*%
%TA.AperFunction,SMDPad,CuDef*%
%ADD11R,4.100000X4.100000*%
%TD*%
%TA.AperFunction,ComponentPad*%
%ADD12RoundRect,0.200100X0.949900X0.949900X-0.949900X0.949900X-0.949900X-0.949900X0.949900X-0.949900X0*%
%TD*%
%TA.AperFunction,ComponentPad*%
%ADD13C,2.500000*%
%TD*%
%TA.AperFunction,ComponentPad*%
%ADD14R,1.700000X1.700000*%
%TD*%
%TA.AperFunction,ComponentPad*%
%ADD15O,1.700000X1.700000*%
%TD*%
%TA.AperFunction,SMDPad,CuDef*%
%ADD16FreePoly0,0.000000*%
%TD*%
%TA.AperFunction,SMDPad,CuDef*%
%ADD17R,1.000000X1.500000*%
%TD*%
%TA.AperFunction,SMDPad,CuDef*%
%ADD18FreePoly1,0.000000*%
%TD*%
%TA.AperFunction,SMDPad,CuDef*%
%ADD19FreePoly0,180.000000*%
%TD*%
%TA.AperFunction,SMDPad,CuDef*%
%ADD20FreePoly1,180.000000*%
%TD*%
%TA.AperFunction,ViaPad*%
%ADD21C,0.700000*%
%TD*%
%TA.AperFunction,Conductor*%
%ADD22C,0.200000*%
%TD*%
%TA.AperFunction,Conductor*%
%ADD23C,0.300000*%
%TD*%
G04 APERTURE END LIST*
D10*
%TO.P,U601,49,VSS*%
%TO.N,GND*%
X137500000Y-90500000D03*
X136000000Y-90500000D03*
X134500000Y-90500000D03*
X137500000Y-92000000D03*
X136000000Y-92000000D03*
D11*
X136000000Y-92000000D03*
D10*
X134500000Y-92000000D03*
X137500000Y-93500000D03*
X136000000Y-93500000D03*
X134500000Y-93500000D03*
%TD*%
D12*
%TO.P,J101,1,In*%
%TO.N,/Microcontroller/rf_ant*%
X132000000Y-105500000D03*
D13*
%TO.P,J101,2,Ext*%
%TO.N,GND*%
X134540000Y-108040000D03*
X134540000Y-102960000D03*
X129460000Y-108040000D03*
X129460000Y-102960000D03*
%TD*%
D14*
%TO.P,J202,1,Pin_1*%
%TO.N,/Microcontroller/LDO_{EN}*%
X116000000Y-105000000D03*
D15*
%TO.P,J202,2,Pin_2*%
%TO.N,GND*%
X116000000Y-102460000D03*
%TO.P,J202,3,Pin_3*%
%TO.N,/P_{IN}/HBO-MCU*%
X116000000Y-99920000D03*
%TO.P,J202,4,Pin_4*%
%TO.N,/P_{IN}/EH-ON*%
X116000000Y-97380000D03*
%TO.P,J202,5,Pin_5*%
%TO.N,/P_{IN}/PWG-Vout*%
X116000000Y-94840000D03*
%TO.P,J202,6,Pin_6*%
%TO.N,/P_{IN}/PWG-LDO*%
X116000000Y-92300000D03*
%TD*%
D14*
%TO.P,J201,1,Pin_1*%
%TO.N,/Microcontroller/V_{DD}*%
X116000000Y-85000000D03*
D15*
%TO.P,J201,2,Pin_2*%
%TO.N,GND*%
X116000000Y-82460000D03*
%TO.P,J201,3,Pin_3*%
X116000000Y-79920000D03*
%TO.P,J201,4,Pin_4*%
%TO.N,/P_{IN}/LDO_{OUT}*%
X116000000Y-77380000D03*
%TD*%
D14*
%TO.P,J503,1,Pin_1*%
%TO.N,Net-(J503-Pin_1)*%
X150000000Y-76000000D03*
%TD*%
%TO.P,Q402,1,D*%
%TO.N,Net-(J402-Pin_1)*%
X139170000Y-64000000D03*
D15*
%TO.P,Q402,2,S*%
%TO.N,Net-(J401-Pin_1)*%
X141710000Y-64000000D03*
%TO.P,Q402,3,G*%
%TO.N,/Filter/In*%
X144250000Y-64000000D03*
%TD*%
D14*
%TO.P,J602,1,Pin_1*%
%TO.N,/Microcontroller/V_{DD}*%
X150000000Y-107160000D03*
D15*
%TO.P,J602,2,Pin_2*%
%TO.N,/Microcontroller/io_p024*%
X150000000Y-104620000D03*
%TO.P,J602,3,Pin_3*%
%TO.N,/Microcontroller/io_p025*%
X150000000Y-102080000D03*
%TO.P,J602,4,Pin_4*%
%TO.N,/Microcontroller/io_p026*%
X150000000Y-99540000D03*
%TO.P,J602,5,Pin_5*%
%TO.N,/Microcontroller/io_p027*%
X150000000Y-97000000D03*
%TO.P,J602,6,Pin_6*%
%TO.N,/Microcontroller/io_p028*%
X150000000Y-94460000D03*
%TO.P,J602,7,Pin_7*%
%TO.N,/Microcontroller/io_p029*%
X150000000Y-91920000D03*
%TO.P,J602,8,Pin_8*%
%TO.N,/Microcontroller/io_p030*%
X150000000Y-89380000D03*
%TO.P,J602,9,Pin_9*%
%TO.N,/Microcontroller/io_p031*%
X150000000Y-86840000D03*
%TO.P,J602,10,Pin_10*%
%TO.N,GND*%
X150000000Y-84300000D03*
%TD*%
D16*
%TO.P,JP301,1,A*%
%TO.N,/Reference/ref_1v1*%
X127700000Y-77000000D03*
D17*
%TO.P,JP301,2,C*%
%TO.N,/Microcontroller/V_{ref}*%
X129000000Y-77000000D03*
D18*
%TO.P,JP301,3,B*%
%TO.N,/Reference/ref_0v5*%
X130300000Y-77000000D03*
%TD*%
D19*
%TO.P,JP403,1,A*%
%TO.N,Net-(JP403-A)*%
X138800000Y-70750000D03*
D17*
%TO.P,JP403,2,C*%
%TO.N,Net-(J402-Pin_1)*%
X137500000Y-70750000D03*
D20*
%TO.P,JP403,3,B*%
%TO.N,/P_{IN}/LDO_{OUT}*%
X136200000Y-70750000D03*
%TD*%
D16*
%TO.P,JP402,1,A*%
%TO.N,Net-(JP402-A)*%
X141200000Y-70750000D03*
D17*
%TO.P,JP402,2,C*%
%TO.N,Net-(J401-Pin_1)*%
X142500000Y-70750000D03*
D18*
%TO.P,JP402,3,B*%
%TO.N,GND*%
X143800000Y-70750000D03*
%TD*%
D21*
%TO.N,GND*%
X113500000Y-109250000D03*
X115000000Y-109250000D03*
X116250000Y-109250000D03*
X127000000Y-108250000D03*
X127000000Y-107000000D03*
X127000000Y-105750000D03*
X134250000Y-97500000D03*
X133500000Y-98500000D03*
X128250000Y-100750000D03*
X148000000Y-103250000D03*
X147500000Y-100250000D03*
X146500000Y-86750000D03*
X145000000Y-85500000D03*
X114500000Y-63000000D03*
X114250000Y-66000000D03*
X113750000Y-68250000D03*
X113500000Y-70750000D03*
X114500000Y-72250000D03*
X114500000Y-74500000D03*
X120000000Y-73750000D03*
X139250000Y-73250000D03*
X138250000Y-74750000D03*
X147250000Y-76750000D03*
X147250000Y-75000000D03*
X113250000Y-81250000D03*
X114500000Y-81250000D03*
X117250000Y-81000000D03*
X118250000Y-80250000D03*
X121500000Y-80250000D03*
X123500000Y-80000000D03*
X124500000Y-80000000D03*
X125750000Y-80000000D03*
X127000000Y-80000000D03*
X128250000Y-79750000D03*
X130000000Y-79000000D03*
X132500000Y-78000000D03*
X134000000Y-78750000D03*
X136750000Y-80750000D03*
X138250000Y-80750000D03*
X139750000Y-80750000D03*
X141250000Y-80750000D03*
X141250000Y-82000000D03*
X142750000Y-83500000D03*
X144000000Y-83250000D03*
X145500000Y-82500000D03*
X146500000Y-81250000D03*
X147000000Y-79750000D03*
X147750000Y-78250000D03*
X149250000Y-78250000D03*
X151000000Y-79750000D03*
X151000000Y-78250000D03*
X151000000Y-73500000D03*
X151000000Y-71500000D03*
X151000000Y-70000000D03*
X151000000Y-68250000D03*
X151000000Y-66250000D03*
X151000000Y-64500000D03*
X151000000Y-62750000D03*
X151000000Y-61000000D03*
X149500000Y-61000000D03*
X147750000Y-61000000D03*
X146000000Y-61000000D03*
X144250000Y-61000000D03*
X142500000Y-61000000D03*
X140750000Y-61000000D03*
X139000000Y-61000000D03*
X137250000Y-61000000D03*
X135500000Y-61000000D03*
X137000000Y-108750000D03*
X137000000Y-107250000D03*
X137000000Y-106000000D03*
X137000000Y-104500000D03*
X137000000Y-103000000D03*
X137000000Y-101500000D03*
X137000000Y-100250000D03*
X132500000Y-99250000D03*
X131750000Y-100000000D03*
X130750000Y-100750000D03*
X129500000Y-100750000D03*
X127000000Y-102000000D03*
X127000000Y-103250000D03*
X127000000Y-104500000D03*
X127000000Y-109250000D03*
X125500000Y-109250000D03*
X124000000Y-109250000D03*
X122500000Y-109250000D03*
X121000000Y-109250000D03*
X119250000Y-109250000D03*
X117750000Y-109250000D03*
X119750000Y-99250000D03*
X119750000Y-97250000D03*
X119750000Y-95250000D03*
X122500000Y-80250000D03*
X122250000Y-82500000D03*
X122500000Y-84500000D03*
X131750000Y-81500000D03*
X131500000Y-78750000D03*
X126000000Y-77750000D03*
X135500000Y-80500000D03*
X135500000Y-79000000D03*
X147500000Y-84750000D03*
X147750000Y-82500000D03*
X150000000Y-79750000D03*
X143250000Y-75000000D03*
X140500000Y-75000000D03*
X117750000Y-73750000D03*
X117750000Y-71500000D03*
X121250000Y-71500000D03*
X121250000Y-69000000D03*
X117750000Y-69000000D03*
%TO.N,/P_{IN}/HBO-MCU*%
X122250000Y-86750000D03*
%TO.N,/P_{IN}/EH-ON*%
X122500000Y-87750000D03*
%TO.N,/P_{IN}/PWG-LDO*%
X123250000Y-88750000D03*
%TO.N,/P_{IN}/PWG-Vout*%
X123750000Y-89750000D03*
%TO.N,GND*%
X138000000Y-108000000D03*
X138000000Y-106000000D03*
%TO.N,/Microcontroller/io_p025*%
X144250000Y-103250000D03*
X146000000Y-100250000D03*
%TO.N,/Microcontroller/V_{DD}*%
X125750000Y-92750000D03*
%TO.N,GND*%
X127000000Y-100750000D03*
X132500000Y-83500000D03*
X143250000Y-98500000D03*
X124750000Y-61000000D03*
X132250000Y-87798911D03*
X116750000Y-62500000D03*
X140300000Y-101200000D03*
X143100000Y-88400000D03*
X130000000Y-65000000D03*
X140300000Y-100000000D03*
X140500000Y-85600000D03*
X143800000Y-87100000D03*
X146250000Y-66000000D03*
X116750000Y-65000000D03*
X132625000Y-62125000D03*
X125000000Y-85250000D03*
X116750000Y-61250000D03*
X138500000Y-82500000D03*
X143250000Y-103250000D03*
X122750000Y-71000000D03*
X138900000Y-99600000D03*
X136600000Y-98200000D03*
X125000000Y-84000000D03*
X137000000Y-99000000D03*
X116750000Y-66250000D03*
X134250000Y-70000000D03*
X128250000Y-71500000D03*
X130000000Y-71000000D03*
X137500000Y-79000000D03*
X146000000Y-88500000D03*
X141900000Y-96200000D03*
X116750000Y-63750000D03*
X132750000Y-63000000D03*
X143100000Y-96400000D03*
X150250000Y-72500000D03*
X146000000Y-70500000D03*
%TO.N,Net-(J401-Pin_1)*%
X142500000Y-69250000D03*
X124500000Y-71500000D03*
%TO.N,/P_{IN}/LDO_{OUT}*%
X117250000Y-67500000D03*
X136000000Y-73500000D03*
X128500000Y-73750000D03*
X125000000Y-62250000D03*
%TO.N,/Microcontroller/V_{DD}*%
X141500000Y-85700000D03*
X131500000Y-91750000D03*
X125250000Y-91750000D03*
X141900000Y-95300000D03*
%TO.N,/P_{IN}/PWG-LDO*%
X132500000Y-85750000D03*
%TO.N,/P_{IN}/PWG-Vout*%
X133600000Y-86800000D03*
%TO.N,/P_{IN}/EH-ON*%
X134400000Y-86300000D03*
%TO.N,/P_{IN}/HBO-MCU*%
X135400000Y-86700000D03*
%TO.N,/Microcontroller/LDO_{EN}*%
X123000000Y-90750000D03*
X131750000Y-90700000D03*
%TO.N,/Filter/Out*%
X143000000Y-81900000D03*
X136900500Y-87500000D03*
%TO.N,/Microcontroller/V_{ref}*%
X136128979Y-87962451D03*
%TO.N,/Microcontroller/io_p024*%
X144750000Y-97250000D03*
X135000000Y-96000000D03*
%TO.N,/Microcontroller/swd_clk*%
X131100000Y-97300000D03*
X131100000Y-95400000D03*
%TO.N,/Reference/ref_1v1*%
X127500000Y-79000000D03*
%TO.N,/Reference/ref_0v5*%
X130750000Y-75250000D03*
%TO.N,Net-(JP402-A)*%
X141250000Y-72250000D03*
%TO.N,Net-(JP403-A)*%
X137500000Y-66500000D03*
X141000000Y-69250000D03*
X139500000Y-69250000D03*
%TO.N,Net-(J402-Pin_1)*%
X129750000Y-72000000D03*
X137500000Y-69250000D03*
%TD*%
D22*
%TO.N,/Microcontroller/V_{ref}*%
X129000000Y-79500000D02*
X129250000Y-79750000D01*
X129250000Y-79750000D02*
X133000000Y-79750000D01*
X133000000Y-79750000D02*
X136128979Y-82878979D01*
X136128979Y-82878979D02*
X136128979Y-87962451D01*
X129000000Y-79500000D02*
X129000000Y-77000000D01*
%TO.N,/Microcontroller/LDO_{EN}*%
X123000000Y-90750000D02*
X123050000Y-90700000D01*
X123050000Y-90700000D02*
X131750000Y-90700000D01*
D23*
%TO.N,/P_{IN}/HBO-MCU*%
X122250000Y-86750000D02*
X125500000Y-86750000D01*
%TO.N,/P_{IN}/EH-ON*%
X122500000Y-87750000D02*
X126250000Y-87750000D01*
%TO.N,/P_{IN}/PWG-Vout*%
X123750000Y-89750000D02*
X128000000Y-89750000D01*
D22*
%TO.N,/Microcontroller/io_p025*%
X144250000Y-102000000D02*
X144250000Y-103250000D01*
X146000000Y-100250000D02*
X144250000Y-102000000D01*
%TO.N,GND*%
X145750000Y-70750000D02*
X146000000Y-70500000D01*
X143800000Y-70750000D02*
X145750000Y-70750000D01*
%TO.N,Net-(J401-Pin_1)*%
X140750000Y-73250000D02*
X142000000Y-73250000D01*
X128250000Y-68000000D02*
X139750000Y-68000000D01*
X139750000Y-68000000D02*
X140250000Y-68500000D01*
X140250000Y-72750000D02*
X140750000Y-73250000D01*
X142500000Y-69250000D02*
X142500000Y-70750000D01*
X124500000Y-71500000D02*
X124750000Y-71500000D01*
X140250000Y-68500000D02*
X140250000Y-72750000D01*
X142000000Y-73250000D02*
X142500000Y-72750000D01*
X124750000Y-71500000D02*
X128250000Y-68000000D01*
X142500000Y-72750000D02*
X142500000Y-70750000D01*
D23*
%TO.N,/P_{IN}/LDO_{OUT}*%
X125000000Y-66000000D02*
X125000000Y-62250000D01*
X117250000Y-67500000D02*
X123500000Y-67500000D01*
X129000000Y-74750000D02*
X116750000Y-74750000D01*
X136200000Y-70750000D02*
X136200000Y-73300000D01*
X116750000Y-74750000D02*
X116000000Y-75500000D01*
X136200000Y-73300000D02*
X136000000Y-73500000D01*
X123500000Y-67500000D02*
X125000000Y-66000000D01*
X128500000Y-74750000D02*
X128500000Y-73750000D01*
X129750000Y-74000000D02*
X129000000Y-74750000D01*
X136000000Y-73500000D02*
X135500000Y-74000000D01*
X135500000Y-74000000D02*
X129750000Y-74000000D01*
X116000000Y-75500000D02*
X116000000Y-77380000D01*
%TO.N,/P_{IN}/PWG-LDO*%
X130000000Y-85750000D02*
X127000000Y-88750000D01*
X127000000Y-88750000D02*
X123250000Y-88750000D01*
X132500000Y-85750000D02*
X130000000Y-85750000D01*
%TO.N,/P_{IN}/PWG-Vout*%
X128000000Y-89750000D02*
X130950000Y-86800000D01*
X130950000Y-86800000D02*
X133600000Y-86800000D01*
%TO.N,/P_{IN}/EH-ON*%
X126250000Y-87750000D02*
X129250000Y-84750000D01*
X129250000Y-84750000D02*
X133750000Y-84750000D01*
X133750000Y-84750000D02*
X134400000Y-85400000D01*
X134400000Y-85400000D02*
X134400000Y-86300000D01*
%TO.N,/P_{IN}/HBO-MCU*%
X130000000Y-82250000D02*
X133250000Y-82250000D01*
X133250000Y-82250000D02*
X135400000Y-84400000D01*
X125500000Y-86750000D02*
X130000000Y-82250000D01*
X135400000Y-84400000D02*
X135400000Y-86700000D01*
D22*
%TO.N,/Filter/Out*%
X137400000Y-87500000D02*
X143000000Y-81900000D01*
X136900500Y-87500000D02*
X137400000Y-87500000D01*
%TO.N,/Microcontroller/io_p024*%
X135000000Y-96000000D02*
X135050000Y-95950000D01*
X135050000Y-95950000D02*
X139450000Y-95950000D01*
X139450000Y-95950000D02*
X140750000Y-97250000D01*
X140750000Y-97250000D02*
X144750000Y-97250000D01*
%TO.N,/Microcontroller/swd_clk*%
X131100000Y-97300000D02*
X131100000Y-95400000D01*
%TO.N,/Reference/ref_1v1*%
X127700000Y-78800000D02*
X127700000Y-77000000D01*
X127500000Y-79000000D02*
X127700000Y-78800000D01*
%TO.N,/Reference/ref_0v5*%
X130300000Y-75700000D02*
X130300000Y-77000000D01*
X130750000Y-75250000D02*
X130300000Y-75700000D01*
%TO.N,Net-(JP402-A)*%
X141250000Y-70800000D02*
X141200000Y-70750000D01*
X141250000Y-72250000D02*
X141250000Y-70800000D01*
D23*
%TO.N,Net-(JP403-A)*%
X138800000Y-70750000D02*
X138800000Y-69950000D01*
X141000000Y-67000000D02*
X140500000Y-66500000D01*
X140500000Y-66500000D02*
X137500000Y-66500000D01*
X138800000Y-69950000D02*
X139500000Y-69250000D01*
X141000000Y-69250000D02*
X141000000Y-67000000D01*
D22*
%TO.N,Net-(J402-Pin_1)*%
X131750000Y-70500000D02*
X130250000Y-72000000D01*
X133000000Y-69250000D02*
X131750000Y-70500000D01*
X130250000Y-72000000D02*
X129750000Y-72000000D01*
X137500000Y-69250000D02*
X133000000Y-69250000D01*
X137500000Y-69250000D02*
X137500000Y-70750000D01*
%TD*%
%TA.AperFunction,Conductor*%
%TO.N,/P_{IN}/LDO_{OUT}*%
G36*
X124226505Y-60120185D02*
G01*
X124272260Y-60172989D01*
X124282204Y-60242147D01*
X124253179Y-60305703D01*
X124232352Y-60324818D01*
X124177768Y-60364475D01*
X124058140Y-60497336D01*
X123968750Y-60652164D01*
X123968747Y-60652170D01*
X123913504Y-60822192D01*
X123913503Y-60822194D01*
X123894815Y-61000000D01*
X123913503Y-61177805D01*
X123913504Y-61177807D01*
X123968747Y-61347829D01*
X123968750Y-61347835D01*
X124058141Y-61502665D01*
X124099812Y-61548946D01*
X124177764Y-61635521D01*
X124177767Y-61635523D01*
X124177770Y-61635526D01*
X124322407Y-61740612D01*
X124485733Y-61813329D01*
X124660609Y-61850500D01*
X124660610Y-61850500D01*
X124839389Y-61850500D01*
X124839391Y-61850500D01*
X125014267Y-61813329D01*
X125177593Y-61740612D01*
X125322230Y-61635526D01*
X125334107Y-61622336D01*
X125356167Y-61597835D01*
X125441859Y-61502665D01*
X125531250Y-61347835D01*
X125586497Y-61177803D01*
X125605185Y-61000000D01*
X125586497Y-60822197D01*
X125543538Y-60689984D01*
X125531252Y-60652170D01*
X125531249Y-60652164D01*
X125509490Y-60614476D01*
X125441859Y-60497335D01*
X125353768Y-60399500D01*
X125322235Y-60364478D01*
X125322232Y-60364476D01*
X125322231Y-60364475D01*
X125322230Y-60364474D01*
X125267647Y-60324816D01*
X125224983Y-60269488D01*
X125219004Y-60199874D01*
X125251610Y-60138079D01*
X125312449Y-60103722D01*
X125340534Y-60100500D01*
X134909466Y-60100500D01*
X134976505Y-60120185D01*
X135022260Y-60172989D01*
X135032204Y-60242147D01*
X135003179Y-60305703D01*
X134982352Y-60324818D01*
X134927768Y-60364475D01*
X134808140Y-60497336D01*
X134718750Y-60652164D01*
X134718747Y-60652170D01*
X134663504Y-60822192D01*
X134663503Y-60822194D01*
X134644815Y-61000000D01*
X134663503Y-61177805D01*
X134663504Y-61177807D01*
X134718747Y-61347829D01*
X134718750Y-61347835D01*
X134808141Y-61502665D01*
X134849812Y-61548946D01*
X134927764Y-61635521D01*
X134927767Y-61635523D01*
X134927770Y-61635526D01*
X135072407Y-61740612D01*
X135235733Y-61813329D01*
X135410609Y-61850500D01*
X135410610Y-61850500D01*
X135589389Y-61850500D01*
X135589391Y-61850500D01*
X135764267Y-61813329D01*
X135927593Y-61740612D01*
X136072230Y-61635526D01*
X136084107Y-61622336D01*
X136122424Y-61579780D01*
X136191859Y-61502665D01*
X136267614Y-61371452D01*
X136318179Y-61323239D01*
X136386786Y-61310015D01*
X136451651Y-61335983D01*
X136482384Y-61371451D01*
X136558140Y-61502663D01*
X136558141Y-61502665D01*
X136677764Y-61635521D01*
X136677767Y-61635523D01*
X136677770Y-61635526D01*
X136822407Y-61740612D01*
X136985733Y-61813329D01*
X137160609Y-61850500D01*
X137160610Y-61850500D01*
X137339389Y-61850500D01*
X137339391Y-61850500D01*
X137514267Y-61813329D01*
X137677593Y-61740612D01*
X137822230Y-61635526D01*
X137834107Y-61622336D01*
X137872424Y-61579780D01*
X137941859Y-61502665D01*
X138017614Y-61371452D01*
X138068179Y-61323239D01*
X138136786Y-61310015D01*
X138201651Y-61335983D01*
X138232384Y-61371451D01*
X138308140Y-61502663D01*
X138308141Y-61502665D01*
X138427764Y-61635521D01*
X138427767Y-61635523D01*
X138427770Y-61635526D01*
X138572407Y-61740612D01*
X138735733Y-61813329D01*
X138910609Y-61850500D01*
X138910610Y-61850500D01*
X139089389Y-61850500D01*
X139089391Y-61850500D01*
X139264267Y-61813329D01*
X139427593Y-61740612D01*
X139572230Y-61635526D01*
X139584107Y-61622336D01*
X139622424Y-61579780D01*
X139691859Y-61502665D01*
X139767614Y-61371452D01*
X139818179Y-61323239D01*
X139886786Y-61310015D01*
X139951651Y-61335983D01*
X139982384Y-61371451D01*
X140058140Y-61502663D01*
X140058141Y-61502665D01*
X140177764Y-61635521D01*
X140177767Y-61635523D01*
X140177770Y-61635526D01*
X140322407Y-61740612D01*
X140485733Y-61813329D01*
X140660609Y-61850500D01*
X140660610Y-61850500D01*
X140839389Y-61850500D01*
X140839391Y-61850500D01*
X141014267Y-61813329D01*
X141177593Y-61740612D01*
X141322230Y-61635526D01*
X141334107Y-61622336D01*
X141372424Y-61579780D01*
X141441859Y-61502665D01*
X141517614Y-61371452D01*
X141568179Y-61323239D01*
X141636786Y-61310015D01*
X141701651Y-61335983D01*
X141732384Y-61371451D01*
X141808140Y-61502663D01*
X141808141Y-61502665D01*
X141927764Y-61635521D01*
X141927767Y-61635523D01*
X141927770Y-61635526D01*
X142072407Y-61740612D01*
X142235733Y-61813329D01*
X142410609Y-61850500D01*
X142410610Y-61850500D01*
X142589389Y-61850500D01*
X142589391Y-61850500D01*
X142764267Y-61813329D01*
X142927593Y-61740612D01*
X143072230Y-61635526D01*
X143084107Y-61622336D01*
X143122424Y-61579780D01*
X143191859Y-61502665D01*
X143267614Y-61371452D01*
X143318179Y-61323239D01*
X143386786Y-61310015D01*
X143451651Y-61335983D01*
X143482384Y-61371451D01*
X143558140Y-61502663D01*
X143558141Y-61502665D01*
X143677764Y-61635521D01*
X143677767Y-61635523D01*
X143677770Y-61635526D01*
X143822407Y-61740612D01*
X143985733Y-61813329D01*
X144160609Y-61850500D01*
X144160610Y-61850500D01*
X144339389Y-61850500D01*
X144339391Y-61850500D01*
X144514267Y-61813329D01*
X144677593Y-61740612D01*
X144822230Y-61635526D01*
X144834107Y-61622336D01*
X144872424Y-61579780D01*
X144941859Y-61502665D01*
X145017614Y-61371452D01*
X145068179Y-61323239D01*
X145136786Y-61310015D01*
X145201651Y-61335983D01*
X145232384Y-61371451D01*
X145308140Y-61502663D01*
X145308141Y-61502665D01*
X145427764Y-61635521D01*
X145427767Y-61635523D01*
X145427770Y-61635526D01*
X145572407Y-61740612D01*
X145735733Y-61813329D01*
X145910609Y-61850500D01*
X145910610Y-61850500D01*
X146089389Y-61850500D01*
X146089391Y-61850500D01*
X146264267Y-61813329D01*
X146427593Y-61740612D01*
X146572230Y-61635526D01*
X146584107Y-61622336D01*
X146622424Y-61579780D01*
X146691859Y-61502665D01*
X146767614Y-61371452D01*
X146818179Y-61323239D01*
X146886786Y-61310015D01*
X146951651Y-61335983D01*
X146982384Y-61371451D01*
X147058140Y-61502663D01*
X147058141Y-61502665D01*
X147177764Y-61635521D01*
X147177767Y-61635523D01*
X147177770Y-61635526D01*
X147322407Y-61740612D01*
X147485733Y-61813329D01*
X147660609Y-61850500D01*
X147660610Y-61850500D01*
X147839389Y-61850500D01*
X147839391Y-61850500D01*
X148014267Y-61813329D01*
X148177593Y-61740612D01*
X148322230Y-61635526D01*
X148334107Y-61622336D01*
X148372424Y-61579780D01*
X148441859Y-61502665D01*
X148517614Y-61371452D01*
X148568179Y-61323239D01*
X148636786Y-61310015D01*
X148701651Y-61335983D01*
X148732384Y-61371451D01*
X148808140Y-61502663D01*
X148808141Y-61502665D01*
X148927764Y-61635521D01*
X148927767Y-61635523D01*
X148927770Y-61635526D01*
X149072407Y-61740612D01*
X149235733Y-61813329D01*
X149410609Y-61850500D01*
X149410610Y-61850500D01*
X149589389Y-61850500D01*
X149589391Y-61850500D01*
X149764267Y-61813329D01*
X149927593Y-61740612D01*
X150072230Y-61635526D01*
X150157852Y-61540432D01*
X150217336Y-61503787D01*
X150287193Y-61505116D01*
X150342147Y-61540432D01*
X150427770Y-61635526D01*
X150572407Y-61740612D01*
X150619819Y-61761721D01*
X150673055Y-61806970D01*
X150693377Y-61873819D01*
X150674332Y-61941043D01*
X150621966Y-61987299D01*
X150619819Y-61988279D01*
X150572408Y-62009387D01*
X150427768Y-62114475D01*
X150308140Y-62247336D01*
X150218750Y-62402164D01*
X150218747Y-62402170D01*
X150163504Y-62572192D01*
X150163503Y-62572194D01*
X150144815Y-62750000D01*
X150163503Y-62927805D01*
X150163504Y-62927807D01*
X150218747Y-63097829D01*
X150218750Y-63097835D01*
X150308141Y-63252665D01*
X150316650Y-63262115D01*
X150427764Y-63385521D01*
X150427767Y-63385523D01*
X150427770Y-63385526D01*
X150572407Y-63490612D01*
X150619819Y-63511721D01*
X150673055Y-63556970D01*
X150693377Y-63623819D01*
X150674332Y-63691043D01*
X150621966Y-63737299D01*
X150619819Y-63738279D01*
X150572408Y-63759387D01*
X150427768Y-63864475D01*
X150308140Y-63997336D01*
X150218750Y-64152164D01*
X150218747Y-64152170D01*
X150163504Y-64322192D01*
X150163503Y-64322194D01*
X150144815Y-64500000D01*
X150163503Y-64677805D01*
X150163504Y-64677807D01*
X150218747Y-64847829D01*
X150218750Y-64847835D01*
X150308141Y-65002665D01*
X150316650Y-65012115D01*
X150427764Y-65135521D01*
X150427767Y-65135523D01*
X150427770Y-65135526D01*
X150572407Y-65240612D01*
X150619819Y-65261721D01*
X150673055Y-65306970D01*
X150693377Y-65373819D01*
X150674332Y-65441043D01*
X150621966Y-65487299D01*
X150619819Y-65488279D01*
X150572408Y-65509387D01*
X150427768Y-65614475D01*
X150308140Y-65747336D01*
X150218750Y-65902164D01*
X150218747Y-65902170D01*
X150163504Y-66072192D01*
X150163503Y-66072194D01*
X150144815Y-66250000D01*
X150163503Y-66427805D01*
X150163504Y-66427807D01*
X150218747Y-66597829D01*
X150218750Y-66597835D01*
X150308141Y-66752665D01*
X150316650Y-66762115D01*
X150427764Y-66885521D01*
X150427767Y-66885523D01*
X150427770Y-66885526D01*
X150572407Y-66990612D01*
X150735733Y-67063329D01*
X150910609Y-67100500D01*
X150910610Y-67100500D01*
X151089389Y-67100500D01*
X151089391Y-67100500D01*
X151264267Y-67063329D01*
X151427593Y-66990612D01*
X151572230Y-66885526D01*
X151579858Y-66877055D01*
X151683350Y-66762115D01*
X151742836Y-66725466D01*
X151812693Y-66726796D01*
X151870742Y-66765683D01*
X151898552Y-66829780D01*
X151899500Y-66845087D01*
X151899500Y-67654912D01*
X151879815Y-67721951D01*
X151827011Y-67767706D01*
X151757853Y-67777650D01*
X151694297Y-67748625D01*
X151683350Y-67737884D01*
X151572235Y-67614478D01*
X151572232Y-67614476D01*
X151572231Y-67614475D01*
X151572230Y-67614474D01*
X151427593Y-67509388D01*
X151264267Y-67436671D01*
X151264265Y-67436670D01*
X151136594Y-67409533D01*
X151089391Y-67399500D01*
X150910609Y-67399500D01*
X150879954Y-67406015D01*
X150735733Y-67436670D01*
X150735728Y-67436672D01*
X150572408Y-67509387D01*
X150427768Y-67614475D01*
X150308140Y-67747336D01*
X150218750Y-67902164D01*
X150218747Y-67902170D01*
X150163504Y-68072192D01*
X150163503Y-68072194D01*
X150144815Y-68250000D01*
X150163503Y-68427805D01*
X150163504Y-68427807D01*
X150218747Y-68597829D01*
X150218750Y-68597835D01*
X150308141Y-68752665D01*
X150316650Y-68762115D01*
X150427764Y-68885521D01*
X150427767Y-68885523D01*
X150427770Y-68885526D01*
X150572407Y-68990612D01*
X150619819Y-69011721D01*
X150673055Y-69056970D01*
X150693377Y-69123819D01*
X150674332Y-69191043D01*
X150621966Y-69237299D01*
X150619819Y-69238279D01*
X150572408Y-69259387D01*
X150427768Y-69364475D01*
X150308140Y-69497336D01*
X150218750Y-69652164D01*
X150218747Y-69652170D01*
X150163504Y-69822192D01*
X150163503Y-69822194D01*
X150144815Y-70000000D01*
X150163503Y-70177805D01*
X150163504Y-70177807D01*
X150218747Y-70347829D01*
X150218750Y-70347835D01*
X150308141Y-70502665D01*
X150346903Y-70545714D01*
X150427764Y-70635521D01*
X150427769Y-70635525D01*
X150447255Y-70649683D01*
X150489920Y-70705014D01*
X150495898Y-70774627D01*
X150463291Y-70836422D01*
X150447255Y-70850317D01*
X150427769Y-70864474D01*
X150308140Y-70997336D01*
X150218750Y-71152164D01*
X150218747Y-71152170D01*
X150163504Y-71322192D01*
X150163503Y-71322194D01*
X150144815Y-71500000D01*
X150148859Y-71538479D01*
X150136289Y-71607208D01*
X150088556Y-71658232D01*
X150051321Y-71672729D01*
X149985730Y-71686671D01*
X149985728Y-71686672D01*
X149822408Y-71759387D01*
X149677768Y-71864475D01*
X149558140Y-71997336D01*
X149468750Y-72152164D01*
X149468747Y-72152170D01*
X149413504Y-72322192D01*
X149413503Y-72322194D01*
X149394815Y-72500000D01*
X149413503Y-72677805D01*
X149413504Y-72677807D01*
X149468747Y-72847829D01*
X149468750Y-72847835D01*
X149558141Y-73002665D01*
X149580638Y-73027650D01*
X149677764Y-73135521D01*
X149677767Y-73135523D01*
X149677770Y-73135526D01*
X149822407Y-73240612D01*
X149985733Y-73313329D01*
X150051322Y-73327270D01*
X150112800Y-73360460D01*
X150146577Y-73421623D01*
X150148859Y-73461519D01*
X150144815Y-73499998D01*
X150163503Y-73677805D01*
X150163504Y-73677807D01*
X150218747Y-73847829D01*
X150218750Y-73847835D01*
X150308141Y-74002665D01*
X150316650Y-74012115D01*
X150427764Y-74135521D01*
X150427767Y-74135523D01*
X150427770Y-74135526D01*
X150572407Y-74240612D01*
X150735733Y-74313329D01*
X150910609Y-74350500D01*
X150910610Y-74350500D01*
X151089389Y-74350500D01*
X151089391Y-74350500D01*
X151264267Y-74313329D01*
X151427593Y-74240612D01*
X151572230Y-74135526D01*
X151591185Y-74114475D01*
X151683350Y-74012115D01*
X151742836Y-73975466D01*
X151812693Y-73976796D01*
X151870742Y-74015683D01*
X151898552Y-74079780D01*
X151899500Y-74095087D01*
X151899500Y-77654912D01*
X151879815Y-77721951D01*
X151827011Y-77767706D01*
X151757853Y-77777650D01*
X151694297Y-77748625D01*
X151683350Y-77737884D01*
X151572235Y-77614478D01*
X151572232Y-77614476D01*
X151572231Y-77614475D01*
X151572230Y-77614474D01*
X151427593Y-77509388D01*
X151264267Y-77436671D01*
X151264265Y-77436670D01*
X151264264Y-77436670D01*
X151264261Y-77436669D01*
X151248968Y-77433418D01*
X151187487Y-77400224D01*
X151153713Y-77339060D01*
X151158368Y-77269345D01*
X151199973Y-77213214D01*
X151207546Y-77207546D01*
X151293796Y-77092331D01*
X151344091Y-76957483D01*
X151350500Y-76897873D01*
X151350499Y-75102128D01*
X151344091Y-75042517D01*
X151329227Y-75002665D01*
X151293797Y-74907671D01*
X151293793Y-74907664D01*
X151207547Y-74792455D01*
X151207544Y-74792452D01*
X151092335Y-74706206D01*
X151092328Y-74706202D01*
X150957482Y-74655908D01*
X150957483Y-74655908D01*
X150897883Y-74649501D01*
X150897881Y-74649500D01*
X150897873Y-74649500D01*
X150897864Y-74649500D01*
X149102129Y-74649500D01*
X149102123Y-74649501D01*
X149042516Y-74655908D01*
X148907671Y-74706202D01*
X148907664Y-74706206D01*
X148792455Y-74792452D01*
X148792452Y-74792455D01*
X148706206Y-74907664D01*
X148706202Y-74907671D01*
X148655908Y-75042517D01*
X148649962Y-75097829D01*
X148649501Y-75102123D01*
X148649500Y-75102135D01*
X148649500Y-76897870D01*
X148649501Y-76897876D01*
X148655908Y-76957483D01*
X148706202Y-77092328D01*
X148706206Y-77092335D01*
X148764464Y-77170156D01*
X148792454Y-77207546D01*
X148887328Y-77278569D01*
X148929198Y-77334501D01*
X148934182Y-77404193D01*
X148900697Y-77465516D01*
X148863454Y-77491113D01*
X148822405Y-77509389D01*
X148677771Y-77614473D01*
X148677770Y-77614474D01*
X148592148Y-77709565D01*
X148532663Y-77746213D01*
X148462806Y-77744882D01*
X148407850Y-77709564D01*
X148322235Y-77614478D01*
X148322232Y-77614476D01*
X148322231Y-77614475D01*
X148322230Y-77614474D01*
X148177593Y-77509388D01*
X148014267Y-77436671D01*
X148014266Y-77436670D01*
X148014260Y-77436668D01*
X148009468Y-77435111D01*
X147951794Y-77395670D01*
X147924600Y-77331310D01*
X147936518Y-77262465D01*
X147940405Y-77255182D01*
X147941856Y-77252667D01*
X147941859Y-77252665D01*
X148031250Y-77097835D01*
X148086497Y-76927803D01*
X148105185Y-76750000D01*
X148086497Y-76572197D01*
X148031250Y-76402165D01*
X147941859Y-76247335D01*
X147873205Y-76171087D01*
X147822235Y-76114478D01*
X147822232Y-76114476D01*
X147822231Y-76114475D01*
X147822230Y-76114474D01*
X147677593Y-76009388D01*
X147630180Y-75988278D01*
X147576945Y-75943030D01*
X147556623Y-75876181D01*
X147575668Y-75808957D01*
X147628034Y-75762701D01*
X147630128Y-75761744D01*
X147677593Y-75740612D01*
X147822230Y-75635526D01*
X147941859Y-75502665D01*
X148031250Y-75347835D01*
X148086497Y-75177803D01*
X148105185Y-75000000D01*
X148086497Y-74822197D01*
X148048809Y-74706206D01*
X148031252Y-74652170D01*
X148031249Y-74652164D01*
X148009490Y-74614476D01*
X147941859Y-74497335D01*
X147856172Y-74402170D01*
X147822235Y-74364478D01*
X147822232Y-74364476D01*
X147822231Y-74364475D01*
X147822230Y-74364474D01*
X147677593Y-74259388D01*
X147514267Y-74186671D01*
X147514265Y-74186670D01*
X147351952Y-74152170D01*
X147339391Y-74149500D01*
X147160609Y-74149500D01*
X147148048Y-74152170D01*
X146985733Y-74186670D01*
X146985728Y-74186672D01*
X146822408Y-74259387D01*
X146677768Y-74364475D01*
X146558140Y-74497336D01*
X146468750Y-74652164D01*
X146468747Y-74652170D01*
X146413504Y-74822192D01*
X146413503Y-74822194D01*
X146394815Y-75000000D01*
X146413503Y-75177805D01*
X146413504Y-75177807D01*
X146468747Y-75347829D01*
X146468750Y-75347835D01*
X146558141Y-75502665D01*
X146594670Y-75543234D01*
X146677764Y-75635521D01*
X146677767Y-75635523D01*
X146677770Y-75635526D01*
X146822407Y-75740612D01*
X146869819Y-75761721D01*
X146923055Y-75806970D01*
X146943377Y-75873819D01*
X146924332Y-75941043D01*
X146871966Y-75987299D01*
X146869819Y-75988279D01*
X146822408Y-76009387D01*
X146677768Y-76114475D01*
X146558140Y-76247336D01*
X146468750Y-76402164D01*
X146468747Y-76402170D01*
X146413504Y-76572192D01*
X146413503Y-76572194D01*
X146394815Y-76750000D01*
X146413503Y-76927805D01*
X146413504Y-76927807D01*
X146468747Y-77097829D01*
X146468750Y-77097835D01*
X146558141Y-77252665D01*
X146595176Y-77293796D01*
X146677764Y-77385521D01*
X146677767Y-77385523D01*
X146677770Y-77385526D01*
X146822407Y-77490612D01*
X146985733Y-77563329D01*
X146985738Y-77563330D01*
X146990525Y-77564886D01*
X147048200Y-77604323D01*
X147075399Y-77668682D01*
X147063484Y-77737528D01*
X147059595Y-77744816D01*
X146968749Y-77902167D01*
X146968747Y-77902170D01*
X146913504Y-78072192D01*
X146913503Y-78072194D01*
X146894815Y-78250000D01*
X146913503Y-78427805D01*
X146913504Y-78427807D01*
X146968747Y-78597829D01*
X146968750Y-78597835D01*
X147035529Y-78713500D01*
X147052002Y-78781401D01*
X147029149Y-78847427D01*
X146974228Y-78890618D01*
X146928142Y-78899500D01*
X146910609Y-78899500D01*
X146879954Y-78906015D01*
X146735733Y-78936670D01*
X146735728Y-78936672D01*
X146572408Y-79009387D01*
X146427768Y-79114475D01*
X146308140Y-79247336D01*
X146218750Y-79402164D01*
X146218747Y-79402170D01*
X146163504Y-79572192D01*
X146163503Y-79572194D01*
X146144815Y-79750000D01*
X146163503Y-79927805D01*
X146163504Y-79927807D01*
X146218747Y-80097829D01*
X146218750Y-80097835D01*
X146309594Y-80255182D01*
X146326067Y-80323083D01*
X146303214Y-80389109D01*
X146248293Y-80432300D01*
X146240531Y-80435111D01*
X146235733Y-80436669D01*
X146072408Y-80509387D01*
X145927768Y-80614475D01*
X145808140Y-80747336D01*
X145718750Y-80902164D01*
X145718747Y-80902170D01*
X145714801Y-80914318D01*
X145675364Y-80971993D01*
X145611005Y-80999192D01*
X145596870Y-81000000D01*
X142216625Y-81000000D01*
X142149586Y-80980315D01*
X142103831Y-80927511D01*
X142093304Y-80863039D01*
X142105185Y-80750000D01*
X142086497Y-80572197D01*
X142042462Y-80436671D01*
X142031252Y-80402170D01*
X142031249Y-80402164D01*
X142021642Y-80385524D01*
X141941859Y-80247335D01*
X141895003Y-80195296D01*
X141822235Y-80114478D01*
X141822232Y-80114476D01*
X141822231Y-80114475D01*
X141822230Y-80114474D01*
X141677593Y-80009388D01*
X141514267Y-79936671D01*
X141514265Y-79936670D01*
X141351952Y-79902170D01*
X141339391Y-79899500D01*
X141160609Y-79899500D01*
X141148048Y-79902170D01*
X140985733Y-79936670D01*
X140985728Y-79936672D01*
X140822408Y-80009387D01*
X140677774Y-80114471D01*
X140677770Y-80114474D01*
X140592148Y-80209565D01*
X140532663Y-80246213D01*
X140462806Y-80244882D01*
X140407850Y-80209564D01*
X140322235Y-80114478D01*
X140322232Y-80114476D01*
X140322231Y-80114475D01*
X140322230Y-80114474D01*
X140177593Y-80009388D01*
X140014267Y-79936671D01*
X140014265Y-79936670D01*
X139851952Y-79902170D01*
X139839391Y-79899500D01*
X139660609Y-79899500D01*
X139648048Y-79902170D01*
X139485733Y-79936670D01*
X139485728Y-79936672D01*
X139322408Y-80009387D01*
X139177774Y-80114471D01*
X139177770Y-80114474D01*
X139092148Y-80209565D01*
X139032663Y-80246213D01*
X138962806Y-80244882D01*
X138907850Y-80209564D01*
X138822235Y-80114478D01*
X138822232Y-80114476D01*
X138822231Y-80114475D01*
X138822230Y-80114474D01*
X138677593Y-80009388D01*
X138514267Y-79936671D01*
X138514265Y-79936670D01*
X138351952Y-79902170D01*
X138339391Y-79899500D01*
X138160609Y-79899500D01*
X138160608Y-79899500D01*
X138092724Y-79913929D01*
X138023057Y-79908613D01*
X137967324Y-79866476D01*
X137943219Y-79800896D01*
X137958396Y-79732694D01*
X137994055Y-79692323D01*
X138072230Y-79635526D01*
X138091185Y-79614475D01*
X138103768Y-79600500D01*
X138191859Y-79502665D01*
X138281250Y-79347835D01*
X138336497Y-79177803D01*
X138355185Y-79000000D01*
X138336497Y-78822197D01*
X138300500Y-78711410D01*
X138281252Y-78652170D01*
X138281249Y-78652164D01*
X138281132Y-78651961D01*
X138191859Y-78497335D01*
X138145003Y-78445296D01*
X138072235Y-78364478D01*
X138072232Y-78364476D01*
X138072231Y-78364475D01*
X138072230Y-78364474D01*
X137927593Y-78259388D01*
X137764267Y-78186671D01*
X137764265Y-78186670D01*
X137636594Y-78159533D01*
X137589391Y-78149500D01*
X137410609Y-78149500D01*
X137379954Y-78156015D01*
X137235733Y-78186670D01*
X137235728Y-78186672D01*
X137072408Y-78259387D01*
X136927768Y-78364475D01*
X136808140Y-78497336D01*
X136718750Y-78652164D01*
X136718747Y-78652170D01*
X136663504Y-78822192D01*
X136663503Y-78822194D01*
X136644815Y-79000000D01*
X136663503Y-79177805D01*
X136663504Y-79177807D01*
X136718747Y-79347829D01*
X136718750Y-79347835D01*
X136808141Y-79502665D01*
X136816065Y-79511465D01*
X136927764Y-79635521D01*
X136927767Y-79635523D01*
X136927770Y-79635526D01*
X136997318Y-79686056D01*
X137005941Y-79692321D01*
X137048606Y-79747652D01*
X137054585Y-79817265D01*
X137021979Y-79879060D01*
X136961140Y-79913417D01*
X136907274Y-79913929D01*
X136839391Y-79899500D01*
X136660609Y-79899500D01*
X136648048Y-79902170D01*
X136485733Y-79936670D01*
X136319266Y-80010787D01*
X136250016Y-80020071D01*
X136186740Y-79990443D01*
X136176687Y-79980485D01*
X136089381Y-79883522D01*
X136072234Y-79864478D01*
X136072232Y-79864476D01*
X136072230Y-79864474D01*
X136052745Y-79850317D01*
X136010080Y-79794989D01*
X136004101Y-79725375D01*
X136036706Y-79663580D01*
X136052746Y-79649682D01*
X136072230Y-79635526D01*
X136091185Y-79614475D01*
X136103768Y-79600500D01*
X136191859Y-79502665D01*
X136281250Y-79347835D01*
X136336497Y-79177803D01*
X136355185Y-79000000D01*
X136336497Y-78822197D01*
X136300500Y-78711410D01*
X136281252Y-78652170D01*
X136281249Y-78652164D01*
X136281132Y-78651961D01*
X136191859Y-78497335D01*
X136145003Y-78445296D01*
X136072235Y-78364478D01*
X136072232Y-78364476D01*
X136072231Y-78364475D01*
X136072230Y-78364474D01*
X135927593Y-78259388D01*
X135764267Y-78186671D01*
X135764265Y-78186670D01*
X135636594Y-78159533D01*
X135589391Y-78149500D01*
X135410609Y-78149500D01*
X135379954Y-78156015D01*
X135235733Y-78186670D01*
X135235728Y-78186672D01*
X135072408Y-78259387D01*
X134975919Y-78329491D01*
X134927770Y-78364474D01*
X134927768Y-78364475D01*
X134922513Y-78368294D01*
X134921122Y-78366380D01*
X134867809Y-78391943D01*
X134798477Y-78383293D01*
X134744827Y-78338533D01*
X134740484Y-78331556D01*
X134698818Y-78259389D01*
X134691859Y-78247335D01*
X134629252Y-78177803D01*
X134572235Y-78114478D01*
X134572232Y-78114476D01*
X134572231Y-78114475D01*
X134572230Y-78114474D01*
X134427593Y-78009388D01*
X134264267Y-77936671D01*
X134264265Y-77936670D01*
X134101938Y-77902167D01*
X134089391Y-77899500D01*
X133910609Y-77899500D01*
X133898062Y-77902167D01*
X133735733Y-77936670D01*
X133735728Y-77936672D01*
X133572408Y-78009388D01*
X133572404Y-78009390D01*
X133545267Y-78029106D01*
X133479460Y-78052585D01*
X133411406Y-78036759D01*
X133362712Y-77986652D01*
X133349062Y-77941751D01*
X133336497Y-77822197D01*
X133300301Y-77710798D01*
X133281252Y-77652170D01*
X133281249Y-77652164D01*
X133259490Y-77614476D01*
X133191859Y-77497335D01*
X133134308Y-77433418D01*
X133072235Y-77364478D01*
X133072232Y-77364476D01*
X133072231Y-77364475D01*
X133072230Y-77364474D01*
X132927593Y-77259388D01*
X132764267Y-77186671D01*
X132764265Y-77186670D01*
X132636594Y-77159533D01*
X132589391Y-77149500D01*
X132410609Y-77149500D01*
X132379954Y-77156015D01*
X132235733Y-77186670D01*
X132235728Y-77186672D01*
X132072408Y-77259387D01*
X131927768Y-77364475D01*
X131808140Y-77497336D01*
X131718750Y-77652164D01*
X131718747Y-77652171D01*
X131666225Y-77813818D01*
X131626787Y-77871494D01*
X131562429Y-77898692D01*
X131548294Y-77899500D01*
X131410609Y-77899500D01*
X131398048Y-77902170D01*
X131316238Y-77919559D01*
X131246570Y-77914243D01*
X131190837Y-77872106D01*
X131166732Y-77806526D01*
X131181909Y-77738324D01*
X131183942Y-77734916D01*
X131184900Y-77733160D01*
X131184904Y-77733155D01*
X131184906Y-77733148D01*
X131184910Y-77733143D01*
X131214348Y-77668682D01*
X131244632Y-77602370D01*
X131244632Y-77602369D01*
X131244632Y-77602367D01*
X131244814Y-77601970D01*
X131245250Y-77600262D01*
X131285180Y-77464277D01*
X131305642Y-77321962D01*
X131305642Y-77265603D01*
X131305647Y-77265585D01*
X131305647Y-76734443D01*
X131305642Y-76734397D01*
X131305642Y-76678039D01*
X131305642Y-76678038D01*
X131290424Y-76572194D01*
X131285180Y-76535720D01*
X131245965Y-76402170D01*
X131244632Y-76397630D01*
X131244627Y-76397618D01*
X131184910Y-76266856D01*
X131184901Y-76266840D01*
X131167714Y-76240097D01*
X131123363Y-76171085D01*
X131103679Y-76104047D01*
X131123363Y-76037008D01*
X131172360Y-75994551D01*
X131171963Y-75993863D01*
X131175535Y-75991800D01*
X131176167Y-75991253D01*
X131177254Y-75990763D01*
X131177278Y-75990752D01*
X131177593Y-75990612D01*
X131322230Y-75885526D01*
X131330645Y-75876181D01*
X131353768Y-75850500D01*
X131441859Y-75752665D01*
X131531250Y-75597835D01*
X131586497Y-75427803D01*
X131605185Y-75250000D01*
X131586497Y-75072197D01*
X131539581Y-74927805D01*
X131531252Y-74902170D01*
X131531249Y-74902164D01*
X131441859Y-74747335D01*
X131395003Y-74695296D01*
X131322235Y-74614478D01*
X131322232Y-74614476D01*
X131322231Y-74614475D01*
X131322230Y-74614474D01*
X131177593Y-74509388D01*
X131014267Y-74436671D01*
X131014265Y-74436670D01*
X130851952Y-74402170D01*
X130839391Y-74399500D01*
X130660609Y-74399500D01*
X130648048Y-74402170D01*
X130485733Y-74436670D01*
X130485728Y-74436672D01*
X130322408Y-74509387D01*
X130177768Y-74614475D01*
X130058140Y-74747336D01*
X129968750Y-74902164D01*
X129968747Y-74902170D01*
X129913504Y-75072192D01*
X129913504Y-75072193D01*
X129913503Y-75072197D01*
X129906847Y-75135523D01*
X129899491Y-75205508D01*
X129874547Y-75268030D01*
X129839790Y-75313328D01*
X129775464Y-75397158D01*
X129775461Y-75397163D01*
X129714957Y-75543234D01*
X129714956Y-75543239D01*
X129701652Y-75644287D01*
X129673385Y-75708184D01*
X129615060Y-75746654D01*
X129565461Y-75751391D01*
X129547873Y-75749500D01*
X129547868Y-75749500D01*
X128452129Y-75749500D01*
X128452125Y-75749501D01*
X128392507Y-75755910D01*
X128391881Y-75756058D01*
X128390600Y-75756115D01*
X128384806Y-75756738D01*
X128384767Y-75756375D01*
X128345735Y-75758116D01*
X128250002Y-75744353D01*
X128250000Y-75744353D01*
X127628111Y-75744353D01*
X127628110Y-75744353D01*
X127485658Y-75764834D01*
X127485656Y-75764834D01*
X127347700Y-75805342D01*
X127216784Y-75865129D01*
X127216782Y-75865129D01*
X127095831Y-75942860D01*
X127095830Y-75942861D01*
X127095826Y-75942864D01*
X127082596Y-75954327D01*
X126987060Y-76037108D01*
X126987058Y-76037110D01*
X126892911Y-76145762D01*
X126892896Y-76145783D01*
X126815102Y-76266833D01*
X126815089Y-76266856D01*
X126755183Y-76398033D01*
X126754743Y-76399758D01*
X126714821Y-76535717D01*
X126714818Y-76535727D01*
X126694358Y-76678038D01*
X126694358Y-76734397D01*
X126694353Y-76734414D01*
X126694353Y-76959837D01*
X126674668Y-77026876D01*
X126621864Y-77072631D01*
X126552706Y-77082575D01*
X126497467Y-77060155D01*
X126427594Y-77009389D01*
X126427593Y-77009388D01*
X126264267Y-76936671D01*
X126264265Y-76936670D01*
X126136594Y-76909533D01*
X126089391Y-76899500D01*
X125910609Y-76899500D01*
X125879954Y-76906015D01*
X125735733Y-76936670D01*
X125735728Y-76936672D01*
X125572408Y-77009387D01*
X125427768Y-77114475D01*
X125308140Y-77247336D01*
X125218750Y-77402164D01*
X125218747Y-77402170D01*
X125163504Y-77572192D01*
X125163503Y-77572194D01*
X125144815Y-77750000D01*
X125163503Y-77927805D01*
X125163504Y-77927807D01*
X125218747Y-78097829D01*
X125218750Y-78097835D01*
X125308141Y-78252665D01*
X125349812Y-78298946D01*
X125427764Y-78385521D01*
X125427767Y-78385523D01*
X125427770Y-78385526D01*
X125572407Y-78490612D01*
X125735733Y-78563329D01*
X125910609Y-78600500D01*
X125910610Y-78600500D01*
X126089389Y-78600500D01*
X126089391Y-78600500D01*
X126264267Y-78563329D01*
X126427593Y-78490612D01*
X126572230Y-78385526D01*
X126591185Y-78364475D01*
X126620825Y-78331556D01*
X126691859Y-78252665D01*
X126781250Y-78097835D01*
X126802886Y-78031243D01*
X126842321Y-77973572D01*
X126906679Y-77946373D01*
X126975526Y-77958287D01*
X127002017Y-77975850D01*
X127056702Y-78023235D01*
X127094477Y-78082012D01*
X127099500Y-78116948D01*
X127099500Y-78176523D01*
X127079815Y-78243562D01*
X127048386Y-78276841D01*
X126927768Y-78364475D01*
X126808140Y-78497336D01*
X126718750Y-78652164D01*
X126718747Y-78652170D01*
X126663504Y-78822192D01*
X126663503Y-78822194D01*
X126644815Y-79000000D01*
X126658205Y-79127398D01*
X126645635Y-79196127D01*
X126597903Y-79247151D01*
X126585324Y-79253637D01*
X126572407Y-79259388D01*
X126447886Y-79349859D01*
X126382079Y-79373339D01*
X126314025Y-79357514D01*
X126302114Y-79349859D01*
X126299328Y-79347835D01*
X126177593Y-79259388D01*
X126014267Y-79186671D01*
X126014265Y-79186670D01*
X125842091Y-79150074D01*
X125839391Y-79149500D01*
X125660609Y-79149500D01*
X125657909Y-79150074D01*
X125485733Y-79186670D01*
X125485728Y-79186672D01*
X125322408Y-79259387D01*
X125197886Y-79349859D01*
X125132079Y-79373339D01*
X125064025Y-79357514D01*
X125052114Y-79349859D01*
X125049328Y-79347835D01*
X124927593Y-79259388D01*
X124764267Y-79186671D01*
X124764265Y-79186670D01*
X124592091Y-79150074D01*
X124589391Y-79149500D01*
X124410609Y-79149500D01*
X124407909Y-79150074D01*
X124235733Y-79186670D01*
X124235728Y-79186672D01*
X124072408Y-79259388D01*
X124066775Y-79262640D01*
X124066097Y-79261465D01*
X124007064Y-79282521D01*
X123939012Y-79266687D01*
X123928207Y-79259742D01*
X123927597Y-79259390D01*
X123927593Y-79259388D01*
X123764267Y-79186671D01*
X123764265Y-79186670D01*
X123592091Y-79150074D01*
X123589391Y-79149500D01*
X123410609Y-79149500D01*
X123407909Y-79150074D01*
X123235733Y-79186670D01*
X123235728Y-79186672D01*
X123072408Y-79259387D01*
X122927767Y-79364476D01*
X122894350Y-79401589D01*
X122834863Y-79438236D01*
X122770836Y-79437016D01*
X122770623Y-79438022D01*
X122765403Y-79436912D01*
X122765006Y-79436905D01*
X122764290Y-79436676D01*
X122764267Y-79436671D01*
X122589391Y-79399500D01*
X122410609Y-79399500D01*
X122398048Y-79402170D01*
X122235733Y-79436670D01*
X122235728Y-79436672D01*
X122072408Y-79509388D01*
X122066775Y-79512640D01*
X122066097Y-79511465D01*
X122007064Y-79532521D01*
X121939012Y-79516687D01*
X121928207Y-79509742D01*
X121927597Y-79509390D01*
X121927593Y-79509388D01*
X121764267Y-79436671D01*
X121764265Y-79436670D01*
X121601952Y-79402170D01*
X121589391Y-79399500D01*
X121410609Y-79399500D01*
X121398048Y-79402170D01*
X121235733Y-79436670D01*
X121235728Y-79436672D01*
X121072408Y-79509387D01*
X120927768Y-79614475D01*
X120808140Y-79747336D01*
X120718750Y-79902164D01*
X120718747Y-79902170D01*
X120663504Y-80072192D01*
X120663503Y-80072194D01*
X120644815Y-80250000D01*
X120663503Y-80427805D01*
X120663504Y-80427807D01*
X120718747Y-80597829D01*
X120718750Y-80597835D01*
X120808141Y-80752665D01*
X120817195Y-80762720D01*
X120844484Y-80793028D01*
X120874714Y-80856019D01*
X120866089Y-80925355D01*
X120821347Y-80979020D01*
X120754695Y-80999978D01*
X120752334Y-81000000D01*
X118997666Y-81000000D01*
X118930627Y-80980315D01*
X118884872Y-80927511D01*
X118874928Y-80858353D01*
X118903953Y-80794797D01*
X118905516Y-80793028D01*
X118915423Y-80782025D01*
X118941859Y-80752665D01*
X119031250Y-80597835D01*
X119086497Y-80427803D01*
X119105185Y-80250000D01*
X119086497Y-80072197D01*
X119042462Y-79936671D01*
X119031252Y-79902170D01*
X119031249Y-79902164D01*
X119017910Y-79879060D01*
X118941859Y-79747335D01*
X118886683Y-79686056D01*
X118822235Y-79614478D01*
X118822232Y-79614476D01*
X118822231Y-79614475D01*
X118822230Y-79614474D01*
X118677593Y-79509388D01*
X118514267Y-79436671D01*
X118514265Y-79436670D01*
X118351952Y-79402170D01*
X118339391Y-79399500D01*
X118160609Y-79399500D01*
X118148048Y-79402170D01*
X117985733Y-79436670D01*
X117985728Y-79436672D01*
X117822408Y-79509387D01*
X117677768Y-79614475D01*
X117553793Y-79752164D01*
X117552645Y-79751130D01*
X117503530Y-79788992D01*
X117433916Y-79794960D01*
X117372126Y-79762345D01*
X117337778Y-79701501D01*
X117335320Y-79686056D01*
X117335063Y-79684596D01*
X117335063Y-79684592D01*
X117273903Y-79456337D01*
X117174035Y-79242171D01*
X117174019Y-79242147D01*
X117038494Y-79048597D01*
X116871402Y-78881506D01*
X116871401Y-78881505D01*
X116685405Y-78751269D01*
X116641781Y-78696692D01*
X116634588Y-78627193D01*
X116666110Y-78564839D01*
X116685405Y-78548119D01*
X116871082Y-78418105D01*
X117038105Y-78251082D01*
X117173600Y-78057578D01*
X117273429Y-77843492D01*
X117273432Y-77843486D01*
X117330636Y-77630000D01*
X116433686Y-77630000D01*
X116459493Y-77589844D01*
X116500000Y-77451889D01*
X116500000Y-77308111D01*
X116459493Y-77170156D01*
X116433686Y-77130000D01*
X117330636Y-77130000D01*
X117330635Y-77129999D01*
X117273432Y-76916513D01*
X117273429Y-76916507D01*
X117173600Y-76702422D01*
X117173599Y-76702420D01*
X117038113Y-76508926D01*
X117038108Y-76508920D01*
X116871082Y-76341894D01*
X116677578Y-76206399D01*
X116463492Y-76106570D01*
X116463486Y-76106567D01*
X116250000Y-76049364D01*
X116250000Y-76944498D01*
X116142315Y-76895320D01*
X116035763Y-76880000D01*
X115964237Y-76880000D01*
X115857685Y-76895320D01*
X115750000Y-76944498D01*
X115750000Y-76049364D01*
X115749999Y-76049364D01*
X115536513Y-76106567D01*
X115536507Y-76106570D01*
X115322422Y-76206399D01*
X115322420Y-76206400D01*
X115128926Y-76341886D01*
X115128920Y-76341891D01*
X114961891Y-76508920D01*
X114961886Y-76508926D01*
X114826400Y-76702420D01*
X114826399Y-76702422D01*
X114726570Y-76916507D01*
X114726567Y-76916513D01*
X114669364Y-77129999D01*
X114669364Y-77130000D01*
X115566314Y-77130000D01*
X115540507Y-77170156D01*
X115500000Y-77308111D01*
X115500000Y-77451889D01*
X115540507Y-77589844D01*
X115566314Y-77630000D01*
X114669364Y-77630000D01*
X114726567Y-77843486D01*
X114726570Y-77843492D01*
X114826399Y-78057578D01*
X114961894Y-78251082D01*
X115128917Y-78418105D01*
X115314595Y-78548119D01*
X115358219Y-78602696D01*
X115365412Y-78672195D01*
X115333890Y-78734549D01*
X115314595Y-78751269D01*
X115128594Y-78881508D01*
X114961505Y-79048597D01*
X114825965Y-79242169D01*
X114825964Y-79242171D01*
X114726098Y-79456335D01*
X114726094Y-79456344D01*
X114664938Y-79684586D01*
X114664936Y-79684596D01*
X114644341Y-79919999D01*
X114644341Y-79920000D01*
X114664936Y-80155403D01*
X114664938Y-80155413D01*
X114688516Y-80243407D01*
X114686853Y-80313257D01*
X114647690Y-80371119D01*
X114583462Y-80398623D01*
X114568741Y-80399500D01*
X114410609Y-80399500D01*
X114398048Y-80402170D01*
X114235733Y-80436670D01*
X114235728Y-80436672D01*
X114072408Y-80509387D01*
X113947886Y-80599859D01*
X113882079Y-80623339D01*
X113814025Y-80607514D01*
X113802114Y-80599859D01*
X113799328Y-80597835D01*
X113677593Y-80509388D01*
X113514267Y-80436671D01*
X113514265Y-80436670D01*
X113351952Y-80402170D01*
X113339391Y-80399500D01*
X113160609Y-80399500D01*
X113148048Y-80402170D01*
X112985733Y-80436670D01*
X112985728Y-80436672D01*
X112822408Y-80509387D01*
X112677768Y-80614475D01*
X112558140Y-80747336D01*
X112468750Y-80902164D01*
X112468747Y-80902170D01*
X112464801Y-80914318D01*
X112425364Y-80971993D01*
X112361005Y-80999192D01*
X112346870Y-81000000D01*
X112224500Y-81000000D01*
X112157461Y-80980315D01*
X112111706Y-80927511D01*
X112100500Y-80876000D01*
X112100500Y-74500000D01*
X113644815Y-74500000D01*
X113663503Y-74677805D01*
X113663504Y-74677807D01*
X113718747Y-74847829D01*
X113718750Y-74847835D01*
X113808141Y-75002665D01*
X113844023Y-75042516D01*
X113927764Y-75135521D01*
X113927767Y-75135523D01*
X113927770Y-75135526D01*
X114072407Y-75240612D01*
X114235733Y-75313329D01*
X114410609Y-75350500D01*
X114410610Y-75350500D01*
X114589389Y-75350500D01*
X114589391Y-75350500D01*
X114764267Y-75313329D01*
X114927593Y-75240612D01*
X115072230Y-75135526D01*
X115191859Y-75002665D01*
X115281250Y-74847835D01*
X115336497Y-74677803D01*
X115355185Y-74500000D01*
X115336497Y-74322197D01*
X115292462Y-74186671D01*
X115281252Y-74152170D01*
X115281249Y-74152164D01*
X115271643Y-74135526D01*
X115191859Y-73997335D01*
X115137236Y-73936670D01*
X115072235Y-73864478D01*
X115072232Y-73864476D01*
X115072231Y-73864475D01*
X115072230Y-73864474D01*
X114927593Y-73759388D01*
X114906507Y-73750000D01*
X116894815Y-73750000D01*
X116913503Y-73927805D01*
X116913504Y-73927807D01*
X116968747Y-74097829D01*
X116968750Y-74097835D01*
X117058141Y-74252665D01*
X117072087Y-74268153D01*
X117177764Y-74385521D01*
X117177767Y-74385523D01*
X117177770Y-74385526D01*
X117322407Y-74490612D01*
X117485733Y-74563329D01*
X117660609Y-74600500D01*
X117660610Y-74600500D01*
X117839389Y-74600500D01*
X117839391Y-74600500D01*
X118014267Y-74563329D01*
X118177593Y-74490612D01*
X118322230Y-74385526D01*
X118341185Y-74364475D01*
X118353768Y-74350500D01*
X118441859Y-74252665D01*
X118531250Y-74097835D01*
X118586497Y-73927803D01*
X118605185Y-73750000D01*
X119144815Y-73750000D01*
X119163503Y-73927805D01*
X119163504Y-73927807D01*
X119218747Y-74097829D01*
X119218750Y-74097835D01*
X119308141Y-74252665D01*
X119322087Y-74268153D01*
X119427764Y-74385521D01*
X119427767Y-74385523D01*
X119427770Y-74385526D01*
X119572407Y-74490612D01*
X119735733Y-74563329D01*
X119910609Y-74600500D01*
X119910610Y-74600500D01*
X120089389Y-74600500D01*
X120089391Y-74600500D01*
X120264267Y-74563329D01*
X120427593Y-74490612D01*
X120572230Y-74385526D01*
X120591185Y-74364475D01*
X120603768Y-74350500D01*
X120691859Y-74252665D01*
X120781250Y-74097835D01*
X120836497Y-73927803D01*
X120855185Y-73750000D01*
X120836497Y-73572197D01*
X120789581Y-73427805D01*
X120781252Y-73402170D01*
X120781249Y-73402164D01*
X120691859Y-73247335D01*
X120629683Y-73178282D01*
X120572235Y-73114478D01*
X120572232Y-73114476D01*
X120572231Y-73114475D01*
X120572230Y-73114474D01*
X120427593Y-73009388D01*
X120264267Y-72936671D01*
X120264265Y-72936670D01*
X120123556Y-72906762D01*
X120089391Y-72899500D01*
X119910609Y-72899500D01*
X119898048Y-72902170D01*
X119735733Y-72936670D01*
X119735728Y-72936672D01*
X119572408Y-73009387D01*
X119427768Y-73114475D01*
X119308140Y-73247336D01*
X119218750Y-73402164D01*
X119218747Y-73402170D01*
X119163504Y-73572192D01*
X119163503Y-73572194D01*
X119144815Y-73750000D01*
X118605185Y-73750000D01*
X118586497Y-73572197D01*
X118539581Y-73427805D01*
X118531252Y-73402170D01*
X118531249Y-73402164D01*
X118441859Y-73247335D01*
X118379683Y-73178282D01*
X118322235Y-73114478D01*
X118322232Y-73114476D01*
X118322231Y-73114475D01*
X118322230Y-73114474D01*
X118177593Y-73009388D01*
X118014267Y-72936671D01*
X118014265Y-72936670D01*
X117873556Y-72906762D01*
X117839391Y-72899500D01*
X117660609Y-72899500D01*
X117648048Y-72902170D01*
X117485733Y-72936670D01*
X117485728Y-72936672D01*
X117322408Y-73009387D01*
X117177768Y-73114475D01*
X117058140Y-73247336D01*
X116968750Y-73402164D01*
X116968747Y-73402170D01*
X116913504Y-73572192D01*
X116913503Y-73572194D01*
X116894815Y-73750000D01*
X114906507Y-73750000D01*
X114764267Y-73686671D01*
X114764265Y-73686670D01*
X114636594Y-73659533D01*
X114589391Y-73649500D01*
X114410609Y-73649500D01*
X114379954Y-73656015D01*
X114235733Y-73686670D01*
X114235728Y-73686672D01*
X114072408Y-73759387D01*
X113927768Y-73864475D01*
X113808140Y-73997336D01*
X113718750Y-74152164D01*
X113718747Y-74152170D01*
X113663504Y-74322192D01*
X113663503Y-74322194D01*
X113644815Y-74500000D01*
X112100500Y-74500000D01*
X112100500Y-70750000D01*
X112644815Y-70750000D01*
X112663503Y-70927805D01*
X112663504Y-70927807D01*
X112718747Y-71097829D01*
X112718750Y-71097835D01*
X112808141Y-71252665D01*
X112849812Y-71298946D01*
X112927764Y-71385521D01*
X112927767Y-71385523D01*
X112927770Y-71385526D01*
X113072407Y-71490612D01*
X113235733Y-71563329D01*
X113410609Y-71600500D01*
X113410610Y-71600500D01*
X113589389Y-71600500D01*
X113589391Y-71600500D01*
X113662955Y-71584863D01*
X113732619Y-71590178D01*
X113788353Y-71632315D01*
X113812459Y-71697895D01*
X113797283Y-71766096D01*
X113796122Y-71768152D01*
X113718749Y-71902167D01*
X113718747Y-71902170D01*
X113663504Y-72072192D01*
X113663503Y-72072194D01*
X113644815Y-72250000D01*
X113663503Y-72427805D01*
X113663504Y-72427807D01*
X113718747Y-72597829D01*
X113718750Y-72597835D01*
X113808141Y-72752665D01*
X113849812Y-72798946D01*
X113927764Y-72885521D01*
X113927767Y-72885523D01*
X113927770Y-72885526D01*
X114072407Y-72990612D01*
X114235733Y-73063329D01*
X114410609Y-73100500D01*
X114410610Y-73100500D01*
X114589389Y-73100500D01*
X114589391Y-73100500D01*
X114764267Y-73063329D01*
X114927593Y-72990612D01*
X115072230Y-72885526D01*
X115091186Y-72864474D01*
X115106167Y-72847835D01*
X115191859Y-72752665D01*
X115281250Y-72597835D01*
X115336497Y-72427803D01*
X115355185Y-72250000D01*
X115336497Y-72072197D01*
X115281250Y-71902165D01*
X115191859Y-71747335D01*
X115130608Y-71679309D01*
X115072235Y-71614478D01*
X115072232Y-71614476D01*
X115072231Y-71614475D01*
X115072230Y-71614474D01*
X114927593Y-71509388D01*
X114906507Y-71500000D01*
X116894815Y-71500000D01*
X116913503Y-71677805D01*
X116913504Y-71677807D01*
X116968747Y-71847829D01*
X116968749Y-71847833D01*
X116968750Y-71847835D01*
X117058141Y-72002665D01*
X117069863Y-72015683D01*
X117177764Y-72135521D01*
X117177767Y-72135523D01*
X117177770Y-72135526D01*
X117322407Y-72240612D01*
X117485733Y-72313329D01*
X117660609Y-72350500D01*
X117660610Y-72350500D01*
X117839389Y-72350500D01*
X117839391Y-72350500D01*
X118014267Y-72313329D01*
X118177593Y-72240612D01*
X118322230Y-72135526D01*
X118329678Y-72127255D01*
X118348148Y-72106741D01*
X118441859Y-72002665D01*
X118531250Y-71847835D01*
X118586497Y-71677803D01*
X118605185Y-71500000D01*
X120394815Y-71500000D01*
X120413503Y-71677805D01*
X120413504Y-71677807D01*
X120468747Y-71847829D01*
X120468749Y-71847833D01*
X120468750Y-71847835D01*
X120558141Y-72002665D01*
X120569863Y-72015683D01*
X120677764Y-72135521D01*
X120677767Y-72135523D01*
X120677770Y-72135526D01*
X120822407Y-72240612D01*
X120985733Y-72313329D01*
X121160609Y-72350500D01*
X121160610Y-72350500D01*
X121339389Y-72350500D01*
X121339391Y-72350500D01*
X121514267Y-72313329D01*
X121677593Y-72240612D01*
X121822230Y-72135526D01*
X121829678Y-72127255D01*
X121848148Y-72106741D01*
X121941859Y-72002665D01*
X122031250Y-71847835D01*
X122062301Y-71752269D01*
X122101738Y-71694594D01*
X122166096Y-71667395D01*
X122234943Y-71679309D01*
X122253112Y-71690266D01*
X122322407Y-71740612D01*
X122485733Y-71813329D01*
X122660609Y-71850500D01*
X122660610Y-71850500D01*
X122839389Y-71850500D01*
X122839391Y-71850500D01*
X123014267Y-71813329D01*
X123177593Y-71740612D01*
X123322230Y-71635526D01*
X123437494Y-71507512D01*
X123496978Y-71470866D01*
X123566835Y-71472195D01*
X123624883Y-71511082D01*
X123652693Y-71575178D01*
X123652963Y-71577523D01*
X123663503Y-71677803D01*
X123663504Y-71677805D01*
X123663504Y-71677807D01*
X123718747Y-71847829D01*
X123718749Y-71847833D01*
X123718750Y-71847835D01*
X123808141Y-72002665D01*
X123819863Y-72015683D01*
X123927764Y-72135521D01*
X123927767Y-72135523D01*
X123927770Y-72135526D01*
X124072407Y-72240612D01*
X124235733Y-72313329D01*
X124410609Y-72350500D01*
X124410610Y-72350500D01*
X124589389Y-72350500D01*
X124589391Y-72350500D01*
X124764267Y-72313329D01*
X124927593Y-72240612D01*
X125072230Y-72135526D01*
X125079678Y-72127255D01*
X125098148Y-72106741D01*
X125191859Y-72002665D01*
X125281250Y-71847835D01*
X125286418Y-71831929D01*
X125316666Y-71782568D01*
X128462417Y-68636819D01*
X128523740Y-68603334D01*
X128550098Y-68600500D01*
X132494722Y-68600500D01*
X132561761Y-68620185D01*
X132607516Y-68672989D01*
X132617460Y-68742147D01*
X132588435Y-68805703D01*
X132576279Y-68817155D01*
X132571719Y-68821716D01*
X132550019Y-68849994D01*
X132544668Y-68856096D01*
X131353215Y-70047550D01*
X130883550Y-70517213D01*
X130822227Y-70550698D01*
X130752535Y-70545714D01*
X130696602Y-70503842D01*
X130695549Y-70502415D01*
X130691863Y-70497342D01*
X130691859Y-70497335D01*
X130665333Y-70467875D01*
X130572235Y-70364478D01*
X130572232Y-70364476D01*
X130572231Y-70364475D01*
X130572230Y-70364474D01*
X130427593Y-70259388D01*
X130264267Y-70186671D01*
X130264265Y-70186670D01*
X130101952Y-70152170D01*
X130089391Y-70149500D01*
X129910609Y-70149500D01*
X129898048Y-70152170D01*
X129735733Y-70186670D01*
X129735728Y-70186672D01*
X129572408Y-70259387D01*
X129427768Y-70364475D01*
X129308140Y-70497336D01*
X129218750Y-70652164D01*
X129218747Y-70652170D01*
X129163504Y-70822192D01*
X129163504Y-70822193D01*
X129163503Y-70822197D01*
X129159059Y-70864478D01*
X129152963Y-70922476D01*
X129126378Y-70987090D01*
X129069080Y-71027074D01*
X128999261Y-71029734D01*
X128939088Y-70994224D01*
X128937492Y-70992485D01*
X128822235Y-70864478D01*
X128822232Y-70864476D01*
X128822231Y-70864475D01*
X128822230Y-70864474D01*
X128677593Y-70759388D01*
X128514267Y-70686671D01*
X128514265Y-70686670D01*
X128351952Y-70652170D01*
X128339391Y-70649500D01*
X128160609Y-70649500D01*
X128148048Y-70652170D01*
X127985733Y-70686670D01*
X127985728Y-70686672D01*
X127822408Y-70759387D01*
X127677768Y-70864475D01*
X127558140Y-70997336D01*
X127468750Y-71152164D01*
X127468747Y-71152170D01*
X127413504Y-71322192D01*
X127413503Y-71322194D01*
X127394815Y-71500000D01*
X127413503Y-71677805D01*
X127413504Y-71677807D01*
X127468747Y-71847829D01*
X127468749Y-71847833D01*
X127468750Y-71847835D01*
X127558141Y-72002665D01*
X127569863Y-72015683D01*
X127677764Y-72135521D01*
X127677767Y-72135523D01*
X127677770Y-72135526D01*
X127822407Y-72240612D01*
X127985733Y-72313329D01*
X128160609Y-72350500D01*
X128160610Y-72350500D01*
X128339389Y-72350500D01*
X128339391Y-72350500D01*
X128514267Y-72313329D01*
X128677593Y-72240612D01*
X128746884Y-72190268D01*
X128812686Y-72166789D01*
X128880740Y-72182613D01*
X128929436Y-72232718D01*
X128937698Y-72252268D01*
X128968748Y-72347831D01*
X128968750Y-72347835D01*
X129058141Y-72502665D01*
X129099812Y-72548946D01*
X129177764Y-72635521D01*
X129177767Y-72635523D01*
X129177770Y-72635526D01*
X129322407Y-72740612D01*
X129485733Y-72813329D01*
X129660609Y-72850500D01*
X129660610Y-72850500D01*
X129839389Y-72850500D01*
X129839391Y-72850500D01*
X130014267Y-72813329D01*
X130177593Y-72740612D01*
X130322230Y-72635526D01*
X130331817Y-72624877D01*
X130391303Y-72588229D01*
X130405681Y-72585333D01*
X130406754Y-72585044D01*
X130406762Y-72585044D01*
X130552841Y-72524536D01*
X130584817Y-72500000D01*
X130678282Y-72428282D01*
X130699984Y-72399998D01*
X130705310Y-72393923D01*
X132202450Y-70896785D01*
X133183134Y-69916101D01*
X133244457Y-69882616D01*
X133314149Y-69887600D01*
X133370082Y-69929472D01*
X133393983Y-69993553D01*
X133394136Y-69993537D01*
X133394198Y-69994129D01*
X133394499Y-69994936D01*
X133394610Y-69998048D01*
X133394815Y-69999999D01*
X133394815Y-70000000D01*
X133396586Y-70016851D01*
X133413503Y-70177805D01*
X133413504Y-70177807D01*
X133468747Y-70347829D01*
X133468750Y-70347835D01*
X133558141Y-70502665D01*
X133596903Y-70545714D01*
X133677764Y-70635521D01*
X133677767Y-70635523D01*
X133677770Y-70635526D01*
X133822407Y-70740612D01*
X133985733Y-70813329D01*
X134160609Y-70850500D01*
X134160610Y-70850500D01*
X134339389Y-70850500D01*
X134339391Y-70850500D01*
X134514267Y-70813329D01*
X134677593Y-70740612D01*
X134822230Y-70635526D01*
X134826965Y-70630268D01*
X134848148Y-70606741D01*
X134941859Y-70502665D01*
X135031250Y-70347835D01*
X135086497Y-70177803D01*
X135105185Y-70000000D01*
X135103867Y-69987460D01*
X135116437Y-69918731D01*
X135164170Y-69867707D01*
X135227188Y-69850500D01*
X136375500Y-69850500D01*
X136442539Y-69870185D01*
X136488294Y-69922989D01*
X136499500Y-69974500D01*
X136499500Y-71547870D01*
X136499501Y-71547876D01*
X136505908Y-71607483D01*
X136556202Y-71742328D01*
X136556206Y-71742335D01*
X136642452Y-71857544D01*
X136642455Y-71857547D01*
X136757664Y-71943793D01*
X136757671Y-71943797D01*
X136892517Y-71994091D01*
X136892516Y-71994091D01*
X136899444Y-71994835D01*
X136952127Y-72000500D01*
X138047872Y-72000499D01*
X138107483Y-71994091D01*
X138107494Y-71994086D01*
X138108094Y-71993946D01*
X138109342Y-71993890D01*
X138115195Y-71993261D01*
X138115234Y-71993626D01*
X138154262Y-71991882D01*
X138250000Y-72005647D01*
X138250003Y-72005647D01*
X138871886Y-72005647D01*
X138871889Y-72005647D01*
X139014345Y-71985165D01*
X139152300Y-71944658D01*
X139283216Y-71884871D01*
X139365593Y-71831931D01*
X139404169Y-71807140D01*
X139404166Y-71807143D01*
X139413517Y-71799040D01*
X139444298Y-71772367D01*
X139507852Y-71743343D01*
X139577010Y-71753286D01*
X139629815Y-71799040D01*
X139649500Y-71866080D01*
X139649500Y-72312288D01*
X139629815Y-72379327D01*
X139577011Y-72425082D01*
X139507853Y-72435026D01*
X139499720Y-72433578D01*
X139339391Y-72399500D01*
X139160609Y-72399500D01*
X139158196Y-72400013D01*
X138985733Y-72436670D01*
X138985728Y-72436672D01*
X138822408Y-72509387D01*
X138677768Y-72614475D01*
X138558140Y-72747336D01*
X138468750Y-72902164D01*
X138468747Y-72902170D01*
X138413504Y-73072192D01*
X138413503Y-73072194D01*
X138394815Y-73250000D01*
X138413503Y-73427805D01*
X138413504Y-73427807D01*
X138468747Y-73597829D01*
X138468750Y-73597835D01*
X138546121Y-73731846D01*
X138562594Y-73799747D01*
X138539741Y-73865773D01*
X138484820Y-73908964D01*
X138415266Y-73915605D01*
X138412953Y-73915136D01*
X138395038Y-73911328D01*
X138339391Y-73899500D01*
X138160609Y-73899500D01*
X138129954Y-73906015D01*
X137985733Y-73936670D01*
X137985728Y-73936672D01*
X137822408Y-74009387D01*
X137677768Y-74114475D01*
X137558140Y-74247336D01*
X137468750Y-74402164D01*
X137468747Y-74402170D01*
X137413504Y-74572192D01*
X137413503Y-74572194D01*
X137394815Y-74750000D01*
X137413503Y-74927805D01*
X137413504Y-74927807D01*
X137468747Y-75097829D01*
X137468750Y-75097835D01*
X137558141Y-75252665D01*
X137599812Y-75298946D01*
X137677764Y-75385521D01*
X137677767Y-75385523D01*
X137677770Y-75385526D01*
X137822407Y-75490612D01*
X137985733Y-75563329D01*
X138160609Y-75600500D01*
X138160610Y-75600500D01*
X138339389Y-75600500D01*
X138339391Y-75600500D01*
X138514267Y-75563329D01*
X138677593Y-75490612D01*
X138822230Y-75385526D01*
X138941859Y-75252665D01*
X139031250Y-75097835D01*
X139063039Y-75000000D01*
X139644815Y-75000000D01*
X139663503Y-75177805D01*
X139663504Y-75177807D01*
X139718747Y-75347829D01*
X139718750Y-75347835D01*
X139808141Y-75502665D01*
X139844670Y-75543234D01*
X139927764Y-75635521D01*
X139927767Y-75635523D01*
X139927770Y-75635526D01*
X140072407Y-75740612D01*
X140235733Y-75813329D01*
X140410609Y-75850500D01*
X140410610Y-75850500D01*
X140589389Y-75850500D01*
X140589391Y-75850500D01*
X140764267Y-75813329D01*
X140927593Y-75740612D01*
X141072230Y-75635526D01*
X141191859Y-75502665D01*
X141281250Y-75347835D01*
X141336497Y-75177803D01*
X141355185Y-75000000D01*
X142394815Y-75000000D01*
X142413503Y-75177805D01*
X142413504Y-75177807D01*
X142468747Y-75347829D01*
X142468750Y-75347835D01*
X142558141Y-75502665D01*
X142594670Y-75543234D01*
X142677764Y-75635521D01*
X142677767Y-75635523D01*
X142677770Y-75635526D01*
X142822407Y-75740612D01*
X142985733Y-75813329D01*
X143160609Y-75850500D01*
X143160610Y-75850500D01*
X143339389Y-75850500D01*
X143339391Y-75850500D01*
X143514267Y-75813329D01*
X143677593Y-75740612D01*
X143822230Y-75635526D01*
X143941859Y-75502665D01*
X144031250Y-75347835D01*
X144086497Y-75177803D01*
X144105185Y-75000000D01*
X144086497Y-74822197D01*
X144048809Y-74706206D01*
X144031252Y-74652170D01*
X144031249Y-74652164D01*
X144009490Y-74614476D01*
X143941859Y-74497335D01*
X143856172Y-74402170D01*
X143822235Y-74364478D01*
X143822232Y-74364476D01*
X143822231Y-74364475D01*
X143822230Y-74364474D01*
X143677593Y-74259388D01*
X143514267Y-74186671D01*
X143514265Y-74186670D01*
X143351952Y-74152170D01*
X143339391Y-74149500D01*
X143160609Y-74149500D01*
X143148048Y-74152170D01*
X142985733Y-74186670D01*
X142985728Y-74186672D01*
X142822408Y-74259387D01*
X142677768Y-74364475D01*
X142558140Y-74497336D01*
X142468750Y-74652164D01*
X142468747Y-74652170D01*
X142413504Y-74822192D01*
X142413503Y-74822194D01*
X142394815Y-75000000D01*
X141355185Y-75000000D01*
X141336497Y-74822197D01*
X141298809Y-74706206D01*
X141281252Y-74652170D01*
X141281249Y-74652164D01*
X141259490Y-74614476D01*
X141191859Y-74497335D01*
X141106172Y-74402170D01*
X141072235Y-74364478D01*
X141072232Y-74364476D01*
X141072231Y-74364475D01*
X141072230Y-74364474D01*
X140927593Y-74259388D01*
X140764267Y-74186671D01*
X140764265Y-74186670D01*
X140601952Y-74152170D01*
X140589391Y-74149500D01*
X140410609Y-74149500D01*
X140398048Y-74152170D01*
X140235733Y-74186670D01*
X140235728Y-74186672D01*
X140072408Y-74259387D01*
X139927768Y-74364475D01*
X139808140Y-74497336D01*
X139718750Y-74652164D01*
X139718747Y-74652170D01*
X139663504Y-74822192D01*
X139663503Y-74822194D01*
X139644815Y-75000000D01*
X139063039Y-75000000D01*
X139086497Y-74927803D01*
X139105185Y-74750000D01*
X139086497Y-74572197D01*
X139042462Y-74436671D01*
X139031252Y-74402170D01*
X139031249Y-74402164D01*
X139021641Y-74385523D01*
X138953877Y-74268152D01*
X138937405Y-74200253D01*
X138960258Y-74134226D01*
X139015179Y-74091035D01*
X139084732Y-74084394D01*
X139086953Y-74084844D01*
X139160609Y-74100500D01*
X139160611Y-74100500D01*
X139339389Y-74100500D01*
X139339391Y-74100500D01*
X139514267Y-74063329D01*
X139677593Y-73990612D01*
X139822230Y-73885526D01*
X139841185Y-73864475D01*
X139922165Y-73774537D01*
X139941859Y-73752665D01*
X140030008Y-73599986D01*
X140080571Y-73551774D01*
X140149178Y-73538550D01*
X140214043Y-73564518D01*
X140225073Y-73574308D01*
X140294669Y-73643904D01*
X140300022Y-73650007D01*
X140321353Y-73677807D01*
X140321718Y-73678282D01*
X140415183Y-73750000D01*
X140447159Y-73774536D01*
X140593238Y-73835044D01*
X140671619Y-73845363D01*
X140749999Y-73855682D01*
X140750000Y-73855682D01*
X140785329Y-73851030D01*
X140793428Y-73850500D01*
X141956572Y-73850500D01*
X141964670Y-73851030D01*
X142000000Y-73855682D01*
X142000001Y-73855682D01*
X142059650Y-73847829D01*
X142156762Y-73835044D01*
X142302841Y-73774536D01*
X142334817Y-73750000D01*
X142428282Y-73678282D01*
X142449983Y-73649999D01*
X142455311Y-73643922D01*
X142893922Y-73205311D01*
X142899999Y-73199983D01*
X142928282Y-73178282D01*
X143024536Y-73052841D01*
X143085044Y-72906762D01*
X143100500Y-72789361D01*
X143105682Y-72750000D01*
X143101030Y-72714669D01*
X143100500Y-72706571D01*
X143100500Y-72127255D01*
X143120185Y-72060216D01*
X143172989Y-72014461D01*
X143242143Y-72004517D01*
X143250000Y-72005647D01*
X143250003Y-72005647D01*
X143871886Y-72005647D01*
X143871889Y-72005647D01*
X144014345Y-71985165D01*
X144152300Y-71944658D01*
X144283216Y-71884871D01*
X144365593Y-71831931D01*
X144404169Y-71807140D01*
X144404166Y-71807143D01*
X144512939Y-71712891D01*
X144512941Y-71712889D01*
X144607088Y-71604237D01*
X144607090Y-71604233D01*
X144607097Y-71604226D01*
X144684904Y-71483155D01*
X144712382Y-71422988D01*
X144758137Y-71370184D01*
X144825176Y-71350500D01*
X145706572Y-71350500D01*
X145714670Y-71351030D01*
X145750000Y-71355682D01*
X145843110Y-71343423D01*
X145885073Y-71345071D01*
X145910609Y-71350500D01*
X145910611Y-71350500D01*
X146089389Y-71350500D01*
X146089391Y-71350500D01*
X146264267Y-71313329D01*
X146427593Y-71240612D01*
X146572230Y-71135526D01*
X146691859Y-71002665D01*
X146781250Y-70847835D01*
X146836497Y-70677803D01*
X146855185Y-70500000D01*
X146836497Y-70322197D01*
X146792462Y-70186671D01*
X146781252Y-70152170D01*
X146781249Y-70152164D01*
X146779711Y-70149500D01*
X146691859Y-69997335D01*
X146630755Y-69929472D01*
X146572235Y-69864478D01*
X146572232Y-69864476D01*
X146572231Y-69864475D01*
X146572230Y-69864474D01*
X146427593Y-69759388D01*
X146264267Y-69686671D01*
X146264265Y-69686670D01*
X146101952Y-69652170D01*
X146089391Y-69649500D01*
X145910609Y-69649500D01*
X145898048Y-69652170D01*
X145735733Y-69686670D01*
X145735728Y-69686672D01*
X145572408Y-69759387D01*
X145427768Y-69864475D01*
X145308139Y-69997336D01*
X145256084Y-70087500D01*
X145205517Y-70135716D01*
X145148697Y-70149500D01*
X144825176Y-70149500D01*
X144758137Y-70129815D01*
X144712382Y-70077012D01*
X144684907Y-70016851D01*
X144684897Y-70016833D01*
X144607103Y-69895783D01*
X144607088Y-69895762D01*
X144512943Y-69787113D01*
X144512940Y-69787110D01*
X144404170Y-69692861D01*
X144368937Y-69670218D01*
X144283221Y-69615131D01*
X144283217Y-69615129D01*
X144283216Y-69615129D01*
X144152300Y-69555342D01*
X144014345Y-69514835D01*
X144014342Y-69514834D01*
X143871889Y-69494353D01*
X143467218Y-69494353D01*
X143400179Y-69474668D01*
X143354424Y-69421864D01*
X143343897Y-69357393D01*
X143355185Y-69250000D01*
X143336497Y-69072197D01*
X143281250Y-68902165D01*
X143191859Y-68747335D01*
X143130136Y-68678785D01*
X143072235Y-68614478D01*
X143072232Y-68614476D01*
X143072231Y-68614475D01*
X143072230Y-68614474D01*
X142927593Y-68509388D01*
X142764267Y-68436671D01*
X142764265Y-68436670D01*
X142636594Y-68409533D01*
X142589391Y-68399500D01*
X142410609Y-68399500D01*
X142379954Y-68406015D01*
X142235733Y-68436670D01*
X142235728Y-68436672D01*
X142072408Y-68509387D01*
X141927771Y-68614473D01*
X141927770Y-68614474D01*
X141866648Y-68682355D01*
X141807163Y-68719003D01*
X141737306Y-68717672D01*
X141679258Y-68678785D01*
X141651448Y-68614688D01*
X141650500Y-68599382D01*
X141650500Y-67085503D01*
X141652268Y-67069491D01*
X141652026Y-67069469D01*
X141652760Y-67061706D01*
X141650500Y-66989782D01*
X141650500Y-66959078D01*
X141650500Y-66959075D01*
X141649579Y-66951792D01*
X141649123Y-66945987D01*
X141647598Y-66897431D01*
X141641675Y-66877045D01*
X141637729Y-66857990D01*
X141636099Y-66845087D01*
X141635071Y-66836942D01*
X141617186Y-66791772D01*
X141615297Y-66786252D01*
X141602037Y-66740612D01*
X141601744Y-66739602D01*
X141590940Y-66721334D01*
X141582378Y-66703856D01*
X141574568Y-66684129D01*
X141574565Y-66684125D01*
X141569972Y-66677803D01*
X141546014Y-66644827D01*
X141542811Y-66639951D01*
X141540191Y-66635521D01*
X141518081Y-66598135D01*
X141518079Y-66598133D01*
X141518078Y-66598131D01*
X141503075Y-66583129D01*
X141490435Y-66568330D01*
X141477961Y-66551160D01*
X141440528Y-66520194D01*
X141436206Y-66516260D01*
X141020434Y-66100488D01*
X141010361Y-66087914D01*
X141010174Y-66088070D01*
X141005201Y-66082059D01*
X140952756Y-66032810D01*
X140931035Y-66011089D01*
X140925240Y-66006594D01*
X140920798Y-66002799D01*
X140917817Y-66000000D01*
X145394815Y-66000000D01*
X145413503Y-66177805D01*
X145413504Y-66177807D01*
X145468747Y-66347829D01*
X145468750Y-66347835D01*
X145558141Y-66502665D01*
X145599812Y-66548946D01*
X145677764Y-66635521D01*
X145677767Y-66635523D01*
X145677770Y-66635526D01*
X145822407Y-66740612D01*
X145985733Y-66813329D01*
X146160609Y-66850500D01*
X146160610Y-66850500D01*
X146339389Y-66850500D01*
X146339391Y-66850500D01*
X146514267Y-66813329D01*
X146677593Y-66740612D01*
X146822230Y-66635526D01*
X146941859Y-66502665D01*
X147031250Y-66347835D01*
X147086497Y-66177803D01*
X147105185Y-66000000D01*
X147086497Y-65822197D01*
X147042462Y-65686671D01*
X147031252Y-65652170D01*
X147031249Y-65652164D01*
X147021643Y-65635526D01*
X146941859Y-65497335D01*
X146853768Y-65399500D01*
X146822235Y-65364478D01*
X146822232Y-65364476D01*
X146822231Y-65364475D01*
X146822230Y-65364474D01*
X146677593Y-65259388D01*
X146514267Y-65186671D01*
X146514265Y-65186670D01*
X146386594Y-65159533D01*
X146339391Y-65149500D01*
X146160609Y-65149500D01*
X146129954Y-65156015D01*
X145985733Y-65186670D01*
X145985728Y-65186672D01*
X145822408Y-65259387D01*
X145677768Y-65364475D01*
X145558140Y-65497336D01*
X145468750Y-65652164D01*
X145468747Y-65652170D01*
X145413504Y-65822192D01*
X145413503Y-65822194D01*
X145394815Y-66000000D01*
X140917817Y-66000000D01*
X140885396Y-65969554D01*
X140885388Y-65969548D01*
X140866792Y-65959325D01*
X140850531Y-65948644D01*
X140833763Y-65935637D01*
X140810295Y-65925482D01*
X140789178Y-65916343D01*
X140783956Y-65913786D01*
X140741368Y-65890373D01*
X140741365Y-65890372D01*
X140720801Y-65885092D01*
X140702396Y-65878790D01*
X140682927Y-65870365D01*
X140682921Y-65870363D01*
X140634951Y-65862766D01*
X140629236Y-65861582D01*
X140612772Y-65857355D01*
X140582180Y-65849500D01*
X140582177Y-65849500D01*
X140560955Y-65849500D01*
X140541555Y-65847973D01*
X140520596Y-65844653D01*
X140520595Y-65844653D01*
X140496786Y-65846903D01*
X140472230Y-65849225D01*
X140466392Y-65849500D01*
X138091911Y-65849500D01*
X138024872Y-65829815D01*
X138019025Y-65825818D01*
X138003803Y-65814758D01*
X137927593Y-65759388D01*
X137764267Y-65686671D01*
X137764265Y-65686670D01*
X137601952Y-65652170D01*
X137589391Y-65649500D01*
X137410609Y-65649500D01*
X137398048Y-65652170D01*
X137235733Y-65686670D01*
X137235728Y-65686672D01*
X137072408Y-65759387D01*
X136927768Y-65864475D01*
X136808140Y-65997336D01*
X136718750Y-66152164D01*
X136718747Y-66152170D01*
X136663504Y-66322192D01*
X136663503Y-66322194D01*
X136644815Y-66500000D01*
X136663503Y-66677805D01*
X136663504Y-66677807D01*
X136718747Y-66847829D01*
X136718750Y-66847835D01*
X136808141Y-67002665D01*
X136849812Y-67048946D01*
X136927764Y-67135521D01*
X136927767Y-67135523D01*
X136927770Y-67135526D01*
X136982352Y-67175183D01*
X137025017Y-67230512D01*
X137030996Y-67300126D01*
X136998390Y-67361921D01*
X136937551Y-67396278D01*
X136909466Y-67399500D01*
X128293428Y-67399500D01*
X128285329Y-67398969D01*
X128250000Y-67394318D01*
X128210639Y-67399500D01*
X128093239Y-67414955D01*
X128093237Y-67414956D01*
X127947157Y-67475464D01*
X127821719Y-67571716D01*
X127800022Y-67599990D01*
X127794671Y-67606092D01*
X124770495Y-70630268D01*
X124709172Y-70663753D01*
X124657033Y-70663877D01*
X124589395Y-70649500D01*
X124589391Y-70649500D01*
X124410609Y-70649500D01*
X124398048Y-70652170D01*
X124235733Y-70686670D01*
X124235728Y-70686672D01*
X124072408Y-70759387D01*
X123927768Y-70864475D01*
X123812506Y-70992486D01*
X123753020Y-71029134D01*
X123683163Y-71027803D01*
X123625115Y-70988916D01*
X123597305Y-70924819D01*
X123597044Y-70922550D01*
X123586497Y-70822197D01*
X123558873Y-70737181D01*
X123531252Y-70652170D01*
X123531249Y-70652164D01*
X123521643Y-70635526D01*
X123441859Y-70497335D01*
X123356172Y-70402170D01*
X123322235Y-70364478D01*
X123322232Y-70364476D01*
X123322231Y-70364475D01*
X123322230Y-70364474D01*
X123177593Y-70259388D01*
X123014267Y-70186671D01*
X123014265Y-70186670D01*
X122851952Y-70152170D01*
X122839391Y-70149500D01*
X122660609Y-70149500D01*
X122648048Y-70152170D01*
X122485733Y-70186670D01*
X122485728Y-70186672D01*
X122322408Y-70259387D01*
X122177768Y-70364475D01*
X122058140Y-70497336D01*
X121968750Y-70652164D01*
X121968748Y-70652168D01*
X121937698Y-70747731D01*
X121898260Y-70805406D01*
X121833901Y-70832604D01*
X121765055Y-70820689D01*
X121746881Y-70809729D01*
X121677598Y-70759391D01*
X121677597Y-70759390D01*
X121677593Y-70759388D01*
X121514267Y-70686671D01*
X121514265Y-70686670D01*
X121351952Y-70652170D01*
X121339391Y-70649500D01*
X121160609Y-70649500D01*
X121148048Y-70652170D01*
X120985733Y-70686670D01*
X120985728Y-70686672D01*
X120822408Y-70759387D01*
X120677768Y-70864475D01*
X120558140Y-70997336D01*
X120468750Y-71152164D01*
X120468747Y-71152170D01*
X120413504Y-71322192D01*
X120413503Y-71322194D01*
X120394815Y-71500000D01*
X118605185Y-71500000D01*
X118586497Y-71322197D01*
X118557140Y-71231846D01*
X118531252Y-71152170D01*
X118531249Y-71152164D01*
X118521643Y-71135526D01*
X118441859Y-70997335D01*
X118395003Y-70945296D01*
X118322235Y-70864478D01*
X118322232Y-70864476D01*
X118322231Y-70864475D01*
X118322230Y-70864474D01*
X118177593Y-70759388D01*
X118014267Y-70686671D01*
X118014265Y-70686670D01*
X117851952Y-70652170D01*
X117839391Y-70649500D01*
X117660609Y-70649500D01*
X117648048Y-70652170D01*
X117485733Y-70686670D01*
X117485728Y-70686672D01*
X117322408Y-70759387D01*
X117177768Y-70864475D01*
X117058140Y-70997336D01*
X116968750Y-71152164D01*
X116968747Y-71152170D01*
X116913504Y-71322192D01*
X116913503Y-71322194D01*
X116894815Y-71500000D01*
X114906507Y-71500000D01*
X114764267Y-71436671D01*
X114764265Y-71436670D01*
X114636594Y-71409533D01*
X114589391Y-71399500D01*
X114410609Y-71399500D01*
X114410607Y-71399500D01*
X114337045Y-71415136D01*
X114267378Y-71409820D01*
X114211645Y-71367682D01*
X114187540Y-71302102D01*
X114202717Y-71233901D01*
X114203839Y-71231913D01*
X114281250Y-71097835D01*
X114336497Y-70927803D01*
X114355185Y-70750000D01*
X114336497Y-70572197D01*
X114281250Y-70402165D01*
X114191859Y-70247335D01*
X114137236Y-70186670D01*
X114072235Y-70114478D01*
X114072232Y-70114476D01*
X114072231Y-70114475D01*
X114072230Y-70114474D01*
X113927593Y-70009388D01*
X113764267Y-69936671D01*
X113764265Y-69936670D01*
X113636594Y-69909533D01*
X113589391Y-69899500D01*
X113410609Y-69899500D01*
X113379954Y-69906015D01*
X113235733Y-69936670D01*
X113235728Y-69936672D01*
X113072408Y-70009387D01*
X112927768Y-70114475D01*
X112808140Y-70247336D01*
X112718750Y-70402164D01*
X112718747Y-70402170D01*
X112663504Y-70572192D01*
X112663503Y-70572194D01*
X112644815Y-70750000D01*
X112100500Y-70750000D01*
X112100500Y-68250000D01*
X112894815Y-68250000D01*
X112913503Y-68427805D01*
X112913504Y-68427807D01*
X112968747Y-68597829D01*
X112968750Y-68597835D01*
X113058141Y-68752665D01*
X113066650Y-68762115D01*
X113177764Y-68885521D01*
X113177767Y-68885523D01*
X113177770Y-68885526D01*
X113322407Y-68990612D01*
X113485733Y-69063329D01*
X113660609Y-69100500D01*
X113660610Y-69100500D01*
X113839389Y-69100500D01*
X113839391Y-69100500D01*
X114014267Y-69063329D01*
X114156507Y-69000000D01*
X116894815Y-69000000D01*
X116913503Y-69177805D01*
X116913504Y-69177807D01*
X116968747Y-69347829D01*
X116968750Y-69347835D01*
X117058141Y-69502665D01*
X117080638Y-69527650D01*
X117177764Y-69635521D01*
X117177767Y-69635523D01*
X117177770Y-69635526D01*
X117322407Y-69740612D01*
X117485733Y-69813329D01*
X117660609Y-69850500D01*
X117660610Y-69850500D01*
X117839389Y-69850500D01*
X117839391Y-69850500D01*
X118014267Y-69813329D01*
X118177593Y-69740612D01*
X118322230Y-69635526D01*
X118441859Y-69502665D01*
X118531250Y-69347835D01*
X118586497Y-69177803D01*
X118605185Y-69000000D01*
X120394815Y-69000000D01*
X120413503Y-69177805D01*
X120413504Y-69177807D01*
X120468747Y-69347829D01*
X120468750Y-69347835D01*
X120558141Y-69502665D01*
X120580638Y-69527650D01*
X120677764Y-69635521D01*
X120677767Y-69635523D01*
X120677770Y-69635526D01*
X120822407Y-69740612D01*
X120985733Y-69813329D01*
X121160609Y-69850500D01*
X121160610Y-69850500D01*
X121339389Y-69850500D01*
X121339391Y-69850500D01*
X121514267Y-69813329D01*
X121677593Y-69740612D01*
X121822230Y-69635526D01*
X121941859Y-69502665D01*
X122031250Y-69347835D01*
X122086497Y-69177803D01*
X122105185Y-69000000D01*
X122086497Y-68822197D01*
X122047248Y-68701401D01*
X122031252Y-68652170D01*
X122031249Y-68652164D01*
X122029711Y-68649500D01*
X121941859Y-68497335D01*
X121887236Y-68436670D01*
X121822235Y-68364478D01*
X121822232Y-68364476D01*
X121822231Y-68364475D01*
X121822230Y-68364474D01*
X121677593Y-68259388D01*
X121514267Y-68186671D01*
X121514265Y-68186670D01*
X121386594Y-68159533D01*
X121339391Y-68149500D01*
X121160609Y-68149500D01*
X121129954Y-68156015D01*
X120985733Y-68186670D01*
X120985728Y-68186672D01*
X120822408Y-68259387D01*
X120677768Y-68364475D01*
X120558140Y-68497336D01*
X120468750Y-68652164D01*
X120468747Y-68652170D01*
X120413504Y-68822192D01*
X120413503Y-68822194D01*
X120394815Y-69000000D01*
X118605185Y-69000000D01*
X118586497Y-68822197D01*
X118547248Y-68701401D01*
X118531252Y-68652170D01*
X118531249Y-68652164D01*
X118529711Y-68649500D01*
X118441859Y-68497335D01*
X118387236Y-68436670D01*
X118322235Y-68364478D01*
X118322232Y-68364476D01*
X118322231Y-68364475D01*
X118322230Y-68364474D01*
X118177593Y-68259388D01*
X118014267Y-68186671D01*
X118014265Y-68186670D01*
X117886594Y-68159533D01*
X117839391Y-68149500D01*
X117660609Y-68149500D01*
X117629954Y-68156015D01*
X117485733Y-68186670D01*
X117485728Y-68186672D01*
X117322408Y-68259387D01*
X117177768Y-68364475D01*
X117058140Y-68497336D01*
X116968750Y-68652164D01*
X116968747Y-68652170D01*
X116913504Y-68822192D01*
X116913503Y-68822194D01*
X116894815Y-69000000D01*
X114156507Y-69000000D01*
X114177593Y-68990612D01*
X114322230Y-68885526D01*
X114441859Y-68752665D01*
X114531250Y-68597835D01*
X114586497Y-68427803D01*
X114605185Y-68250000D01*
X114586497Y-68072197D01*
X114531250Y-67902165D01*
X114441859Y-67747335D01*
X114358641Y-67654912D01*
X114322235Y-67614478D01*
X114322232Y-67614476D01*
X114322231Y-67614475D01*
X114322230Y-67614474D01*
X114177593Y-67509388D01*
X114014267Y-67436671D01*
X114014265Y-67436670D01*
X113886594Y-67409533D01*
X113839391Y-67399500D01*
X113660609Y-67399500D01*
X113629954Y-67406015D01*
X113485733Y-67436670D01*
X113485728Y-67436672D01*
X113322408Y-67509387D01*
X113177768Y-67614475D01*
X113058140Y-67747336D01*
X112968750Y-67902164D01*
X112968747Y-67902170D01*
X112913504Y-68072192D01*
X112913503Y-68072194D01*
X112894815Y-68250000D01*
X112100500Y-68250000D01*
X112100500Y-66000000D01*
X113394815Y-66000000D01*
X113413503Y-66177805D01*
X113413504Y-66177807D01*
X113468747Y-66347829D01*
X113468750Y-66347835D01*
X113558141Y-66502665D01*
X113599812Y-66548946D01*
X113677764Y-66635521D01*
X113677767Y-66635523D01*
X113677770Y-66635526D01*
X113822407Y-66740612D01*
X113985733Y-66813329D01*
X114160609Y-66850500D01*
X114160610Y-66850500D01*
X114339389Y-66850500D01*
X114339391Y-66850500D01*
X114514267Y-66813329D01*
X114677593Y-66740612D01*
X114822230Y-66635526D01*
X114941859Y-66502665D01*
X115031250Y-66347835D01*
X115063039Y-66250000D01*
X115894815Y-66250000D01*
X115913503Y-66427805D01*
X115913504Y-66427807D01*
X115968747Y-66597829D01*
X115968750Y-66597835D01*
X116058141Y-66752665D01*
X116066650Y-66762115D01*
X116177764Y-66885521D01*
X116177767Y-66885523D01*
X116177770Y-66885526D01*
X116322407Y-66990612D01*
X116485733Y-67063329D01*
X116660609Y-67100500D01*
X116660610Y-67100500D01*
X116839389Y-67100500D01*
X116839391Y-67100500D01*
X117014267Y-67063329D01*
X117177593Y-66990612D01*
X117322230Y-66885526D01*
X117329858Y-66877055D01*
X117356167Y-66847835D01*
X117441859Y-66752665D01*
X117531250Y-66597835D01*
X117586497Y-66427803D01*
X117605185Y-66250000D01*
X117586497Y-66072197D01*
X117553146Y-65969554D01*
X117531252Y-65902170D01*
X117531249Y-65902164D01*
X117509489Y-65864475D01*
X117453620Y-65767706D01*
X117441861Y-65747338D01*
X117441860Y-65747337D01*
X117441859Y-65747335D01*
X117406414Y-65707970D01*
X117376186Y-65644981D01*
X117384811Y-65575646D01*
X117406415Y-65542029D01*
X117441859Y-65502665D01*
X117531250Y-65347835D01*
X117586497Y-65177803D01*
X117605185Y-65000000D01*
X129144815Y-65000000D01*
X129163503Y-65177805D01*
X129163504Y-65177807D01*
X129218747Y-65347829D01*
X129218750Y-65347835D01*
X129308141Y-65502665D01*
X129343583Y-65542027D01*
X129427764Y-65635521D01*
X129427767Y-65635523D01*
X129427770Y-65635526D01*
X129572407Y-65740612D01*
X129735733Y-65813329D01*
X129910609Y-65850500D01*
X129910610Y-65850500D01*
X130089389Y-65850500D01*
X130089391Y-65850500D01*
X130264267Y-65813329D01*
X130427593Y-65740612D01*
X130572230Y-65635526D01*
X130591185Y-65614475D01*
X130626146Y-65575646D01*
X130691859Y-65502665D01*
X130781250Y-65347835D01*
X130836497Y-65177803D01*
X130855185Y-65000000D01*
X130844451Y-64897870D01*
X137819500Y-64897870D01*
X137819501Y-64897876D01*
X137825908Y-64957483D01*
X137876202Y-65092328D01*
X137876206Y-65092335D01*
X137962452Y-65207544D01*
X137962455Y-65207547D01*
X138077664Y-65293793D01*
X138077671Y-65293797D01*
X138212517Y-65344091D01*
X138212516Y-65344091D01*
X138219444Y-65344835D01*
X138272127Y-65350500D01*
X140067872Y-65350499D01*
X140127483Y-65344091D01*
X140262331Y-65293796D01*
X140377546Y-65207546D01*
X140463796Y-65092331D01*
X140512810Y-64960916D01*
X140554681Y-64904984D01*
X140620145Y-64880566D01*
X140688418Y-64895417D01*
X140716673Y-64916569D01*
X140838599Y-65038495D01*
X140919421Y-65095087D01*
X141032165Y-65174032D01*
X141032167Y-65174033D01*
X141032170Y-65174035D01*
X141246337Y-65273903D01*
X141474592Y-65335063D01*
X141651034Y-65350500D01*
X141709999Y-65355659D01*
X141710000Y-65355659D01*
X141710001Y-65355659D01*
X141768966Y-65350500D01*
X141945408Y-65335063D01*
X142173663Y-65273903D01*
X142387830Y-65174035D01*
X142581401Y-65038495D01*
X142748495Y-64871401D01*
X142878425Y-64685842D01*
X142933002Y-64642217D01*
X143002500Y-64635023D01*
X143064855Y-64666546D01*
X143081575Y-64685842D01*
X143211500Y-64871395D01*
X143211505Y-64871401D01*
X143378599Y-65038495D01*
X143459421Y-65095087D01*
X143572165Y-65174032D01*
X143572167Y-65174033D01*
X143572170Y-65174035D01*
X143786337Y-65273903D01*
X144014592Y-65335063D01*
X144191034Y-65350500D01*
X144249999Y-65355659D01*
X144250000Y-65355659D01*
X144250001Y-65355659D01*
X144308966Y-65350500D01*
X144485408Y-65335063D01*
X144713663Y-65273903D01*
X144927830Y-65174035D01*
X145121401Y-65038495D01*
X145288495Y-64871401D01*
X145424035Y-64677830D01*
X145523903Y-64463663D01*
X145585063Y-64235408D01*
X145605659Y-64000000D01*
X145585063Y-63764592D01*
X145523903Y-63536337D01*
X145424035Y-63322171D01*
X145418425Y-63314158D01*
X145288494Y-63128597D01*
X145121402Y-62961506D01*
X145121395Y-62961501D01*
X144927834Y-62825967D01*
X144927830Y-62825965D01*
X144927828Y-62825964D01*
X144713663Y-62726097D01*
X144713659Y-62726096D01*
X144713655Y-62726094D01*
X144485413Y-62664938D01*
X144485403Y-62664936D01*
X144250001Y-62644341D01*
X144249999Y-62644341D01*
X144014596Y-62664936D01*
X144014586Y-62664938D01*
X143786344Y-62726094D01*
X143786335Y-62726098D01*
X143572171Y-62825964D01*
X143572169Y-62825965D01*
X143378597Y-62961505D01*
X143211505Y-63128597D01*
X143081575Y-63314158D01*
X143026998Y-63357783D01*
X142957500Y-63364977D01*
X142895145Y-63333454D01*
X142878425Y-63314158D01*
X142748494Y-63128597D01*
X142581402Y-62961506D01*
X142581395Y-62961501D01*
X142387834Y-62825967D01*
X142387830Y-62825965D01*
X142387828Y-62825964D01*
X142173663Y-62726097D01*
X142173659Y-62726096D01*
X142173655Y-62726094D01*
X141945413Y-62664938D01*
X141945403Y-62664936D01*
X141710001Y-62644341D01*
X141709999Y-62644341D01*
X141474596Y-62664936D01*
X141474586Y-62664938D01*
X141246344Y-62726094D01*
X141246335Y-62726098D01*
X141032171Y-62825964D01*
X141032169Y-62825965D01*
X140838600Y-62961503D01*
X140716673Y-63083430D01*
X140655350Y-63116914D01*
X140585658Y-63111930D01*
X140529725Y-63070058D01*
X140512810Y-63039081D01*
X140463797Y-62907671D01*
X140463793Y-62907664D01*
X140377547Y-62792455D01*
X140377544Y-62792452D01*
X140262335Y-62706206D01*
X140262328Y-62706202D01*
X140127482Y-62655908D01*
X140127483Y-62655908D01*
X140067883Y-62649501D01*
X140067881Y-62649500D01*
X140067873Y-62649500D01*
X140067864Y-62649500D01*
X138272129Y-62649500D01*
X138272123Y-62649501D01*
X138212516Y-62655908D01*
X138077671Y-62706202D01*
X138077664Y-62706206D01*
X137962455Y-62792452D01*
X137962452Y-62792455D01*
X137876206Y-62907664D01*
X137876202Y-62907671D01*
X137825908Y-63042517D01*
X137819501Y-63102116D01*
X137819500Y-63102135D01*
X137819500Y-64897870D01*
X130844451Y-64897870D01*
X130836497Y-64822197D01*
X130808873Y-64737181D01*
X130781252Y-64652170D01*
X130781249Y-64652164D01*
X130776919Y-64644664D01*
X130691859Y-64497335D01*
X130645003Y-64445296D01*
X130572235Y-64364478D01*
X130572232Y-64364476D01*
X130572231Y-64364475D01*
X130572230Y-64364474D01*
X130427593Y-64259388D01*
X130264267Y-64186671D01*
X130264265Y-64186670D01*
X130101952Y-64152170D01*
X130089391Y-64149500D01*
X129910609Y-64149500D01*
X129898048Y-64152170D01*
X129735733Y-64186670D01*
X129735728Y-64186672D01*
X129572408Y-64259387D01*
X129427768Y-64364475D01*
X129308140Y-64497336D01*
X129218750Y-64652164D01*
X129218747Y-64652170D01*
X129163504Y-64822192D01*
X129163503Y-64822194D01*
X129144815Y-65000000D01*
X117605185Y-65000000D01*
X117586497Y-64822197D01*
X117558873Y-64737181D01*
X117531252Y-64652170D01*
X117531249Y-64652164D01*
X117525506Y-64642217D01*
X117441859Y-64497335D01*
X117406414Y-64457970D01*
X117376186Y-64394981D01*
X117384811Y-64325646D01*
X117406415Y-64292029D01*
X117441859Y-64252665D01*
X117531250Y-64097835D01*
X117586497Y-63927803D01*
X117605185Y-63750000D01*
X117586497Y-63572197D01*
X117531250Y-63402165D01*
X117450392Y-63262115D01*
X117441861Y-63247338D01*
X117441860Y-63247337D01*
X117441859Y-63247335D01*
X117406414Y-63207970D01*
X117376186Y-63144981D01*
X117384811Y-63075646D01*
X117406415Y-63042029D01*
X117441859Y-63002665D01*
X117531250Y-62847835D01*
X117586497Y-62677803D01*
X117605185Y-62500000D01*
X117586497Y-62322197D01*
X117542462Y-62186671D01*
X117531252Y-62152170D01*
X117531249Y-62152164D01*
X117515566Y-62125000D01*
X131769815Y-62125000D01*
X131788503Y-62302805D01*
X131788504Y-62302807D01*
X131843747Y-62472829D01*
X131843749Y-62472832D01*
X131843750Y-62472835D01*
X131857896Y-62497336D01*
X131933416Y-62628142D01*
X131949888Y-62696042D01*
X131943959Y-62728458D01*
X131913505Y-62822189D01*
X131913503Y-62822194D01*
X131894815Y-63000000D01*
X131913503Y-63177805D01*
X131913504Y-63177807D01*
X131968747Y-63347829D01*
X131968750Y-63347835D01*
X132058141Y-63502665D01*
X132080923Y-63527967D01*
X132177764Y-63635521D01*
X132177767Y-63635523D01*
X132177770Y-63635526D01*
X132322407Y-63740612D01*
X132485733Y-63813329D01*
X132660609Y-63850500D01*
X132660610Y-63850500D01*
X132839389Y-63850500D01*
X132839391Y-63850500D01*
X133014267Y-63813329D01*
X133177593Y-63740612D01*
X133322230Y-63635526D01*
X133330645Y-63626181D01*
X133353768Y-63600500D01*
X133441859Y-63502665D01*
X133531250Y-63347835D01*
X133586497Y-63177803D01*
X133605185Y-63000000D01*
X133586497Y-62822197D01*
X133548809Y-62706206D01*
X133531252Y-62652170D01*
X133531249Y-62652164D01*
X133526732Y-62644341D01*
X133441859Y-62497335D01*
X133441858Y-62497334D01*
X133441583Y-62496857D01*
X133425110Y-62428957D01*
X133431037Y-62396545D01*
X133461497Y-62302803D01*
X133480185Y-62125000D01*
X133461497Y-61947197D01*
X133422003Y-61825646D01*
X133406252Y-61777170D01*
X133406249Y-61777164D01*
X133397899Y-61762701D01*
X133316859Y-61622335D01*
X133243116Y-61540435D01*
X133197235Y-61489478D01*
X133197232Y-61489476D01*
X133197231Y-61489475D01*
X133197230Y-61489474D01*
X133052593Y-61384388D01*
X132889267Y-61311671D01*
X132889265Y-61311670D01*
X132761594Y-61284533D01*
X132714391Y-61274500D01*
X132535609Y-61274500D01*
X132504954Y-61281015D01*
X132360733Y-61311670D01*
X132360728Y-61311672D01*
X132197408Y-61384387D01*
X132052768Y-61489475D01*
X131933140Y-61622336D01*
X131843750Y-61777164D01*
X131843747Y-61777170D01*
X131788504Y-61947192D01*
X131788503Y-61947194D01*
X131769815Y-62125000D01*
X117515566Y-62125000D01*
X117509489Y-62114475D01*
X117476543Y-62057410D01*
X117441861Y-61997338D01*
X117441860Y-61997337D01*
X117441859Y-61997335D01*
X117406414Y-61957970D01*
X117376186Y-61894981D01*
X117384811Y-61825646D01*
X117406415Y-61792029D01*
X117441859Y-61752665D01*
X117531250Y-61597835D01*
X117586497Y-61427803D01*
X117605185Y-61250000D01*
X117586497Y-61072197D01*
X117531250Y-60902165D01*
X117441859Y-60747335D01*
X117378313Y-60676760D01*
X117322235Y-60614478D01*
X117322232Y-60614476D01*
X117322231Y-60614475D01*
X117322230Y-60614474D01*
X117177593Y-60509388D01*
X117014267Y-60436671D01*
X117014265Y-60436670D01*
X116864852Y-60404912D01*
X116839391Y-60399500D01*
X116660609Y-60399500D01*
X116635148Y-60404912D01*
X116485733Y-60436670D01*
X116485728Y-60436672D01*
X116322408Y-60509387D01*
X116177768Y-60614475D01*
X116058140Y-60747336D01*
X115968750Y-60902164D01*
X115968747Y-60902170D01*
X115913504Y-61072192D01*
X115913503Y-61072194D01*
X115894815Y-61250000D01*
X115913503Y-61427805D01*
X115913504Y-61427807D01*
X115968747Y-61597829D01*
X115968750Y-61597835D01*
X116058141Y-61752665D01*
X116079504Y-61776391D01*
X116093584Y-61792029D01*
X116123813Y-61855020D01*
X116115187Y-61924356D01*
X116093584Y-61957971D01*
X116058140Y-61997336D01*
X115968750Y-62152164D01*
X115968747Y-62152170D01*
X115913504Y-62322192D01*
X115913503Y-62322194D01*
X115894815Y-62500000D01*
X115913503Y-62677805D01*
X115913504Y-62677807D01*
X115968747Y-62847829D01*
X115968750Y-62847835D01*
X116058141Y-63002665D01*
X116079504Y-63026391D01*
X116093584Y-63042029D01*
X116123813Y-63105020D01*
X116115187Y-63174356D01*
X116093584Y-63207971D01*
X116058140Y-63247336D01*
X115968750Y-63402164D01*
X115968747Y-63402170D01*
X115913504Y-63572192D01*
X115913503Y-63572194D01*
X115894815Y-63750000D01*
X115913503Y-63927805D01*
X115913504Y-63927807D01*
X115968747Y-64097829D01*
X115968750Y-64097835D01*
X116058141Y-64252665D01*
X116079504Y-64276391D01*
X116093584Y-64292029D01*
X116123813Y-64355020D01*
X116115187Y-64424356D01*
X116093584Y-64457971D01*
X116058140Y-64497336D01*
X115968750Y-64652164D01*
X115968747Y-64652170D01*
X115913504Y-64822192D01*
X115913503Y-64822194D01*
X115894815Y-65000000D01*
X115913503Y-65177805D01*
X115913504Y-65177807D01*
X115968747Y-65347829D01*
X115968750Y-65347835D01*
X116058141Y-65502665D01*
X116079504Y-65526391D01*
X116093584Y-65542029D01*
X116123813Y-65605020D01*
X116115187Y-65674356D01*
X116093584Y-65707971D01*
X116058140Y-65747336D01*
X115968750Y-65902164D01*
X115968747Y-65902170D01*
X115913504Y-66072192D01*
X115913503Y-66072194D01*
X115894815Y-66250000D01*
X115063039Y-66250000D01*
X115086497Y-66177803D01*
X115105185Y-66000000D01*
X115086497Y-65822197D01*
X115042462Y-65686671D01*
X115031252Y-65652170D01*
X115031249Y-65652164D01*
X115021643Y-65635526D01*
X114941859Y-65497335D01*
X114853768Y-65399500D01*
X114822235Y-65364478D01*
X114822232Y-65364476D01*
X114822231Y-65364475D01*
X114822230Y-65364474D01*
X114677593Y-65259388D01*
X114514267Y-65186671D01*
X114514265Y-65186670D01*
X114386594Y-65159533D01*
X114339391Y-65149500D01*
X114160609Y-65149500D01*
X114129954Y-65156015D01*
X113985733Y-65186670D01*
X113985728Y-65186672D01*
X113822408Y-65259387D01*
X113677768Y-65364475D01*
X113558140Y-65497336D01*
X113468750Y-65652164D01*
X113468747Y-65652170D01*
X113413504Y-65822192D01*
X113413503Y-65822194D01*
X113394815Y-66000000D01*
X112100500Y-66000000D01*
X112100500Y-63000000D01*
X113644815Y-63000000D01*
X113663503Y-63177805D01*
X113663504Y-63177807D01*
X113718747Y-63347829D01*
X113718750Y-63347835D01*
X113808141Y-63502665D01*
X113830923Y-63527967D01*
X113927764Y-63635521D01*
X113927767Y-63635523D01*
X113927770Y-63635526D01*
X114072407Y-63740612D01*
X114235733Y-63813329D01*
X114410609Y-63850500D01*
X114410610Y-63850500D01*
X114589389Y-63850500D01*
X114589391Y-63850500D01*
X114764267Y-63813329D01*
X114927593Y-63740612D01*
X115072230Y-63635526D01*
X115080645Y-63626181D01*
X115103768Y-63600500D01*
X115191859Y-63502665D01*
X115281250Y-63347835D01*
X115336497Y-63177803D01*
X115355185Y-63000000D01*
X115336497Y-62822197D01*
X115298809Y-62706206D01*
X115281252Y-62652170D01*
X115281249Y-62652164D01*
X115279711Y-62649500D01*
X115191859Y-62497335D01*
X115106172Y-62402170D01*
X115072235Y-62364478D01*
X115072232Y-62364476D01*
X115072231Y-62364475D01*
X115072230Y-62364474D01*
X114927593Y-62259388D01*
X114764267Y-62186671D01*
X114764265Y-62186670D01*
X114601952Y-62152170D01*
X114589391Y-62149500D01*
X114410609Y-62149500D01*
X114398048Y-62152170D01*
X114235733Y-62186670D01*
X114235728Y-62186672D01*
X114072408Y-62259387D01*
X113927768Y-62364475D01*
X113808140Y-62497336D01*
X113718750Y-62652164D01*
X113718747Y-62652170D01*
X113663504Y-62822192D01*
X113663503Y-62822194D01*
X113644815Y-63000000D01*
X112100500Y-63000000D01*
X112100500Y-60224500D01*
X112120185Y-60157461D01*
X112172989Y-60111706D01*
X112224500Y-60100500D01*
X124159466Y-60100500D01*
X124226505Y-60120185D01*
G37*
%TD.AperFunction*%
%TD*%
%TA.AperFunction,Conductor*%
%TO.N,/Microcontroller/V_{DD}*%
G36*
X114593039Y-84019685D02*
G01*
X114638794Y-84072489D01*
X114650000Y-84124000D01*
X114650000Y-84750000D01*
X115566314Y-84750000D01*
X115540507Y-84790156D01*
X115500000Y-84928111D01*
X115500000Y-85071889D01*
X115540507Y-85209844D01*
X115566314Y-85250000D01*
X114650000Y-85250000D01*
X114650000Y-85897844D01*
X114656401Y-85957372D01*
X114656403Y-85957379D01*
X114706645Y-86092086D01*
X114706649Y-86092093D01*
X114792809Y-86207187D01*
X114792812Y-86207190D01*
X114907906Y-86293350D01*
X114907913Y-86293354D01*
X115042620Y-86343596D01*
X115042627Y-86343598D01*
X115102155Y-86349999D01*
X115102172Y-86350000D01*
X115750000Y-86350000D01*
X115750000Y-85435501D01*
X115857685Y-85484680D01*
X115964237Y-85500000D01*
X116035763Y-85500000D01*
X116142315Y-85484680D01*
X116250000Y-85435501D01*
X116250000Y-86350000D01*
X116897828Y-86350000D01*
X116897844Y-86349999D01*
X116957372Y-86343598D01*
X116957379Y-86343596D01*
X117092086Y-86293354D01*
X117092093Y-86293350D01*
X117207187Y-86207190D01*
X117207190Y-86207187D01*
X117293350Y-86092093D01*
X117293354Y-86092086D01*
X117343596Y-85957379D01*
X117343598Y-85957372D01*
X117349999Y-85897844D01*
X117350000Y-85897827D01*
X117350000Y-85250000D01*
X116433686Y-85250000D01*
X116459493Y-85209844D01*
X116500000Y-85071889D01*
X116500000Y-84928111D01*
X116459493Y-84790156D01*
X116433686Y-84750000D01*
X117350000Y-84750000D01*
X117350000Y-84124000D01*
X117369685Y-84056961D01*
X117422489Y-84011206D01*
X117474000Y-84000000D01*
X121597520Y-84000000D01*
X121664559Y-84019685D01*
X121710314Y-84072489D01*
X121720258Y-84141647D01*
X121715451Y-84162318D01*
X121663504Y-84322192D01*
X121663503Y-84322194D01*
X121644815Y-84500000D01*
X121663503Y-84677805D01*
X121663504Y-84677807D01*
X121718747Y-84847829D01*
X121718750Y-84847835D01*
X121808141Y-85002665D01*
X121849812Y-85048946D01*
X121927764Y-85135521D01*
X121927767Y-85135523D01*
X121927770Y-85135526D01*
X122072407Y-85240612D01*
X122235733Y-85313329D01*
X122410609Y-85350500D01*
X122410610Y-85350500D01*
X122589389Y-85350500D01*
X122589391Y-85350500D01*
X122764267Y-85313329D01*
X122927593Y-85240612D01*
X123072230Y-85135526D01*
X123191859Y-85002665D01*
X123281250Y-84847835D01*
X123336497Y-84677803D01*
X123355185Y-84500000D01*
X123336497Y-84322197D01*
X123284549Y-84162318D01*
X123282554Y-84092477D01*
X123318634Y-84032644D01*
X123381335Y-84001816D01*
X123402480Y-84000000D01*
X124033165Y-84000000D01*
X124100204Y-84019685D01*
X124145959Y-84072489D01*
X124156485Y-84111035D01*
X124159569Y-84140373D01*
X124163503Y-84177804D01*
X124163504Y-84177807D01*
X124218747Y-84347829D01*
X124218750Y-84347835D01*
X124308141Y-84502665D01*
X124319536Y-84515320D01*
X124343584Y-84542029D01*
X124373813Y-84605020D01*
X124365187Y-84674356D01*
X124343584Y-84707971D01*
X124308140Y-84747336D01*
X124218750Y-84902164D01*
X124218747Y-84902170D01*
X124163504Y-85072192D01*
X124163503Y-85072194D01*
X124144815Y-85250000D01*
X124163503Y-85427805D01*
X124163504Y-85427807D01*
X124218747Y-85597829D01*
X124218750Y-85597835D01*
X124308141Y-85752665D01*
X124348362Y-85797335D01*
X124432118Y-85890356D01*
X124430540Y-85891776D01*
X124461997Y-85942818D01*
X124460677Y-86012675D01*
X124421800Y-86070730D01*
X124357707Y-86098549D01*
X124342381Y-86099500D01*
X122841911Y-86099500D01*
X122774872Y-86079815D01*
X122769025Y-86075818D01*
X122753803Y-86064758D01*
X122677593Y-86009388D01*
X122514267Y-85936671D01*
X122514265Y-85936670D01*
X122386594Y-85909533D01*
X122339391Y-85899500D01*
X122160609Y-85899500D01*
X122129954Y-85906015D01*
X121985733Y-85936670D01*
X121985728Y-85936672D01*
X121822408Y-86009387D01*
X121677768Y-86114475D01*
X121558140Y-86247336D01*
X121468750Y-86402164D01*
X121468747Y-86402170D01*
X121413504Y-86572192D01*
X121413503Y-86572194D01*
X121394815Y-86750000D01*
X121413503Y-86927805D01*
X121413504Y-86927807D01*
X121468747Y-87097829D01*
X121468750Y-87097835D01*
X121558141Y-87252665D01*
X121604053Y-87303655D01*
X121663951Y-87370179D01*
X121694181Y-87433170D01*
X121689732Y-87491468D01*
X121663505Y-87572189D01*
X121663503Y-87572194D01*
X121644815Y-87750000D01*
X121663503Y-87927805D01*
X121663504Y-87927807D01*
X121718747Y-88097829D01*
X121718750Y-88097835D01*
X121808141Y-88252665D01*
X121849812Y-88298946D01*
X121927764Y-88385521D01*
X121927767Y-88385523D01*
X121927770Y-88385526D01*
X122072407Y-88490612D01*
X122235733Y-88563329D01*
X122301322Y-88577270D01*
X122362800Y-88610460D01*
X122396577Y-88671623D01*
X122398859Y-88711519D01*
X122394815Y-88749998D01*
X122394815Y-88750000D01*
X122404159Y-88838901D01*
X122413503Y-88927805D01*
X122413504Y-88927807D01*
X122468747Y-89097829D01*
X122468750Y-89097835D01*
X122558141Y-89252665D01*
X122599812Y-89298946D01*
X122677764Y-89385521D01*
X122677767Y-89385523D01*
X122677770Y-89385526D01*
X122822407Y-89490612D01*
X122835320Y-89496361D01*
X122888556Y-89541610D01*
X122908878Y-89608459D01*
X122908205Y-89622601D01*
X122894815Y-89750000D01*
X122898859Y-89788479D01*
X122886289Y-89857208D01*
X122838556Y-89908232D01*
X122801321Y-89922729D01*
X122735730Y-89936671D01*
X122735728Y-89936672D01*
X122572408Y-90009387D01*
X122427768Y-90114475D01*
X122308140Y-90247336D01*
X122218750Y-90402164D01*
X122218747Y-90402170D01*
X122163504Y-90572192D01*
X122163503Y-90572194D01*
X122144815Y-90750000D01*
X122163503Y-90927805D01*
X122163504Y-90927807D01*
X122218747Y-91097829D01*
X122218750Y-91097835D01*
X122308141Y-91252665D01*
X122349812Y-91298946D01*
X122427764Y-91385521D01*
X122427767Y-91385523D01*
X122427770Y-91385526D01*
X122572407Y-91490612D01*
X122735733Y-91563329D01*
X122910609Y-91600500D01*
X122910610Y-91600500D01*
X123089389Y-91600500D01*
X123089391Y-91600500D01*
X123264267Y-91563329D01*
X123427593Y-91490612D01*
X123572230Y-91385526D01*
X123572235Y-91385521D01*
X123611847Y-91341528D01*
X123671334Y-91304879D01*
X123703997Y-91300500D01*
X131091271Y-91300500D01*
X131158310Y-91320185D01*
X131174245Y-91332351D01*
X131177766Y-91335521D01*
X131177770Y-91335526D01*
X131322407Y-91440612D01*
X131485733Y-91513329D01*
X131660609Y-91550500D01*
X131660610Y-91550500D01*
X131839389Y-91550500D01*
X131839391Y-91550500D01*
X132014267Y-91513329D01*
X132177593Y-91440612D01*
X132322230Y-91335526D01*
X132441859Y-91202665D01*
X132531250Y-91047835D01*
X132586497Y-90877803D01*
X132605185Y-90700000D01*
X132586497Y-90522197D01*
X132531250Y-90352165D01*
X132441859Y-90197335D01*
X132395003Y-90145296D01*
X132322235Y-90064478D01*
X132322232Y-90064476D01*
X132322231Y-90064475D01*
X132322230Y-90064474D01*
X132177593Y-89959388D01*
X132014267Y-89886671D01*
X132014265Y-89886670D01*
X131875654Y-89857208D01*
X131839391Y-89849500D01*
X131660609Y-89849500D01*
X131629954Y-89856015D01*
X131485733Y-89886670D01*
X131485728Y-89886672D01*
X131322408Y-89959387D01*
X131177772Y-90064472D01*
X131174245Y-90067649D01*
X131111253Y-90097879D01*
X131091271Y-90099500D01*
X128869808Y-90099500D01*
X128802769Y-90079815D01*
X128757014Y-90027011D01*
X128747070Y-89957853D01*
X128776095Y-89894297D01*
X128782127Y-89887819D01*
X131183127Y-87486819D01*
X131244450Y-87453334D01*
X131270808Y-87450500D01*
X131298266Y-87450500D01*
X131365305Y-87470185D01*
X131411060Y-87522989D01*
X131421004Y-87592147D01*
X131416196Y-87612816D01*
X131413504Y-87621105D01*
X131413503Y-87621105D01*
X131394815Y-87798911D01*
X131413503Y-87976716D01*
X131413504Y-87976718D01*
X131468747Y-88146740D01*
X131468750Y-88146746D01*
X131558141Y-88301576D01*
X131594090Y-88341501D01*
X131677764Y-88434432D01*
X131677767Y-88434434D01*
X131677770Y-88434437D01*
X131822407Y-88539523D01*
X131985733Y-88612240D01*
X132160609Y-88649411D01*
X132160610Y-88649411D01*
X132339389Y-88649411D01*
X132339391Y-88649411D01*
X132514267Y-88612240D01*
X132677593Y-88539523D01*
X132822230Y-88434437D01*
X132941859Y-88301576D01*
X133031250Y-88146746D01*
X133086497Y-87976714D01*
X133105185Y-87798911D01*
X133095853Y-87710127D01*
X133108422Y-87641400D01*
X133156154Y-87590376D01*
X133223894Y-87573258D01*
X133269608Y-87583888D01*
X133335733Y-87613329D01*
X133510609Y-87650500D01*
X133510610Y-87650500D01*
X133689389Y-87650500D01*
X133689391Y-87650500D01*
X133864267Y-87613329D01*
X134027593Y-87540612D01*
X134172230Y-87435526D01*
X134174352Y-87433170D01*
X134217253Y-87385523D01*
X134291859Y-87302665D01*
X134327936Y-87240177D01*
X134343916Y-87212500D01*
X134394483Y-87164284D01*
X134451303Y-87150500D01*
X134489390Y-87150500D01*
X134489391Y-87150500D01*
X134569283Y-87133518D01*
X134638948Y-87138834D01*
X134694682Y-87180970D01*
X134702451Y-87192809D01*
X134708141Y-87202665D01*
X134827764Y-87335521D01*
X134827767Y-87335523D01*
X134827770Y-87335526D01*
X134972407Y-87440612D01*
X135135733Y-87513329D01*
X135135735Y-87513329D01*
X135135736Y-87513330D01*
X135194883Y-87525901D01*
X135230109Y-87533389D01*
X135291591Y-87566581D01*
X135325368Y-87627744D01*
X135322260Y-87692996D01*
X135292484Y-87784640D01*
X135292482Y-87784645D01*
X135273794Y-87962451D01*
X135292482Y-88140256D01*
X135292483Y-88140258D01*
X135347726Y-88310280D01*
X135347729Y-88310286D01*
X135437120Y-88465116D01*
X135460075Y-88490610D01*
X135556743Y-88597972D01*
X135556746Y-88597974D01*
X135556749Y-88597977D01*
X135701386Y-88703063D01*
X135864712Y-88775780D01*
X136039588Y-88812951D01*
X136039589Y-88812951D01*
X136218368Y-88812951D01*
X136218370Y-88812951D01*
X136393246Y-88775780D01*
X136556572Y-88703063D01*
X136701209Y-88597977D01*
X136820838Y-88465116D01*
X136851216Y-88412500D01*
X136864326Y-88400000D01*
X142244815Y-88400000D01*
X142263503Y-88577805D01*
X142263504Y-88577807D01*
X142318747Y-88747829D01*
X142318750Y-88747835D01*
X142408141Y-88902665D01*
X142430779Y-88927807D01*
X142527764Y-89035521D01*
X142527767Y-89035523D01*
X142527770Y-89035526D01*
X142672407Y-89140612D01*
X142835733Y-89213329D01*
X143010609Y-89250500D01*
X143010610Y-89250500D01*
X143189389Y-89250500D01*
X143189391Y-89250500D01*
X143364267Y-89213329D01*
X143527593Y-89140612D01*
X143672230Y-89035526D01*
X143791859Y-88902665D01*
X143881250Y-88747835D01*
X143936497Y-88577803D01*
X143944674Y-88500000D01*
X145144815Y-88500000D01*
X145163503Y-88677805D01*
X145163504Y-88677807D01*
X145218747Y-88847829D01*
X145218750Y-88847835D01*
X145308141Y-89002665D01*
X145349812Y-89048946D01*
X145427764Y-89135521D01*
X145427767Y-89135523D01*
X145427770Y-89135526D01*
X145572407Y-89240612D01*
X145735733Y-89313329D01*
X145910609Y-89350500D01*
X145910610Y-89350500D01*
X146089389Y-89350500D01*
X146089391Y-89350500D01*
X146264267Y-89313329D01*
X146427593Y-89240612D01*
X146572230Y-89135526D01*
X146691859Y-89002665D01*
X146781250Y-88847835D01*
X146836497Y-88677803D01*
X146855185Y-88500000D01*
X146836497Y-88322197D01*
X146795121Y-88194855D01*
X146781252Y-88152170D01*
X146781249Y-88152164D01*
X146778121Y-88146746D01*
X146691859Y-87997335D01*
X146629683Y-87928282D01*
X146572235Y-87864478D01*
X146572232Y-87864476D01*
X146572231Y-87864475D01*
X146572230Y-87864474D01*
X146517647Y-87824816D01*
X146474983Y-87769488D01*
X146469004Y-87699874D01*
X146501610Y-87638079D01*
X146562449Y-87603722D01*
X146582943Y-87601370D01*
X146582923Y-87601180D01*
X146589389Y-87600500D01*
X146589391Y-87600500D01*
X146764267Y-87563329D01*
X146927593Y-87490612D01*
X147072230Y-87385526D01*
X147191859Y-87252665D01*
X147281250Y-87097835D01*
X147336497Y-86927803D01*
X147355185Y-86750000D01*
X147336497Y-86572197D01*
X147296955Y-86450500D01*
X147281252Y-86402170D01*
X147281249Y-86402164D01*
X147191859Y-86247335D01*
X147115175Y-86162169D01*
X147072235Y-86114478D01*
X147072232Y-86114476D01*
X147072231Y-86114475D01*
X147072230Y-86114474D01*
X146927593Y-86009388D01*
X146764267Y-85936671D01*
X146764265Y-85936670D01*
X146636594Y-85909533D01*
X146589391Y-85899500D01*
X146410609Y-85899500D01*
X146379954Y-85906015D01*
X146235733Y-85936670D01*
X146235728Y-85936672D01*
X146072408Y-86009387D01*
X145927768Y-86114475D01*
X145808140Y-86247336D01*
X145718750Y-86402164D01*
X145718747Y-86402170D01*
X145663504Y-86572192D01*
X145663503Y-86572194D01*
X145644815Y-86750000D01*
X145663503Y-86927805D01*
X145663504Y-86927807D01*
X145718747Y-87097829D01*
X145718750Y-87097835D01*
X145808141Y-87252665D01*
X145830779Y-87277807D01*
X145927764Y-87385521D01*
X145927767Y-87385523D01*
X145927770Y-87385526D01*
X145982352Y-87425183D01*
X146025017Y-87480512D01*
X146030996Y-87550126D01*
X145998390Y-87611921D01*
X145937551Y-87646278D01*
X145917056Y-87648629D01*
X145917077Y-87648820D01*
X145910610Y-87649499D01*
X145735733Y-87686670D01*
X145735728Y-87686672D01*
X145572408Y-87759387D01*
X145427768Y-87864475D01*
X145308140Y-87997336D01*
X145218750Y-88152164D01*
X145218747Y-88152170D01*
X145163504Y-88322192D01*
X145163503Y-88322194D01*
X145144815Y-88500000D01*
X143944674Y-88500000D01*
X143955185Y-88400000D01*
X143936497Y-88222197D01*
X143893432Y-88089660D01*
X143891438Y-88019820D01*
X143927518Y-87959987D01*
X143985578Y-87930054D01*
X144064267Y-87913329D01*
X144227593Y-87840612D01*
X144372230Y-87735526D01*
X144393952Y-87711402D01*
X144416220Y-87686670D01*
X144491859Y-87602665D01*
X144581250Y-87447835D01*
X144636497Y-87277803D01*
X144655185Y-87100000D01*
X144636497Y-86922197D01*
X144581250Y-86752165D01*
X144491859Y-86597335D01*
X144445003Y-86545296D01*
X144372235Y-86464478D01*
X144372232Y-86464476D01*
X144372231Y-86464475D01*
X144372230Y-86464474D01*
X144227593Y-86359388D01*
X144064267Y-86286671D01*
X144064265Y-86286670D01*
X143936594Y-86259533D01*
X143889391Y-86249500D01*
X143710609Y-86249500D01*
X143679954Y-86256015D01*
X143535733Y-86286670D01*
X143535728Y-86286672D01*
X143372408Y-86359387D01*
X143227768Y-86464475D01*
X143108140Y-86597336D01*
X143018750Y-86752164D01*
X143018747Y-86752170D01*
X142963504Y-86922192D01*
X142963503Y-86922194D01*
X142944815Y-87100000D01*
X142963503Y-87277805D01*
X142963504Y-87277807D01*
X143006566Y-87410338D01*
X143008561Y-87480179D01*
X142972481Y-87540012D01*
X142914416Y-87569946D01*
X142835733Y-87586670D01*
X142835728Y-87586672D01*
X142672408Y-87659387D01*
X142527768Y-87764475D01*
X142408140Y-87897336D01*
X142318750Y-88052164D01*
X142318747Y-88052170D01*
X142263504Y-88222192D01*
X142263503Y-88222194D01*
X142244815Y-88400000D01*
X136864326Y-88400000D01*
X136901783Y-88364285D01*
X136958603Y-88350500D01*
X136989889Y-88350500D01*
X136989891Y-88350500D01*
X137164767Y-88313329D01*
X137328093Y-88240612D01*
X137472730Y-88135526D01*
X137482384Y-88124803D01*
X137541867Y-88088154D01*
X137555097Y-88085490D01*
X137556758Y-88085045D01*
X137556759Y-88085044D01*
X137556762Y-88085044D01*
X137702841Y-88024536D01*
X137731344Y-88002665D01*
X137828282Y-87928282D01*
X137849983Y-87899999D01*
X137855311Y-87893922D01*
X139639194Y-86110039D01*
X139700515Y-86076556D01*
X139770207Y-86081540D01*
X139819021Y-86114748D01*
X139849339Y-86148420D01*
X139927764Y-86235521D01*
X139927767Y-86235523D01*
X139927770Y-86235526D01*
X140072407Y-86340612D01*
X140235733Y-86413329D01*
X140410609Y-86450500D01*
X140410610Y-86450500D01*
X140589389Y-86450500D01*
X140589391Y-86450500D01*
X140764267Y-86413329D01*
X140927593Y-86340612D01*
X141072230Y-86235526D01*
X141191859Y-86102665D01*
X141281250Y-85947835D01*
X141336497Y-85777803D01*
X141355185Y-85600000D01*
X141344674Y-85500000D01*
X144144815Y-85500000D01*
X144163503Y-85677805D01*
X144163504Y-85677807D01*
X144218747Y-85847829D01*
X144218750Y-85847835D01*
X144308141Y-86002665D01*
X144349812Y-86048946D01*
X144427764Y-86135521D01*
X144427767Y-86135523D01*
X144427770Y-86135526D01*
X144572407Y-86240612D01*
X144735733Y-86313329D01*
X144910609Y-86350500D01*
X144910610Y-86350500D01*
X145089389Y-86350500D01*
X145089391Y-86350500D01*
X145264267Y-86313329D01*
X145427593Y-86240612D01*
X145572230Y-86135526D01*
X145591185Y-86114475D01*
X145611337Y-86092093D01*
X145691859Y-86002665D01*
X145781250Y-85847835D01*
X145836497Y-85677803D01*
X145855185Y-85500000D01*
X145836497Y-85322197D01*
X145787500Y-85171401D01*
X145781252Y-85152170D01*
X145781249Y-85152164D01*
X145771643Y-85135526D01*
X145691859Y-84997335D01*
X145630186Y-84928840D01*
X145572235Y-84864478D01*
X145572232Y-84864476D01*
X145572231Y-84864475D01*
X145572230Y-84864474D01*
X145427593Y-84759388D01*
X145264267Y-84686671D01*
X145264265Y-84686670D01*
X145136594Y-84659533D01*
X145089391Y-84649500D01*
X144910609Y-84649500D01*
X144879954Y-84656015D01*
X144735733Y-84686670D01*
X144735728Y-84686672D01*
X144572408Y-84759387D01*
X144427768Y-84864475D01*
X144308140Y-84997336D01*
X144218750Y-85152164D01*
X144218747Y-85152170D01*
X144163504Y-85322192D01*
X144163503Y-85322194D01*
X144144815Y-85500000D01*
X141344674Y-85500000D01*
X141336497Y-85422197D01*
X141304003Y-85322192D01*
X141281252Y-85252170D01*
X141281249Y-85252164D01*
X141280000Y-85250000D01*
X141191859Y-85097335D01*
X141145003Y-85045296D01*
X141072235Y-84964478D01*
X141072230Y-84964474D01*
X141023185Y-84928840D01*
X140980520Y-84873510D01*
X140974542Y-84803896D01*
X141007149Y-84742102D01*
X141008322Y-84740912D01*
X141712915Y-84036319D01*
X141774238Y-84002834D01*
X141800596Y-84000000D01*
X142000533Y-84000000D01*
X142067572Y-84019685D01*
X142092683Y-84041028D01*
X142177764Y-84135521D01*
X142177767Y-84135523D01*
X142177770Y-84135526D01*
X142322407Y-84240612D01*
X142485733Y-84313329D01*
X142660609Y-84350500D01*
X142660610Y-84350500D01*
X142839389Y-84350500D01*
X142839391Y-84350500D01*
X143014267Y-84313329D01*
X143177593Y-84240612D01*
X143322230Y-84135526D01*
X143322877Y-84134808D01*
X143407317Y-84041028D01*
X143466803Y-84004379D01*
X143499467Y-84000000D01*
X143567136Y-84000000D01*
X143617570Y-84010719D01*
X143735733Y-84063329D01*
X143910609Y-84100500D01*
X143910610Y-84100500D01*
X144089389Y-84100500D01*
X144089391Y-84100500D01*
X144264267Y-84063329D01*
X144382429Y-84010719D01*
X144432864Y-84000000D01*
X146752334Y-84000000D01*
X146819373Y-84019685D01*
X146865128Y-84072489D01*
X146875072Y-84141647D01*
X146846047Y-84205203D01*
X146844484Y-84206972D01*
X146808140Y-84247336D01*
X146718750Y-84402164D01*
X146718747Y-84402170D01*
X146663504Y-84572192D01*
X146663503Y-84572194D01*
X146644815Y-84750000D01*
X146663503Y-84927805D01*
X146663504Y-84927807D01*
X146718747Y-85097829D01*
X146718750Y-85097835D01*
X146808141Y-85252665D01*
X146849101Y-85298155D01*
X146927764Y-85385521D01*
X146927767Y-85385523D01*
X146927770Y-85385526D01*
X147072407Y-85490612D01*
X147235733Y-85563329D01*
X147410609Y-85600500D01*
X147410610Y-85600500D01*
X147589389Y-85600500D01*
X147589391Y-85600500D01*
X147764267Y-85563329D01*
X147927593Y-85490612D01*
X148072230Y-85385526D01*
X148191859Y-85252665D01*
X148281250Y-85097835D01*
X148281413Y-85097335D01*
X148289680Y-85071889D01*
X148336497Y-84927803D01*
X148355185Y-84750000D01*
X148336497Y-84572197D01*
X148281250Y-84402165D01*
X148191859Y-84247335D01*
X148155516Y-84206972D01*
X148125286Y-84143981D01*
X148133911Y-84074645D01*
X148178653Y-84020980D01*
X148245305Y-84000022D01*
X148247666Y-84000000D01*
X148535266Y-84000000D01*
X148602305Y-84019685D01*
X148648060Y-84072489D01*
X148658793Y-84134807D01*
X148649537Y-84240610D01*
X148644341Y-84299999D01*
X148644341Y-84300000D01*
X148664936Y-84535403D01*
X148664938Y-84535413D01*
X148726094Y-84763655D01*
X148726096Y-84763659D01*
X148726097Y-84763663D01*
X148773106Y-84864474D01*
X148825965Y-84977830D01*
X148825967Y-84977834D01*
X148961501Y-85171395D01*
X148961506Y-85171402D01*
X149128597Y-85338493D01*
X149128603Y-85338498D01*
X149314158Y-85468425D01*
X149357783Y-85523002D01*
X149364977Y-85592500D01*
X149333454Y-85654855D01*
X149314158Y-85671575D01*
X149128597Y-85801505D01*
X148961505Y-85968597D01*
X148825965Y-86162169D01*
X148825964Y-86162171D01*
X148726098Y-86376335D01*
X148726094Y-86376344D01*
X148664938Y-86604586D01*
X148664936Y-86604596D01*
X148644341Y-86839999D01*
X148644341Y-86840000D01*
X148664936Y-87075403D01*
X148664938Y-87075413D01*
X148726094Y-87303655D01*
X148726096Y-87303659D01*
X148726097Y-87303663D01*
X148794837Y-87451076D01*
X148825965Y-87517830D01*
X148825967Y-87517834D01*
X148961501Y-87711395D01*
X148961506Y-87711402D01*
X149128597Y-87878493D01*
X149128603Y-87878498D01*
X149314158Y-88008425D01*
X149357783Y-88063002D01*
X149364977Y-88132500D01*
X149333454Y-88194855D01*
X149314158Y-88211575D01*
X149128597Y-88341505D01*
X148961505Y-88508597D01*
X148825965Y-88702169D01*
X148825964Y-88702171D01*
X148726098Y-88916335D01*
X148726094Y-88916344D01*
X148664938Y-89144586D01*
X148664936Y-89144596D01*
X148644341Y-89379999D01*
X148644341Y-89380000D01*
X148664936Y-89615403D01*
X148664938Y-89615413D01*
X148726094Y-89843655D01*
X148726096Y-89843659D01*
X148726097Y-89843663D01*
X148769468Y-89936672D01*
X148825965Y-90057830D01*
X148825967Y-90057834D01*
X148961501Y-90251395D01*
X148961506Y-90251402D01*
X149128597Y-90418493D01*
X149128603Y-90418498D01*
X149314158Y-90548425D01*
X149357783Y-90603002D01*
X149364977Y-90672500D01*
X149333454Y-90734855D01*
X149314158Y-90751575D01*
X149128597Y-90881505D01*
X148961505Y-91048597D01*
X148825965Y-91242169D01*
X148825964Y-91242171D01*
X148726098Y-91456335D01*
X148726094Y-91456344D01*
X148664938Y-91684586D01*
X148664936Y-91684596D01*
X148644341Y-91919999D01*
X148644341Y-91920000D01*
X148664936Y-92155403D01*
X148664938Y-92155413D01*
X148726094Y-92383655D01*
X148726096Y-92383659D01*
X148726097Y-92383663D01*
X148825965Y-92597830D01*
X148825967Y-92597834D01*
X148961501Y-92791395D01*
X148961506Y-92791402D01*
X149128597Y-92958493D01*
X149128603Y-92958498D01*
X149314158Y-93088425D01*
X149357783Y-93143002D01*
X149364977Y-93212500D01*
X149333454Y-93274855D01*
X149314158Y-93291575D01*
X149128597Y-93421505D01*
X148961505Y-93588597D01*
X148825965Y-93782169D01*
X148825964Y-93782171D01*
X148726098Y-93996335D01*
X148726094Y-93996344D01*
X148664938Y-94224586D01*
X148664936Y-94224596D01*
X148644341Y-94459999D01*
X148644341Y-94460000D01*
X148664936Y-94695403D01*
X148664938Y-94695413D01*
X148726094Y-94923655D01*
X148726096Y-94923659D01*
X148726097Y-94923663D01*
X148805050Y-95092978D01*
X148825965Y-95137830D01*
X148825967Y-95137834D01*
X148934281Y-95292521D01*
X148960394Y-95329815D01*
X148961501Y-95331395D01*
X148961506Y-95331402D01*
X149128597Y-95498493D01*
X149128603Y-95498498D01*
X149314158Y-95628425D01*
X149357783Y-95683002D01*
X149364977Y-95752500D01*
X149333454Y-95814855D01*
X149314158Y-95831575D01*
X149128597Y-95961505D01*
X148961505Y-96128597D01*
X148825965Y-96322169D01*
X148825964Y-96322171D01*
X148726098Y-96536335D01*
X148726094Y-96536344D01*
X148664938Y-96764586D01*
X148664936Y-96764596D01*
X148644341Y-96999999D01*
X148644341Y-97000000D01*
X148664936Y-97235403D01*
X148664938Y-97235413D01*
X148726094Y-97463655D01*
X148726096Y-97463659D01*
X148726097Y-97463663D01*
X148810145Y-97643904D01*
X148825965Y-97677830D01*
X148825967Y-97677834D01*
X148893679Y-97774536D01*
X148956655Y-97864475D01*
X148961501Y-97871395D01*
X148961506Y-97871402D01*
X149128597Y-98038493D01*
X149128603Y-98038498D01*
X149314158Y-98168425D01*
X149357783Y-98223002D01*
X149364977Y-98292500D01*
X149333454Y-98354855D01*
X149314158Y-98371575D01*
X149128597Y-98501505D01*
X148961505Y-98668597D01*
X148825965Y-98862169D01*
X148825964Y-98862171D01*
X148732401Y-99062816D01*
X148727302Y-99073754D01*
X148726098Y-99076335D01*
X148726094Y-99076344D01*
X148664938Y-99304586D01*
X148664936Y-99304596D01*
X148644341Y-99539999D01*
X148644341Y-99540000D01*
X148664936Y-99775403D01*
X148664938Y-99775413D01*
X148726094Y-100003655D01*
X148726096Y-100003659D01*
X148726097Y-100003663D01*
X148804418Y-100171623D01*
X148825965Y-100217830D01*
X148825967Y-100217834D01*
X148928433Y-100364170D01*
X148955041Y-100402170D01*
X148961501Y-100411395D01*
X148961506Y-100411402D01*
X149128597Y-100578493D01*
X149128603Y-100578498D01*
X149314158Y-100708425D01*
X149357783Y-100763002D01*
X149364977Y-100832500D01*
X149333454Y-100894855D01*
X149314158Y-100911575D01*
X149128597Y-101041505D01*
X148961505Y-101208597D01*
X148825965Y-101402169D01*
X148825964Y-101402171D01*
X148726098Y-101616335D01*
X148726094Y-101616344D01*
X148664938Y-101844586D01*
X148664936Y-101844596D01*
X148644341Y-102079999D01*
X148644341Y-102080000D01*
X148664936Y-102315403D01*
X148664939Y-102315416D01*
X148696223Y-102432174D01*
X148694560Y-102502023D01*
X148655397Y-102559886D01*
X148591168Y-102587389D01*
X148522266Y-102575802D01*
X148503562Y-102564583D01*
X148427598Y-102509391D01*
X148427597Y-102509390D01*
X148427593Y-102509388D01*
X148264267Y-102436671D01*
X148264265Y-102436670D01*
X148136594Y-102409533D01*
X148089391Y-102399500D01*
X147910609Y-102399500D01*
X147879954Y-102406015D01*
X147735733Y-102436670D01*
X147735728Y-102436672D01*
X147572408Y-102509387D01*
X147427768Y-102614475D01*
X147308140Y-102747336D01*
X147218750Y-102902164D01*
X147218747Y-102902170D01*
X147163504Y-103072192D01*
X147163503Y-103072194D01*
X147144815Y-103250000D01*
X147163503Y-103427805D01*
X147163504Y-103427807D01*
X147218747Y-103597829D01*
X147218750Y-103597835D01*
X147308141Y-103752665D01*
X147343583Y-103792027D01*
X147427764Y-103885521D01*
X147427767Y-103885523D01*
X147427770Y-103885526D01*
X147572407Y-103990612D01*
X147735733Y-104063329D01*
X147910609Y-104100500D01*
X147910610Y-104100500D01*
X148089389Y-104100500D01*
X148089391Y-104100500D01*
X148264267Y-104063329D01*
X148427593Y-103990612D01*
X148572230Y-103885526D01*
X148598134Y-103856756D01*
X148657618Y-103820108D01*
X148727475Y-103821437D01*
X148785524Y-103860322D01*
X148813335Y-103924418D01*
X148802666Y-103992132D01*
X148726099Y-104156330D01*
X148726094Y-104156344D01*
X148664938Y-104384586D01*
X148664936Y-104384596D01*
X148644341Y-104619999D01*
X148644341Y-104620000D01*
X148664936Y-104855403D01*
X148664938Y-104855413D01*
X148726094Y-105083655D01*
X148726096Y-105083659D01*
X148726097Y-105083663D01*
X148808039Y-105259388D01*
X148825965Y-105297830D01*
X148825967Y-105297834D01*
X148934281Y-105452521D01*
X148961501Y-105491396D01*
X148961506Y-105491402D01*
X149083818Y-105613714D01*
X149117303Y-105675037D01*
X149112319Y-105744729D01*
X149070447Y-105800662D01*
X149039471Y-105817577D01*
X148907912Y-105866646D01*
X148907906Y-105866649D01*
X148792812Y-105952809D01*
X148792809Y-105952812D01*
X148706649Y-106067906D01*
X148706645Y-106067913D01*
X148656403Y-106202620D01*
X148656401Y-106202627D01*
X148650000Y-106262155D01*
X148650000Y-106910000D01*
X149566314Y-106910000D01*
X149540507Y-106950156D01*
X149500000Y-107088111D01*
X149500000Y-107231889D01*
X149540507Y-107369844D01*
X149566314Y-107410000D01*
X148650000Y-107410000D01*
X148650000Y-108057844D01*
X148656401Y-108117372D01*
X148656403Y-108117379D01*
X148706645Y-108252086D01*
X148706649Y-108252093D01*
X148792809Y-108367187D01*
X148792812Y-108367190D01*
X148907906Y-108453350D01*
X148907913Y-108453354D01*
X149042620Y-108503596D01*
X149042627Y-108503598D01*
X149102155Y-108509999D01*
X149102172Y-108510000D01*
X149750000Y-108510000D01*
X149750000Y-107595501D01*
X149857685Y-107644680D01*
X149964237Y-107660000D01*
X150035763Y-107660000D01*
X150142315Y-107644680D01*
X150250000Y-107595501D01*
X150250000Y-108510000D01*
X150897828Y-108510000D01*
X150897844Y-108509999D01*
X150957372Y-108503598D01*
X150957379Y-108503596D01*
X151092086Y-108453354D01*
X151092093Y-108453350D01*
X151207187Y-108367190D01*
X151207190Y-108367187D01*
X151293350Y-108252093D01*
X151293354Y-108252086D01*
X151343596Y-108117379D01*
X151343598Y-108117372D01*
X151349999Y-108057844D01*
X151350000Y-108057827D01*
X151350000Y-107410000D01*
X150433686Y-107410000D01*
X150459493Y-107369844D01*
X150500000Y-107231889D01*
X150500000Y-107088111D01*
X150459493Y-106950156D01*
X150433686Y-106910000D01*
X151350000Y-106910000D01*
X151350000Y-106262172D01*
X151349999Y-106262155D01*
X151343598Y-106202627D01*
X151343596Y-106202620D01*
X151293354Y-106067913D01*
X151293350Y-106067906D01*
X151207190Y-105952812D01*
X151207187Y-105952809D01*
X151092093Y-105866649D01*
X151092088Y-105866646D01*
X150960528Y-105817577D01*
X150904595Y-105775705D01*
X150880178Y-105710241D01*
X150895030Y-105641968D01*
X150916175Y-105613720D01*
X151038495Y-105491401D01*
X151174035Y-105297830D01*
X151273903Y-105083663D01*
X151335063Y-104855408D01*
X151355659Y-104620000D01*
X151335063Y-104384592D01*
X151273903Y-104156337D01*
X151174035Y-103942171D01*
X151171118Y-103938004D01*
X151038494Y-103748597D01*
X150871402Y-103581506D01*
X150871396Y-103581501D01*
X150685842Y-103451575D01*
X150642217Y-103396998D01*
X150635023Y-103327500D01*
X150666546Y-103265145D01*
X150685842Y-103248425D01*
X150724123Y-103221620D01*
X150871401Y-103118495D01*
X151038495Y-102951401D01*
X151174035Y-102757830D01*
X151273903Y-102543663D01*
X151335063Y-102315408D01*
X151355659Y-102080000D01*
X151335063Y-101844592D01*
X151273903Y-101616337D01*
X151174035Y-101402171D01*
X151156976Y-101377807D01*
X151038494Y-101208597D01*
X150871402Y-101041506D01*
X150871396Y-101041501D01*
X150685842Y-100911575D01*
X150642217Y-100856998D01*
X150635023Y-100787500D01*
X150666546Y-100725145D01*
X150685842Y-100708425D01*
X150789952Y-100635526D01*
X150871401Y-100578495D01*
X151038495Y-100411401D01*
X151174035Y-100217830D01*
X151273903Y-100003663D01*
X151335063Y-99775408D01*
X151355659Y-99540000D01*
X151335063Y-99304592D01*
X151273903Y-99076337D01*
X151174035Y-98862171D01*
X151173642Y-98861609D01*
X151038494Y-98668597D01*
X150871402Y-98501506D01*
X150871396Y-98501501D01*
X150685842Y-98371575D01*
X150642217Y-98316998D01*
X150635023Y-98247500D01*
X150666546Y-98185145D01*
X150685842Y-98168425D01*
X150711441Y-98150500D01*
X150871401Y-98038495D01*
X151038495Y-97871401D01*
X151174035Y-97677830D01*
X151273903Y-97463663D01*
X151335063Y-97235408D01*
X151355659Y-97000000D01*
X151335063Y-96764592D01*
X151276357Y-96545495D01*
X151273905Y-96536344D01*
X151273904Y-96536343D01*
X151273903Y-96536337D01*
X151174035Y-96322171D01*
X151104030Y-96222192D01*
X151038494Y-96128597D01*
X150871402Y-95961506D01*
X150871396Y-95961501D01*
X150685842Y-95831575D01*
X150642217Y-95776998D01*
X150635023Y-95707500D01*
X150666546Y-95645145D01*
X150685842Y-95628425D01*
X150729537Y-95597829D01*
X150871401Y-95498495D01*
X151038495Y-95331401D01*
X151174035Y-95137830D01*
X151273903Y-94923663D01*
X151335063Y-94695408D01*
X151355659Y-94460000D01*
X151335063Y-94224592D01*
X151273903Y-93996337D01*
X151174035Y-93782171D01*
X151173642Y-93781609D01*
X151038494Y-93588597D01*
X150871402Y-93421506D01*
X150871396Y-93421501D01*
X150685842Y-93291575D01*
X150642217Y-93236998D01*
X150635023Y-93167500D01*
X150666546Y-93105145D01*
X150685842Y-93088425D01*
X150708026Y-93072891D01*
X150871401Y-92958495D01*
X151038495Y-92791401D01*
X151174035Y-92597830D01*
X151273903Y-92383663D01*
X151335063Y-92155408D01*
X151355659Y-91920000D01*
X151335063Y-91684592D01*
X151273903Y-91456337D01*
X151174035Y-91242171D01*
X151146372Y-91202663D01*
X151038494Y-91048597D01*
X150871402Y-90881506D01*
X150871396Y-90881501D01*
X150685842Y-90751575D01*
X150642217Y-90696998D01*
X150635023Y-90627500D01*
X150666546Y-90565145D01*
X150685842Y-90548425D01*
X150723306Y-90522192D01*
X150871401Y-90418495D01*
X151038495Y-90251401D01*
X151174035Y-90057830D01*
X151273903Y-89843663D01*
X151335063Y-89615408D01*
X151355659Y-89380000D01*
X151335063Y-89144592D01*
X151273903Y-88916337D01*
X151174035Y-88702171D01*
X151156976Y-88677807D01*
X151038494Y-88508597D01*
X150871402Y-88341506D01*
X150871396Y-88341501D01*
X150685842Y-88211575D01*
X150642217Y-88156998D01*
X150635023Y-88087500D01*
X150666546Y-88025145D01*
X150685842Y-88008425D01*
X150731130Y-87976714D01*
X150871401Y-87878495D01*
X151038495Y-87711401D01*
X151174035Y-87517830D01*
X151273903Y-87303663D01*
X151335063Y-87075408D01*
X151355659Y-86840000D01*
X151335063Y-86604592D01*
X151273903Y-86376337D01*
X151174035Y-86162171D01*
X151140641Y-86114478D01*
X151038494Y-85968597D01*
X150871402Y-85801506D01*
X150871396Y-85801501D01*
X150685842Y-85671575D01*
X150642217Y-85616998D01*
X150635023Y-85547500D01*
X150666546Y-85485145D01*
X150685842Y-85468425D01*
X150751862Y-85422197D01*
X150871401Y-85338495D01*
X151038495Y-85171401D01*
X151174035Y-84977830D01*
X151273903Y-84763663D01*
X151335063Y-84535408D01*
X151355659Y-84300000D01*
X151341206Y-84134807D01*
X151354972Y-84066308D01*
X151403587Y-84016125D01*
X151464734Y-84000000D01*
X151775500Y-84000000D01*
X151842539Y-84019685D01*
X151888294Y-84072489D01*
X151899500Y-84124000D01*
X151899500Y-109775500D01*
X151879815Y-109842539D01*
X151827011Y-109888294D01*
X151775500Y-109899500D01*
X135256477Y-109899500D01*
X135189438Y-109879815D01*
X135143683Y-109827011D01*
X135133739Y-109757853D01*
X135162764Y-109694297D01*
X135202676Y-109663780D01*
X135417696Y-109560232D01*
X135417696Y-109560231D01*
X135417704Y-109560228D01*
X135634479Y-109412433D01*
X135783733Y-109273945D01*
X135826801Y-109233985D01*
X135826801Y-109233983D01*
X135826805Y-109233981D01*
X135990386Y-109028857D01*
X135990389Y-109028850D01*
X135993045Y-109025521D01*
X136050233Y-108985381D01*
X136120045Y-108982531D01*
X136180315Y-109017876D01*
X136207922Y-109064514D01*
X136218746Y-109097825D01*
X136218748Y-109097829D01*
X136218750Y-109097835D01*
X136308141Y-109252665D01*
X136349812Y-109298946D01*
X136427764Y-109385521D01*
X136427767Y-109385523D01*
X136427770Y-109385526D01*
X136572407Y-109490612D01*
X136735733Y-109563329D01*
X136910609Y-109600500D01*
X136910610Y-109600500D01*
X137089389Y-109600500D01*
X137089391Y-109600500D01*
X137264267Y-109563329D01*
X137427593Y-109490612D01*
X137572230Y-109385526D01*
X137691859Y-109252665D01*
X137781250Y-109097835D01*
X137833774Y-108936180D01*
X137873211Y-108878507D01*
X137937570Y-108851308D01*
X137951705Y-108850500D01*
X138089389Y-108850500D01*
X138089391Y-108850500D01*
X138264267Y-108813329D01*
X138427593Y-108740612D01*
X138572230Y-108635526D01*
X138583204Y-108623339D01*
X138627747Y-108573868D01*
X138691859Y-108502665D01*
X138781250Y-108347835D01*
X138836497Y-108177803D01*
X138855185Y-108000000D01*
X138836497Y-107822197D01*
X138799383Y-107707971D01*
X138781252Y-107652170D01*
X138781249Y-107652164D01*
X138691859Y-107497335D01*
X138645003Y-107445296D01*
X138572235Y-107364478D01*
X138572232Y-107364476D01*
X138572231Y-107364475D01*
X138572230Y-107364474D01*
X138427593Y-107259388D01*
X138264267Y-107186671D01*
X138264265Y-107186670D01*
X138109616Y-107153799D01*
X138089391Y-107149500D01*
X137951705Y-107149500D01*
X137884666Y-107129815D01*
X137838911Y-107077011D01*
X137833774Y-107063818D01*
X137829656Y-107051143D01*
X137817202Y-107012816D01*
X137815208Y-106942977D01*
X137851288Y-106883144D01*
X137913989Y-106852316D01*
X137935134Y-106850500D01*
X138089389Y-106850500D01*
X138089391Y-106850500D01*
X138264267Y-106813329D01*
X138427593Y-106740612D01*
X138572230Y-106635526D01*
X138691859Y-106502665D01*
X138781250Y-106347835D01*
X138836497Y-106177803D01*
X138855185Y-106000000D01*
X138836497Y-105822197D01*
X138781250Y-105652165D01*
X138691859Y-105497335D01*
X138606172Y-105402170D01*
X138572235Y-105364478D01*
X138572232Y-105364476D01*
X138572231Y-105364475D01*
X138572230Y-105364474D01*
X138427593Y-105259388D01*
X138264267Y-105186671D01*
X138264265Y-105186670D01*
X138136594Y-105159533D01*
X138089391Y-105149500D01*
X137910609Y-105149500D01*
X137910607Y-105149500D01*
X137837045Y-105165136D01*
X137767378Y-105159820D01*
X137711645Y-105117682D01*
X137687540Y-105052102D01*
X137702717Y-104983901D01*
X137703839Y-104981913D01*
X137781250Y-104847835D01*
X137836497Y-104677803D01*
X137855185Y-104500000D01*
X137836497Y-104322197D01*
X137782605Y-104156335D01*
X137781252Y-104152170D01*
X137781249Y-104152164D01*
X137752365Y-104102135D01*
X137691859Y-103997335D01*
X137626204Y-103924418D01*
X137572235Y-103864478D01*
X137572231Y-103864475D01*
X137572230Y-103864474D01*
X137552745Y-103850317D01*
X137510080Y-103794989D01*
X137504101Y-103725375D01*
X137536706Y-103663580D01*
X137552746Y-103649682D01*
X137552995Y-103649501D01*
X137572230Y-103635526D01*
X137590426Y-103615318D01*
X137606167Y-103597835D01*
X137691859Y-103502665D01*
X137781250Y-103347835D01*
X137813039Y-103250000D01*
X142394815Y-103250000D01*
X142413503Y-103427805D01*
X142413504Y-103427807D01*
X142468747Y-103597829D01*
X142468750Y-103597835D01*
X142558141Y-103752665D01*
X142593583Y-103792027D01*
X142677764Y-103885521D01*
X142677767Y-103885523D01*
X142677770Y-103885526D01*
X142822407Y-103990612D01*
X142985733Y-104063329D01*
X143160609Y-104100500D01*
X143160610Y-104100500D01*
X143339389Y-104100500D01*
X143339391Y-104100500D01*
X143514267Y-104063329D01*
X143677593Y-103990612D01*
X143677597Y-103990608D01*
X143683224Y-103987361D01*
X143683904Y-103988539D01*
X143742911Y-103967480D01*
X143810966Y-103983300D01*
X143821783Y-103990252D01*
X143822402Y-103990609D01*
X143822404Y-103990610D01*
X143822407Y-103990612D01*
X143985733Y-104063329D01*
X144160609Y-104100500D01*
X144160610Y-104100500D01*
X144339389Y-104100500D01*
X144339391Y-104100500D01*
X144514267Y-104063329D01*
X144677593Y-103990612D01*
X144822230Y-103885526D01*
X144841186Y-103864474D01*
X144852448Y-103851966D01*
X144941859Y-103752665D01*
X145031250Y-103597835D01*
X145086497Y-103427803D01*
X145105185Y-103250000D01*
X145086497Y-103072197D01*
X145047246Y-102951395D01*
X145031252Y-102902170D01*
X145031249Y-102902164D01*
X144941860Y-102747336D01*
X144941855Y-102747329D01*
X144882350Y-102681242D01*
X144852120Y-102618250D01*
X144850500Y-102598270D01*
X144850500Y-102300097D01*
X144870185Y-102233058D01*
X144886819Y-102212416D01*
X145962416Y-101136819D01*
X146023739Y-101103334D01*
X146050097Y-101100500D01*
X146089389Y-101100500D01*
X146089391Y-101100500D01*
X146264267Y-101063329D01*
X146427593Y-100990612D01*
X146572230Y-100885526D01*
X146657852Y-100790432D01*
X146717336Y-100753787D01*
X146787193Y-100755116D01*
X146842147Y-100790432D01*
X146927770Y-100885526D01*
X147072407Y-100990612D01*
X147235733Y-101063329D01*
X147410609Y-101100500D01*
X147410610Y-101100500D01*
X147589389Y-101100500D01*
X147589391Y-101100500D01*
X147764267Y-101063329D01*
X147927593Y-100990612D01*
X148072230Y-100885526D01*
X148191859Y-100752665D01*
X148281250Y-100597835D01*
X148336497Y-100427803D01*
X148355185Y-100250000D01*
X148336497Y-100072197D01*
X148292462Y-99936671D01*
X148281252Y-99902170D01*
X148281249Y-99902164D01*
X148279696Y-99899474D01*
X148191859Y-99747335D01*
X148136131Y-99685443D01*
X148072235Y-99614478D01*
X148072232Y-99614476D01*
X148072231Y-99614475D01*
X148072230Y-99614474D01*
X147927593Y-99509388D01*
X147764267Y-99436671D01*
X147764265Y-99436670D01*
X147636594Y-99409533D01*
X147589391Y-99399500D01*
X147410609Y-99399500D01*
X147379954Y-99406015D01*
X147235733Y-99436670D01*
X147235728Y-99436672D01*
X147072408Y-99509387D01*
X146937495Y-99607408D01*
X146927770Y-99614474D01*
X146842148Y-99709565D01*
X146782663Y-99746213D01*
X146712806Y-99744882D01*
X146657850Y-99709564D01*
X146572235Y-99614478D01*
X146572232Y-99614476D01*
X146572231Y-99614475D01*
X146572230Y-99614474D01*
X146427593Y-99509388D01*
X146264267Y-99436671D01*
X146264265Y-99436670D01*
X146136594Y-99409533D01*
X146089391Y-99399500D01*
X145910609Y-99399500D01*
X145879954Y-99406015D01*
X145735733Y-99436670D01*
X145735728Y-99436672D01*
X145572408Y-99509387D01*
X145427768Y-99614475D01*
X145308140Y-99747336D01*
X145218750Y-99902164D01*
X145218747Y-99902170D01*
X145163504Y-100072192D01*
X145163503Y-100072195D01*
X145148706Y-100212978D01*
X145122121Y-100277593D01*
X145113066Y-100287697D01*
X143856096Y-101544668D01*
X143849994Y-101550019D01*
X143821720Y-101571715D01*
X143740316Y-101677803D01*
X143725464Y-101697157D01*
X143664956Y-101843237D01*
X143664955Y-101843239D01*
X143644318Y-101999998D01*
X143644318Y-101999999D01*
X143648969Y-102035326D01*
X143649500Y-102043428D01*
X143649500Y-102312288D01*
X143629815Y-102379327D01*
X143577011Y-102425082D01*
X143507853Y-102435026D01*
X143499720Y-102433578D01*
X143339391Y-102399500D01*
X143160609Y-102399500D01*
X143129954Y-102406015D01*
X142985733Y-102436670D01*
X142985728Y-102436672D01*
X142822408Y-102509387D01*
X142677768Y-102614475D01*
X142558140Y-102747336D01*
X142468750Y-102902164D01*
X142468747Y-102902170D01*
X142413504Y-103072192D01*
X142413503Y-103072194D01*
X142394815Y-103250000D01*
X137813039Y-103250000D01*
X137836497Y-103177803D01*
X137855185Y-103000000D01*
X137836497Y-102822197D01*
X137790698Y-102681242D01*
X137781252Y-102652170D01*
X137781249Y-102652164D01*
X137691859Y-102497335D01*
X137626802Y-102425082D01*
X137572235Y-102364478D01*
X137572231Y-102364475D01*
X137572230Y-102364474D01*
X137552745Y-102350317D01*
X137510080Y-102294989D01*
X137504101Y-102225375D01*
X137536706Y-102163580D01*
X137552746Y-102149682D01*
X137572230Y-102135526D01*
X137691859Y-102002665D01*
X137781250Y-101847835D01*
X137836497Y-101677803D01*
X137855185Y-101500000D01*
X137836497Y-101322197D01*
X137796793Y-101200000D01*
X137781252Y-101152170D01*
X137781249Y-101152164D01*
X137775959Y-101143002D01*
X137691859Y-100997335D01*
X137656414Y-100957970D01*
X137626186Y-100894981D01*
X137634811Y-100825646D01*
X137656415Y-100792029D01*
X137691859Y-100752665D01*
X137781250Y-100597835D01*
X137836497Y-100427803D01*
X137855185Y-100250000D01*
X137836497Y-100072197D01*
X137792462Y-99936671D01*
X137781252Y-99902170D01*
X137781249Y-99902164D01*
X137779244Y-99898692D01*
X137698245Y-99758396D01*
X137691861Y-99747338D01*
X137691860Y-99747337D01*
X137691859Y-99747335D01*
X137656414Y-99707970D01*
X137626186Y-99644981D01*
X137631781Y-99600000D01*
X138044815Y-99600000D01*
X138063503Y-99777805D01*
X138063504Y-99777807D01*
X138118747Y-99947829D01*
X138118750Y-99947835D01*
X138208141Y-100102665D01*
X138218775Y-100114475D01*
X138327764Y-100235521D01*
X138327767Y-100235523D01*
X138327770Y-100235526D01*
X138472407Y-100340612D01*
X138635733Y-100413329D01*
X138810609Y-100450500D01*
X138810610Y-100450500D01*
X138989389Y-100450500D01*
X138989391Y-100450500D01*
X139164267Y-100413329D01*
X139327593Y-100340612D01*
X139347907Y-100325852D01*
X139413711Y-100302371D01*
X139481766Y-100318195D01*
X139528181Y-100364170D01*
X139608137Y-100502660D01*
X139608139Y-100502662D01*
X139608141Y-100502665D01*
X139616561Y-100512016D01*
X139621074Y-100517029D01*
X139651303Y-100580021D01*
X139642677Y-100649356D01*
X139621074Y-100682971D01*
X139608140Y-100697335D01*
X139518750Y-100852164D01*
X139518747Y-100852170D01*
X139463504Y-101022192D01*
X139463503Y-101022194D01*
X139444815Y-101200000D01*
X139463503Y-101377805D01*
X139463504Y-101377807D01*
X139518747Y-101547829D01*
X139518750Y-101547835D01*
X139608141Y-101702665D01*
X139635917Y-101733513D01*
X139727764Y-101835521D01*
X139727767Y-101835523D01*
X139727770Y-101835526D01*
X139872407Y-101940612D01*
X140035733Y-102013329D01*
X140210609Y-102050500D01*
X140210610Y-102050500D01*
X140389389Y-102050500D01*
X140389391Y-102050500D01*
X140564267Y-102013329D01*
X140727593Y-101940612D01*
X140872230Y-101835526D01*
X140884233Y-101822196D01*
X140898148Y-101806741D01*
X140991859Y-101702665D01*
X141081250Y-101547835D01*
X141136497Y-101377803D01*
X141155185Y-101200000D01*
X141136497Y-101022197D01*
X141088670Y-100875000D01*
X141081252Y-100852170D01*
X141081249Y-100852164D01*
X141080755Y-100851308D01*
X140991859Y-100697335D01*
X140978926Y-100682972D01*
X140948697Y-100619982D01*
X140957321Y-100550647D01*
X140978927Y-100517027D01*
X140991859Y-100502665D01*
X141081250Y-100347835D01*
X141136497Y-100177803D01*
X141155185Y-100000000D01*
X141136497Y-99822197D01*
X141102051Y-99716184D01*
X141081252Y-99652170D01*
X141081249Y-99652164D01*
X141059490Y-99614476D01*
X140991859Y-99497335D01*
X140937236Y-99436670D01*
X140872235Y-99364478D01*
X140872232Y-99364476D01*
X140872231Y-99364475D01*
X140872230Y-99364474D01*
X140727593Y-99259388D01*
X140564267Y-99186671D01*
X140564265Y-99186670D01*
X140436594Y-99159533D01*
X140389391Y-99149500D01*
X140210609Y-99149500D01*
X140179954Y-99156015D01*
X140035733Y-99186670D01*
X140035728Y-99186672D01*
X139872408Y-99259388D01*
X139872404Y-99259390D01*
X139852090Y-99274149D01*
X139786283Y-99297628D01*
X139718229Y-99281802D01*
X139671819Y-99235830D01*
X139671591Y-99235436D01*
X139591859Y-99097335D01*
X139515557Y-99012593D01*
X139472235Y-98964478D01*
X139472232Y-98964476D01*
X139472231Y-98964475D01*
X139472230Y-98964474D01*
X139327593Y-98859388D01*
X139164267Y-98786671D01*
X139164265Y-98786670D01*
X139036594Y-98759533D01*
X138989391Y-98749500D01*
X138810609Y-98749500D01*
X138779954Y-98756015D01*
X138635733Y-98786670D01*
X138635728Y-98786672D01*
X138472408Y-98859387D01*
X138327768Y-98964475D01*
X138208140Y-99097336D01*
X138118750Y-99252164D01*
X138118747Y-99252170D01*
X138063504Y-99422192D01*
X138063503Y-99422194D01*
X138044815Y-99600000D01*
X137631781Y-99600000D01*
X137634811Y-99575646D01*
X137656415Y-99542029D01*
X137691859Y-99502665D01*
X137781250Y-99347835D01*
X137836497Y-99177803D01*
X137855185Y-99000000D01*
X137836497Y-98822197D01*
X137789581Y-98677805D01*
X137781252Y-98652170D01*
X137781249Y-98652164D01*
X137773645Y-98638993D01*
X137691859Y-98497335D01*
X137620871Y-98418495D01*
X137572235Y-98364478D01*
X137572230Y-98364474D01*
X137505345Y-98315878D01*
X137462680Y-98260548D01*
X137455436Y-98206499D01*
X137455185Y-98206499D01*
X137455185Y-98204628D01*
X137454912Y-98202594D01*
X137455185Y-98200000D01*
X137436497Y-98022197D01*
X137387500Y-97871401D01*
X137381252Y-97852170D01*
X137381249Y-97852164D01*
X137380595Y-97851031D01*
X137291859Y-97697335D01*
X137218096Y-97615413D01*
X137172235Y-97564478D01*
X137172232Y-97564476D01*
X137172231Y-97564475D01*
X137172230Y-97564474D01*
X137027593Y-97459388D01*
X136864267Y-97386671D01*
X136864265Y-97386670D01*
X136736594Y-97359533D01*
X136689391Y-97349500D01*
X136510609Y-97349500D01*
X136479954Y-97356015D01*
X136335733Y-97386670D01*
X136335728Y-97386672D01*
X136172408Y-97459387D01*
X136027768Y-97564475D01*
X135908140Y-97697336D01*
X135818750Y-97852164D01*
X135818747Y-97852170D01*
X135763504Y-98022192D01*
X135763503Y-98022194D01*
X135744815Y-98200000D01*
X135763503Y-98377805D01*
X135763504Y-98377807D01*
X135818747Y-98547829D01*
X135818750Y-98547835D01*
X135908141Y-98702665D01*
X135937071Y-98734795D01*
X136027764Y-98835521D01*
X136027767Y-98835523D01*
X136027770Y-98835526D01*
X136094654Y-98884120D01*
X136137318Y-98939449D01*
X136144568Y-98993502D01*
X136144815Y-98993502D01*
X136144815Y-98995345D01*
X136145089Y-98997388D01*
X136144814Y-98999997D01*
X136163503Y-99177805D01*
X136163504Y-99177807D01*
X136218747Y-99347829D01*
X136218750Y-99347835D01*
X136308141Y-99502665D01*
X136328570Y-99525354D01*
X136343584Y-99542029D01*
X136373813Y-99605020D01*
X136365187Y-99674356D01*
X136343584Y-99707971D01*
X136308140Y-99747336D01*
X136218750Y-99902164D01*
X136218747Y-99902170D01*
X136163504Y-100072192D01*
X136163503Y-100072194D01*
X136144815Y-100250000D01*
X136163503Y-100427805D01*
X136163504Y-100427807D01*
X136218747Y-100597829D01*
X136218748Y-100597830D01*
X136218750Y-100597835D01*
X136308141Y-100752665D01*
X136329504Y-100776391D01*
X136343584Y-100792029D01*
X136373813Y-100855020D01*
X136365187Y-100924356D01*
X136343584Y-100957971D01*
X136308140Y-100997336D01*
X136218750Y-101152164D01*
X136218747Y-101152170D01*
X136163504Y-101322192D01*
X136163503Y-101322194D01*
X136151146Y-101439767D01*
X136144815Y-101500000D01*
X136163503Y-101677803D01*
X136163504Y-101677806D01*
X136218747Y-101847829D01*
X136218750Y-101847835D01*
X136308141Y-102002665D01*
X136344844Y-102043428D01*
X136427764Y-102135521D01*
X136427769Y-102135525D01*
X136447255Y-102149683D01*
X136489920Y-102205014D01*
X136495898Y-102274627D01*
X136463291Y-102336422D01*
X136447255Y-102350317D01*
X136427769Y-102364474D01*
X136394192Y-102401765D01*
X136334705Y-102438413D01*
X136264848Y-102437082D01*
X136206800Y-102398195D01*
X136186615Y-102364094D01*
X136180231Y-102347829D01*
X136121568Y-102198357D01*
X135990386Y-101971143D01*
X135826805Y-101766019D01*
X135826804Y-101766018D01*
X135826801Y-101766014D01*
X135634479Y-101587567D01*
X135586923Y-101555144D01*
X135417704Y-101439772D01*
X135417700Y-101439770D01*
X135417697Y-101439768D01*
X135417696Y-101439767D01*
X135181325Y-101325938D01*
X135181327Y-101325938D01*
X134930623Y-101248606D01*
X134930619Y-101248605D01*
X134930615Y-101248604D01*
X134805823Y-101229794D01*
X134671187Y-101209500D01*
X134671182Y-101209500D01*
X134408818Y-101209500D01*
X134408812Y-101209500D01*
X134247247Y-101233853D01*
X134149385Y-101248604D01*
X134149382Y-101248605D01*
X134149376Y-101248606D01*
X133898673Y-101325938D01*
X133662303Y-101439767D01*
X133662302Y-101439768D01*
X133445520Y-101587567D01*
X133253198Y-101766014D01*
X133089614Y-101971143D01*
X132958432Y-102198356D01*
X132862582Y-102442578D01*
X132862576Y-102442597D01*
X132804197Y-102698374D01*
X132804196Y-102698379D01*
X132784592Y-102959995D01*
X132784592Y-102960004D01*
X132804196Y-103221620D01*
X132804197Y-103221625D01*
X132862576Y-103477402D01*
X132862578Y-103477411D01*
X132862580Y-103477416D01*
X132877193Y-103514649D01*
X132942166Y-103680198D01*
X132948335Y-103749795D01*
X132915897Y-103811678D01*
X132855152Y-103846201D01*
X132826738Y-103849500D01*
X131173262Y-103849500D01*
X131106223Y-103829815D01*
X131060468Y-103777011D01*
X131050524Y-103707853D01*
X131057834Y-103680198D01*
X131069810Y-103649683D01*
X131137420Y-103477416D01*
X131195802Y-103221630D01*
X131199086Y-103177805D01*
X131215408Y-102960004D01*
X131215408Y-102959995D01*
X131195803Y-102698379D01*
X131195802Y-102698374D01*
X131195802Y-102698370D01*
X131137420Y-102442584D01*
X131041568Y-102198357D01*
X130910386Y-101971143D01*
X130772467Y-101798198D01*
X130746060Y-101733513D01*
X130758816Y-101664818D01*
X130806686Y-101613924D01*
X130843629Y-101599599D01*
X130990170Y-101568450D01*
X131014263Y-101563330D01*
X131014263Y-101563329D01*
X131014267Y-101563329D01*
X131177593Y-101490612D01*
X131322230Y-101385526D01*
X131329181Y-101377807D01*
X131375884Y-101325937D01*
X131441859Y-101252665D01*
X131531250Y-101097835D01*
X131583774Y-100936180D01*
X131623211Y-100878507D01*
X131687570Y-100851308D01*
X131701705Y-100850500D01*
X131839389Y-100850500D01*
X131839391Y-100850500D01*
X132014267Y-100813329D01*
X132177593Y-100740612D01*
X132322230Y-100635526D01*
X132441859Y-100502665D01*
X132531250Y-100347835D01*
X132586497Y-100177803D01*
X132586497Y-100177795D01*
X132586827Y-100176250D01*
X132587265Y-100175437D01*
X132588505Y-100171623D01*
X132589202Y-100171849D01*
X132620020Y-100114769D01*
X132681184Y-100080993D01*
X132682076Y-100080798D01*
X132764267Y-100063329D01*
X132927593Y-99990612D01*
X133072230Y-99885526D01*
X133072518Y-99885207D01*
X133126473Y-99825283D01*
X133191859Y-99752665D01*
X133281250Y-99597835D01*
X133333774Y-99436180D01*
X133373211Y-99378507D01*
X133437570Y-99351308D01*
X133451705Y-99350500D01*
X133589389Y-99350500D01*
X133589391Y-99350500D01*
X133764267Y-99313329D01*
X133927593Y-99240612D01*
X134072230Y-99135526D01*
X134191859Y-99002665D01*
X134281250Y-98847835D01*
X134336497Y-98677803D01*
X134355185Y-98500000D01*
X134351140Y-98461518D01*
X134363709Y-98392791D01*
X134411441Y-98341767D01*
X134448671Y-98327271D01*
X134514267Y-98313329D01*
X134677593Y-98240612D01*
X134822230Y-98135526D01*
X134941859Y-98002665D01*
X135031250Y-97847835D01*
X135086497Y-97677803D01*
X135105185Y-97500000D01*
X135086497Y-97322197D01*
X135031250Y-97152165D01*
X134964471Y-97036500D01*
X134947998Y-96968599D01*
X134970851Y-96902573D01*
X135025772Y-96859382D01*
X135071858Y-96850500D01*
X135089389Y-96850500D01*
X135089391Y-96850500D01*
X135264267Y-96813329D01*
X135427593Y-96740612D01*
X135572230Y-96635526D01*
X135572235Y-96635521D01*
X135611847Y-96591528D01*
X135671334Y-96554879D01*
X135703997Y-96550500D01*
X139149903Y-96550500D01*
X139216942Y-96570185D01*
X139237584Y-96586819D01*
X140294669Y-97643904D01*
X140300022Y-97650007D01*
X140321353Y-97677807D01*
X140321718Y-97678282D01*
X140418656Y-97752665D01*
X140447159Y-97774536D01*
X140593238Y-97835044D01*
X140658706Y-97843663D01*
X140749999Y-97855682D01*
X140750000Y-97855682D01*
X140785329Y-97851030D01*
X140793428Y-97850500D01*
X142428142Y-97850500D01*
X142495181Y-97870185D01*
X142540936Y-97922989D01*
X142550880Y-97992147D01*
X142535529Y-98036500D01*
X142468750Y-98152164D01*
X142468747Y-98152170D01*
X142413504Y-98322192D01*
X142413503Y-98322194D01*
X142394815Y-98500000D01*
X142413503Y-98677805D01*
X142413504Y-98677807D01*
X142468747Y-98847829D01*
X142468750Y-98847835D01*
X142558141Y-99002665D01*
X142599499Y-99048597D01*
X142677764Y-99135521D01*
X142677767Y-99135523D01*
X142677770Y-99135526D01*
X142822407Y-99240612D01*
X142985733Y-99313329D01*
X143160609Y-99350500D01*
X143160610Y-99350500D01*
X143339389Y-99350500D01*
X143339391Y-99350500D01*
X143514267Y-99313329D01*
X143677593Y-99240612D01*
X143822230Y-99135526D01*
X143941859Y-99002665D01*
X144031250Y-98847835D01*
X144086497Y-98677803D01*
X144105185Y-98500000D01*
X144086497Y-98322197D01*
X144058873Y-98237181D01*
X144031252Y-98152170D01*
X144031249Y-98152164D01*
X144030288Y-98150500D01*
X143966843Y-98040609D01*
X143964471Y-98036500D01*
X143947998Y-97968599D01*
X143970851Y-97902573D01*
X144025772Y-97859382D01*
X144071858Y-97850500D01*
X144091271Y-97850500D01*
X144158310Y-97870185D01*
X144174245Y-97882351D01*
X144177766Y-97885521D01*
X144177770Y-97885526D01*
X144322407Y-97990612D01*
X144485733Y-98063329D01*
X144660609Y-98100500D01*
X144660610Y-98100500D01*
X144839389Y-98100500D01*
X144839391Y-98100500D01*
X145014267Y-98063329D01*
X145177593Y-97990612D01*
X145322230Y-97885526D01*
X145334948Y-97871402D01*
X145352269Y-97852164D01*
X145441859Y-97752665D01*
X145531250Y-97597835D01*
X145586497Y-97427803D01*
X145605185Y-97250000D01*
X145586497Y-97072197D01*
X145531250Y-96902165D01*
X145441859Y-96747335D01*
X145382880Y-96681832D01*
X145322235Y-96614478D01*
X145322232Y-96614476D01*
X145322231Y-96614475D01*
X145322230Y-96614474D01*
X145177593Y-96509388D01*
X145014267Y-96436671D01*
X145014265Y-96436670D01*
X144886594Y-96409533D01*
X144839391Y-96399500D01*
X144660609Y-96399500D01*
X144629954Y-96406015D01*
X144485733Y-96436670D01*
X144485728Y-96436672D01*
X144322408Y-96509387D01*
X144177772Y-96614472D01*
X144174245Y-96617649D01*
X144111253Y-96647879D01*
X144091271Y-96649500D01*
X144066677Y-96649500D01*
X143999638Y-96629815D01*
X143953883Y-96577011D01*
X143943356Y-96512540D01*
X143955185Y-96400000D01*
X143936497Y-96222197D01*
X143892731Y-96087500D01*
X143881252Y-96052170D01*
X143881249Y-96052164D01*
X143791859Y-95897335D01*
X143727597Y-95825965D01*
X143672235Y-95764478D01*
X143672232Y-95764476D01*
X143672231Y-95764475D01*
X143672230Y-95764474D01*
X143527593Y-95659388D01*
X143364267Y-95586671D01*
X143364265Y-95586670D01*
X143206873Y-95553216D01*
X143189391Y-95549500D01*
X143010609Y-95549500D01*
X142993127Y-95553216D01*
X142835733Y-95586670D01*
X142672821Y-95659204D01*
X142603571Y-95668488D01*
X142540295Y-95638860D01*
X142530236Y-95628896D01*
X142472234Y-95564478D01*
X142472232Y-95564476D01*
X142472231Y-95564475D01*
X142472230Y-95564474D01*
X142327593Y-95459388D01*
X142164267Y-95386671D01*
X142164265Y-95386670D01*
X142036594Y-95359533D01*
X141989391Y-95349500D01*
X141810609Y-95349500D01*
X141779954Y-95356015D01*
X141635733Y-95386670D01*
X141635728Y-95386672D01*
X141472408Y-95459387D01*
X141327768Y-95564475D01*
X141208140Y-95697336D01*
X141118750Y-95852164D01*
X141118747Y-95852170D01*
X141063504Y-96022192D01*
X141063503Y-96022194D01*
X141044815Y-96200000D01*
X141063503Y-96377805D01*
X141063505Y-96377810D01*
X141065839Y-96384994D01*
X141067834Y-96454836D01*
X141031753Y-96514668D01*
X140969051Y-96545495D01*
X140899637Y-96537530D01*
X140860227Y-96510992D01*
X140389536Y-96040301D01*
X139905320Y-95556085D01*
X139899980Y-95549995D01*
X139878282Y-95521718D01*
X139752841Y-95425464D01*
X139606762Y-95364956D01*
X139606760Y-95364955D01*
X139489361Y-95349500D01*
X139450000Y-95344318D01*
X139414670Y-95348969D01*
X139406572Y-95349500D01*
X135591911Y-95349500D01*
X135524872Y-95329815D01*
X135519025Y-95325818D01*
X135488533Y-95303664D01*
X135427593Y-95259388D01*
X135264267Y-95186671D01*
X135264265Y-95186670D01*
X135136594Y-95159533D01*
X135089391Y-95149500D01*
X134910609Y-95149500D01*
X134879954Y-95156015D01*
X134735733Y-95186670D01*
X134735728Y-95186672D01*
X134572408Y-95259387D01*
X134427768Y-95364475D01*
X134308140Y-95497336D01*
X134218750Y-95652164D01*
X134218747Y-95652170D01*
X134163504Y-95822192D01*
X134163503Y-95822194D01*
X134144815Y-96000000D01*
X134163503Y-96177805D01*
X134163504Y-96177807D01*
X134218747Y-96347829D01*
X134218750Y-96347835D01*
X134285529Y-96463500D01*
X134302002Y-96531401D01*
X134279149Y-96597427D01*
X134224228Y-96640618D01*
X134178142Y-96649500D01*
X134160609Y-96649500D01*
X134129954Y-96656015D01*
X133985733Y-96686670D01*
X133985728Y-96686672D01*
X133822408Y-96759387D01*
X133677768Y-96864475D01*
X133558140Y-96997336D01*
X133468750Y-97152164D01*
X133468747Y-97152170D01*
X133413504Y-97322192D01*
X133413503Y-97322194D01*
X133394815Y-97500000D01*
X133398859Y-97538479D01*
X133386289Y-97607208D01*
X133338556Y-97658232D01*
X133301321Y-97672729D01*
X133235730Y-97686671D01*
X133235728Y-97686672D01*
X133072408Y-97759387D01*
X132927768Y-97864475D01*
X132808140Y-97997336D01*
X132718750Y-98152164D01*
X132718747Y-98152171D01*
X132666225Y-98313818D01*
X132626787Y-98371494D01*
X132562429Y-98398692D01*
X132548294Y-98399500D01*
X132410609Y-98399500D01*
X132379954Y-98406015D01*
X132235733Y-98436670D01*
X132235728Y-98436672D01*
X132072408Y-98509387D01*
X131927768Y-98614475D01*
X131808140Y-98747336D01*
X131718750Y-98902164D01*
X131718747Y-98902170D01*
X131663503Y-99072196D01*
X131663172Y-99073754D01*
X131662732Y-99074567D01*
X131661495Y-99078377D01*
X131660798Y-99078150D01*
X131629975Y-99135234D01*
X131568810Y-99169006D01*
X131567665Y-99169255D01*
X131485732Y-99186671D01*
X131485728Y-99186672D01*
X131322408Y-99259387D01*
X131177768Y-99364475D01*
X131058140Y-99497336D01*
X130968750Y-99652164D01*
X130968747Y-99652171D01*
X130916225Y-99813818D01*
X130876787Y-99871494D01*
X130812429Y-99898692D01*
X130798294Y-99899500D01*
X130660609Y-99899500D01*
X130648048Y-99902170D01*
X130485733Y-99936670D01*
X130485728Y-99936672D01*
X130322408Y-100009387D01*
X130197886Y-100099859D01*
X130132079Y-100123339D01*
X130064025Y-100107514D01*
X130052114Y-100099859D01*
X130026147Y-100080993D01*
X129927593Y-100009388D01*
X129764267Y-99936671D01*
X129764265Y-99936670D01*
X129601952Y-99902170D01*
X129589391Y-99899500D01*
X129410609Y-99899500D01*
X129398048Y-99902170D01*
X129235733Y-99936670D01*
X129235728Y-99936672D01*
X129072408Y-100009387D01*
X128947886Y-100099859D01*
X128882079Y-100123339D01*
X128814025Y-100107514D01*
X128802114Y-100099859D01*
X128776147Y-100080993D01*
X128677593Y-100009388D01*
X128514267Y-99936671D01*
X128514265Y-99936670D01*
X128339270Y-99899474D01*
X128277788Y-99866282D01*
X128244012Y-99805119D01*
X128248664Y-99735404D01*
X128257659Y-99716194D01*
X128320467Y-99607407D01*
X128370469Y-99440388D01*
X128380607Y-99266340D01*
X128350332Y-99094646D01*
X128281279Y-98934562D01*
X128257160Y-98902165D01*
X128207547Y-98835523D01*
X128177168Y-98794717D01*
X128167580Y-98786672D01*
X128043614Y-98682651D01*
X128043612Y-98682650D01*
X127887818Y-98604407D01*
X127887816Y-98604406D01*
X127887815Y-98604406D01*
X127718171Y-98564200D01*
X127587564Y-98564200D01*
X127474052Y-98577467D01*
X127457835Y-98579363D01*
X127457832Y-98579364D01*
X127294008Y-98638991D01*
X127294004Y-98638993D01*
X127148348Y-98734792D01*
X127148347Y-98734793D01*
X127028706Y-98861603D01*
X127028704Y-98861607D01*
X127017218Y-98881501D01*
X126941534Y-99012590D01*
X126891531Y-99179610D01*
X126891530Y-99179616D01*
X126881393Y-99353659D01*
X126908852Y-99509387D01*
X126911668Y-99525354D01*
X126980721Y-99685438D01*
X126980723Y-99685441D01*
X126980725Y-99685444D01*
X126993435Y-99702516D01*
X127017680Y-99768045D01*
X127002648Y-99836278D01*
X126953113Y-99885553D01*
X126916692Y-99896863D01*
X126916966Y-99898149D01*
X126910610Y-99899500D01*
X126910609Y-99899500D01*
X126898048Y-99902170D01*
X126735733Y-99936670D01*
X126735728Y-99936672D01*
X126572408Y-100009387D01*
X126427768Y-100114475D01*
X126308140Y-100247336D01*
X126218750Y-100402164D01*
X126218747Y-100402170D01*
X126163504Y-100572192D01*
X126163503Y-100572194D01*
X126144815Y-100750000D01*
X126163503Y-100927805D01*
X126163504Y-100927807D01*
X126218747Y-101097829D01*
X126218750Y-101097835D01*
X126308141Y-101252665D01*
X126328121Y-101274855D01*
X126343584Y-101292029D01*
X126373813Y-101355020D01*
X126365187Y-101424356D01*
X126343584Y-101457971D01*
X126308140Y-101497336D01*
X126218750Y-101652164D01*
X126218747Y-101652170D01*
X126163504Y-101822192D01*
X126163503Y-101822194D01*
X126144815Y-102000000D01*
X126163503Y-102177805D01*
X126163504Y-102177807D01*
X126218747Y-102347829D01*
X126218750Y-102347835D01*
X126308141Y-102502665D01*
X126329504Y-102526391D01*
X126343584Y-102542029D01*
X126373813Y-102605020D01*
X126365187Y-102674356D01*
X126343584Y-102707971D01*
X126308140Y-102747336D01*
X126218750Y-102902164D01*
X126218747Y-102902170D01*
X126163504Y-103072192D01*
X126163503Y-103072194D01*
X126144815Y-103250000D01*
X126163503Y-103427805D01*
X126163504Y-103427807D01*
X126218747Y-103597829D01*
X126218750Y-103597835D01*
X126308141Y-103752665D01*
X126315827Y-103761201D01*
X126343584Y-103792029D01*
X126373813Y-103855020D01*
X126365187Y-103924356D01*
X126343584Y-103957971D01*
X126308140Y-103997336D01*
X126218750Y-104152164D01*
X126218747Y-104152170D01*
X126163504Y-104322192D01*
X126163503Y-104322194D01*
X126144815Y-104500000D01*
X126163503Y-104677805D01*
X126163504Y-104677807D01*
X126218747Y-104847829D01*
X126218750Y-104847835D01*
X126308141Y-105002665D01*
X126329504Y-105026391D01*
X126343584Y-105042029D01*
X126373813Y-105105020D01*
X126365187Y-105174356D01*
X126343584Y-105207971D01*
X126308140Y-105247336D01*
X126218750Y-105402164D01*
X126218747Y-105402170D01*
X126163504Y-105572192D01*
X126163503Y-105572194D01*
X126144815Y-105750000D01*
X126163503Y-105927805D01*
X126163504Y-105927807D01*
X126218747Y-106097829D01*
X126218750Y-106097835D01*
X126308141Y-106252665D01*
X126329504Y-106276391D01*
X126343584Y-106292029D01*
X126373813Y-106355020D01*
X126365187Y-106424356D01*
X126343584Y-106457971D01*
X126308140Y-106497336D01*
X126218750Y-106652164D01*
X126218747Y-106652170D01*
X126163504Y-106822192D01*
X126163503Y-106822194D01*
X126144815Y-107000000D01*
X126163503Y-107177805D01*
X126163504Y-107177807D01*
X126218747Y-107347829D01*
X126218750Y-107347835D01*
X126308141Y-107502665D01*
X126326071Y-107522578D01*
X126343584Y-107542029D01*
X126373813Y-107605020D01*
X126365187Y-107674356D01*
X126343584Y-107707971D01*
X126308140Y-107747336D01*
X126218750Y-107902164D01*
X126218747Y-107902170D01*
X126163504Y-108072192D01*
X126163503Y-108072194D01*
X126144815Y-108250000D01*
X126163179Y-108424719D01*
X126150610Y-108493449D01*
X126102878Y-108544473D01*
X126035137Y-108561591D01*
X125968896Y-108539369D01*
X125966972Y-108537999D01*
X125927594Y-108509389D01*
X125927593Y-108509388D01*
X125764267Y-108436671D01*
X125764265Y-108436670D01*
X125636594Y-108409533D01*
X125589391Y-108399500D01*
X125410609Y-108399500D01*
X125379954Y-108406015D01*
X125235733Y-108436670D01*
X125235728Y-108436672D01*
X125072408Y-108509387D01*
X124927771Y-108614473D01*
X124927770Y-108614474D01*
X124842148Y-108709565D01*
X124782663Y-108746213D01*
X124712806Y-108744882D01*
X124657850Y-108709564D01*
X124572235Y-108614478D01*
X124572232Y-108614476D01*
X124572231Y-108614475D01*
X124572230Y-108614474D01*
X124427593Y-108509388D01*
X124264267Y-108436671D01*
X124264265Y-108436670D01*
X124136594Y-108409533D01*
X124089391Y-108399500D01*
X123910609Y-108399500D01*
X123879954Y-108406015D01*
X123735733Y-108436670D01*
X123735728Y-108436672D01*
X123572408Y-108509387D01*
X123427771Y-108614473D01*
X123427770Y-108614474D01*
X123342148Y-108709565D01*
X123282663Y-108746213D01*
X123212806Y-108744882D01*
X123157850Y-108709564D01*
X123072235Y-108614478D01*
X123072232Y-108614476D01*
X123072231Y-108614475D01*
X123072230Y-108614474D01*
X122927593Y-108509388D01*
X122764267Y-108436671D01*
X122764265Y-108436670D01*
X122636594Y-108409533D01*
X122589391Y-108399500D01*
X122410609Y-108399500D01*
X122379954Y-108406015D01*
X122235733Y-108436670D01*
X122235728Y-108436672D01*
X122072408Y-108509387D01*
X121927771Y-108614473D01*
X121927770Y-108614474D01*
X121842148Y-108709565D01*
X121782663Y-108746213D01*
X121712806Y-108744882D01*
X121657850Y-108709564D01*
X121572235Y-108614478D01*
X121572232Y-108614476D01*
X121572231Y-108614475D01*
X121572230Y-108614474D01*
X121427593Y-108509388D01*
X121264267Y-108436671D01*
X121264265Y-108436670D01*
X121136594Y-108409533D01*
X121089391Y-108399500D01*
X120910609Y-108399500D01*
X120879954Y-108406015D01*
X120735733Y-108436670D01*
X120735728Y-108436672D01*
X120572408Y-108509387D01*
X120427768Y-108614475D01*
X120308140Y-108747336D01*
X120232387Y-108878545D01*
X120181820Y-108926760D01*
X120113213Y-108939984D01*
X120048349Y-108914016D01*
X120017613Y-108878545D01*
X119993500Y-108836780D01*
X119941859Y-108747335D01*
X119895003Y-108695296D01*
X119822235Y-108614478D01*
X119822232Y-108614476D01*
X119822231Y-108614475D01*
X119822230Y-108614474D01*
X119677593Y-108509388D01*
X119514267Y-108436671D01*
X119514265Y-108436670D01*
X119386594Y-108409533D01*
X119339391Y-108399500D01*
X119160609Y-108399500D01*
X119129954Y-108406015D01*
X118985733Y-108436670D01*
X118985728Y-108436672D01*
X118822408Y-108509387D01*
X118677771Y-108614473D01*
X118677770Y-108614474D01*
X118592148Y-108709565D01*
X118532663Y-108746213D01*
X118462806Y-108744882D01*
X118407850Y-108709564D01*
X118322235Y-108614478D01*
X118322232Y-108614476D01*
X118322231Y-108614475D01*
X118322230Y-108614474D01*
X118177593Y-108509388D01*
X118014267Y-108436671D01*
X118014265Y-108436670D01*
X117886594Y-108409533D01*
X117839391Y-108399500D01*
X117660609Y-108399500D01*
X117629954Y-108406015D01*
X117485733Y-108436670D01*
X117485728Y-108436672D01*
X117322408Y-108509387D01*
X117177771Y-108614473D01*
X117177770Y-108614474D01*
X117092148Y-108709565D01*
X117032663Y-108746213D01*
X116962806Y-108744882D01*
X116907850Y-108709564D01*
X116822235Y-108614478D01*
X116822232Y-108614476D01*
X116822231Y-108614475D01*
X116822230Y-108614474D01*
X116677593Y-108509388D01*
X116514267Y-108436671D01*
X116514265Y-108436670D01*
X116386594Y-108409533D01*
X116339391Y-108399500D01*
X116160609Y-108399500D01*
X116129954Y-108406015D01*
X115985733Y-108436670D01*
X115985728Y-108436672D01*
X115822408Y-108509387D01*
X115697886Y-108599859D01*
X115632079Y-108623339D01*
X115564025Y-108607514D01*
X115552114Y-108599859D01*
X115549328Y-108597835D01*
X115427593Y-108509388D01*
X115264267Y-108436671D01*
X115264265Y-108436670D01*
X115136594Y-108409533D01*
X115089391Y-108399500D01*
X114910609Y-108399500D01*
X114879954Y-108406015D01*
X114735733Y-108436670D01*
X114735728Y-108436672D01*
X114572408Y-108509387D01*
X114427771Y-108614473D01*
X114427770Y-108614474D01*
X114342148Y-108709565D01*
X114282663Y-108746213D01*
X114212806Y-108744882D01*
X114157850Y-108709564D01*
X114072235Y-108614478D01*
X114072232Y-108614476D01*
X114072231Y-108614475D01*
X114072230Y-108614474D01*
X113927593Y-108509388D01*
X113764267Y-108436671D01*
X113764265Y-108436670D01*
X113636594Y-108409533D01*
X113589391Y-108399500D01*
X113410609Y-108399500D01*
X113379954Y-108406015D01*
X113235733Y-108436670D01*
X113235728Y-108436672D01*
X113072408Y-108509387D01*
X112927768Y-108614475D01*
X112808140Y-108747336D01*
X112718750Y-108902164D01*
X112718747Y-108902170D01*
X112663504Y-109072192D01*
X112663503Y-109072194D01*
X112644815Y-109250000D01*
X112663503Y-109427805D01*
X112663504Y-109427807D01*
X112718747Y-109597829D01*
X112718750Y-109597835D01*
X112785529Y-109713500D01*
X112802002Y-109781401D01*
X112779149Y-109847427D01*
X112724228Y-109890618D01*
X112678142Y-109899500D01*
X112224500Y-109899500D01*
X112157461Y-109879815D01*
X112111706Y-109827011D01*
X112100500Y-109775500D01*
X112100500Y-102460000D01*
X114644341Y-102460000D01*
X114664936Y-102695403D01*
X114664938Y-102695413D01*
X114726094Y-102923655D01*
X114726096Y-102923659D01*
X114726097Y-102923663D01*
X114795360Y-103072197D01*
X114825965Y-103137830D01*
X114825967Y-103137834D01*
X114915112Y-103265145D01*
X114961501Y-103331396D01*
X114961506Y-103331402D01*
X115083430Y-103453326D01*
X115116915Y-103514649D01*
X115111931Y-103584341D01*
X115070059Y-103640274D01*
X115039083Y-103657189D01*
X114907669Y-103706203D01*
X114907664Y-103706206D01*
X114792455Y-103792452D01*
X114792452Y-103792455D01*
X114706206Y-103907664D01*
X114706202Y-103907671D01*
X114655908Y-104042517D01*
X114653671Y-104063329D01*
X114649501Y-104102123D01*
X114649500Y-104102135D01*
X114649500Y-105897870D01*
X114649501Y-105897876D01*
X114655908Y-105957483D01*
X114706202Y-106092328D01*
X114706206Y-106092335D01*
X114792452Y-106207544D01*
X114792455Y-106207547D01*
X114907664Y-106293793D01*
X114907671Y-106293797D01*
X115042517Y-106344091D01*
X115042516Y-106344091D01*
X115049444Y-106344835D01*
X115102127Y-106350500D01*
X116897872Y-106350499D01*
X116957483Y-106344091D01*
X117092331Y-106293796D01*
X117207546Y-106207546D01*
X117293796Y-106092331D01*
X117344091Y-105957483D01*
X117350500Y-105897873D01*
X117350499Y-104102128D01*
X117344091Y-104042517D01*
X117327240Y-103997338D01*
X117293797Y-103907671D01*
X117293793Y-103907664D01*
X117207547Y-103792455D01*
X117207544Y-103792452D01*
X117092335Y-103706206D01*
X117092328Y-103706202D01*
X116960917Y-103657189D01*
X116904983Y-103615318D01*
X116880566Y-103549853D01*
X116895418Y-103481580D01*
X116916563Y-103453332D01*
X117038495Y-103331401D01*
X117174035Y-103137830D01*
X117273903Y-102923663D01*
X117335063Y-102695408D01*
X117355659Y-102460000D01*
X117353224Y-102432174D01*
X117346063Y-102350317D01*
X117335063Y-102224592D01*
X117275598Y-102002663D01*
X117273905Y-101996344D01*
X117273904Y-101996343D01*
X117273903Y-101996337D01*
X117174035Y-101782171D01*
X117162726Y-101766019D01*
X117038494Y-101588597D01*
X116871402Y-101421506D01*
X116871396Y-101421501D01*
X116685842Y-101291575D01*
X116642217Y-101236998D01*
X116635023Y-101167500D01*
X116666546Y-101105145D01*
X116685842Y-101088425D01*
X116752849Y-101041506D01*
X116871401Y-100958495D01*
X117038495Y-100791401D01*
X117174035Y-100597830D01*
X117273903Y-100383663D01*
X117335063Y-100155408D01*
X117355659Y-99920000D01*
X117335063Y-99684592D01*
X117273903Y-99456337D01*
X117177686Y-99250000D01*
X118894815Y-99250000D01*
X118913503Y-99427805D01*
X118913504Y-99427807D01*
X118968747Y-99597829D01*
X118968750Y-99597835D01*
X119058141Y-99752665D01*
X119080779Y-99777807D01*
X119177764Y-99885521D01*
X119177767Y-99885523D01*
X119177770Y-99885526D01*
X119322407Y-99990612D01*
X119485733Y-100063329D01*
X119660609Y-100100500D01*
X119660610Y-100100500D01*
X119839389Y-100100500D01*
X119839391Y-100100500D01*
X120014267Y-100063329D01*
X120177593Y-99990612D01*
X120322230Y-99885526D01*
X120322518Y-99885207D01*
X120376473Y-99825283D01*
X120441859Y-99752665D01*
X120531250Y-99597835D01*
X120586497Y-99427803D01*
X120594290Y-99353659D01*
X124849393Y-99353659D01*
X124876852Y-99509387D01*
X124879668Y-99525354D01*
X124948721Y-99685438D01*
X124948722Y-99685440D01*
X124948724Y-99685443D01*
X125015701Y-99775408D01*
X125052832Y-99825283D01*
X125186386Y-99937349D01*
X125342185Y-100015594D01*
X125511829Y-100055800D01*
X125511831Y-100055800D01*
X125642429Y-100055800D01*
X125642436Y-100055800D01*
X125772164Y-100040637D01*
X125935993Y-99981008D01*
X126081654Y-99885205D01*
X126201296Y-99758393D01*
X126288467Y-99607407D01*
X126338469Y-99440388D01*
X126348607Y-99266340D01*
X126318332Y-99094646D01*
X126249279Y-98934562D01*
X126225160Y-98902165D01*
X126175547Y-98835523D01*
X126145168Y-98794717D01*
X126135580Y-98786672D01*
X126011614Y-98682651D01*
X126011612Y-98682650D01*
X125855818Y-98604407D01*
X125855816Y-98604406D01*
X125855815Y-98604406D01*
X125686171Y-98564200D01*
X125555564Y-98564200D01*
X125442052Y-98577467D01*
X125425835Y-98579363D01*
X125425832Y-98579364D01*
X125262009Y-98638990D01*
X125119827Y-98732505D01*
X125117922Y-98733086D01*
X125117236Y-98733851D01*
X124996707Y-98861603D01*
X124996705Y-98861605D01*
X124996704Y-98861607D01*
X124985218Y-98881501D01*
X124909534Y-99012590D01*
X124859531Y-99179610D01*
X124859530Y-99179616D01*
X124849393Y-99353659D01*
X120594290Y-99353659D01*
X120605185Y-99250000D01*
X120586497Y-99072197D01*
X120551496Y-98964474D01*
X120531252Y-98902170D01*
X120531249Y-98902164D01*
X120520831Y-98884119D01*
X120441859Y-98747335D01*
X120383616Y-98682650D01*
X120322235Y-98614478D01*
X120322232Y-98614476D01*
X120322231Y-98614475D01*
X120322230Y-98614474D01*
X120177593Y-98509388D01*
X120014267Y-98436671D01*
X120014265Y-98436670D01*
X119886594Y-98409533D01*
X119839391Y-98399500D01*
X119660609Y-98399500D01*
X119629954Y-98406015D01*
X119485733Y-98436670D01*
X119485728Y-98436672D01*
X119322408Y-98509387D01*
X119177768Y-98614475D01*
X119058140Y-98747336D01*
X118968750Y-98902164D01*
X118968747Y-98902170D01*
X118913504Y-99072192D01*
X118913503Y-99072194D01*
X118894815Y-99250000D01*
X117177686Y-99250000D01*
X117174035Y-99242171D01*
X117172944Y-99240612D01*
X117038494Y-99048597D01*
X116871402Y-98881506D01*
X116871396Y-98881501D01*
X116685842Y-98751575D01*
X116642217Y-98696998D01*
X116635023Y-98627500D01*
X116666546Y-98565145D01*
X116685842Y-98548425D01*
X116752849Y-98501506D01*
X116871401Y-98418495D01*
X117038495Y-98251401D01*
X117174035Y-98057830D01*
X117273903Y-97843663D01*
X117335063Y-97615408D01*
X117355659Y-97380000D01*
X117344285Y-97250000D01*
X118894815Y-97250000D01*
X118913503Y-97427805D01*
X118913504Y-97427807D01*
X118968747Y-97597829D01*
X118968750Y-97597835D01*
X119058141Y-97752665D01*
X119077834Y-97774536D01*
X119177764Y-97885521D01*
X119177767Y-97885523D01*
X119177770Y-97885526D01*
X119322407Y-97990612D01*
X119485733Y-98063329D01*
X119660609Y-98100500D01*
X119660610Y-98100500D01*
X119839389Y-98100500D01*
X119839391Y-98100500D01*
X120014267Y-98063329D01*
X120177593Y-97990612D01*
X120322230Y-97885526D01*
X120334948Y-97871402D01*
X120352269Y-97852164D01*
X120441859Y-97752665D01*
X120531250Y-97597835D01*
X120555191Y-97524152D01*
X122637050Y-97524152D01*
X122649345Y-97597829D01*
X122676274Y-97759208D01*
X122753648Y-97984589D01*
X122753654Y-97984603D01*
X122867069Y-98194176D01*
X122867076Y-98194187D01*
X123013433Y-98382227D01*
X123013436Y-98382230D01*
X123013440Y-98382235D01*
X123188766Y-98543633D01*
X123388266Y-98673973D01*
X123606498Y-98769699D01*
X123837510Y-98828199D01*
X124015528Y-98842950D01*
X124015530Y-98842950D01*
X124134470Y-98842950D01*
X124134472Y-98842950D01*
X124312490Y-98828199D01*
X124543502Y-98769699D01*
X124761734Y-98673973D01*
X124959222Y-98544947D01*
X124961334Y-98544309D01*
X124967696Y-98537683D01*
X125136560Y-98382235D01*
X125220959Y-98273799D01*
X125282923Y-98194187D01*
X125282924Y-98194185D01*
X125282929Y-98194179D01*
X125396349Y-97984597D01*
X125473726Y-97759206D01*
X125512950Y-97524152D01*
X127717050Y-97524152D01*
X127729345Y-97597829D01*
X127756274Y-97759208D01*
X127833648Y-97984589D01*
X127833654Y-97984603D01*
X127947069Y-98194176D01*
X127947076Y-98194187D01*
X128093433Y-98382227D01*
X128093436Y-98382230D01*
X128093440Y-98382235D01*
X128268766Y-98543633D01*
X128468266Y-98673973D01*
X128686498Y-98769699D01*
X128917510Y-98828199D01*
X129095528Y-98842950D01*
X129095530Y-98842950D01*
X129214470Y-98842950D01*
X129214472Y-98842950D01*
X129392490Y-98828199D01*
X129623502Y-98769699D01*
X129841734Y-98673973D01*
X130041234Y-98543633D01*
X130216560Y-98382235D01*
X130300959Y-98273799D01*
X130362923Y-98194187D01*
X130362930Y-98194177D01*
X130376866Y-98168425D01*
X130442532Y-98047084D01*
X130491750Y-97997495D01*
X130559967Y-97982387D01*
X130624471Y-98005785D01*
X130672402Y-98040609D01*
X130672404Y-98040610D01*
X130672407Y-98040612D01*
X130835733Y-98113329D01*
X131010609Y-98150500D01*
X131010610Y-98150500D01*
X131189389Y-98150500D01*
X131189391Y-98150500D01*
X131364267Y-98113329D01*
X131527593Y-98040612D01*
X131672230Y-97935526D01*
X131683519Y-97922989D01*
X131717253Y-97885523D01*
X131791859Y-97802665D01*
X131881250Y-97647835D01*
X131936497Y-97477803D01*
X131955185Y-97300000D01*
X131936497Y-97122197D01*
X131881250Y-96952165D01*
X131808060Y-96825396D01*
X131791860Y-96797336D01*
X131791855Y-96797329D01*
X131732350Y-96731242D01*
X131702120Y-96668250D01*
X131700500Y-96648270D01*
X131700500Y-96051728D01*
X131720185Y-95984689D01*
X131732350Y-95968756D01*
X131738879Y-95961505D01*
X131791859Y-95902665D01*
X131881250Y-95747835D01*
X131936497Y-95577803D01*
X131955185Y-95400000D01*
X131936497Y-95222197D01*
X131881250Y-95052165D01*
X131791859Y-94897335D01*
X131739908Y-94839638D01*
X131672235Y-94764478D01*
X131672232Y-94764476D01*
X131672231Y-94764475D01*
X131672230Y-94764474D01*
X131527593Y-94659388D01*
X131364267Y-94586671D01*
X131364265Y-94586670D01*
X131236594Y-94559533D01*
X131189391Y-94549500D01*
X131010609Y-94549500D01*
X130979954Y-94556015D01*
X130835733Y-94586670D01*
X130835732Y-94586670D01*
X130741355Y-94628690D01*
X130672105Y-94637974D01*
X130608828Y-94608345D01*
X130571616Y-94549210D01*
X130568611Y-94495004D01*
X130592950Y-94349152D01*
X130592950Y-94110848D01*
X130590784Y-94097870D01*
X133449500Y-94097870D01*
X133449501Y-94097876D01*
X133455908Y-94157483D01*
X133506202Y-94292328D01*
X133506206Y-94292335D01*
X133592452Y-94407544D01*
X133592455Y-94407547D01*
X133707664Y-94493793D01*
X133707671Y-94493797D01*
X133842517Y-94544091D01*
X133842516Y-94544091D01*
X133849444Y-94544835D01*
X133902127Y-94550500D01*
X138097872Y-94550499D01*
X138157483Y-94544091D01*
X138292331Y-94493796D01*
X138407546Y-94407546D01*
X138493796Y-94292331D01*
X138544091Y-94157483D01*
X138550500Y-94097873D01*
X138550499Y-89902128D01*
X138544091Y-89842517D01*
X138509584Y-89750000D01*
X138493797Y-89707671D01*
X138493793Y-89707664D01*
X138407547Y-89592455D01*
X138407544Y-89592452D01*
X138292335Y-89506206D01*
X138292328Y-89506202D01*
X138157482Y-89455908D01*
X138157483Y-89455908D01*
X138097883Y-89449501D01*
X138097881Y-89449500D01*
X138097873Y-89449500D01*
X138097864Y-89449500D01*
X133902129Y-89449500D01*
X133902123Y-89449501D01*
X133842516Y-89455908D01*
X133707671Y-89506202D01*
X133707664Y-89506206D01*
X133592455Y-89592452D01*
X133592452Y-89592455D01*
X133506206Y-89707664D01*
X133506202Y-89707671D01*
X133455908Y-89842517D01*
X133451038Y-89887819D01*
X133449501Y-89902123D01*
X133449500Y-89902135D01*
X133449500Y-94097870D01*
X130590784Y-94097870D01*
X130553726Y-93875794D01*
X130476349Y-93650403D01*
X130362929Y-93440821D01*
X130362927Y-93440819D01*
X130362923Y-93440812D01*
X130216566Y-93252772D01*
X130216563Y-93252769D01*
X130216560Y-93252765D01*
X130041234Y-93091367D01*
X130041231Y-93091365D01*
X130041230Y-93091364D01*
X129964090Y-93040966D01*
X129841734Y-92961027D01*
X129841731Y-92961025D01*
X129841730Y-92961025D01*
X129623502Y-92865301D01*
X129392486Y-92806800D01*
X129249832Y-92794980D01*
X129214472Y-92792050D01*
X129095528Y-92792050D01*
X129063362Y-92794715D01*
X128917513Y-92806800D01*
X128686497Y-92865301D01*
X128468269Y-92961025D01*
X128268769Y-93091364D01*
X128093443Y-93252762D01*
X128093433Y-93252772D01*
X127947076Y-93440812D01*
X127947069Y-93440823D01*
X127833654Y-93650396D01*
X127833648Y-93650410D01*
X127756274Y-93875791D01*
X127733103Y-94014646D01*
X127717050Y-94110848D01*
X127717050Y-94349152D01*
X127735547Y-94459999D01*
X127756274Y-94584208D01*
X127833648Y-94809589D01*
X127833654Y-94809603D01*
X127947069Y-95019176D01*
X127947076Y-95019187D01*
X128093433Y-95207227D01*
X128093436Y-95207230D01*
X128093440Y-95207235D01*
X128268766Y-95368633D01*
X128468266Y-95498973D01*
X128686498Y-95594699D01*
X128917510Y-95653199D01*
X129095528Y-95667950D01*
X129095530Y-95667950D01*
X129214470Y-95667950D01*
X129214472Y-95667950D01*
X129392490Y-95653199D01*
X129623502Y-95594699D01*
X129841734Y-95498973D01*
X130041234Y-95368633D01*
X130042327Y-95367626D01*
X130042875Y-95367355D01*
X130045272Y-95365490D01*
X130045655Y-95365983D01*
X130104973Y-95336699D01*
X130174400Y-95344550D01*
X130228561Y-95388690D01*
X130249638Y-95445886D01*
X130263503Y-95577804D01*
X130263504Y-95577807D01*
X130318747Y-95747829D01*
X130318750Y-95747835D01*
X130408141Y-95902665D01*
X130461121Y-95961505D01*
X130467650Y-95968756D01*
X130497880Y-96031747D01*
X130499500Y-96051728D01*
X130499500Y-96430087D01*
X130479815Y-96497126D01*
X130427011Y-96542881D01*
X130357853Y-96552825D01*
X130294297Y-96523800D01*
X130277647Y-96506250D01*
X130274384Y-96502057D01*
X130216560Y-96427765D01*
X130041234Y-96266367D01*
X130041231Y-96266365D01*
X130041230Y-96266364D01*
X129905683Y-96177807D01*
X129841734Y-96136027D01*
X129841731Y-96136025D01*
X129841730Y-96136025D01*
X129623502Y-96040301D01*
X129392486Y-95981800D01*
X129235060Y-95968756D01*
X129214472Y-95967050D01*
X129095528Y-95967050D01*
X129074940Y-95968756D01*
X128917513Y-95981800D01*
X128686497Y-96040301D01*
X128468269Y-96136025D01*
X128268769Y-96266364D01*
X128093443Y-96427762D01*
X128093433Y-96427772D01*
X127947076Y-96615812D01*
X127947069Y-96615823D01*
X127833654Y-96825396D01*
X127833648Y-96825410D01*
X127756274Y-97050791D01*
X127740621Y-97144596D01*
X127717050Y-97285848D01*
X127717050Y-97524152D01*
X125512950Y-97524152D01*
X125512950Y-97285848D01*
X125473726Y-97050794D01*
X125396349Y-96825403D01*
X125282929Y-96615821D01*
X125282927Y-96615819D01*
X125282923Y-96615812D01*
X125136566Y-96427772D01*
X125136563Y-96427769D01*
X125136560Y-96427765D01*
X124961234Y-96266367D01*
X124961231Y-96266365D01*
X124961230Y-96266364D01*
X124825683Y-96177807D01*
X124761734Y-96136027D01*
X124761731Y-96136025D01*
X124761730Y-96136025D01*
X124543502Y-96040301D01*
X124312486Y-95981800D01*
X124155060Y-95968756D01*
X124134472Y-95967050D01*
X124015528Y-95967050D01*
X123994940Y-95968756D01*
X123837513Y-95981800D01*
X123606497Y-96040301D01*
X123388269Y-96136025D01*
X123188769Y-96266364D01*
X123013443Y-96427762D01*
X123013433Y-96427772D01*
X122867076Y-96615812D01*
X122867069Y-96615823D01*
X122753654Y-96825396D01*
X122753648Y-96825410D01*
X122676274Y-97050791D01*
X122660621Y-97144596D01*
X122637050Y-97285848D01*
X122637050Y-97524152D01*
X120555191Y-97524152D01*
X120586497Y-97427803D01*
X120605185Y-97250000D01*
X120586497Y-97072197D01*
X120531250Y-96902165D01*
X120441859Y-96747335D01*
X120382880Y-96681832D01*
X120322235Y-96614478D01*
X120322232Y-96614476D01*
X120322231Y-96614475D01*
X120322230Y-96614474D01*
X120177593Y-96509388D01*
X120014267Y-96436671D01*
X120014265Y-96436670D01*
X119886594Y-96409533D01*
X119839391Y-96399500D01*
X119660609Y-96399500D01*
X119629954Y-96406015D01*
X119485733Y-96436670D01*
X119485728Y-96436672D01*
X119322408Y-96509387D01*
X119177768Y-96614475D01*
X119058140Y-96747336D01*
X118968750Y-96902164D01*
X118968747Y-96902170D01*
X118913504Y-97072192D01*
X118913503Y-97072194D01*
X118894815Y-97250000D01*
X117344285Y-97250000D01*
X117335063Y-97144592D01*
X117273903Y-96916337D01*
X117174035Y-96702171D01*
X117163182Y-96686670D01*
X117038494Y-96508597D01*
X116871402Y-96341506D01*
X116871396Y-96341501D01*
X116685842Y-96211575D01*
X116642217Y-96156998D01*
X116635023Y-96087500D01*
X116666546Y-96025145D01*
X116685842Y-96008425D01*
X116752849Y-95961506D01*
X116871401Y-95878495D01*
X117038495Y-95711401D01*
X117174035Y-95517830D01*
X117273903Y-95303663D01*
X117288282Y-95250000D01*
X118894815Y-95250000D01*
X118913503Y-95427805D01*
X118913504Y-95427807D01*
X118968747Y-95597829D01*
X118968750Y-95597835D01*
X119058141Y-95752665D01*
X119068776Y-95764476D01*
X119177764Y-95885521D01*
X119177767Y-95885523D01*
X119177770Y-95885526D01*
X119322407Y-95990612D01*
X119485733Y-96063329D01*
X119660609Y-96100500D01*
X119660610Y-96100500D01*
X119839389Y-96100500D01*
X119839391Y-96100500D01*
X120014267Y-96063329D01*
X120177593Y-95990612D01*
X120322230Y-95885526D01*
X120441859Y-95752665D01*
X120531250Y-95597835D01*
X120586497Y-95427803D01*
X120605185Y-95250000D01*
X120586497Y-95072197D01*
X120550249Y-94960637D01*
X120531252Y-94902170D01*
X120531249Y-94902164D01*
X120530582Y-94901008D01*
X120441859Y-94747335D01*
X120379783Y-94678393D01*
X120322235Y-94614478D01*
X120322232Y-94614476D01*
X120322231Y-94614475D01*
X120322230Y-94614474D01*
X120177593Y-94509388D01*
X120014267Y-94436671D01*
X120014265Y-94436670D01*
X119877235Y-94407544D01*
X119839391Y-94399500D01*
X119660609Y-94399500D01*
X119629954Y-94406015D01*
X119485733Y-94436670D01*
X119485728Y-94436672D01*
X119322408Y-94509387D01*
X119177768Y-94614475D01*
X119058140Y-94747336D01*
X118968750Y-94902164D01*
X118968747Y-94902170D01*
X118913504Y-95072192D01*
X118913503Y-95072194D01*
X118894815Y-95250000D01*
X117288282Y-95250000D01*
X117335063Y-95075408D01*
X117355659Y-94840000D01*
X117335063Y-94604592D01*
X117282265Y-94407544D01*
X117273905Y-94376344D01*
X117273904Y-94376343D01*
X117273903Y-94376337D01*
X117261226Y-94349152D01*
X122637050Y-94349152D01*
X122655547Y-94459999D01*
X122676274Y-94584208D01*
X122753648Y-94809589D01*
X122753654Y-94809603D01*
X122867069Y-95019176D01*
X122867076Y-95019187D01*
X123013433Y-95207227D01*
X123013436Y-95207230D01*
X123013440Y-95207235D01*
X123188766Y-95368633D01*
X123388266Y-95498973D01*
X123606498Y-95594699D01*
X123837510Y-95653199D01*
X124015528Y-95667950D01*
X124015530Y-95667950D01*
X124134470Y-95667950D01*
X124134472Y-95667950D01*
X124312490Y-95653199D01*
X124543502Y-95594699D01*
X124761734Y-95498973D01*
X124961234Y-95368633D01*
X125136560Y-95207235D01*
X125239161Y-95075413D01*
X125282923Y-95019187D01*
X125282924Y-95019185D01*
X125282929Y-95019179D01*
X125396349Y-94809597D01*
X125473726Y-94584206D01*
X125512950Y-94349152D01*
X125512950Y-94273659D01*
X125865393Y-94273659D01*
X125887582Y-94399500D01*
X125895668Y-94445354D01*
X125964721Y-94605438D01*
X125964722Y-94605440D01*
X125964724Y-94605443D01*
X126031701Y-94695408D01*
X126068832Y-94745283D01*
X126202386Y-94857349D01*
X126358185Y-94935594D01*
X126527829Y-94975800D01*
X126527831Y-94975800D01*
X126658429Y-94975800D01*
X126658436Y-94975800D01*
X126788164Y-94960637D01*
X126951993Y-94901008D01*
X127097654Y-94805205D01*
X127217296Y-94678393D01*
X127304467Y-94527407D01*
X127354469Y-94360388D01*
X127364607Y-94186340D01*
X127334332Y-94014646D01*
X127265279Y-93854562D01*
X127225779Y-93801505D01*
X127161167Y-93714716D01*
X127027614Y-93602651D01*
X127027612Y-93602650D01*
X126871818Y-93524407D01*
X126871816Y-93524406D01*
X126871815Y-93524406D01*
X126702171Y-93484200D01*
X126571564Y-93484200D01*
X126458052Y-93497467D01*
X126441835Y-93499363D01*
X126441832Y-93499364D01*
X126278008Y-93558991D01*
X126278004Y-93558993D01*
X126132348Y-93654792D01*
X126132347Y-93654793D01*
X126012706Y-93781603D01*
X126012704Y-93781607D01*
X126001218Y-93801501D01*
X125925534Y-93932590D01*
X125875531Y-94099610D01*
X125875530Y-94099616D01*
X125865393Y-94273659D01*
X125512950Y-94273659D01*
X125512950Y-94110848D01*
X125473726Y-93875794D01*
X125396349Y-93650403D01*
X125282929Y-93440821D01*
X125282927Y-93440819D01*
X125282923Y-93440812D01*
X125136566Y-93252772D01*
X125136563Y-93252769D01*
X125136560Y-93252765D01*
X124961234Y-93091367D01*
X124961231Y-93091365D01*
X124961230Y-93091364D01*
X124884090Y-93040966D01*
X124761734Y-92961027D01*
X124761731Y-92961025D01*
X124761730Y-92961025D01*
X124543502Y-92865301D01*
X124312486Y-92806800D01*
X124169832Y-92794980D01*
X124134472Y-92792050D01*
X124015528Y-92792050D01*
X123983362Y-92794715D01*
X123837513Y-92806800D01*
X123606497Y-92865301D01*
X123388269Y-92961025D01*
X123188769Y-93091364D01*
X123013443Y-93252762D01*
X123013433Y-93252772D01*
X122867076Y-93440812D01*
X122867069Y-93440823D01*
X122753654Y-93650396D01*
X122753648Y-93650410D01*
X122676274Y-93875791D01*
X122653103Y-94014646D01*
X122637050Y-94110848D01*
X122637050Y-94349152D01*
X117261226Y-94349152D01*
X117174035Y-94162171D01*
X117170753Y-94157483D01*
X117038494Y-93968597D01*
X116871402Y-93801506D01*
X116871396Y-93801501D01*
X116685842Y-93671575D01*
X116642217Y-93616998D01*
X116635023Y-93547500D01*
X116666546Y-93485145D01*
X116685842Y-93468425D01*
X116752849Y-93421506D01*
X116871401Y-93338495D01*
X117038495Y-93171401D01*
X117174035Y-92977830D01*
X117273903Y-92763663D01*
X117335063Y-92535408D01*
X117355659Y-92300000D01*
X117335063Y-92064592D01*
X117273903Y-91836337D01*
X117174035Y-91622171D01*
X117097824Y-91513329D01*
X117038494Y-91428597D01*
X116871402Y-91261506D01*
X116871395Y-91261501D01*
X116677834Y-91125967D01*
X116677830Y-91125965D01*
X116617492Y-91097829D01*
X116463663Y-91026097D01*
X116463659Y-91026096D01*
X116463655Y-91026094D01*
X116235413Y-90964938D01*
X116235403Y-90964936D01*
X116000001Y-90944341D01*
X115999999Y-90944341D01*
X115764596Y-90964936D01*
X115764586Y-90964938D01*
X115536344Y-91026094D01*
X115536335Y-91026098D01*
X115322171Y-91125964D01*
X115322169Y-91125965D01*
X115128597Y-91261505D01*
X114961505Y-91428597D01*
X114825965Y-91622169D01*
X114825964Y-91622171D01*
X114726098Y-91836335D01*
X114726094Y-91836344D01*
X114664938Y-92064586D01*
X114664936Y-92064596D01*
X114644341Y-92299999D01*
X114644341Y-92300000D01*
X114664936Y-92535403D01*
X114664938Y-92535413D01*
X114726094Y-92763655D01*
X114726096Y-92763659D01*
X114726097Y-92763663D01*
X114746213Y-92806801D01*
X114825965Y-92977830D01*
X114825967Y-92977834D01*
X114915112Y-93105145D01*
X114958773Y-93167500D01*
X114961501Y-93171395D01*
X114961506Y-93171402D01*
X115128597Y-93338493D01*
X115128603Y-93338498D01*
X115314158Y-93468425D01*
X115357783Y-93523002D01*
X115364977Y-93592500D01*
X115333454Y-93654855D01*
X115314158Y-93671575D01*
X115128597Y-93801505D01*
X114961505Y-93968597D01*
X114825965Y-94162169D01*
X114825964Y-94162171D01*
X114726098Y-94376335D01*
X114726094Y-94376344D01*
X114664938Y-94604586D01*
X114664936Y-94604596D01*
X114644341Y-94839999D01*
X114644341Y-94840000D01*
X114664936Y-95075403D01*
X114664938Y-95075413D01*
X114726094Y-95303655D01*
X114726096Y-95303659D01*
X114726097Y-95303663D01*
X114816948Y-95498493D01*
X114825965Y-95517830D01*
X114825967Y-95517834D01*
X114910711Y-95638860D01*
X114958773Y-95707500D01*
X114961501Y-95711395D01*
X114961506Y-95711402D01*
X115128597Y-95878493D01*
X115128603Y-95878498D01*
X115314158Y-96008425D01*
X115357783Y-96063002D01*
X115364977Y-96132500D01*
X115333454Y-96194855D01*
X115314158Y-96211575D01*
X115128597Y-96341505D01*
X114961505Y-96508597D01*
X114825965Y-96702169D01*
X114825964Y-96702171D01*
X114726098Y-96916335D01*
X114726094Y-96916344D01*
X114664938Y-97144586D01*
X114664936Y-97144596D01*
X114644341Y-97379999D01*
X114644341Y-97380000D01*
X114664936Y-97615403D01*
X114664938Y-97615413D01*
X114726094Y-97843655D01*
X114726096Y-97843659D01*
X114726097Y-97843663D01*
X114797756Y-97997335D01*
X114825965Y-98057830D01*
X114825967Y-98057834D01*
X114928754Y-98204628D01*
X114958773Y-98247500D01*
X114961501Y-98251395D01*
X114961506Y-98251402D01*
X115128597Y-98418493D01*
X115128603Y-98418498D01*
X115314158Y-98548425D01*
X115357783Y-98603002D01*
X115364977Y-98672500D01*
X115333454Y-98734855D01*
X115314158Y-98751575D01*
X115128597Y-98881505D01*
X114961505Y-99048597D01*
X114825965Y-99242169D01*
X114825964Y-99242171D01*
X114726098Y-99456335D01*
X114726094Y-99456344D01*
X114664938Y-99684586D01*
X114664936Y-99684596D01*
X114644341Y-99919999D01*
X114644341Y-99920000D01*
X114664936Y-100155403D01*
X114664938Y-100155413D01*
X114726094Y-100383655D01*
X114726096Y-100383659D01*
X114726097Y-100383663D01*
X114781588Y-100502663D01*
X114825965Y-100597830D01*
X114825967Y-100597834D01*
X114915112Y-100725145D01*
X114958773Y-100787500D01*
X114961501Y-100791395D01*
X114961506Y-100791402D01*
X115128597Y-100958493D01*
X115128603Y-100958498D01*
X115314158Y-101088425D01*
X115357783Y-101143002D01*
X115364977Y-101212500D01*
X115333454Y-101274855D01*
X115314158Y-101291575D01*
X115128597Y-101421505D01*
X114961505Y-101588597D01*
X114825965Y-101782169D01*
X114825964Y-101782171D01*
X114726098Y-101996335D01*
X114726094Y-101996344D01*
X114664938Y-102224586D01*
X114664936Y-102224596D01*
X114644341Y-102459999D01*
X114644341Y-102460000D01*
X112100500Y-102460000D01*
X112100500Y-84124000D01*
X112120185Y-84056961D01*
X112172989Y-84011206D01*
X112224500Y-84000000D01*
X114526000Y-84000000D01*
X114593039Y-84019685D01*
G37*
%TD.AperFunction*%
%TD*%
M02*
