%TF.GenerationSoftware,KiCad,Pcbnew,7.0.9+1*%
%TF.CreationDate,2024-01-05T17:55:25+01:00*%
%TF.ProjectId,sensor,73656e73-6f72-42e6-9b69-6361645f7063,rev?*%
%TF.SameCoordinates,Original*%
%TF.FileFunction,Soldermask,Top*%
%TF.FilePolarity,Negative*%
%FSLAX46Y46*%
G04 Gerber Fmt 4.6, Leading zero omitted, Abs format (unit mm)*
G04 Created by KiCad (PCBNEW 7.0.9+1) date 2024-01-05 17:55:25*
%MOMM*%
%LPD*%
G01*
G04 APERTURE LIST*
G04 Aperture macros list*
%AMRoundRect*
0 Rectangle with rounded corners*
0 $1 Rounding radius*
0 $2 $3 $4 $5 $6 $7 $8 $9 X,Y pos of 4 corners*
0 Add a 4 corners polygon primitive as box body*
4,1,4,$2,$3,$4,$5,$6,$7,$8,$9,$2,$3,0*
0 Add four circle primitives for the rounded corners*
1,1,$1+$1,$2,$3*
1,1,$1+$1,$4,$5*
1,1,$1+$1,$6,$7*
1,1,$1+$1,$8,$9*
0 Add four rect primitives between the rounded corners*
20,1,$1+$1,$2,$3,$4,$5,0*
20,1,$1+$1,$4,$5,$6,$7,0*
20,1,$1+$1,$6,$7,$8,$9,0*
20,1,$1+$1,$8,$9,$2,$3,0*%
%AMFreePoly0*
4,1,19,0.550000,-0.750000,0.000000,-0.750000,0.000000,-0.744911,-0.071157,-0.744911,-0.207708,-0.704816,-0.327430,-0.627875,-0.420627,-0.520320,-0.479746,-0.390866,-0.500000,-0.250000,-0.500000,0.250000,-0.479746,0.390866,-0.420627,0.520320,-0.327430,0.627875,-0.207708,0.704816,-0.071157,0.744911,0.000000,0.744911,0.000000,0.750000,0.550000,0.750000,0.550000,-0.750000,0.550000,-0.750000,
$1*%
%AMFreePoly1*
4,1,19,0.000000,0.744911,0.071157,0.744911,0.207708,0.704816,0.327430,0.627875,0.420627,0.520320,0.479746,0.390866,0.500000,0.250000,0.500000,-0.250000,0.479746,-0.390866,0.420627,-0.520320,0.327430,-0.627875,0.207708,-0.704816,0.071157,-0.744911,0.000000,-0.744911,0.000000,-0.750000,-0.550000,-0.750000,-0.550000,0.750000,0.000000,0.750000,0.000000,0.744911,0.000000,0.744911,
$1*%
G04 Aperture macros list end*
%ADD10RoundRect,0.250000X0.350000X0.450000X-0.350000X0.450000X-0.350000X-0.450000X0.350000X-0.450000X0*%
%ADD11RoundRect,0.250000X0.450000X-0.325000X0.450000X0.325000X-0.450000X0.325000X-0.450000X-0.325000X0*%
%ADD12C,0.990600*%
%ADD13C,2.374900*%
%ADD14C,0.787400*%
%ADD15RoundRect,0.100000X-0.100000X0.712500X-0.100000X-0.712500X0.100000X-0.712500X0.100000X0.712500X0*%
%ADD16RoundRect,0.160000X0.044194X0.270468X-0.270468X-0.044194X-0.044194X-0.270468X0.270468X0.044194X0*%
%ADD17RoundRect,0.155000X0.212500X0.155000X-0.212500X0.155000X-0.212500X-0.155000X0.212500X-0.155000X0*%
%ADD18RoundRect,0.020000X0.480000X-1.180000X0.480000X1.180000X-0.480000X1.180000X-0.480000X-1.180000X0*%
%ADD19RoundRect,0.050000X-0.050000X0.350000X-0.050000X-0.350000X0.050000X-0.350000X0.050000X0.350000X0*%
%ADD20RoundRect,0.050000X-0.350000X0.050000X-0.350000X-0.050000X0.350000X-0.050000X0.350000X0.050000X0*%
%ADD21R,4.600000X4.600000*%
%ADD22RoundRect,0.155000X-0.212500X-0.155000X0.212500X-0.155000X0.212500X0.155000X-0.212500X0.155000X0*%
%ADD23RoundRect,0.200100X0.949900X0.949900X-0.949900X0.949900X-0.949900X-0.949900X0.949900X-0.949900X0*%
%ADD24C,2.500000*%
%ADD25RoundRect,0.155000X-0.155000X0.212500X-0.155000X-0.212500X0.155000X-0.212500X0.155000X0.212500X0*%
%ADD26RoundRect,0.250000X0.475000X-0.337500X0.475000X0.337500X-0.475000X0.337500X-0.475000X-0.337500X0*%
%ADD27RoundRect,0.250000X-0.350000X-0.450000X0.350000X-0.450000X0.350000X0.450000X-0.350000X0.450000X0*%
%ADD28FreePoly0,90.000000*%
%ADD29R,1.500000X1.000000*%
%ADD30FreePoly1,90.000000*%
%ADD31R,1.700000X1.700000*%
%ADD32O,1.700000X1.700000*%
%ADD33RoundRect,0.250000X-0.450000X0.350000X-0.450000X-0.350000X0.450000X-0.350000X0.450000X0.350000X0*%
%ADD34RoundRect,0.250000X-0.475000X0.337500X-0.475000X-0.337500X0.475000X-0.337500X0.475000X0.337500X0*%
%ADD35RoundRect,0.155000X0.155000X-0.212500X0.155000X0.212500X-0.155000X0.212500X-0.155000X-0.212500X0*%
%ADD36RoundRect,0.020000X1.180000X0.480000X-1.180000X0.480000X-1.180000X-0.480000X1.180000X-0.480000X0*%
%ADD37RoundRect,0.237500X0.287500X0.237500X-0.287500X0.237500X-0.287500X-0.237500X0.287500X-0.237500X0*%
%ADD38RoundRect,0.237500X-0.300000X-0.237500X0.300000X-0.237500X0.300000X0.237500X-0.300000X0.237500X0*%
%ADD39RoundRect,0.160000X0.160000X-0.222500X0.160000X0.222500X-0.160000X0.222500X-0.160000X-0.222500X0*%
%ADD40R,1.000000X2.750000*%
%ADD41RoundRect,0.250000X0.337500X0.475000X-0.337500X0.475000X-0.337500X-0.475000X0.337500X-0.475000X0*%
%ADD42RoundRect,0.020000X-1.180000X-0.480000X1.180000X-0.480000X1.180000X0.480000X-1.180000X0.480000X0*%
%ADD43RoundRect,0.237500X-0.044194X-0.380070X0.380070X0.044194X0.044194X0.380070X-0.380070X-0.044194X0*%
%ADD44RoundRect,0.250000X0.450000X-0.350000X0.450000X0.350000X-0.450000X0.350000X-0.450000X-0.350000X0*%
%ADD45R,0.650000X0.400000*%
%ADD46R,0.800000X0.900000*%
%ADD47R,1.000000X1.800000*%
G04 APERTURE END LIST*
D10*
%TO.C,R603*%
X141250000Y-108000000D03*
X139250000Y-108000000D03*
%TD*%
%TO.C,R602*%
X141250000Y-106000000D03*
X139250000Y-106000000D03*
%TD*%
D11*
%TO.C,D602*%
X144500000Y-107525000D03*
X144500000Y-105475000D03*
%TD*%
%TO.C,D601*%
X146750000Y-107525000D03*
X146750000Y-105475000D03*
%TD*%
D12*
%TO.C,J601*%
X125599000Y-99310000D03*
D13*
X129155000Y-97405000D03*
X124075000Y-97405000D03*
D12*
X127631000Y-99310000D03*
X126615000Y-94230000D03*
D13*
X129155000Y-94230000D03*
X124075000Y-94230000D03*
D14*
X125980000Y-95500000D03*
X127250000Y-95500000D03*
X125980000Y-96770000D03*
X127250000Y-96770000D03*
X125980000Y-98040000D03*
X127250000Y-98040000D03*
%TD*%
D15*
%TO.C,U301*%
X124625000Y-69387500D03*
X123975000Y-69387500D03*
X123325000Y-69387500D03*
X122675000Y-69387500D03*
X122675000Y-73612500D03*
X123325000Y-73612500D03*
X123975000Y-73612500D03*
X124625000Y-73612500D03*
%TD*%
D16*
%TO.C,L602*%
X144904819Y-89190362D03*
X144095181Y-90000000D03*
%TD*%
D17*
%TO.C,C606*%
X142250000Y-101250000D03*
X141115000Y-101250000D03*
%TD*%
D18*
%TO.C,J403*%
X148750000Y-66000000D03*
%TD*%
D19*
%TO.C,U601*%
X138200000Y-89050000D03*
X137800000Y-89050000D03*
X137400000Y-89050000D03*
X137000000Y-89050000D03*
X136600000Y-89050000D03*
X136200000Y-89050000D03*
X135800000Y-89050000D03*
X135400000Y-89050000D03*
X135000000Y-89050000D03*
X134600000Y-89050000D03*
X134200000Y-89050000D03*
X133800000Y-89050000D03*
D20*
X133050000Y-89800000D03*
X133050000Y-90200000D03*
X133050000Y-90600000D03*
X133050000Y-91000000D03*
X133050000Y-91400000D03*
X133050000Y-91800000D03*
X133050000Y-92200000D03*
X133050000Y-92600000D03*
X133050000Y-93000000D03*
X133050000Y-93400000D03*
X133050000Y-93800000D03*
X133050000Y-94200000D03*
D19*
X133800000Y-94950000D03*
X134200000Y-94950000D03*
X134600000Y-94950000D03*
X135000000Y-94950000D03*
X135400000Y-94950000D03*
X135800000Y-94950000D03*
X136200000Y-94950000D03*
X136600000Y-94950000D03*
X137000000Y-94950000D03*
X137400000Y-94950000D03*
X137800000Y-94950000D03*
X138200000Y-94950000D03*
D20*
X138950000Y-94200000D03*
X138950000Y-93800000D03*
X138950000Y-93400000D03*
X138950000Y-93000000D03*
X138950000Y-92600000D03*
X138950000Y-92200000D03*
X138950000Y-91800000D03*
X138950000Y-91400000D03*
X138950000Y-91000000D03*
X138950000Y-90600000D03*
X138950000Y-90200000D03*
X138950000Y-89800000D03*
D21*
X136000000Y-92000000D03*
%TD*%
D18*
%TO.C,J203*%
X141250000Y-103250000D03*
%TD*%
D22*
%TO.C,C602*%
X140732500Y-88300000D03*
X141867500Y-88300000D03*
%TD*%
D23*
%TO.C,J101*%
X132000000Y-105500000D03*
D24*
X134540000Y-108040000D03*
X134540000Y-102960000D03*
X129460000Y-108040000D03*
X129460000Y-102960000D03*
%TD*%
D25*
%TO.C,C608*%
X137900000Y-97532500D03*
X137900000Y-98667500D03*
%TD*%
D26*
%TO.C,C301*%
X121000000Y-63787500D03*
X121000000Y-61712500D03*
%TD*%
%TO.C,C304*%
X131000000Y-63750000D03*
X131000000Y-61675000D03*
%TD*%
D27*
%TO.C,R601*%
X127000000Y-91300000D03*
X129000000Y-91300000D03*
%TD*%
D28*
%TO.C,JP501*%
X145000000Y-78550000D03*
D29*
X145000000Y-77250000D03*
D30*
X145000000Y-75950000D03*
%TD*%
D18*
%TO.C,J207*%
X119500000Y-82500000D03*
%TD*%
D25*
%TO.C,C605*%
X139000000Y-97465000D03*
X139000000Y-98600000D03*
%TD*%
D31*
%TO.C,J202*%
X116000000Y-105000000D03*
D32*
X116000000Y-102460000D03*
X116000000Y-99920000D03*
X116000000Y-97380000D03*
X116000000Y-94840000D03*
X116000000Y-92300000D03*
%TD*%
D31*
%TO.C,J201*%
X116000000Y-85000000D03*
D32*
X116000000Y-82460000D03*
X116000000Y-79920000D03*
X116000000Y-77380000D03*
%TD*%
D33*
%TO.C,R303*%
X126500000Y-61712500D03*
X126500000Y-63712500D03*
%TD*%
D34*
%TO.C,C403*%
X136000000Y-64425000D03*
X136000000Y-66500000D03*
%TD*%
D35*
%TO.C,C611*%
X138600000Y-84567500D03*
X138600000Y-83432500D03*
%TD*%
D27*
%TO.C,R501*%
X135000000Y-77000000D03*
X137000000Y-77000000D03*
%TD*%
D36*
%TO.C,J402*%
X138670000Y-68000000D03*
%TD*%
D27*
%TO.C,R304*%
X126500000Y-65962500D03*
X128500000Y-65962500D03*
%TD*%
D18*
%TO.C,J501*%
X142000000Y-77250000D03*
%TD*%
D25*
%TO.C,C613*%
X140900000Y-94932500D03*
X140900000Y-96067500D03*
%TD*%
D27*
%TO.C,R401*%
X146500000Y-72500000D03*
X148500000Y-72500000D03*
%TD*%
D36*
%TO.C,J405*%
X144670000Y-68000000D03*
%TD*%
D15*
%TO.C,U302*%
X132225000Y-69350000D03*
X131575000Y-69350000D03*
X130925000Y-69350000D03*
X130275000Y-69350000D03*
X130275000Y-73575000D03*
X130925000Y-73575000D03*
X131575000Y-73575000D03*
X132225000Y-73575000D03*
%TD*%
D37*
%TO.C,L603*%
X142375000Y-90000000D03*
X140625000Y-90000000D03*
%TD*%
D18*
%TO.C,J208*%
X119500000Y-79500000D03*
%TD*%
D38*
%TO.C,C601*%
X140737500Y-87000000D03*
X142462500Y-87000000D03*
%TD*%
D39*
%TO.C,L601*%
X135500000Y-99572500D03*
X135500000Y-98427500D03*
%TD*%
D40*
%TO.C,SW601*%
X124700000Y-87775000D03*
X124700000Y-82025000D03*
X128700000Y-87775000D03*
X128700000Y-82025000D03*
%TD*%
D36*
%TO.C,J401*%
X141670000Y-68000000D03*
%TD*%
D41*
%TO.C,C401*%
X124537500Y-76250000D03*
X122462500Y-76250000D03*
%TD*%
D31*
%TO.C,J503*%
X150000000Y-76000000D03*
%TD*%
D18*
%TO.C,J502*%
X119750000Y-102000000D03*
%TD*%
D35*
%TO.C,C604*%
X131250000Y-89317500D03*
X131250000Y-88182500D03*
%TD*%
%TO.C,C612*%
X133400000Y-84567500D03*
X133400000Y-83432500D03*
%TD*%
D42*
%TO.C,J302*%
X123300000Y-66500000D03*
%TD*%
D43*
%TO.C,C610*%
X144890120Y-91309880D03*
X146109880Y-90090120D03*
%TD*%
D44*
%TO.C,R302*%
X118750000Y-63750000D03*
X118750000Y-61750000D03*
%TD*%
D22*
%TO.C,C607*%
X141115000Y-97250000D03*
X142250000Y-97250000D03*
%TD*%
%TO.C,C603*%
X135432500Y-97200000D03*
X136567500Y-97200000D03*
%TD*%
D26*
%TO.C,C302*%
X123300000Y-63787500D03*
X123300000Y-61712500D03*
%TD*%
D34*
%TO.C,C501*%
X139250000Y-76962500D03*
X139250000Y-79037500D03*
%TD*%
D18*
%TO.C,J205*%
X119500000Y-76500000D03*
%TD*%
D45*
%TO.C,Q401*%
X144450000Y-72400000D03*
X144450000Y-71750000D03*
X144450000Y-71100000D03*
X142550000Y-71100000D03*
X142550000Y-71750000D03*
X142550000Y-72400000D03*
%TD*%
D26*
%TO.C,C303*%
X128750000Y-63750000D03*
X128750000Y-61675000D03*
%TD*%
D33*
%TO.C,R402*%
X133520000Y-64432500D03*
X133520000Y-66432500D03*
%TD*%
D42*
%TO.C,J301*%
X131000000Y-66462500D03*
%TD*%
D18*
%TO.C,J206*%
X119500000Y-85500000D03*
%TD*%
D31*
%TO.C,Q402*%
X139170000Y-64000000D03*
D32*
X141710000Y-64000000D03*
X144250000Y-64000000D03*
%TD*%
D46*
%TO.C,Y601*%
X141232500Y-98550000D03*
X141232500Y-99950000D03*
X142332500Y-99950000D03*
X142332500Y-98550000D03*
%TD*%
D35*
%TO.C,C609*%
X139200000Y-87467500D03*
X139200000Y-86332500D03*
%TD*%
D10*
%TO.C,R301*%
X120750000Y-65750000D03*
X118750000Y-65750000D03*
%TD*%
D18*
%TO.C,J204*%
X119750000Y-105500000D03*
%TD*%
D26*
%TO.C,C404*%
X134250000Y-73500000D03*
X134250000Y-71425000D03*
%TD*%
D47*
%TO.C,Y602*%
X134750000Y-84000000D03*
X137250000Y-84000000D03*
%TD*%
D31*
%TO.C,J602*%
X150000000Y-107160000D03*
D32*
X150000000Y-104620000D03*
X150000000Y-102080000D03*
X150000000Y-99540000D03*
X150000000Y-97000000D03*
X150000000Y-94460000D03*
X150000000Y-91920000D03*
X150000000Y-89380000D03*
X150000000Y-86840000D03*
X150000000Y-84300000D03*
%TD*%
D26*
%TO.C,C402*%
X126675000Y-73537500D03*
X126675000Y-71462500D03*
%TD*%
M02*
